<svg xmlns="http://www.w3.org/2000/svg" width="360" height="600" fill="none"><rect width="360" height="600" fill="#191724" rx="16"/><path fill="#F6C177" d="M146.664 151.321h-.612c-2.711 0-5.424.002-8.135 0-3.9-.004-7.04-2.578-7.783-6.396a7.617 7.617 0 0 1-.128-1.431c-.007-18.796-.006-37.592-.006-56.388 0-1.544.901-2.443 2.46-2.444 4.541-.003 9.08-.001 13.621-.001h.553c.011-.23.028-.424.028-.617.002-4.51 0-9.019.002-13.528 0-1.657.863-2.516 2.525-2.516h56.295c4.405 0 7.826 3.43 7.828 7.841v8.794c.205.009.384.024.564.024 2.851.005 5.702-.035 8.552.023a7.67 7.67 0 0 1 7.547 7.64c.035 5.997.032 11.994.001 17.99-.021 4.268-3.497 7.663-7.771 7.666-2.774.002-5.547 0-8.321 0h-.572v8.892a7.726 7.726 0 0 1-7.756 7.769c-5.92.008-11.839.007-17.757 0-4.379-.006-7.791-3.442-7.792-7.83v-8.83h24.756a8.502 8.502 0 0 0 8.441-7.241c.069-.457.105-.924.105-1.386.008-5.33.005-10.661.005-15.99 0-4.947-3.756-8.7-8.713-8.702-7.065-.003-14.131 0-21.198 0h-27.938c-5.06 0-8.803 3.749-8.803 8.817v49.089c0 4.982 3.784 8.757 8.778 8.758 5.563 0 11.126-.003 16.688 0 3.874.003 7.06 2.57 7.725 6.384.457 2.62.21 5.174-1.565 7.351-1.538 1.886-3.545 2.901-5.975 2.915-5.98.034-11.962.034-17.943.004-4.287-.022-7.695-3.502-7.706-7.799-.006-2.742-.001-5.485-.001-8.227v-.629l.001-.002Z"/><path fill="#FEFCFA" d="M78.916 218.88c2.261 0 4.053.565 5.376 1.696 1.344 1.131 2.016 2.656 2.016 4.576 0 1.984-.672 3.52-2.016 4.608-1.323 1.067-3.115 1.6-5.376 1.6l-.32.192H73.7V240h-3.392v-21.12h8.608Zm-.256 9.824c1.386 0 2.41-.277 3.072-.832.683-.576 1.024-1.451 1.024-2.624 0-1.152-.341-2.016-1.024-2.592-.662-.576-1.686-.864-3.072-.864H73.7v6.912h4.96Zm2.016.704L87.556 240H83.62l-5.888-9.248 2.944-1.344ZM97.93 240.32c-1.6 0-3.008-.331-4.224-.992a7.04 7.04 0 0 1-2.848-2.848c-.661-1.259-.992-2.752-.992-4.48 0-1.728.331-3.211.992-4.448.683-1.259 1.622-2.219 2.816-2.88 1.195-.661 2.55-.992 4.064-.992 1.558 0 2.88.32 3.968.96a6.428 6.428 0 0 1 2.496 2.624c.576 1.109.864 2.368.864 3.776 0 .384-.01.747-.032 1.088-.021.341-.053.64-.096.896H92.074V230.4h11.36l-1.696.512c0-1.451-.362-2.56-1.088-3.328-.725-.789-1.717-1.184-2.976-1.184-.917 0-1.717.213-2.4.64-.682.427-1.205 1.067-1.568 1.92-.362.832-.544 1.856-.544 3.072 0 1.195.192 2.208.576 3.04.384.832.928 1.461 1.632 1.888.704.427 1.536.64 2.496.64 1.067 0 1.931-.203 2.592-.608a4.299 4.299 0 0 0 1.568-1.696l2.72 1.28a6.509 6.509 0 0 1-1.568 2.016c-.64.555-1.408.981-2.304 1.28-.896.299-1.877.448-2.944.448Zm20.708-10.592c0-1.067-.298-1.888-.896-2.464-.576-.597-1.376-.896-2.4-.896-.96 0-1.781.224-2.464.672-.682.448-1.184 1.173-1.504 2.176l-2.88-1.216c.406-1.301 1.195-2.347 2.368-3.136 1.195-.789 2.731-1.184 4.608-1.184 1.28 0 2.411.213 3.392.64.982.405 1.75 1.024 2.304 1.856.576.832.864 1.899.864 3.2v7.136c0 .789.395 1.184 1.184 1.184.384 0 .758-.053 1.12-.16l-.192 2.368c-.49.235-1.109.352-1.856.352-.682 0-1.301-.117-1.856-.352a3.1 3.1 0 0 1-1.28-1.12c-.298-.512-.448-1.141-.448-1.888v-.224l.704-.032c-.192.832-.586 1.525-1.184 2.08a6.136 6.136 0 0 1-2.08 1.216 7.732 7.732 0 0 1-2.4.384c-1.002 0-1.909-.16-2.72-.48-.789-.32-1.418-.8-1.888-1.44-.448-.661-.672-1.472-.672-2.432 0-1.195.384-2.176 1.152-2.944.79-.768 1.899-1.291 3.328-1.568l6.208-1.216-.032 2.4-4.512.928c-.896.171-1.568.416-2.016.736-.448.32-.672.789-.672 1.408 0 .597.224 1.077.672 1.44.47.341 1.088.512 1.856.512.534 0 1.046-.064 1.536-.192a4.234 4.234 0 0 0 1.376-.608 2.94 2.94 0 0 0 .928-1.12c.235-.469.352-1.024.352-1.664v-4.352Zm15.115 10.592c-1.323 0-2.528-.331-3.616-.992-1.067-.661-1.909-1.611-2.528-2.848-.619-1.237-.928-2.72-.928-4.448 0-1.792.331-3.307.992-4.544.661-1.237 1.547-2.176 2.656-2.816a6.994 6.994 0 0 1 3.648-.992c1.365 0 2.517.373 3.456 1.12.939.747 1.568 1.717 1.888 2.912l-.384.352V216.8h3.424V240h-3.04l-.256-4.352.448.032c-.149.96-.501 1.792-1.056 2.496a5.73 5.73 0 0 1-2.08 1.6 6.346 6.346 0 0 1-2.624.544Zm.736-2.752c.917 0 1.707-.235 2.368-.704.661-.469 1.173-1.131 1.536-1.984s.544-1.877.544-3.072c0-1.109-.181-2.059-.544-2.848-.363-.811-.875-1.429-1.536-1.856-.64-.427-1.387-.64-2.24-.64-1.429 0-2.539.491-3.328 1.472-.789.981-1.184 2.336-1.184 4.064 0 1.728.384 3.093 1.152 4.096.768.981 1.845 1.472 3.232 1.472ZM161.72 224l-7.008 17.888c-.47 1.237-.982 2.219-1.536 2.944-.534.725-1.152 1.248-1.856 1.568-.704.32-1.526.48-2.464.48a6.955 6.955 0 0 1-2.144-.32 5.93 5.93 0 0 1-1.696-.8l.832-2.656c.405.341.832.597 1.28.768.469.171.97.256 1.504.256.576 0 1.088-.16 1.536-.48.469-.299.885-.907 1.248-1.824l.704-1.728-1.696-3.968L145.432 224h3.84l3.552 10.048.928 3.008 1.056-3.296 3.36-9.76h3.552Zm16.717-4.704V235.2c0 .789.203 1.365.608 1.728.427.363.992.544 1.696.544.576 0 1.078-.085 1.504-.256a4.677 4.677 0 0 0 1.184-.768l.768 2.496c-.49.427-1.098.768-1.824 1.024-.704.235-1.493.352-2.368.352-.917 0-1.76-.149-2.528-.448-.768-.299-1.365-.779-1.792-1.44-.426-.683-.65-1.568-.672-2.656v-15.52l3.424-.96Zm5.504 4.704v2.688h-12V224h12Zm10.331-.32c1.557 0 2.933.331 4.128.992 1.195.661 2.123 1.621 2.784 2.88.683 1.237 1.024 2.72 1.024 4.448 0 1.728-.341 3.221-1.024 4.48-.661 1.237-1.589 2.187-2.784 2.848-1.195.661-2.571.992-4.128.992s-2.933-.331-4.128-.992c-1.195-.661-2.133-1.611-2.816-2.848-.683-1.259-1.024-2.752-1.024-4.48 0-1.728.341-3.211 1.024-4.448.683-1.259 1.621-2.219 2.816-2.88 1.195-.661 2.571-.992 4.128-.992Zm0 2.688c-.96 0-1.781.224-2.464.672-.661.427-1.173 1.056-1.536 1.888-.363.832-.544 1.856-.544 3.072 0 1.195.181 2.219.544 3.072.363.832.875 1.472 1.536 1.92.683.427 1.504.64 2.464.64s1.771-.213 2.432-.64c.661-.448 1.173-1.088 1.536-1.92.363-.853.544-1.877.544-3.072 0-1.216-.181-2.24-.544-3.072-.363-.832-.875-1.461-1.536-1.888-.661-.448-1.472-.672-2.432-.672Zm29.594-2.688c1.557 0 2.933.331 4.128.992 1.194.661 2.122 1.621 2.784 2.88.682 1.237 1.024 2.72 1.024 4.448 0 1.728-.342 3.221-1.024 4.48-.662 1.237-1.59 2.187-2.784 2.848-1.195.661-2.571.992-4.128.992-1.558 0-2.934-.331-4.128-.992-1.195-.661-2.134-1.611-2.816-2.848-.683-1.259-1.024-2.752-1.024-4.48 0-1.728.341-3.211 1.024-4.448.682-1.259 1.621-2.219 2.816-2.88 1.194-.661 2.57-.992 4.128-.992Zm0 2.688c-.96 0-1.782.224-2.464.672-.662.427-1.174 1.056-1.536 1.888-.363.832-.544 1.856-.544 3.072 0 1.195.181 2.219.544 3.072.362.832.874 1.472 1.536 1.92.682.427 1.504.64 2.464.64s1.77-.213 2.432-.64c.661-.448 1.173-1.088 1.536-1.92.362-.853.544-1.877.544-3.072 0-1.216-.182-2.24-.544-3.072-.363-.832-.875-1.461-1.536-1.888-.662-.448-1.472-.672-2.432-.672Zm12.243 20.352V224h3.04l.256 4.48-.448-.544a6.31 6.31 0 0 1 1.184-2.208 5.574 5.574 0 0 1 1.984-1.504c.811-.363 1.696-.544 2.656-.544 1.301 0 2.485.331 3.552.992 1.067.661 1.909 1.611 2.528 2.848.619 1.216.928 2.699.928 4.448 0 1.749-.32 3.253-.96 4.512-.619 1.237-1.472 2.187-2.56 2.848-1.067.661-2.261.992-3.584.992-1.365 0-2.528-.352-3.488-1.056a5.942 5.942 0 0 1-2.048-2.752l.384-.544v10.752h-3.424Zm7.84-9.184c1.387 0 2.464-.491 3.232-1.472.789-.981 1.184-2.336 1.184-4.064 0-1.728-.384-3.083-1.152-4.064-.768-1.003-1.835-1.504-3.2-1.504-.896 0-1.685.235-2.368.704-.661.448-1.184 1.088-1.568 1.92-.363.811-.544 1.792-.544 2.944 0 1.131.181 2.112.544 2.944.363.832.875 1.472 1.536 1.92.661.448 1.44.672 2.336.672Zm19.263 2.784c-1.6 0-3.008-.331-4.224-.992a7.036 7.036 0 0 1-2.848-2.848c-.662-1.259-.992-2.752-.992-4.48 0-1.728.33-3.211.992-4.448.682-1.259 1.621-2.219 2.816-2.88 1.194-.661 2.549-.992 4.064-.992 1.557 0 2.88.32 3.968.96a6.428 6.428 0 0 1 2.496 2.624c.576 1.109.864 2.368.864 3.776 0 .384-.011.747-.032 1.088-.022.341-.054.64-.096.896h-12.864V230.4h11.36l-1.696.512c0-1.451-.363-2.56-1.088-3.328-.726-.789-1.718-1.184-2.976-1.184-.918 0-1.718.213-2.4.64-.683.427-1.206 1.067-1.568 1.92-.363.832-.544 1.856-.544 3.072 0 1.195.192 2.208.576 3.04.384.832.928 1.461 1.632 1.888.704.427 1.536.64 2.496.64 1.066 0 1.93-.203 2.592-.608a4.306 4.306 0 0 0 1.568-1.696l2.72 1.28a6.524 6.524 0 0 1-1.568 2.016c-.64.555-1.408.981-2.304 1.28-.896.299-1.878.448-2.944.448Zm11.46-.32v-16h3.04l.224 4.16-.448-.448c.298-.917.725-1.675 1.28-2.272a5.077 5.077 0 0 1 2.016-1.344 7.48 7.48 0 0 1 2.496-.416c1.13 0 2.144.224 3.04.672a4.945 4.945 0 0 1 2.176 1.952c.533.875.8 1.984.8 3.328V240h-3.424v-9.312c0-1.579-.331-2.667-.992-3.264-.64-.619-1.451-.928-2.432-.928-.704 0-1.387.171-2.048.512-.662.32-1.216.843-1.664 1.568-.427.725-.64 1.696-.64 2.912V240h-3.424Z"/><path fill="#A3DBE4" d="M68.112 266.44v6.816c0 1.227-.342 2.187-1.024 2.88-.672.683-1.611 1.024-2.816 1.024-.865 0-1.569-.16-2.113-.48a2.549 2.549 0 0 1-1.136-1.344c-.213-.587-.25-1.264-.112-2.032L62.56 273c-.127.917-.058 1.595.209 2.032.266.427.767.64 1.504.64.8 0 1.349-.229 1.647-.688.31-.469.465-1.152.465-2.048v-6.496h1.728Zm5.395 10.72a3.657 3.657 0 0 1-1.456-.288 2.332 2.332 0 0 1-1.056-.928c-.267-.427-.4-.981-.4-1.664V269h1.712v4.848c0 .725.154 1.227.464 1.504.309.267.741.4 1.296.4.266 0 .522-.043.768-.128a2.03 2.03 0 0 0 .688-.432c.202-.203.357-.459.464-.768a3.06 3.06 0 0 0 .176-1.088V269h1.712v8H76.37l-.08-1.296c-.278.501-.651.869-1.12 1.104-.47.235-1.024.352-1.664.352Zm9.986 0c-.8 0-1.53-.155-2.192-.464a3.791 3.791 0 0 1-1.568-1.312l1.184-1.024c.235.437.57.789 1.008 1.056.448.256.982.384 1.6.384.49 0 .88-.085 1.168-.256.288-.171.432-.411.432-.72a.75.75 0 0 0-.208-.528c-.128-.16-.378-.283-.752-.368l-1.68-.352c-.853-.171-1.461-.443-1.824-.816-.362-.384-.544-.869-.544-1.456 0-.437.128-.843.384-1.216s.63-.672 1.12-.896c.502-.235 1.099-.352 1.792-.352.8 0 1.483.144 2.048.432.566.277.998.677 1.296 1.2l-1.184.992a1.979 1.979 0 0 0-.896-.944 2.561 2.561 0 0 0-1.232-.32c-.341 0-.634.043-.88.128-.245.085-.432.203-.56.352a.784.784 0 0 0-.192.528c0 .213.08.4.24.56.16.16.448.283.864.368l1.824.384c.768.149 1.307.405 1.616.768.32.352.48.784.48 1.296s-.133.965-.4 1.36c-.266.384-.65.683-1.152.896-.501.213-1.098.32-1.792.32Zm7.669-10.512v7.952c0 .395.101.683.304.864.213.181.496.272.848.272.288 0 .539-.043.752-.128.213-.096.41-.224.592-.384l.384 1.248a2.79 2.79 0 0 1-.912.512 3.741 3.741 0 0 1-1.184.176c-.459 0-.88-.075-1.264-.224a1.817 1.817 0 0 1-.896-.72c-.213-.341-.325-.784-.336-1.328v-7.76l1.712-.48ZM93.914 269v1.344h-6V269h6Zm10.16-.16c.64 0 1.184.096 1.632.288.459.181.843.443 1.152.784.31.341.544.731.704 1.168l-1.616.64c-.138-.491-.362-.864-.672-1.12-.298-.267-.693-.4-1.184-.4-.48 0-.89.112-1.232.336-.341.213-.602.528-.784.944-.17.416-.256.928-.256 1.536 0 .597.091 1.104.272 1.52.182.416.443.731.784.944.342.213.747.32 1.216.32.363 0 .678-.059.944-.176.267-.128.486-.304.656-.528a1.97 1.97 0 0 0 .368-.848l1.552.528a3.42 3.42 0 0 1-.704 1.264 3.23 3.23 0 0 1-1.168.832c-.469.192-1.008.288-1.616.288-.789 0-1.488-.165-2.096-.496a3.524 3.524 0 0 1-1.424-1.424c-.33-.629-.496-1.376-.496-2.24 0-.864.166-1.605.496-2.224a3.534 3.534 0 0 1 1.408-1.44c.608-.331 1.296-.496 2.064-.496Zm7.097-3.44v9.36c0 .395.069.667.208.816.138.149.368.224.688.224.192 0 .352-.011.48-.032.138-.032.309-.085.512-.16l-.192 1.28c-.182.085-.39.149-.624.192-.235.053-.47.08-.704.08-.715 0-1.243-.181-1.584-.544-.331-.373-.496-.944-.496-1.712V265.4h1.712Zm4.088 2.256c-.373 0-.661-.091-.864-.272-.192-.192-.288-.459-.288-.8s.096-.603.288-.784c.203-.181.491-.272.864-.272.363 0 .64.091.832.272.203.181.304.443.304.784s-.101.608-.304.8c-.192.181-.469.272-.832.272Zm.848 1.344v8h-1.712v-8h1.712Zm6.039-.16c.64 0 1.184.096 1.632.288.458.181.842.443 1.152.784.309.341.544.731.704 1.168l-1.616.64c-.139-.491-.363-.864-.672-1.12-.299-.267-.694-.4-1.184-.4-.48 0-.891.112-1.232.336-.342.213-.603.528-.784.944-.171.416-.256.928-.256 1.536 0 .597.09 1.104.272 1.52.181.416.442.731.784.944.341.213.746.32 1.216.32.362 0 .677-.059.944-.176.266-.128.485-.304.656-.528.181-.235.304-.517.368-.848l1.552.528c-.15.48-.384.901-.704 1.264-.31.352-.699.629-1.168.832-.47.192-1.008.288-1.616.288-.79 0-1.488-.165-2.096-.496a3.518 3.518 0 0 1-1.424-1.424c-.331-.629-.496-1.376-.496-2.24 0-.864.165-1.605.496-2.224a3.521 3.521 0 0 1 1.408-1.44c.608-.331 1.296-.496 2.064-.496Zm12.984.16-3.568 3.648-.368.256-2.512 2.608-.016-1.952 4.432-4.56h2.032Zm-5.84-3.6V277h-1.712v-11.6h1.712Zm2.48 6.288 3.552 5.312h-1.984l-2.848-4.336 1.28-.976Zm13.291-2.848c.779 0 1.467.165 2.064.496a3.419 3.419 0 0 1 1.392 1.44c.342.619.512 1.36.512 2.224 0 .864-.17 1.611-.512 2.24a3.437 3.437 0 0 1-1.392 1.424c-.597.331-1.285.496-2.064.496-.778 0-1.466-.165-2.064-.496a3.554 3.554 0 0 1-1.408-1.424c-.341-.629-.512-1.376-.512-2.24 0-.864.171-1.605.512-2.224a3.534 3.534 0 0 1 1.408-1.44c.598-.331 1.286-.496 2.064-.496Zm0 1.344c-.48 0-.89.112-1.232.336-.33.213-.586.528-.768.944-.181.416-.272.928-.272 1.536 0 .597.091 1.109.272 1.536.182.416.438.736.768.96.342.213.752.32 1.232.32s.886-.107 1.216-.32c.331-.224.587-.544.768-.96.182-.427.272-.939.272-1.536 0-.608-.09-1.12-.272-1.536-.181-.416-.437-.731-.768-.944-.33-.224-.736-.336-1.216-.336Zm6.026 6.816v-8h1.52l.112 2.08-.224-.224c.149-.459.363-.837.64-1.136a2.549 2.549 0 0 1 1.008-.672 3.732 3.732 0 0 1 1.248-.208c.565 0 1.072.112 1.52.336a2.47 2.47 0 0 1 1.088.976c.267.437.4.992.4 1.664V277h-1.712v-4.656c0-.789-.165-1.333-.496-1.632-.32-.309-.725-.464-1.216-.464-.352 0-.693.085-1.024.256-.331.16-.608.421-.832.784-.213.363-.32.848-.32 1.456V277h-1.712Zm17.003-10.352v7.952c0 .395.102.683.304.864.214.181.496.272.848.272.288 0 .539-.043.752-.128a2.33 2.33 0 0 0 .592-.384l.384 1.248a2.784 2.784 0 0 1-.912.512 3.738 3.738 0 0 1-1.184.176c-.458 0-.88-.075-1.264-.224a1.82 1.82 0 0 1-.896-.72c-.213-.341-.325-.784-.336-1.328v-7.76l1.712-.48Zm2.752 2.352v1.344h-6V269h6Zm1.66 8v-11.6h1.712v4.88c.267-.501.624-.864 1.072-1.088a3.284 3.284 0 0 1 1.52-.352c.565 0 1.072.112 1.52.336a2.47 2.47 0 0 1 1.088.976c.267.437.4.992.4 1.664V277h-1.712v-4.64c0-.789-.165-1.339-.496-1.648-.32-.309-.725-.464-1.216-.464-.341 0-.683.085-1.024.256-.331.16-.608.427-.832.8-.213.363-.32.853-.32 1.472V277h-1.712Zm13.33.16c-.8 0-1.504-.165-2.112-.496a3.524 3.524 0 0 1-1.424-1.424c-.33-.629-.496-1.376-.496-2.24 0-.864.166-1.605.496-2.224a3.534 3.534 0 0 1 1.408-1.44c.598-.331 1.275-.496 2.032-.496.779 0 1.44.16 1.984.48.544.32.96.757 1.248 1.312.288.555.432 1.184.432 1.888 0 .192-.005.373-.016.544-.01.171-.026.32-.048.448h-6.432V272.2h5.68l-.848.256c0-.725-.181-1.28-.544-1.664-.362-.395-.858-.592-1.488-.592-.458 0-.858.107-1.2.32-.341.213-.602.533-.784.96-.181.416-.272.928-.272 1.536 0 .597.096 1.104.288 1.52.192.416.464.731.816.944.352.213.768.32 1.248.32.534 0 .966-.101 1.296-.304a2.15 2.15 0 0 0 .784-.848l1.36.64c-.192.384-.453.72-.784 1.008-.32.277-.704.491-1.152.64a4.637 4.637 0 0 1-1.472.224Zm15.046-10.72c.757 0 1.408.133 1.952.4.554.267.986.645 1.296 1.136.309.491.464 1.083.464 1.776 0 .683-.155 1.275-.464 1.776-.31.491-.742.869-1.296 1.136-.544.267-1.195.4-1.952.4h-2.352V277h-1.712v-10.56h4.064Zm-.272 5.152c.757 0 1.312-.155 1.664-.464.362-.32.544-.779.544-1.376 0-.608-.182-1.067-.544-1.376-.352-.32-.907-.48-1.664-.48h-2.08v3.696h2.08Zm10.527.272c0-.533-.15-.944-.448-1.232-.288-.299-.688-.448-1.2-.448-.48 0-.891.112-1.232.336-.342.224-.592.587-.752 1.088l-1.44-.608a2.875 2.875 0 0 1 1.184-1.568c.597-.395 1.365-.592 2.304-.592.64 0 1.205.107 1.696.32.49.203.874.512 1.152.928.288.416.432.949.432 1.6v3.568c0 .395.197.592.592.592.192 0 .378-.027.56-.08l-.096 1.184c-.246.117-.555.176-.928.176-.342 0-.651-.059-.928-.176a1.55 1.55 0 0 1-.64-.56c-.15-.256-.224-.571-.224-.944v-.112l.352-.016a2 2 0 0 1-.592 1.04 3.082 3.082 0 0 1-1.04.608 3.87 3.87 0 0 1-1.2.192c-.502 0-.955-.08-1.36-.24a2.13 2.13 0 0 1-.944-.72c-.224-.331-.336-.736-.336-1.216 0-.597.192-1.088.576-1.472.394-.384.949-.645 1.664-.784l3.104-.608-.016 1.2-2.256.464c-.448.085-.784.208-1.008.368-.224.16-.336.395-.336.704a.88.88 0 0 0 .336.72c.234.171.544.256.928.256.266 0 .522-.032.768-.096.256-.064.485-.165.688-.304a1.48 1.48 0 0 0 .464-.56c.117-.235.176-.512.176-.832v-2.176Zm6.069-6.464v9.36c0 .395.069.667.208.816.138.149.368.224.688.224.192 0 .352-.011.48-.032.138-.032.309-.085.512-.16l-.192 1.28c-.182.085-.39.149-.624.192-.235.053-.47.08-.704.08-.715 0-1.243-.181-1.584-.544-.331-.373-.496-.944-.496-1.712V265.4h1.712Zm4.888 0v9.36c0 .395.069.667.208.816.139.149.368.224.688.224.192 0 .352-.011.48-.032.139-.032.309-.085.512-.16l-.192 1.28a2.541 2.541 0 0 1-.624.192c-.235.053-.469.08-.704.08-.715 0-1.243-.181-1.584-.544-.331-.373-.496-.944-.496-1.712V265.4h1.712Zm7.88 6.464c0-.533-.15-.944-.448-1.232-.288-.299-.688-.448-1.2-.448-.48 0-.891.112-1.232.336-.342.224-.592.587-.752 1.088l-1.44-.608a2.875 2.875 0 0 1 1.184-1.568c.597-.395 1.365-.592 2.304-.592.64 0 1.205.107 1.696.32.49.203.874.512 1.152.928.288.416.432.949.432 1.6v3.568c0 .395.197.592.592.592.192 0 .378-.027.56-.08l-.096 1.184c-.246.117-.555.176-.928.176-.342 0-.651-.059-.928-.176a1.55 1.55 0 0 1-.64-.56c-.15-.256-.224-.571-.224-.944v-.112l.352-.016a2 2 0 0 1-.592 1.04 3.082 3.082 0 0 1-1.04.608 3.87 3.87 0 0 1-1.2.192c-.502 0-.955-.08-1.36-.24a2.13 2.13 0 0 1-.944-.72c-.224-.331-.336-.736-.336-1.216 0-.597.192-1.088.576-1.472.394-.384.949-.645 1.664-.784l3.104-.608-.016 1.2-2.256.464c-.448.085-.784.208-1.008.368-.224.16-.336.395-.336.704a.88.88 0 0 0 .336.72c.234.171.544.256.928.256.266 0 .522-.032.768-.096.256-.064.485-.165.688-.304a1.48 1.48 0 0 0 .464-.56c.117-.235.176-.512.176-.832v-2.176Zm7.461 5.296a3.411 3.411 0 0 1-1.808-.496c-.533-.331-.955-.805-1.264-1.424-.309-.619-.464-1.36-.464-2.224 0-.896.165-1.653.496-2.272.331-.619.773-1.088 1.328-1.408a3.495 3.495 0 0 1 1.824-.496c.683 0 1.259.187 1.728.56.469.373.784.859.944 1.456l-.192.176V265.4h1.712V277h-1.52l-.128-2.176.224.016c-.075.48-.251.896-.528 1.248a2.867 2.867 0 0 1-1.04.8 3.181 3.181 0 0 1-1.312.272Zm.368-1.376c.459 0 .853-.117 1.184-.352.331-.235.587-.565.768-.992.181-.427.272-.939.272-1.536 0-.555-.091-1.029-.272-1.424-.181-.405-.437-.715-.768-.928a1.974 1.974 0 0 0-1.12-.32c-.715 0-1.269.245-1.664.736s-.592 1.168-.592 2.032c0 .864.192 1.547.576 2.048.384.491.923.736 1.616.736Zm12.467-8.128c-.374 0-.662-.091-.864-.272-.192-.192-.288-.459-.288-.8s.096-.603.288-.784c.202-.181.49-.272.864-.272.362 0 .64.091.832.272.202.181.304.443.304.784s-.102.608-.304.8c-.192.181-.47.272-.832.272Zm.848 1.344v8h-1.712v-8h1.712Zm6.038-.16c.64 0 1.184.096 1.632.288.459.181.843.443 1.152.784.309.341.544.731.704 1.168l-1.616.64c-.139-.491-.363-.864-.672-1.12-.299-.267-.693-.4-1.184-.4-.48 0-.891.112-1.232.336-.341.213-.603.528-.784.944-.171.416-.256.928-.256 1.536 0 .597.091 1.104.272 1.52.181.416.443.731.784.944.341.213.747.32 1.216.32.363 0 .677-.059.944-.176.267-.128.485-.304.656-.528.181-.235.304-.517.368-.848l1.552.528a3.42 3.42 0 0 1-.704 1.264 3.239 3.239 0 0 1-1.168.832c-.469.192-1.008.288-1.616.288-.789 0-1.488-.165-2.096-.496a3.518 3.518 0 0 1-1.424-1.424c-.331-.629-.496-1.376-.496-2.24 0-.864.165-1.605.496-2.224a3.527 3.527 0 0 1 1.408-1.44c.608-.331 1.296-.496 2.064-.496Zm8.905 0c.778 0 1.466.165 2.064.496a3.43 3.43 0 0 1 1.392 1.44c.341.619.512 1.36.512 2.224 0 .864-.171 1.611-.512 2.24a3.45 3.45 0 0 1-1.392 1.424c-.598.331-1.286.496-2.064.496-.779 0-1.467-.165-2.064-.496a3.542 3.542 0 0 1-1.408-1.424c-.342-.629-.512-1.376-.512-2.24 0-.864.17-1.605.512-2.224a3.521 3.521 0 0 1 1.408-1.44c.597-.331 1.285-.496 2.064-.496Zm0 1.344c-.48 0-.891.112-1.232.336-.331.213-.587.528-.768.944-.182.416-.272.928-.272 1.536 0 .597.09 1.109.272 1.536.181.416.437.736.768.96.341.213.752.32 1.232.32s.885-.107 1.216-.32c.33-.224.586-.544.768-.96.181-.427.272-.939.272-1.536 0-.608-.091-1.12-.272-1.536-.182-.416-.438-.731-.768-.944-.331-.224-.736-.336-1.216-.336Zm6.025 6.816v-8h1.52l.112 2.08-.224-.224c.15-.459.363-.837.64-1.136a2.549 2.549 0 0 1 1.008-.672 3.732 3.732 0 0 1 1.248-.208 3.35 3.35 0 0 1 1.52.336c.459.213.822.539 1.088.976.267.437.4.992.4 1.664V277h-1.712v-4.656c0-.789-.165-1.333-.496-1.632-.32-.309-.725-.464-1.216-.464-.352 0-.693.085-1.024.256-.33.16-.608.421-.832.784-.213.363-.32.848-.32 1.456V277h-1.712Zm15.782-9.344c-.374 0-.662-.091-.864-.272-.192-.192-.288-.459-.288-.8s.096-.603.288-.784c.202-.181.49-.272.864-.272.362 0 .64.091.832.272.202.181.304.443.304.784s-.102.608-.304.8c-.192.181-.47.272-.832.272Zm.848 1.344v8H287v-8h1.712Zm2.582 8v-8h1.52l.112 2.08-.224-.224c.15-.459.363-.837.64-1.136a2.549 2.549 0 0 1 1.008-.672 3.732 3.732 0 0 1 1.248-.208 3.35 3.35 0 0 1 1.52.336c.459.213.822.539 1.088.976.267.437.4.992.4 1.664V277h-1.712v-4.656c0-.789-.165-1.333-.496-1.632-.32-.309-.725-.464-1.216-.464-.352 0-.693.085-1.024.256-.33.16-.608.421-.832.784-.213.363-.32.848-.32 1.456V277h-1.712Zm-164.215 11-3.504 8.944c-.235.619-.491 1.109-.768 1.472-.267.363-.576.624-.928.784-.352.16-.763.24-1.232.24a3.46 3.46 0 0 1-1.072-.16 2.952 2.952 0 0 1-.848-.4l.416-1.328c.202.171.416.299.64.384.234.085.485.128.752.128.288 0 .544-.08.768-.24.234-.149.442-.453.624-.912l.352-.864-.848-1.984-2.496-6.064h1.92l1.776 5.024.464 1.504.528-1.648 1.68-4.88h1.776Zm4.789-.16c.779 0 1.467.165 2.064.496a3.419 3.419 0 0 1 1.392 1.44c.342.619.512 1.36.512 2.224 0 .864-.17 1.611-.512 2.24a3.437 3.437 0 0 1-1.392 1.424c-.597.331-1.285.496-2.064.496-.778 0-1.466-.165-2.064-.496a3.554 3.554 0 0 1-1.408-1.424c-.341-.629-.512-1.376-.512-2.24 0-.864.171-1.605.512-2.224a3.534 3.534 0 0 1 1.408-1.44c.598-.331 1.286-.496 2.064-.496Zm0 1.344c-.48 0-.89.112-1.232.336-.33.213-.586.528-.768.944-.181.416-.272.928-.272 1.536 0 .597.091 1.109.272 1.536.182.416.438.736.768.96.342.213.752.32 1.232.32s.886-.107 1.216-.32c.331-.224.587-.544.768-.96.182-.427.272-.939.272-1.536 0-.608-.09-1.12-.272-1.536-.181-.416-.437-.731-.768-.944-.33-.224-.736-.336-1.216-.336Zm8.874 6.976a3.656 3.656 0 0 1-1.456-.288 2.335 2.335 0 0 1-1.056-.928c-.267-.427-.4-.981-.4-1.664V288h1.712v4.848c0 .725.155 1.227.464 1.504.309.267.741.4 1.296.4.267 0 .523-.043.768-.128a2.03 2.03 0 0 0 .688-.432c.203-.203.357-.459.464-.768.117-.309.176-.672.176-1.088V288h1.712v8h-1.504l-.08-1.296c-.277.501-.651.869-1.12 1.104-.469.235-1.024.352-1.664.352Zm6.947-.16v-8h1.456l.16 1.44c.213-.523.528-.917.944-1.184.426-.277.949-.416 1.568-.416.16 0 .32.016.48.048.16.021.293.059.4.112l-.24 1.504a1.972 1.972 0 0 0-.4-.096 2.696 2.696 0 0 0-.576-.048c-.331 0-.656.091-.976.272-.32.171-.587.432-.8.784-.203.352-.304.8-.304 1.344V296h-1.712Zm14.812.16c-.8 0-1.504-.165-2.112-.496a3.518 3.518 0 0 1-1.424-1.424c-.331-.629-.496-1.376-.496-2.24 0-.864.165-1.605.496-2.224a3.527 3.527 0 0 1 1.408-1.44c.597-.331 1.275-.496 2.032-.496.779 0 1.44.16 1.984.48.544.32.96.757 1.248 1.312.288.555.432 1.184.432 1.888 0 .192-.005.373-.016.544a4.64 4.64 0 0 1-.048.448h-6.432V291.2h5.68l-.848.256c0-.725-.181-1.28-.544-1.664-.363-.395-.859-.592-1.488-.592-.459 0-.859.107-1.2.32-.341.213-.603.533-.784.96-.181.416-.272.928-.272 1.536 0 .597.096 1.104.288 1.52.192.416.464.731.816.944.352.213.768.32 1.248.32.533 0 .965-.101 1.296-.304a2.15 2.15 0 0 0 .784-.848l1.36.64c-.192.384-.453.72-.784 1.008-.32.277-.704.491-1.152.64a4.642 4.642 0 0 1-1.472.224Zm6.554-8.16 2.256 3.424.32.048 3.248 4.528h-2.032l-2.352-3.52-.368-.128-3.136-4.352h2.064Zm5.776 0-3.136 4.288-.352-.016-2.56 3.728h-1.952l3.408-4.56.336.032 2.288-3.472h1.968Zm4.013-2.352v7.952c0 .395.101.683.304.864.213.181.496.272.848.272.288 0 .538-.043.752-.128.213-.096.41-.224.592-.384l.384 1.248c-.246.213-.55.384-.912.512a3.742 3.742 0 0 1-1.184.176c-.459 0-.88-.075-1.264-.224a1.815 1.815 0 0 1-.896-.72c-.214-.341-.326-.784-.336-1.328v-7.76l1.712-.48Zm2.752 2.352v1.344h-6V288h6Zm5.117 8.16c-.8 0-1.504-.165-2.112-.496a3.518 3.518 0 0 1-1.424-1.424c-.331-.629-.496-1.376-.496-2.24 0-.864.165-1.605.496-2.224a3.527 3.527 0 0 1 1.408-1.44c.597-.331 1.275-.496 2.032-.496.779 0 1.44.16 1.984.48.544.32.96.757 1.248 1.312.288.555.432 1.184.432 1.888 0 .192-.005.373-.016.544a4.64 4.64 0 0 1-.048.448h-6.432V291.2h5.68l-.848.256c0-.725-.181-1.28-.544-1.664-.363-.395-.859-.592-1.488-.592-.459 0-.859.107-1.2.32-.341.213-.603.533-.784.96-.181.416-.272.928-.272 1.536 0 .597.096 1.104.288 1.52.192.416.464.731.816.944.352.213.768.32 1.248.32.533 0 .965-.101 1.296-.304a2.15 2.15 0 0 0 .784-.848l1.36.64c-.192.384-.453.72-.784 1.008-.32.277-.704.491-1.152.64a4.642 4.642 0 0 1-1.472.224Zm5.634-.16v-8h1.52l.112 2.08-.224-.224c.149-.459.363-.837.64-1.136a2.549 2.549 0 0 1 1.008-.672 3.732 3.732 0 0 1 1.248-.208c.565 0 1.072.112 1.52.336a2.47 2.47 0 0 1 1.088.976c.267.437.4.992.4 1.664V296h-1.712v-4.656c0-.789-.165-1.333-.496-1.632-.32-.309-.725-.464-1.216-.464-.352 0-.693.085-1.024.256-.331.16-.608.421-.832.784-.213.363-.32.848-.32 1.456V296h-1.712Zm12.85.16c-.8 0-1.53-.155-2.192-.464a3.794 3.794 0 0 1-1.568-1.312l1.184-1.024c.235.437.571.789 1.008 1.056.448.256.982.384 1.6.384.491 0 .88-.085 1.168-.256.288-.171.432-.411.432-.72a.748.748 0 0 0-.208-.528c-.128-.16-.378-.283-.752-.368l-1.68-.352c-.853-.171-1.461-.443-1.824-.816-.362-.384-.544-.869-.544-1.456 0-.437.128-.843.384-1.216s.63-.672 1.12-.896c.502-.235 1.099-.352 1.792-.352.8 0 1.483.144 2.048.432.566.277.998.677 1.296 1.2l-1.184.992a1.974 1.974 0 0 0-.896-.944 2.558 2.558 0 0 0-1.232-.32c-.341 0-.634.043-.88.128-.245.085-.432.203-.56.352a.784.784 0 0 0-.192.528c0 .213.08.4.24.56.16.16.448.283.864.368l1.824.384c.768.149 1.307.405 1.616.768.32.352.48.784.48 1.296s-.133.965-.4 1.36c-.266.384-.65.683-1.152.896-.501.213-1.098.32-1.792.32Zm6.197-9.504c-.373 0-.661-.091-.864-.272-.192-.192-.288-.459-.288-.8s.096-.603.288-.784c.203-.181.491-.272.864-.272.363 0 .64.091.832.272.203.181.304.443.304.784s-.101.608-.304.8c-.192.181-.469.272-.832.272Zm.848 1.344v8h-1.712v-8h1.712Zm6.055-.16c.778 0 1.466.165 2.064.496a3.43 3.43 0 0 1 1.392 1.44c.341.619.512 1.36.512 2.224 0 .864-.171 1.611-.512 2.24a3.45 3.45 0 0 1-1.392 1.424c-.598.331-1.286.496-2.064.496-.779 0-1.467-.165-2.064-.496a3.542 3.542 0 0 1-1.408-1.424c-.342-.629-.512-1.376-.512-2.24 0-.864.17-1.605.512-2.224a3.521 3.521 0 0 1 1.408-1.44c.597-.331 1.285-.496 2.064-.496Zm0 1.344c-.48 0-.891.112-1.232.336-.331.213-.587.528-.768.944-.182.416-.272.928-.272 1.536 0 .597.09 1.109.272 1.536.181.416.437.736.768.96.341.213.752.32 1.232.32s.885-.107 1.216-.32c.33-.224.586-.544.768-.96.181-.427.272-.939.272-1.536 0-.608-.091-1.12-.272-1.536-.182-.416-.438-.731-.768-.944-.331-.224-.736-.336-1.216-.336Zm6.025 6.816v-8h1.52l.112 2.08-.224-.224c.15-.459.363-.837.64-1.136a2.549 2.549 0 0 1 1.008-.672 3.732 3.732 0 0 1 1.248-.208 3.35 3.35 0 0 1 1.52.336c.459.213.822.539 1.088.976.267.437.4.992.4 1.664V296h-1.712v-4.656c0-.789-.165-1.333-.496-1.632-.32-.309-.725-.464-1.216-.464-.352 0-.693.085-1.024.256-.33.16-.608.421-.832.784-.213.363-.32.848-.32 1.456V296h-1.712Zm12.851.16c-.8 0-1.531-.155-2.192-.464a3.787 3.787 0 0 1-1.568-1.312l1.184-1.024c.234.437.57.789 1.008 1.056.448.256.981.384 1.6.384.49 0 .88-.085 1.168-.256.288-.171.432-.411.432-.72a.752.752 0 0 0-.208-.528c-.128-.16-.379-.283-.752-.368l-1.68-.352c-.854-.171-1.462-.443-1.824-.816-.363-.384-.544-.869-.544-1.456 0-.437.128-.843.384-1.216s.629-.672 1.12-.896c.501-.235 1.098-.352 1.792-.352.8 0 1.482.144 2.048.432.565.277.997.677 1.296 1.2l-1.184.992a1.983 1.983 0 0 0-.896-.944 2.564 2.564 0 0 0-1.232-.32c-.342 0-.635.043-.88.128a1.262 1.262 0 0 0-.56.352.784.784 0 0 0-.192.528c0 .213.08.4.24.56.16.16.448.283.864.368l1.824.384c.768.149 1.306.405 1.616.768.32.352.48.784.48 1.296s-.134.965-.4 1.36c-.267.384-.651.683-1.152.896-.502.213-1.099.32-1.792.32Z"/><path fill="#7D7A9C" d="M82.328 325.84c.779 0 1.467.165 2.064.496a3.426 3.426 0 0 1 1.392 1.44c.341.619.512 1.36.512 2.224 0 .864-.17 1.611-.512 2.24a3.444 3.444 0 0 1-1.392 1.424c-.597.331-1.285.496-2.064.496-.779 0-1.466-.165-2.064-.496a3.549 3.549 0 0 1-1.408-1.424c-.341-.629-.512-1.376-.512-2.24 0-.864.17-1.605.512-2.224a3.528 3.528 0 0 1 1.408-1.44c.598-.331 1.285-.496 2.064-.496Zm0 1.344c-.48 0-.89.112-1.232.336-.33.213-.587.528-.768.944-.181.416-.272.928-.272 1.536 0 .597.09 1.109.272 1.536.181.416.438.736.768.96.341.213.752.32 1.232.32s.885-.107 1.216-.32c.33-.224.587-.544.768-.96.181-.427.272-.939.272-1.536 0-.608-.09-1.12-.272-1.536-.181-.416-.437-.731-.768-.944-.33-.224-.736-.336-1.216-.336ZM88.354 334v-8h1.456l.16 1.44c.213-.523.528-.917.944-1.184.427-.277.95-.416 1.568-.416.16 0 .32.016.48.048.16.021.293.059.4.112l-.24 1.504a1.957 1.957 0 0 0-.4-.096 2.692 2.692 0 0 0-.576-.048c-.33 0-.656.091-.976.272-.32.171-.587.432-.8.784-.203.352-.304.8-.304 1.344V334h-1.712Zm14.14.16a3.66 3.66 0 0 1-1.456-.288 2.334 2.334 0 0 1-1.056-.928c-.266-.427-.4-.981-.4-1.664V326h1.712v4.848c0 .725.155 1.227.464 1.504.31.267.742.4 1.296.4.267 0 .523-.043.768-.128a2.02 2.02 0 0 0 .688-.432 1.97 1.97 0 0 0 .464-.768c.118-.309.176-.672.176-1.088V326h1.712v8h-1.504l-.08-1.296c-.277.501-.65.869-1.12 1.104-.469.235-1.024.352-1.664.352Zm9.987 0c-.8 0-1.531-.155-2.192-.464a3.794 3.794 0 0 1-1.568-1.312l1.184-1.024c.235.437.571.789 1.008 1.056.448.256.981.384 1.6.384.491 0 .88-.085 1.168-.256.288-.171.432-.411.432-.72a.748.748 0 0 0-.208-.528c-.128-.16-.379-.283-.752-.368l-1.68-.352c-.853-.171-1.461-.443-1.824-.816-.363-.384-.544-.869-.544-1.456 0-.437.128-.843.384-1.216s.629-.672 1.12-.896c.501-.235 1.099-.352 1.792-.352.8 0 1.483.144 2.048.432.565.277.997.677 1.296 1.2l-1.184.992a1.979 1.979 0 0 0-.896-.944 2.561 2.561 0 0 0-1.232-.32c-.341 0-.635.043-.88.128s-.432.203-.56.352a.784.784 0 0 0-.192.528c0 .213.08.4.24.56.16.16.448.283.864.368l1.824.384c.768.149 1.307.405 1.616.768.32.352.48.784.48 1.296s-.133.965-.4 1.36c-.267.384-.651.683-1.152.896-.501.213-1.099.32-1.792.32Zm8.837 0c-.8 0-1.504-.165-2.112-.496a3.518 3.518 0 0 1-1.424-1.424c-.331-.629-.496-1.376-.496-2.24 0-.864.165-1.605.496-2.224a3.527 3.527 0 0 1 1.408-1.44c.597-.331 1.275-.496 2.032-.496.779 0 1.44.16 1.984.48.544.32.96.757 1.248 1.312.288.555.432 1.184.432 1.888 0 .192-.005.373-.016.544a4.64 4.64 0 0 1-.048.448h-6.432V329.2h5.68l-.848.256c0-.725-.181-1.28-.544-1.664-.363-.395-.859-.592-1.488-.592-.459 0-.859.107-1.2.32-.341.213-.603.533-.784.96-.181.416-.272.928-.272 1.536 0 .597.096 1.104.288 1.52.192.416.464.731.816.944.352.213.768.32 1.248.32.533 0 .965-.101 1.296-.304a2.15 2.15 0 0 0 .784-.848l1.36.64c-.192.384-.453.72-.784 1.008-.32.277-.704.491-1.152.64a4.642 4.642 0 0 1-1.472.224Zm12.827-10.512v7.952c0 .395.101.683.304.864.213.181.496.272.848.272.288 0 .539-.043.752-.128.213-.096.411-.224.592-.384l.384 1.248a2.784 2.784 0 0 1-.912.512 3.742 3.742 0 0 1-1.184.176c-.459 0-.88-.075-1.264-.224a1.815 1.815 0 0 1-.896-.72c-.213-.341-.325-.784-.336-1.328v-7.76l1.712-.48Zm2.752 2.352v1.344h-6V326h6Zm1.66 8v-11.6h1.712v4.88c.267-.501.624-.864 1.072-1.088a3.284 3.284 0 0 1 1.52-.352c.565 0 1.072.112 1.52.336a2.47 2.47 0 0 1 1.088.976c.267.437.4.992.4 1.664V334h-1.712v-4.64c0-.789-.165-1.339-.496-1.648-.32-.309-.725-.464-1.216-.464-.341 0-.683.085-1.024.256-.331.16-.608.427-.832.8-.213.363-.32.853-.32 1.472V334h-1.712Zm10.674-9.344c-.373 0-.661-.091-.864-.272-.192-.192-.288-.459-.288-.8s.096-.603.288-.784c.203-.181.491-.272.864-.272.363 0 .64.091.832.272.203.181.304.443.304.784s-.101.608-.304.8c-.192.181-.469.272-.832.272Zm.848 1.344v8h-1.712v-8h1.712Zm5.623 8.16c-.8 0-1.531-.155-2.192-.464a3.787 3.787 0 0 1-1.568-1.312l1.184-1.024c.234.437.57.789 1.008 1.056.448.256.981.384 1.6.384.49 0 .88-.085 1.168-.256.288-.171.432-.411.432-.72a.752.752 0 0 0-.208-.528c-.128-.16-.379-.283-.752-.368l-1.68-.352c-.854-.171-1.462-.443-1.824-.816-.363-.384-.544-.869-.544-1.456 0-.437.128-.843.384-1.216s.629-.672 1.12-.896c.501-.235 1.098-.352 1.792-.352.8 0 1.482.144 2.048.432.565.277.997.677 1.296 1.2l-1.184.992a1.983 1.983 0 0 0-.896-.944 2.564 2.564 0 0 0-1.232-.32c-.342 0-.635.043-.88.128a1.262 1.262 0 0 0-.56.352.784.784 0 0 0-.192.528c0 .213.08.4.24.56.16.16.448.283.864.368l1.824.384c.768.149 1.306.405 1.616.768.32.352.48.784.48 1.296s-.134.965-.4 1.36c-.267.384-.651.683-1.152.896-.502.213-1.099.32-1.792.32Zm10.44-.16v-11.6h1.712v4.88c.266-.501.624-.864 1.072-1.088a3.28 3.28 0 0 1 1.52-.352c.565 0 1.072.112 1.52.336.458.213.821.539 1.088.976.266.437.4.992.4 1.664V334h-1.712v-4.64c0-.789-.166-1.339-.496-1.648-.32-.309-.726-.464-1.216-.464-.342 0-.683.085-1.024.256-.331.16-.608.427-.832.8-.214.363-.32.853-.32 1.472V334h-1.712Zm14.434-5.136c0-.533-.149-.944-.448-1.232-.288-.299-.688-.448-1.2-.448-.48 0-.891.112-1.232.336-.341.224-.592.587-.752 1.088l-1.44-.608a2.88 2.88 0 0 1 1.184-1.568c.597-.395 1.365-.592 2.304-.592.64 0 1.205.107 1.696.32.491.203.875.512 1.152.928.288.416.432.949.432 1.6v3.568c0 .395.197.592.592.592.192 0 .379-.027.56-.08l-.096 1.184c-.245.117-.555.176-.928.176-.341 0-.651-.059-.928-.176a1.55 1.55 0 0 1-.64-.56c-.149-.256-.224-.571-.224-.944v-.112l.352-.016a1.993 1.993 0 0 1-.592 1.04 3.073 3.073 0 0 1-1.04.608 3.87 3.87 0 0 1-1.2.192c-.501 0-.955-.08-1.36-.24-.395-.16-.709-.4-.944-.72-.224-.331-.336-.736-.336-1.216 0-.597.192-1.088.576-1.472.395-.384.949-.645 1.664-.784l3.104-.608-.016 1.2-2.256.464c-.448.085-.784.208-1.008.368-.224.16-.336.395-.336.704a.88.88 0 0 0 .336.72c.235.171.544.256.928.256.267 0 .523-.032.768-.096.256-.064.485-.165.688-.304a1.47 1.47 0 0 0 .464-.56c.117-.235.176-.512.176-.832v-2.176Zm4.405 5.136v-8h1.52l.112 2.08-.224-.224c.149-.459.363-.837.64-1.136a2.549 2.549 0 0 1 1.008-.672 3.732 3.732 0 0 1 1.248-.208c.565 0 1.072.112 1.52.336a2.47 2.47 0 0 1 1.088.976c.267.437.4.992.4 1.664V334h-1.712v-4.656c0-.789-.165-1.333-.496-1.632-.32-.309-.725-.464-1.216-.464-.352 0-.693.085-1.024.256-.331.16-.608.421-.832.784-.213.363-.32.848-.32 1.456V334h-1.712Zm12.882.16a3.411 3.411 0 0 1-1.808-.496c-.533-.331-.955-.805-1.264-1.424-.309-.619-.464-1.36-.464-2.224 0-.896.165-1.653.496-2.272.331-.619.773-1.088 1.328-1.408a3.495 3.495 0 0 1 1.824-.496c.683 0 1.259.187 1.728.56.469.373.784.859.944 1.456l-.192.176V322.4h1.712V334h-1.52l-.128-2.176.224.016c-.075.48-.251.896-.528 1.248a2.867 2.867 0 0 1-1.04.8 3.181 3.181 0 0 1-1.312.272Zm.368-1.376c.459 0 .853-.117 1.184-.352.331-.235.587-.565.768-.992.181-.427.272-.939.272-1.536 0-.555-.091-1.029-.272-1.424-.181-.405-.437-.715-.768-.928a1.974 1.974 0 0 0-1.12-.32c-.715 0-1.269.245-1.664.736s-.592 1.168-.592 2.032c0 .864.192 1.547.576 2.048.384.491.923.736 1.616.736ZM211.75 326l-3.504 8.944c-.234.619-.49 1.109-.768 1.472-.266.363-.576.624-.928.784-.352.16-.762.24-1.232.24-.384 0-.741-.053-1.072-.16a2.964 2.964 0 0 1-.848-.4l.416-1.328c.203.171.416.299.64.384.235.085.486.128.752.128.288 0 .544-.08.768-.24.235-.149.443-.453.624-.912l.352-.864-.848-1.984-2.496-6.064h1.92l1.776 5.024.464 1.504.528-1.648 1.68-4.88h1.776Zm9.121 8.16c-.8 0-1.53-.155-2.192-.464a3.794 3.794 0 0 1-1.568-1.312l1.184-1.024c.235.437.571.789 1.008 1.056.448.256.982.384 1.6.384.491 0 .88-.085 1.168-.256.288-.171.432-.411.432-.72a.748.748 0 0 0-.208-.528c-.128-.16-.378-.283-.752-.368l-1.68-.352c-.853-.171-1.461-.443-1.824-.816-.362-.384-.544-.869-.544-1.456 0-.437.128-.843.384-1.216s.63-.672 1.12-.896c.502-.235 1.099-.352 1.792-.352.8 0 1.483.144 2.048.432.566.277.998.677 1.296 1.2l-1.184.992a1.974 1.974 0 0 0-.896-.944 2.558 2.558 0 0 0-1.232-.32c-.341 0-.634.043-.88.128-.245.085-.432.203-.56.352a.784.784 0 0 0-.192.528c0 .213.08.4.24.56.16.16.448.283.864.368l1.824.384c.768.149 1.307.405 1.616.768.32.352.48.784.48 1.296s-.133.965-.4 1.36c-.266.384-.65.683-1.152.896-.501.213-1.098.32-1.792.32Zm5.333-.16v-11.6h1.712v4.88c.267-.501.624-.864 1.072-1.088a3.284 3.284 0 0 1 1.52-.352c.565 0 1.072.112 1.52.336a2.47 2.47 0 0 1 1.088.976c.267.437.4.992.4 1.664V334h-1.712v-4.64c0-.789-.165-1.339-.496-1.648-.32-.309-.725-.464-1.216-.464-.341 0-.683.085-1.024.256-.331.16-.608.427-.832.8-.213.363-.32.853-.32 1.472V334h-1.712Zm13.282-8.16c.779 0 1.467.165 2.064.496a3.419 3.419 0 0 1 1.392 1.44c.342.619.512 1.36.512 2.224 0 .864-.17 1.611-.512 2.24a3.437 3.437 0 0 1-1.392 1.424c-.597.331-1.285.496-2.064.496-.778 0-1.466-.165-2.064-.496a3.554 3.554 0 0 1-1.408-1.424c-.341-.629-.512-1.376-.512-2.24 0-.864.171-1.605.512-2.224a3.534 3.534 0 0 1 1.408-1.44c.598-.331 1.286-.496 2.064-.496Zm0 1.344c-.48 0-.89.112-1.232.336-.33.213-.586.528-.768.944-.181.416-.272.928-.272 1.536 0 .597.091 1.109.272 1.536.182.416.438.736.768.96.342.213.752.32 1.232.32s.886-.107 1.216-.32c.331-.224.587-.544.768-.96.182-.427.272-.939.272-1.536 0-.608-.09-1.12-.272-1.536-.181-.416-.437-.731-.768-.944-.33-.224-.736-.336-1.216-.336Zm6.026 6.816v-8h1.456l.16 1.44c.213-.523.528-.917.944-1.184.427-.277.949-.416 1.568-.416.16 0 .32.016.48.048.16.021.293.059.4.112l-.24 1.504a1.955 1.955 0 0 0-.4-.096 2.696 2.696 0 0 0-.576-.048c-.331 0-.656.091-.976.272-.32.171-.587.432-.8.784-.203.352-.304.8-.304 1.344V334h-1.712Zm8.474-10.352v7.952c0 .395.102.683.304.864.214.181.496.272.848.272.288 0 .539-.043.752-.128a2.33 2.33 0 0 0 .592-.384l.384 1.248a2.784 2.784 0 0 1-.912.512 3.738 3.738 0 0 1-1.184.176c-.458 0-.88-.075-1.264-.224a1.82 1.82 0 0 1-.896-.72c-.213-.341-.325-.784-.336-1.328v-7.76l1.712-.48Zm2.752 2.352v1.344h-6V326h6Zm5.054-.16c.64 0 1.184.096 1.632.288.458.181.842.443 1.152.784.309.341.544.731.704 1.168l-1.616.64c-.139-.491-.363-.864-.672-1.12-.299-.267-.694-.4-1.184-.4-.48 0-.891.112-1.232.336-.342.213-.603.528-.784.944-.171.416-.256.928-.256 1.536 0 .597.09 1.104.272 1.52.181.416.442.731.784.944.341.213.746.32 1.216.32.362 0 .677-.059.944-.176.266-.128.485-.304.656-.528.181-.235.304-.517.368-.848l1.552.528c-.15.48-.384.901-.704 1.264-.31.352-.699.629-1.168.832-.47.192-1.008.288-1.616.288-.79 0-1.488-.165-2.096-.496a3.518 3.518 0 0 1-1.424-1.424c-.331-.629-.496-1.376-.496-2.24 0-.864.165-1.605.496-2.224a3.521 3.521 0 0 1 1.408-1.44c.608-.331 1.296-.496 2.064-.496Zm8.28 8.32a3.656 3.656 0 0 1-1.456-.288 2.335 2.335 0 0 1-1.056-.928c-.267-.427-.4-.981-.4-1.664V326h1.712v4.848c0 .725.155 1.227.464 1.504.309.267.741.4 1.296.4.267 0 .523-.043.768-.128a2.03 2.03 0 0 0 .688-.432c.203-.203.357-.459.464-.768.117-.309.176-.672.176-1.088V326h1.712v8h-1.504l-.08-1.296c-.277.501-.651.869-1.12 1.104-.469.235-1.024.352-1.664.352Zm9.283-10.512v7.952c0 .395.101.683.304.864.213.181.496.272.848.272.288 0 .538-.043.752-.128.213-.096.41-.224.592-.384l.384 1.248c-.246.213-.55.384-.912.512a3.742 3.742 0 0 1-1.184.176c-.459 0-.88-.075-1.264-.224a1.815 1.815 0 0 1-.896-.72c-.214-.341-.326-.784-.336-1.328v-7.76l1.712-.48Zm2.752 2.352v1.344h-6V326h6Z"/><rect width="84" height="48" x="45" y="361" fill="#D1B4F4" rx="24"/><rect width="84" height="48" x="45" y="361" fill="#D1B4F4" rx="24"/><path fill="#25233A" d="M66.837 381.84c.81 0 1.52.165 2.128.496a3.495 3.495 0 0 1 1.44 1.424c.352.619.528 1.365.528 2.24 0 .864-.176 1.611-.528 2.24a3.495 3.495 0 0 1-1.44 1.424c-.608.331-1.317.496-2.128.496-.8 0-1.51-.165-2.128-.496a3.597 3.597 0 0 1-1.456-1.424c-.341-.629-.512-1.376-.512-2.24 0-.875.17-1.621.512-2.24a3.597 3.597 0 0 1 1.456-1.424c.619-.331 1.328-.496 2.128-.496Zm0 1.632c-.405 0-.752.096-1.04.288-.277.181-.49.459-.64.832-.15.373-.224.843-.224 1.408s.075 1.035.224 1.408c.15.373.363.656.64.848.288.181.635.272 1.04.272.395 0 .73-.091 1.008-.272.288-.192.507-.475.656-.848.15-.373.224-.843.224-1.408s-.075-1.035-.224-1.408c-.15-.373-.368-.651-.656-.832-.277-.192-.613-.288-1.008-.288Zm5.834 9.888V382h1.968l.144 2.544-.272-.288c.096-.469.272-.885.528-1.248a2.772 2.772 0 0 1 1.008-.848c.406-.213.859-.32 1.36-.32.65 0 1.232.165 1.744.496.512.331.912.805 1.2 1.424.299.608.448 1.349.448 2.224 0 .875-.15 1.627-.448 2.256-.299.619-.71 1.093-1.232 1.424-.512.331-1.099.496-1.76.496-.704 0-1.29-.197-1.76-.592a3.011 3.011 0 0 1-.944-1.488l.208-.336v5.616h-2.192Zm4.048-4.88c.587 0 1.046-.208 1.376-.624.341-.427.512-1.045.512-1.856 0-.811-.165-1.424-.496-1.84-.32-.427-.773-.64-1.36-.64a1.68 1.68 0 0 0-.992.304c-.277.192-.496.475-.656.848-.16.363-.24.805-.24 1.328 0 .512.075.955.224 1.328.15.373.363.661.64.864.288.192.619.288.992.288Zm8.641-8.928v7.84c0 .384.096.667.288.848.203.171.475.256.816.256.267 0 .502-.037.704-.112.203-.085.384-.197.544-.336l.352 1.456a2.88 2.88 0 0 1-.96.48 4.15 4.15 0 0 1-1.216.176c-.533 0-1.008-.08-1.424-.24a2.012 2.012 0 0 1-.96-.768c-.224-.352-.336-.821-.336-1.408v-7.584l2.192-.608ZM87.92 382v1.632h-6.224V382h6.224Zm2.491-1.152c-.458 0-.8-.096-1.024-.288-.224-.203-.336-.496-.336-.88 0-.395.112-.688.336-.88.224-.203.566-.304 1.024-.304.459 0 .8.101 1.024.304.224.192.336.485.336.88 0 .384-.112.677-.336.88-.224.192-.565.288-1.024.288ZM91.5 382v8h-2.192v-8H91.5Zm5.876-.16c.81 0 1.52.165 2.128.496a3.49 3.49 0 0 1 1.44 1.424c.352.619.528 1.365.528 2.24 0 .864-.176 1.611-.528 2.24a3.49 3.49 0 0 1-1.44 1.424c-.608.331-1.317.496-2.128.496-.8 0-1.51-.165-2.128-.496a3.598 3.598 0 0 1-1.456-1.424c-.341-.629-.512-1.376-.512-2.24 0-.875.17-1.621.512-2.24a3.598 3.598 0 0 1 1.456-1.424c.619-.331 1.328-.496 2.128-.496Zm0 1.632c-.405 0-.752.096-1.04.288-.277.181-.49.459-.64.832-.15.373-.224.843-.224 1.408s.075 1.035.224 1.408c.15.373.363.656.64.848.288.181.635.272 1.04.272.395 0 .73-.091 1.008-.272.288-.192.507-.475.656-.848.15-.373.224-.843.224-1.408s-.075-1.035-.224-1.408c-.15-.373-.368-.651-.656-.832-.277-.192-.613-.288-1.008-.288ZM103.21 390v-8h1.968l.128 2.4-.272-.256c.128-.523.331-.955.608-1.296a2.485 2.485 0 0 1 1.008-.752 3.38 3.38 0 0 1 1.328-.256c.555 0 1.045.107 1.472.32a2.32 2.32 0 0 1 1.024.976c.256.427.384.965.384 1.616V390h-2.192v-4.624c0-.683-.133-1.152-.4-1.408-.267-.267-.613-.4-1.04-.4-.299 0-.592.075-.88.224-.277.139-.507.368-.688.688-.171.32-.256.747-.256 1.28V390h-2.192Z"/><rect width="83" height="46" x="138" y="362" fill="#25233A" rx="23"/><rect width="83" height="46" x="138" y="362" stroke="#D1B4F4" stroke-width="2" rx="23"/><rect width="83" height="46" x="138" y="362" fill="#25233A" stroke="#D1B4F4" stroke-width="2" rx="23"/><path fill="#FEFCFA" d="M166.208 390.16c-.81 0-1.552-.144-2.224-.432a4.13 4.13 0 0 1-1.616-1.216l1.264-1.28c.256.384.598.699 1.024.944.427.245.934.368 1.52.368.416 0 .747-.059.992-.176.256-.128.384-.325.384-.592a.584.584 0 0 0-.176-.432c-.117-.128-.352-.229-.704-.304l-1.408-.288c-.928-.192-1.589-.48-1.984-.864-.384-.395-.576-.901-.576-1.52 0-.437.128-.848.384-1.232.267-.384.662-.693 1.184-.928.523-.245 1.174-.368 1.952-.368.8 0 1.494.128 2.08.384.598.245 1.067.613 1.408 1.104l-1.312 1.28a2.287 2.287 0 0 0-.928-.848 2.441 2.441 0 0 0-1.184-.304 2.7 2.7 0 0 0-.768.096c-.213.064-.373.155-.48.272a.565.565 0 0 0-.16.416c0 .171.075.32.224.448.15.117.422.219.816.304l1.632.336c.79.16 1.355.432 1.696.816.342.373.512.827.512 1.36 0 .512-.138.971-.416 1.376-.266.395-.666.709-1.2.944-.522.224-1.168.336-1.936.336Zm5.204-.16v-11.504h2.192v4.864c.256-.512.608-.891 1.056-1.136a3.01 3.01 0 0 1 1.52-.384c.555 0 1.046.107 1.472.32.438.213.779.539 1.024.976.256.427.384.965.384 1.616V390h-2.192v-4.608c0-.693-.133-1.168-.4-1.424-.266-.267-.608-.4-1.024-.4-.309 0-.608.075-.896.224-.277.139-.506.373-.688.704-.17.32-.256.747-.256 1.28V390h-2.192Zm10.915-9.152c-.459 0-.8-.096-1.024-.288-.224-.203-.336-.496-.336-.88 0-.395.112-.688.336-.88.224-.203.565-.304 1.024-.304.458 0 .8.101 1.024.304.224.192.336.485.336.88 0 .384-.112.677-.336.88-.224.192-.566.288-1.024.288Zm1.088 1.152v8h-2.192v-8h2.192Zm5.795-3.664c.373 0 .709.043 1.008.128.309.075.539.171.688.288l-.304 1.456a1.516 1.516 0 0 0-.4-.176 1.917 1.917 0 0 0-.528-.064c-.416 0-.747.096-.992.288-.245.181-.368.496-.368.944v1.104l.096.432V390h-2.192v-8.96c0-.448.075-.843.224-1.184.149-.341.357-.624.624-.848.267-.224.581-.389.944-.496a3.988 3.988 0 0 1 1.2-.176Zm1.632 3.664v1.632h-6.016V382h6.016Zm3.411-2.448v7.84c0 .384.096.667.288.848.203.171.475.256.816.256.267 0 .501-.037.704-.112.203-.085.384-.197.544-.336l.352 1.456a2.88 2.88 0 0 1-.96.48 4.148 4.148 0 0 1-1.216.176c-.533 0-1.008-.08-1.424-.24a2.015 2.015 0 0 1-.96-.768c-.224-.352-.336-.821-.336-1.408v-7.584l2.192-.608Zm2.56 2.448v1.632h-6.224V382h6.224Z"/><rect width="82" height="46" x="231" y="362" fill="#25233A" rx="23"/><rect width="82" height="46" x="231" y="362" stroke="#D1B4F4" stroke-width="2" rx="23"/><rect width="82" height="46" x="231" y="362" fill="#25233A" stroke="#D1B4F4" stroke-width="2" rx="23"/><path fill="#FEFCFA" d="M272.636 379.44c.811 0 1.504.139 2.08.416a2.96 2.96 0 0 1 1.328 1.168c.32.501.48 1.109.48 1.824 0 .715-.16 1.328-.48 1.84-.309.501-.752.891-1.328 1.168-.576.267-1.269.4-2.08.4h-2.224V390h-2.208v-10.56h4.432Zm-.336 5.072c.662 0 1.158-.139 1.488-.416.331-.288.496-.704.496-1.248 0-.555-.165-.971-.496-1.248-.33-.277-.826-.416-1.488-.416h-1.888v3.328h1.888Z"/><rect width="296" height="80" x="32" y="488" fill="#25233A" rx="16"/><rect width="48" height="48" fill="#191724" rx="24" transform="translate(48 504)"/><path stroke="#F6C177" stroke-linecap="round" stroke-linejoin="round" stroke-width="1.5" d="M70.5 525.002a2.247 2.247 0 0 1 4.369.75c0 1.499-2.248 2.248-2.248 2.248m.029 3h.01m-.16 5a8.5 8.5 0 1 0-8.057-5.783c.108.321.162.481.172.604a.902.902 0 0 1-.028.326c-.03.12-.097.244-.232.494l-1.636 3.027c-.233.432-.35.648-.324.815a.499.499 0 0 0 .234.349c.144.088.388.063.876.012l5.121-.529a2.25 2.25 0 0 1 .304-.021.9.9 0 0 1 .186.024c.069.016.156.05.329.117A8.485 8.485 0 0 0 72.5 536Z"/><path fill="#FEFCFA" d="M123.628 527h-2.034l-1.134-3.114h-4.986L114.34 527h-1.98l4.482-11.88h2.304l4.482 11.88Zm-7.614-4.68h3.906l-1.944-5.544-1.962 5.544Zm14.167 4.86a3.45 3.45 0 0 1-1.458-.306 3.175 3.175 0 0 1-1.098-.846 3.77 3.77 0 0 1-.666-1.242l.234-.306-.144 2.52h-1.692v-13.05h1.926v6.318l-.216-.306a3.198 3.198 0 0 1 1.17-1.53c.552-.408 1.218-.612 1.998-.612.72 0 1.38.186 1.98.558.612.372 1.092.906 1.44 1.602.348.696.522 1.542.522 2.538 0 .972-.18 1.806-.54 2.502-.348.696-.828 1.23-1.44 1.602-.6.372-1.272.558-2.016.558Zm-.414-1.548c.78 0 1.386-.276 1.818-.828.444-.564.666-1.332.666-2.304 0-.972-.216-1.734-.648-2.286-.432-.552-1.038-.828-1.818-.828-.504 0-.942.132-1.314.396-.372.252-.666.612-.882 1.08-.204.468-.306 1.026-.306 1.674 0 .636.102 1.188.306 1.656.204.456.492.81.864 1.062.384.252.822.378 1.314.378Zm10.673-7.812c.876 0 1.65.186 2.322.558a3.85 3.85 0 0 1 1.566 1.62c.384.696.576 1.53.576 2.502 0 .972-.192 1.812-.576 2.52a3.876 3.876 0 0 1-1.566 1.602c-.672.372-1.446.558-2.322.558-.876 0-1.65-.186-2.322-.558a3.992 3.992 0 0 1-1.584-1.602c-.384-.708-.576-1.548-.576-2.52s.192-1.806.576-2.502a3.964 3.964 0 0 1 1.584-1.62c.672-.372 1.446-.558 2.322-.558Zm0 1.512c-.54 0-1.002.126-1.386.378-.372.24-.66.594-.864 1.062-.204.468-.306 1.044-.306 1.728 0 .672.102 1.248.306 1.728.204.468.492.828.864 1.08.384.24.846.36 1.386.36.54 0 .996-.12 1.368-.36.372-.252.66-.612.864-1.08.204-.48.306-1.056.306-1.728 0-.684-.102-1.26-.306-1.728-.204-.468-.492-.822-.864-1.062-.372-.252-.828-.378-1.368-.378Zm9.983 7.848a4.114 4.114 0 0 1-1.638-.324 2.625 2.625 0 0 1-1.188-1.044c-.3-.48-.45-1.104-.45-1.872V518h1.926v5.454c0 .816.174 1.38.522 1.692.348.3.834.45 1.458.45.3 0 .588-.048.864-.144a2.28 2.28 0 0 0 .774-.486c.228-.228.402-.516.522-.864.132-.348.198-.756.198-1.224V518h1.926v9h-1.692l-.09-1.458c-.312.564-.732.978-1.26 1.242s-1.152.396-1.872.396Zm10.443-11.826v8.946c0 .444.114.768.342.972.24.204.558.306.954.306.324 0 .606-.048.846-.144a2.64 2.64 0 0 0 .666-.432l.432 1.404c-.276.24-.618.432-1.026.576-.396.132-.84.198-1.332.198-.516 0-.99-.084-1.422-.252a2.048 2.048 0 0 1-1.008-.81c-.24-.384-.366-.882-.378-1.494v-8.73l1.926-.54Zm3.096 2.646v1.512h-6.75V518h6.75Zm12.385-2.88c.852 0 1.584.15 2.196.45.624.3 1.11.726 1.458 1.278.348.552.522 1.218.522 1.998 0 .768-.174 1.434-.522 1.998a3.442 3.442 0 0 1-1.458 1.278c-.612.3-1.344.45-2.196.45h-2.646V527h-1.926v-11.88h4.572Zm-.306 5.796c.852 0 1.476-.174 1.872-.522.408-.36.612-.876.612-1.548 0-.684-.204-1.2-.612-1.548-.396-.36-1.02-.54-1.872-.54h-2.34v4.158h2.34Zm11.843.306c0-.6-.168-1.062-.504-1.386-.324-.336-.774-.504-1.35-.504-.54 0-1.002.126-1.386.378-.384.252-.666.66-.846 1.224l-1.62-.684c.228-.732.672-1.32 1.332-1.764.672-.444 1.536-.666 2.592-.666.72 0 1.356.12 1.908.36.552.228.984.576 1.296 1.044.324.468.486 1.068.486 1.8v4.014c0 .444.222.666.666.666.216 0 .426-.03.63-.09l-.108 1.332c-.276.132-.624.198-1.044.198-.384 0-.732-.066-1.044-.198-.3-.144-.54-.354-.72-.63-.168-.288-.252-.642-.252-1.062v-.126l.396-.018c-.108.468-.33.858-.666 1.17-.336.3-.726.528-1.17.684a4.351 4.351 0 0 1-1.35.216c-.564 0-1.074-.09-1.53-.27a2.404 2.404 0 0 1-1.062-.81c-.252-.372-.378-.828-.378-1.368 0-.672.216-1.224.648-1.656.444-.432 1.068-.726 1.872-.882l3.492-.684-.018 1.35-2.538.522c-.504.096-.882.234-1.134.414-.252.18-.378.444-.378.792a.99.99 0 0 0 .378.81c.264.192.612.288 1.044.288.3 0 .588-.036.864-.108a2.38 2.38 0 0 0 .774-.342c.228-.168.402-.378.522-.63a2.07 2.07 0 0 0 .198-.936v-2.448Zm6.827-7.272v10.53c0 .444.078.75.234.918.156.168.414.252.774.252.216 0 .396-.012.54-.036.156-.036.348-.096.576-.18l-.216 1.44a2.837 2.837 0 0 1-.702.216c-.264.06-.528.09-.792.09-.804 0-1.398-.204-1.782-.612-.372-.42-.558-1.062-.558-1.926V513.95h1.926Zm5.5 0v10.53c0 .444.078.75.234.918.156.168.414.252.774.252.216 0 .396-.012.54-.036.156-.036.348-.096.576-.18l-.216 1.44a2.837 2.837 0 0 1-.702.216c-.264.06-.528.09-.792.09-.804 0-1.398-.204-1.782-.612-.372-.42-.558-1.062-.558-1.926V513.95h1.926Zm8.864 7.272c0-.6-.168-1.062-.504-1.386-.324-.336-.774-.504-1.35-.504-.54 0-1.002.126-1.386.378-.384.252-.666.66-.846 1.224l-1.62-.684c.228-.732.672-1.32 1.332-1.764.672-.444 1.536-.666 2.592-.666.72 0 1.356.12 1.908.36.552.228.984.576 1.296 1.044.324.468.486 1.068.486 1.8v4.014c0 .444.222.666.666.666.216 0 .426-.03.63-.09l-.108 1.332c-.276.132-.624.198-1.044.198-.384 0-.732-.066-1.044-.198-.3-.144-.54-.354-.72-.63-.168-.288-.252-.642-.252-1.062v-.126l.396-.018c-.108.468-.33.858-.666 1.17-.336.3-.726.528-1.17.684a4.351 4.351 0 0 1-1.35.216c-.564 0-1.074-.09-1.53-.27a2.404 2.404 0 0 1-1.062-.81c-.252-.372-.378-.828-.378-1.368 0-.672.216-1.224.648-1.656.444-.432 1.068-.726 1.872-.882l3.492-.684-.018 1.35-2.538.522c-.504.096-.882.234-1.134.414-.252.18-.378.444-.378.792a.99.99 0 0 0 .378.81c.264.192.612.288 1.044.288.3 0 .588-.036.864-.108a2.38 2.38 0 0 0 .774-.342c.228-.168.402-.378.522-.63a2.07 2.07 0 0 0 .198-.936v-2.448Zm8.394 5.958a3.84 3.84 0 0 1-2.034-.558c-.6-.372-1.074-.906-1.422-1.602-.348-.696-.522-1.53-.522-2.502 0-1.008.186-1.86.558-2.556.372-.696.87-1.224 1.494-1.584a3.934 3.934 0 0 1 2.052-.558c.768 0 1.416.21 1.944.63.528.42.882.966 1.062 1.638l-.216.198v-6.336h1.926V527h-1.71l-.144-2.448.252.018a2.96 2.96 0 0 1-.594 1.404 3.224 3.224 0 0 1-1.17.9 3.573 3.573 0 0 1-1.476.306Zm.414-1.548c.516 0 .96-.132 1.332-.396.372-.264.66-.636.864-1.116.204-.48.306-1.056.306-1.728 0-.624-.102-1.158-.306-1.602-.204-.456-.492-.804-.864-1.044-.36-.24-.78-.36-1.26-.36-.804 0-1.428.276-1.872.828-.444.552-.666 1.314-.666 2.286s.216 1.74.648 2.304c.432.552 1.038.828 1.818.828Zm-95.061 8.128V543h-1.386v-5.348l.112-2.548h-.014L118.72 543h-1.246l-2.814-7.896h-.014l.112 2.548V543h-1.386v-9.24h2.226l1.862 5.348.644 2.198h.028l.658-2.198 1.848-5.348h2.184Zm5.394 2.1c.681 0 1.283.145 1.806.434.523.289.929.709 1.218 1.26.299.541.448 1.19.448 1.946s-.149 1.409-.448 1.96a3.01 3.01 0 0 1-1.218 1.246c-.523.289-1.125.434-1.806.434s-1.283-.145-1.806-.434a3.105 3.105 0 0 1-1.232-1.246c-.299-.551-.448-1.204-.448-1.96s.149-1.405.448-1.946a3.079 3.079 0 0 1 1.232-1.26c.523-.289 1.125-.434 1.806-.434Zm0 1.176c-.42 0-.779.098-1.078.294-.289.187-.513.462-.672.826-.159.364-.238.812-.238 1.344 0 .523.079.971.238 1.344.159.364.383.644.672.84.299.187.658.28 1.078.28.42 0 .775-.093 1.064-.28.289-.196.513-.476.672-.84.159-.373.238-.821.238-1.344 0-.532-.079-.98-.238-1.344-.159-.364-.383-.639-.672-.826-.289-.196-.644-.294-1.064-.294Zm5.273 5.964v-7h1.274l.14 1.26c.186-.457.462-.803.826-1.036.373-.243.83-.364 1.372-.364.14 0 .28.014.42.042.14.019.256.051.35.098l-.21 1.316a1.815 1.815 0 0 0-.35-.084 2.364 2.364 0 0 0-.504-.042c-.29 0-.574.079-.854.238-.28.149-.514.378-.7.686-.178.308-.266.7-.266 1.176V543h-1.498Zm8.615.14c-.7 0-1.316-.145-1.848-.434a3.076 3.076 0 0 1-1.246-1.246c-.29-.551-.434-1.204-.434-1.96s.144-1.405.434-1.946a3.073 3.073 0 0 1 1.232-1.26c.522-.289 1.115-.434 1.778-.434.681 0 1.26.14 1.736.42.476.28.84.663 1.092 1.148.252.485.378 1.036.378 1.652 0 .168-.005.327-.014.476-.01.149-.024.28-.042.392h-5.628V538.8h4.97l-.742.224c0-.635-.159-1.12-.476-1.456-.318-.345-.752-.518-1.302-.518-.402 0-.752.093-1.05.28-.299.187-.528.467-.686.84-.159.364-.238.812-.238 1.344 0 .523.084.966.252 1.33.168.364.406.639.714.826.308.187.672.28 1.092.28.466 0 .844-.089 1.134-.266.289-.177.518-.425.686-.742l1.19.56c-.168.336-.397.63-.686.882-.28.243-.616.429-1.008.56a4.046 4.046 0 0 1-1.288.196Zm10.154-8.316c-.327 0-.579-.079-.756-.238-.168-.168-.252-.401-.252-.7 0-.299.084-.527.252-.686.177-.159.429-.238.756-.238.317 0 .56.079.728.238.177.159.266.387.266.686 0 .299-.089.532-.266.7-.168.159-.411.238-.728.238ZM153 536v7h-1.498v-7H153Zm2.26 7v-7h1.33l.098 1.82-.196-.196c.131-.401.317-.733.56-.994.252-.271.546-.467.882-.588a3.276 3.276 0 0 1 1.092-.182c.495 0 .938.098 1.33.294.401.187.719.471.952.854.233.383.35.868.35 1.456V543h-1.498v-4.074c0-.691-.145-1.167-.434-1.428-.28-.271-.635-.406-1.064-.406-.308 0-.607.075-.896.224-.289.14-.532.369-.728.686-.187.317-.28.742-.28 1.274V543h-1.498Zm11.47-10.248c.289 0 .551.033.784.098.243.056.425.135.546.238l-.28 1.078a1.066 1.066 0 0 0-.35-.14 1.648 1.648 0 0 0-.448-.056c-.383 0-.686.089-.91.266-.215.177-.322.467-.322.868v1.022l.042.378V543h-1.498v-8.008c0-.355.051-.672.154-.952.112-.28.275-.513.49-.7.215-.196.471-.341.77-.434a3.21 3.21 0 0 1 1.022-.154Zm1.288 3.248v1.176h-5.04V536h5.04Zm4.153-.14c.681 0 1.283.145 1.806.434.523.289.929.709 1.218 1.26.299.541.448 1.19.448 1.946s-.149 1.409-.448 1.96a3.01 3.01 0 0 1-1.218 1.246c-.523.289-1.125.434-1.806.434s-1.283-.145-1.806-.434a3.105 3.105 0 0 1-1.232-1.246c-.299-.551-.448-1.204-.448-1.96s.149-1.405.448-1.946a3.079 3.079 0 0 1 1.232-1.26c.523-.289 1.125-.434 1.806-.434Zm0 1.176c-.42 0-.779.098-1.078.294-.289.187-.513.462-.672.826-.159.364-.238.812-.238 1.344 0 .523.079.971.238 1.344.159.364.383.644.672.84.299.187.658.28 1.078.28.42 0 .775-.093 1.064-.28.289-.196.513-.476.672-.84.159-.373.238-.821.238-1.344 0-.532-.079-.98-.238-1.344-.159-.364-.383-.639-.672-.826-.289-.196-.644-.294-1.064-.294Zm13.787 1.47c0-.467-.13-.826-.392-1.078-.252-.261-.602-.392-1.05-.392-.42 0-.779.098-1.078.294-.298.196-.518.513-.658.952l-1.26-.532a2.524 2.524 0 0 1 1.036-1.372c.523-.345 1.195-.518 2.016-.518.56 0 1.055.093 1.484.28.43.177.766.448 1.008.812.252.364.378.831.378 1.4v3.122c0 .345.173.518.518.518.168 0 .332-.023.49-.07l-.084 1.036c-.214.103-.485.154-.812.154-.298 0-.569-.051-.812-.154a1.356 1.356 0 0 1-.56-.49c-.13-.224-.196-.499-.196-.826v-.098l.308-.014a1.743 1.743 0 0 1-.518.91 2.68 2.68 0 0 1-.91.532 3.381 3.381 0 0 1-1.05.168 3.22 3.22 0 0 1-1.19-.21c-.345-.14-.62-.35-.826-.63-.196-.289-.294-.644-.294-1.064 0-.523.168-.952.504-1.288.346-.336.831-.565 1.456-.686l2.716-.532-.014 1.05-1.974.406c-.392.075-.686.182-.882.322-.196.14-.294.345-.294.616 0 .261.098.471.294.63.206.149.476.224.812.224.234 0 .458-.028.672-.084.224-.056.425-.145.602-.266.178-.131.313-.294.406-.49.103-.205.154-.448.154-.728v-1.904Zm7.607 4.634c-.411 0-.789-.079-1.134-.238a2.47 2.47 0 0 1-.854-.658 2.913 2.913 0 0 1-.518-.966l.182-.238-.112 1.96h-1.316v-10.15h1.498v4.914l-.168-.238c.177-.485.48-.882.91-1.19.429-.317.947-.476 1.554-.476.56 0 1.073.145 1.54.434.476.289.849.705 1.12 1.246.27.541.406 1.199.406 1.974 0 .756-.14 1.405-.42 1.946-.271.541-.644.957-1.12 1.246a2.92 2.92 0 0 1-1.568.434Zm-.322-1.204c.606 0 1.078-.215 1.414-.644.345-.439.518-1.036.518-1.792s-.168-1.349-.504-1.778c-.336-.429-.808-.644-1.414-.644-.392 0-.733.103-1.022.308-.29.196-.518.476-.686.84-.159.364-.238.798-.238 1.302 0 .495.079.924.238 1.288a1.9 1.9 0 0 0 .672.826c.298.196.639.294 1.022.294Zm8.301-6.076c.681 0 1.283.145 1.806.434.523.289.929.709 1.218 1.26.299.541.448 1.19.448 1.946s-.149 1.409-.448 1.96a3.01 3.01 0 0 1-1.218 1.246c-.523.289-1.125.434-1.806.434s-1.283-.145-1.806-.434a3.105 3.105 0 0 1-1.232-1.246c-.299-.551-.448-1.204-.448-1.96s.149-1.405.448-1.946a3.079 3.079 0 0 1 1.232-1.26c.523-.289 1.125-.434 1.806-.434Zm0 1.176c-.42 0-.779.098-1.078.294-.289.187-.513.462-.672.826-.159.364-.238.812-.238 1.344 0 .523.079.971.238 1.344.159.364.383.644.672.84.299.187.658.28 1.078.28.42 0 .775-.093 1.064-.28.289-.196.513-.476.672-.84.159-.373.238-.821.238-1.344 0-.532-.079-.98-.238-1.344-.159-.364-.383-.639-.672-.826-.289-.196-.644-.294-1.064-.294Zm7.764 6.104c-.457 0-.882-.084-1.274-.252a2.05 2.05 0 0 1-.924-.812c-.233-.373-.35-.859-.35-1.456V536h1.498v4.242c0 .635.136 1.073.406 1.316.271.233.649.35 1.134.35.234 0 .458-.037.672-.112a1.77 1.77 0 0 0 .602-.378c.178-.177.313-.401.406-.672.103-.271.154-.588.154-.952V536h1.498v7h-1.316l-.07-1.134a2.265 2.265 0 0 1-.98.966c-.41.205-.896.308-1.456.308Zm8.123-9.198v6.958c0 .345.088.597.266.756.186.159.434.238.742.238.252 0 .471-.037.658-.112.186-.084.359-.196.518-.336l.336 1.092a2.438 2.438 0 0 1-.798.448 3.258 3.258 0 0 1-1.036.154c-.402 0-.77-.065-1.106-.196a1.593 1.593 0 0 1-.784-.63c-.187-.299-.285-.686-.294-1.162v-6.79l1.498-.42Zm2.408 2.058v1.176h-5.25V536h5.25Zm8.358 7.14c-.457 0-.882-.084-1.274-.252a2.04 2.04 0 0 1-.924-.812c-.233-.373-.35-.859-.35-1.456V536h1.498v4.242c0 .635.135 1.073.406 1.316.271.233.649.35 1.134.35.233 0 .457-.037.672-.112a1.77 1.77 0 0 0 .602-.378c.177-.177.313-.401.406-.672.103-.271.154-.588.154-.952V536h1.498v7h-1.316l-.07-1.134a2.27 2.27 0 0 1-.98.966c-.411.205-.896.308-1.456.308Zm8.738 0c-.7 0-1.339-.135-1.918-.406a3.322 3.322 0 0 1-1.372-1.148l1.036-.896c.206.383.5.691.882.924.392.224.859.336 1.4.336.43 0 .77-.075 1.022-.224.252-.149.378-.359.378-.63a.655.655 0 0 0-.182-.462c-.112-.14-.331-.247-.658-.322l-1.47-.308c-.746-.149-1.278-.387-1.596-.714-.317-.336-.476-.761-.476-1.274 0-.383.112-.737.336-1.064.224-.327.551-.588.98-.784.439-.205.962-.308 1.568-.308.7 0 1.298.126 1.792.378.495.243.873.593 1.134 1.05l-1.036.868a1.727 1.727 0 0 0-.784-.826 2.231 2.231 0 0 0-1.078-.28c-.298 0-.555.037-.77.112a1.111 1.111 0 0 0-.49.308.689.689 0 0 0-.168.462c0 .187.07.35.21.49.14.14.392.247.756.322l1.596.336c.672.131 1.144.355 1.414.672.28.308.42.686.42 1.134 0 .448-.116.845-.35 1.19-.233.336-.569.597-1.008.784-.438.187-.961.28-1.568.28Z"/><path stroke="#7D7A9C" stroke-linecap="round" stroke-linejoin="round" stroke-width="1.5" d="M309 525v-6m0 0h-6m6 0-9 9m-2-9h-2.2c-1.68 0-2.52 0-3.162.327a3.009 3.009 0 0 0-1.311 1.311c-.327.642-.327 1.482-.327 3.162v8.4c0 1.68 0 2.52.327 3.162a3.009 3.009 0 0 0 1.311 1.311c.642.327 1.482.327 3.162.327h8.4c1.68 0 2.52 0 3.162-.327a3.009 3.009 0 0 0 1.311-1.311c.327-.642.327-1.482.327-3.162V530"/></svg>