<svg xmlns="http://www.w3.org/2000/svg" width="360" height="600" fill="none"><path fill="url(#a)" d="M0 0h360v600H0z"/><path fill="#FEFCFA" d="M52.672 282h-3.616l-2.016-5.536h-8.864L36.16 282h-3.52l7.968-21.12h4.096L52.672 282Zm-13.536-8.32h6.944l-3.456-9.856-3.488 9.856Zm22.756 8.64c-1.6 0-3.061-.309-4.384-.928-1.322-.619-2.368-1.493-3.136-2.624l2.368-2.048a5.467 5.467 0 0 0 2.016 2.112c.896.512 1.963.768 3.2.768.982 0 1.76-.171 2.336-.512.576-.341.864-.821.864-1.44 0-.405-.138-.757-.416-1.056-.256-.32-.757-.565-1.504-.736l-3.36-.704c-1.706-.341-2.922-.885-3.648-1.632-.725-.768-1.088-1.739-1.088-2.912 0-.875.256-1.685.768-2.432.512-.747 1.259-1.344 2.24-1.792 1.003-.469 2.198-.704 3.584-.704 1.6 0 2.966.288 4.096.864 1.13.555 1.995 1.355 2.592 2.4l-2.368 1.984c-.405-.853-1.002-1.483-1.792-1.888a5.111 5.111 0 0 0-2.464-.64c-.682 0-1.27.085-1.76.256-.49.171-.864.405-1.12.704a1.572 1.572 0 0 0-.384 1.056c0 .427.16.8.48 1.12.32.32.896.565 1.728.736l3.648.768c1.536.299 2.614.811 3.232 1.536.64.704.96 1.568.96 2.592s-.266 1.931-.8 2.72c-.533.768-1.301 1.365-2.304 1.792-1.002.427-2.197.64-3.584.64Zm16.938 0c-1.6 0-3.062-.309-4.384-.928-1.323-.619-2.368-1.493-3.136-2.624l2.368-2.048a5.467 5.467 0 0 0 2.016 2.112c.896.512 1.962.768 3.2.768.981 0 1.76-.171 2.336-.512.576-.341.864-.821.864-1.44 0-.405-.139-.757-.416-1.056-.256-.32-.758-.565-1.504-.736l-3.36-.704c-1.707-.341-2.923-.885-3.648-1.632-.726-.768-1.088-1.739-1.088-2.912 0-.875.256-1.685.768-2.432.512-.747 1.258-1.344 2.24-1.792 1.002-.469 2.197-.704 3.584-.704 1.6 0 2.965.288 4.096.864 1.13.555 1.994 1.355 2.592 2.4l-2.368 1.984c-.406-.853-1.003-1.483-1.792-1.888a5.111 5.111 0 0 0-2.464-.64c-.683 0-1.27.085-1.76.256-.49.171-.864.405-1.12.704a1.572 1.572 0 0 0-.384 1.056c0 .427.16.8.48 1.12.32.32.896.565 1.728.736l3.648.768c1.536.299 2.613.811 3.232 1.536.64.704.96 1.568.96 2.592s-.267 1.931-.8 2.72c-.534.768-1.302 1.365-2.304 1.792-1.003.427-2.198.64-3.584.64Zm17.866 0c-1.6 0-3.008-.331-4.224-.992a7.04 7.04 0 0 1-2.848-2.848c-.661-1.259-.992-2.752-.992-4.48 0-1.728.33-3.211.992-4.448.683-1.259 1.621-2.219 2.816-2.88 1.195-.661 2.55-.992 4.064-.992 1.557 0 2.88.32 3.968.96a6.428 6.428 0 0 1 2.496 2.624c.576 1.109.864 2.368.864 3.776 0 .384-.011.747-.032 1.088-.021.341-.053.64-.096.896H90.84V272.4h11.36l-1.696.512c0-1.451-.363-2.56-1.088-3.328-.725-.789-1.717-1.184-2.976-1.184-.917 0-1.717.213-2.4.64-.683.427-1.205 1.067-1.568 1.92-.363.832-.544 1.856-.544 3.072 0 1.195.192 2.208.576 3.04.384.832.928 1.461 1.632 1.888.704.427 1.536.64 2.496.64 1.067 0 1.93-.203 2.592-.608a4.304 4.304 0 0 0 1.568-1.696l2.72 1.28a6.524 6.524 0 0 1-1.568 2.016c-.64.555-1.408.981-2.304 1.28-.896.299-1.877.448-2.944.448Zm15.757-21.024V277.2c0 .789.203 1.365.608 1.728.427.363.992.544 1.696.544.576 0 1.077-.085 1.504-.256a4.695 4.695 0 0 0 1.184-.768l.768 2.496c-.491.427-1.099.768-1.824 1.024-.704.235-1.493.352-2.368.352-.917 0-1.76-.149-2.528-.448-.768-.299-1.365-.779-1.792-1.44-.427-.683-.651-1.568-.672-2.656v-15.52l3.424-.96Zm5.504 4.704v2.688h-12V266h12Zm9.467 16.32c-1.6 0-3.062-.309-4.384-.928-1.323-.619-2.368-1.493-3.136-2.624l2.368-2.048a5.462 5.462 0 0 0 2.016 2.112c.896.512 1.962.768 3.2.768.981 0 1.76-.171 2.336-.512.576-.341.864-.821.864-1.44 0-.405-.139-.757-.416-1.056-.256-.32-.758-.565-1.504-.736l-3.36-.704c-1.707-.341-2.923-.885-3.648-1.632-.726-.768-1.088-1.739-1.088-2.912 0-.875.256-1.685.768-2.432.512-.747 1.258-1.344 2.24-1.792 1.002-.469 2.197-.704 3.584-.704 1.6 0 2.965.288 4.096.864 1.13.555 1.994 1.355 2.592 2.4l-2.368 1.984c-.406-.853-1.003-1.483-1.792-1.888a5.114 5.114 0 0 0-2.464-.64c-.683 0-1.27.085-1.76.256-.491.171-.864.405-1.12.704a1.572 1.572 0 0 0-.384 1.056c0 .427.16.8.48 1.12.32.32.896.565 1.728.736l3.648.768c1.536.299 2.613.811 3.232 1.536.64.704.96 1.568.96 2.592s-.267 1.931-.8 2.72c-.534.768-1.302 1.365-2.304 1.792-1.003.427-2.198.64-3.584.64ZM52.672 336h-3.616l-2.016-5.536h-8.864L36.16 336h-3.52l7.968-21.12h4.096L52.672 336Zm-13.536-8.32h6.944l-3.456-9.856-3.488 9.856Zm23.37-8c1.28 0 2.368.192 3.263.576.918.363 1.686.885 2.304 1.568a7.053 7.053 0 0 1 1.409 2.336l-3.233 1.28c-.277-.981-.725-1.728-1.343-2.24-.598-.533-1.387-.8-2.369-.8-.96 0-1.78.224-2.463.672-.683.427-1.206 1.056-1.569 1.888-.34.832-.512 1.856-.512 3.072 0 1.195.182 2.208.544 3.04.363.832.886 1.461 1.569 1.888.682.427 1.493.64 2.431.64.726 0 1.355-.117 1.889-.352.533-.256.97-.608 1.311-1.056.363-.469.609-1.035.737-1.696l3.103 1.056a6.843 6.843 0 0 1-1.407 2.528c-.62.704-1.398 1.259-2.337 1.664-.938.384-2.015.576-3.231.576-1.58 0-2.976-.331-4.192-.992a7.04 7.04 0 0 1-2.848-2.848c-.662-1.259-.992-2.752-.992-4.48 0-1.728.33-3.211.992-4.448.682-1.259 1.62-2.219 2.816-2.88 1.215-.661 2.591-.992 4.127-.992Zm15.728-4.384V331.2c0 .789.203 1.365.608 1.728.427.363.992.544 1.696.544.576 0 1.078-.085 1.504-.256a4.696 4.696 0 0 0 1.184-.768l.768 2.496c-.49.427-1.098.768-1.824 1.024-.704.235-1.493.352-2.368.352-.917 0-1.76-.149-2.528-.448-.768-.299-1.365-.779-1.792-1.44-.426-.683-.65-1.568-.672-2.656v-15.52l3.424-.96ZM83.738 320v2.688h-12V320h12Zm5.115-2.688c-.747 0-1.323-.181-1.728-.544-.384-.384-.576-.917-.576-1.6s.192-1.205.576-1.568c.405-.363.981-.544 1.728-.544.725 0 1.28.181 1.664.544.405.363.608.885.608 1.568s-.203 1.216-.608 1.6c-.384.363-.939.544-1.664.544ZM90.549 320v16h-3.424v-16h3.424Zm15.885 0h3.584l-6.368 16h-3.744l-6.4-16h3.744l4.544 13.024 4.64-13.024Zm8.231-2.688c-.746 0-1.322-.181-1.728-.544-.384-.384-.576-.917-.576-1.6s.192-1.205.576-1.568c.406-.363.982-.544 1.728-.544.726 0 1.28.181 1.664.544.406.363.608.885.608 1.568s-.202 1.216-.608 1.6c-.384.363-.938.544-1.664.544Zm1.696 2.688v16h-3.424v-16h3.424Zm10.03-4.704V331.2c0 .789.202 1.365.608 1.728.426.363.992.544 1.696.544.576 0 1.077-.085 1.504-.256a4.712 4.712 0 0 0 1.184-.768l.768 2.496c-.491.427-1.099.768-1.824 1.024-.704.235-1.494.352-2.368.352-.918 0-1.76-.149-2.528-.448-.768-.299-1.366-.779-1.792-1.44-.427-.683-.651-1.568-.672-2.656v-15.52l3.424-.96Zm5.504 4.704v2.688h-12V320h12Zm17.434 0-7.008 17.888c-.469 1.237-.981 2.219-1.536 2.944-.533.725-1.152 1.248-1.856 1.568-.704.32-1.525.48-2.464.48a6.955 6.955 0 0 1-2.144-.32 5.943 5.943 0 0 1-1.696-.8l.832-2.656c.405.341.832.597 1.28.768a4.36 4.36 0 0 0 1.504.256c.576 0 1.088-.16 1.536-.48.469-.299.885-.907 1.248-1.824l.704-1.728-1.696-3.968L133.041 320h3.84l3.552 10.048.928 3.008 1.056-3.296 3.36-9.76h3.552ZM42.336 368.56c1.899 0 3.541.363 4.928 1.088 1.387.704 2.56 1.749 3.52 3.136l-2.304 2.208c-.81-1.237-1.728-2.123-2.752-2.656-1.003-.555-2.197-.832-3.584-.832-1.024 0-1.867.139-2.528.416-.661.277-1.152.651-1.472 1.12-.299.448-.448.96-.448 1.536 0 .661.224 1.237.672 1.728.47.491 1.333.875 2.592 1.152l4.288.96c2.048.448 3.499 1.131 4.352 2.048.853.917 1.28 2.08 1.28 3.488 0 1.301-.352 2.432-1.056 3.392-.704.96-1.685 1.696-2.944 2.208-1.237.512-2.699.768-4.384.768-1.493 0-2.837-.192-4.032-.576-1.195-.384-2.24-.907-3.136-1.568a9.274 9.274 0 0 1-2.208-2.272l2.368-2.368a8.428 8.428 0 0 0 1.696 2.016 7.596 7.596 0 0 0 2.368 1.344c.917.32 1.93.48 3.04.48.981 0 1.824-.117 2.528-.352.725-.235 1.27-.576 1.632-1.024.384-.469.576-1.024.576-1.664a2.35 2.35 0 0 0-.64-1.632c-.405-.469-1.173-.832-2.304-1.088l-4.64-1.056c-1.28-.277-2.336-.672-3.168-1.184-.832-.512-1.45-1.131-1.856-1.856-.405-.747-.608-1.579-.608-2.496 0-1.195.32-2.272.96-3.232.661-.981 1.61-1.76 2.848-2.336 1.237-.597 2.71-.896 4.416-.896Zm17.523.736V385.2c0 .789.203 1.365.608 1.728.427.363.992.544 1.696.544.576 0 1.078-.085 1.504-.256a4.696 4.696 0 0 0 1.184-.768l.768 2.496c-.49.427-1.098.768-1.824 1.024-.704.235-1.493.352-2.368.352-.917 0-1.76-.149-2.528-.448-.768-.299-1.365-.779-1.792-1.44-.426-.683-.65-1.568-.672-2.656v-15.52l3.424-.96ZM65.363 374v2.688h-12V374h12Zm12.728 5.728c0-1.067-.298-1.888-.895-2.464-.576-.597-1.376-.896-2.4-.896-.96 0-1.782.224-2.465.672-.682.448-1.184 1.173-1.504 2.176L67.948 378c.406-1.301 1.195-2.347 2.368-3.136 1.195-.789 2.731-1.184 4.609-1.184 1.28 0 2.41.213 3.391.64.982.405 1.75 1.024 2.305 1.856.575.832.864 1.899.864 3.2v7.136c0 .789.394 1.184 1.184 1.184.383 0 .757-.053 1.12-.16l-.192 2.368c-.491.235-1.11.352-1.856.352-.683 0-1.302-.117-1.856-.352a3.098 3.098 0 0 1-1.28-1.12c-.3-.512-.448-1.141-.448-1.888v-.224l.703-.032a3.994 3.994 0 0 1-1.183 2.08 6.146 6.146 0 0 1-2.08 1.216c-.79.256-1.59.384-2.4.384-1.003 0-1.91-.16-2.72-.48-.79-.32-1.42-.8-1.888-1.44-.448-.661-.672-1.472-.672-2.432 0-1.195.383-2.176 1.151-2.944.79-.768 1.9-1.291 3.329-1.568l6.207-1.216-.031 2.4-4.513.928c-.895.171-1.567.416-2.016.736-.448.32-.672.789-.672 1.408 0 .597.225 1.077.672 1.44.47.341 1.088.512 1.856.512.534 0 1.046-.064 1.537-.192.511-.128.97-.331 1.375-.608.406-.299.715-.672.928-1.12.235-.469.352-1.024.352-1.664v-4.352ZM102.198 374l-7.136 7.296-.736.512-5.024 5.216-.033-3.904 8.864-9.12h4.065Zm-11.68-7.2V390h-3.424v-23.2h3.424Zm4.96 12.576L102.582 390h-3.968l-5.697-8.672 2.56-1.952Zm12-8.064c-.747 0-1.323-.181-1.728-.544-.384-.384-.576-.917-.576-1.6s.192-1.205.576-1.568c.405-.363.981-.544 1.728-.544.725 0 1.28.181 1.664.544.405.363.608.885.608 1.568s-.203 1.216-.608 1.6c-.384.363-.939.544-1.664.544Zm1.696 2.688v16h-3.424v-16h3.424Zm5.357 16v-16h3.04l.224 4.16-.448-.448c.299-.917.725-1.675 1.28-2.272a5.077 5.077 0 0 1 2.016-1.344 7.48 7.48 0 0 1 2.496-.416c1.131 0 2.144.224 3.04.672a4.94 4.94 0 0 1 2.176 1.952c.533.875.8 1.984.8 3.328V390h-3.424v-9.312c0-1.579-.331-2.667-.992-3.264-.64-.619-1.451-.928-2.432-.928-.704 0-1.387.171-2.048.512-.661.32-1.216.843-1.664 1.568-.427.725-.64 1.696-.64 2.912V390h-3.424Zm33.893-19.36.544 2.688h-.192a.615.615 0 0 0-.193-.032c-1.023 0-1.802.224-2.335.672-.534.427-.8 1.056-.8 1.888l-1.664-.768c0-.853.181-1.611.544-2.272a3.951 3.951 0 0 1 1.536-1.6c.682-.384 1.45-.576 2.304-.576h.256Zm-5.056 16.864c1.621 0 2.88.363 3.776 1.088.896.704 1.344 1.685 1.344 2.944 0 1.109-.352 2.059-1.056 2.848-.704.811-1.664 1.429-2.88 1.856-1.195.427-2.571.64-4.128.64-2.624 0-4.566-.405-5.824-1.216-1.259-.811-1.888-1.824-1.888-3.04 0-.853.298-1.6.896-2.24.618-.64 1.653-1.003 3.104-1.088l-.192.512c-.896-.192-1.622-.533-2.176-1.024-.534-.512-.8-1.227-.8-2.144s.352-1.696 1.056-2.336c.704-.64 1.696-1.013 2.976-1.12l1.792.864h-.384c-.982.085-1.675.309-2.08.672-.406.363-.608.768-.608 1.216 0 .533.192.928.576 1.184.405.256.97.384 1.696.384h4.8Zm-2.944 6.816c1.173 0 2.133-.117 2.88-.352.768-.213 1.333-.501 1.696-.864.384-.341.576-.725.576-1.152 0-.491-.203-.885-.608-1.184-.384-.299-1.088-.448-2.112-.448h-5.152c-.598 0-1.099.149-1.504.448-.406.32-.608.747-.608 1.28 0 .704.426 1.259 1.28 1.664.853.405 2.037.608 3.552.608Zm-.128-20.64c1.408 0 2.624.224 3.648.672 1.045.448 1.845 1.077 2.4 1.888.576.811.864 1.76.864 2.848 0 1.088-.288 2.037-.864 2.848-.555.811-1.355 1.44-2.4 1.888-1.024.448-2.24.672-3.648.672-2.219 0-3.926-.491-5.12-1.472-1.174-1.003-1.76-2.315-1.76-3.936 0-1.088.288-2.037.864-2.848.576-.811 1.376-1.44 2.4-1.888 1.045-.448 2.25-.672 3.616-.672Zm0 2.4c-.982 0-1.803.277-2.464.832-.64.533-.96 1.259-.96 2.176 0 .917.32 1.653.96 2.208.661.555 1.482.832 2.464.832 1.002 0 1.824-.277 2.464-.832.661-.555.992-1.291.992-2.208 0-.917-.331-1.643-.992-2.176-.64-.555-1.462-.832-2.464-.832ZM38.56 422.88V444h-3.424v-21.12h3.424Zm11.709 21.44c-1.323 0-2.528-.331-3.616-.992-1.067-.661-1.91-1.611-2.528-2.848-.619-1.237-.928-2.72-.928-4.448 0-1.792.33-3.307.992-4.544.661-1.237 1.546-2.176 2.656-2.816a6.996 6.996 0 0 1 3.648-.992c1.365 0 2.517.373 3.456 1.12.938.747 1.568 1.717 1.888 2.912l-.384.352V420.8h3.424V444h-3.04l-.256-4.352.448.032c-.15.96-.502 1.792-1.056 2.496a5.728 5.728 0 0 1-2.08 1.6 6.346 6.346 0 0 1-2.624.544Zm.736-2.752c.917 0 1.706-.235 2.368-.704.661-.469 1.173-1.131 1.536-1.984.362-.853.544-1.877.544-3.072 0-1.109-.182-2.059-.544-2.848-.363-.811-.875-1.429-1.536-1.856-.64-.427-1.387-.64-2.24-.64-1.43 0-2.539.491-3.328 1.472-.79.981-1.184 2.336-1.184 4.064 0 1.728.384 3.093 1.152 4.096.768.981 1.845 1.472 3.232 1.472Zm20.222 2.752c-1.6 0-3.008-.331-4.224-.992a7.04 7.04 0 0 1-2.848-2.848c-.661-1.259-.992-2.752-.992-4.48 0-1.728.33-3.211.992-4.448.683-1.259 1.622-2.219 2.816-2.88 1.195-.661 2.55-.992 4.064-.992 1.558 0 2.88.32 3.968.96a6.428 6.428 0 0 1 2.496 2.624c.576 1.109.864 2.368.864 3.776 0 .384-.01.747-.032 1.088-.021.341-.053.64-.096.896H65.371V434.4h11.36l-1.696.512c0-1.451-.362-2.56-1.088-3.328-.725-.789-1.717-1.184-2.976-1.184-.917 0-1.717.213-2.4.64-.682.427-1.205 1.067-1.568 1.92-.362.832-.544 1.856-.544 3.072 0 1.195.192 2.208.576 3.04.384.832.928 1.461 1.632 1.888.704.427 1.536.64 2.496.64 1.067 0 1.93-.203 2.592-.608a4.304 4.304 0 0 0 1.568-1.696l2.72 1.28a6.52 6.52 0 0 1-1.568 2.016c-.64.555-1.408.981-2.304 1.28-.896.299-1.877.448-2.944.448Zm11.46-.32v-16h3.04l.224 4.16-.448-.448c.299-.917.726-1.675 1.28-2.272a5.077 5.077 0 0 1 2.016-1.344 7.483 7.483 0 0 1 2.496-.416c1.13 0 2.144.224 3.04.672a4.94 4.94 0 0 1 2.176 1.952c.534.875.8 1.984.8 3.328V444h-3.424v-9.312c0-1.579-.33-2.667-.992-3.264-.64-.619-1.45-.928-2.432-.928-.704 0-1.386.171-2.048.512-.661.32-1.216.843-1.664 1.568-.426.725-.64 1.696-.64 2.912V444h-3.424Zm24.297-20.704V439.2c0 .789.203 1.365.608 1.728.427.363.992.544 1.696.544.576 0 1.078-.085 1.504-.256a4.677 4.677 0 0 0 1.184-.768l.768 2.496c-.49.427-1.098.768-1.824 1.024-.704.235-1.493.352-2.368.352-.917 0-1.76-.149-2.528-.448-.768-.299-1.365-.779-1.792-1.44-.426-.683-.65-1.568-.672-2.656v-15.52l3.424-.96Zm5.504 4.704v2.688h-12V428h12Zm5.115-2.688c-.747 0-1.323-.181-1.728-.544-.384-.384-.576-.917-.576-1.6s.192-1.205.576-1.568c.405-.363.981-.544 1.728-.544.725 0 1.28.181 1.664.544.405.363.608.885.608 1.568s-.203 1.216-.608 1.6c-.384.363-.939.544-1.664.544Zm1.696 2.688v16h-3.424v-16h3.424Zm10.029-4.704V439.2c0 .789.203 1.365.608 1.728.427.363.992.544 1.696.544.576 0 1.077-.085 1.504-.256a4.695 4.695 0 0 0 1.184-.768l.768 2.496c-.491.427-1.099.768-1.824 1.024-.704.235-1.493.352-2.368.352-.917 0-1.76-.149-2.528-.448-.768-.299-1.365-.779-1.792-1.44-.427-.683-.651-1.568-.672-2.656v-15.52l3.424-.96Zm5.504 4.704v2.688h-12V428h12Zm17.435 0-7.008 17.888c-.47 1.237-.982 2.219-1.536 2.944-.534.725-1.152 1.248-1.856 1.568-.704.32-1.526.48-2.464.48a6.955 6.955 0 0 1-2.144-.32 5.949 5.949 0 0 1-1.697-.8l.833-2.656c.405.341.832.597 1.279.768.47.171.971.256 1.505.256.576 0 1.088-.16 1.536-.48.469-.299.885-.907 1.248-1.824l.704-1.728-1.696-3.968L135.979 428h3.84l3.552 10.048.928 3.008 1.056-3.296 3.36-9.76h3.552ZM52.672 498h-3.616l-2.016-5.536h-8.864L36.16 498h-3.52l7.968-21.12h4.096L52.672 498Zm-13.536-8.32h6.944l-3.456-9.856-3.488 9.856Zm22.601 8.64c-1.322 0-2.528-.331-3.616-.992-1.066-.661-1.909-1.611-2.528-2.848-.618-1.237-.928-2.72-.928-4.448 0-1.792.331-3.307.992-4.544.662-1.237 1.547-2.176 2.657-2.816a6.996 6.996 0 0 1 3.648-.992c1.365 0 2.517.373 3.456 1.12.938.747 1.567 1.717 1.887 2.912l-.384.352V474.8h3.424V498h-3.04l-.256-4.352.448.032c-.149.96-.5 1.792-1.055 2.496a5.728 5.728 0 0 1-2.08 1.6 6.346 6.346 0 0 1-2.624.544Zm.736-2.752c.918 0 1.707-.235 2.368-.704.662-.469 1.174-1.131 1.537-1.984.362-.853.543-1.877.543-3.072 0-1.109-.18-2.059-.544-2.848-.362-.811-.874-1.429-1.535-1.856-.64-.427-1.387-.64-2.24-.64-1.43 0-2.54.491-3.328 1.472-.79.981-1.184 2.336-1.184 4.064 0 1.728.383 3.093 1.151 4.096.769.981 1.846 1.472 3.233 1.472ZM81.8 498.32c-1.323 0-2.528-.331-3.616-.992-1.067-.661-1.91-1.611-2.528-2.848-.619-1.237-.928-2.72-.928-4.448 0-1.792.33-3.307.992-4.544.661-1.237 1.547-2.176 2.656-2.816a6.996 6.996 0 0 1 3.648-.992c1.365 0 2.517.373 3.456 1.12.939.747 1.568 1.717 1.888 2.912l-.384.352V474.8h3.424V498h-3.04l-.256-4.352.448.032c-.15.96-.501 1.792-1.056 2.496a5.728 5.728 0 0 1-2.08 1.6 6.346 6.346 0 0 1-2.624.544Zm.736-2.752c.917 0 1.707-.235 2.368-.704.661-.469 1.173-1.131 1.536-1.984s.544-1.877.544-3.072c0-1.109-.181-2.059-.544-2.848-.363-.811-.875-1.429-1.536-1.856-.64-.427-1.387-.64-2.24-.64-1.43 0-2.539.491-3.328 1.472-.79.981-1.184 2.336-1.184 4.064 0 1.728.384 3.093 1.152 4.096.768.981 1.845 1.472 3.232 1.472ZM95.719 498v-16h2.912l.32 2.88c.426-1.045 1.056-1.835 1.888-2.368.853-.555 1.898-.832 3.136-.832.32 0 .64.032.96.096.32.043.586.117.8.224l-.48 3.008a4.064 4.064 0 0 0-.8-.192c-.278-.064-.662-.096-1.152-.096-.662 0-1.312.181-1.952.544-.64.341-1.174.864-1.6 1.568-.406.704-.609 1.6-.609 2.688V498H95.72Zm19.883.32c-1.6 0-3.008-.331-4.224-.992a7.042 7.042 0 0 1-2.848-2.848c-.661-1.259-.992-2.752-.992-4.48 0-1.728.331-3.211.992-4.448.683-1.259 1.622-2.219 2.816-2.88 1.195-.661 2.55-.992 4.064-.992 1.558 0 2.88.32 3.968.96a6.428 6.428 0 0 1 2.496 2.624c.576 1.109.864 2.368.864 3.776 0 .384-.01.747-.032 1.088-.021.341-.053.64-.096.896h-12.864V488.4h11.36l-1.696.512c0-1.451-.362-2.56-1.088-3.328-.725-.789-1.717-1.184-2.976-1.184-.917 0-1.717.213-2.4.64-.682.427-1.205 1.067-1.568 1.92-.362.832-.544 1.856-.544 3.072 0 1.195.192 2.208.576 3.04.384.832.928 1.461 1.632 1.888.704.427 1.536.64 2.496.64 1.067 0 1.931-.203 2.592-.608a4.299 4.299 0 0 0 1.568-1.696l2.72 1.28a6.509 6.509 0 0 1-1.568 2.016c-.64.555-1.408.981-2.304 1.28-.896.299-1.877.448-2.944.448Zm17.54 0c-1.6 0-3.061-.309-4.384-.928-1.322-.619-2.368-1.493-3.136-2.624l2.368-2.048a5.477 5.477 0 0 0 2.016 2.112c.896.512 1.963.768 3.2.768.982 0 1.76-.171 2.336-.512.576-.341.864-.821.864-1.44a1.5 1.5 0 0 0-.416-1.056c-.256-.32-.757-.565-1.504-.736l-3.36-.704c-1.706-.341-2.922-.885-3.648-1.632-.725-.768-1.088-1.739-1.088-2.912 0-.875.256-1.685.768-2.432.512-.747 1.259-1.344 2.24-1.792 1.003-.469 2.198-.704 3.584-.704 1.6 0 2.966.288 4.096.864 1.131.555 1.995 1.355 2.592 2.4l-2.368 1.984c-.405-.853-1.002-1.483-1.792-1.888a5.108 5.108 0 0 0-2.464-.64c-.682 0-1.269.085-1.76.256-.49.171-.864.405-1.12.704a1.572 1.572 0 0 0-.384 1.056c0 .427.16.8.48 1.12.32.32.896.565 1.728.736l3.648.768c1.536.299 2.614.811 3.232 1.536.64.704.96 1.568.96 2.592s-.266 1.931-.8 2.72c-.533.768-1.301 1.365-2.304 1.792-1.002.427-2.197.64-3.584.64Zm16.938 0c-1.6 0-3.062-.309-4.384-.928-1.323-.619-2.368-1.493-3.136-2.624l2.368-2.048a5.462 5.462 0 0 0 2.016 2.112c.896.512 1.962.768 3.2.768.981 0 1.76-.171 2.336-.512.576-.341.864-.821.864-1.44 0-.405-.139-.757-.416-1.056-.256-.32-.758-.565-1.504-.736l-3.36-.704c-1.707-.341-2.923-.885-3.648-1.632-.726-.768-1.088-1.739-1.088-2.912 0-.875.256-1.685.768-2.432.512-.747 1.258-1.344 2.24-1.792 1.002-.469 2.197-.704 3.584-.704 1.6 0 2.965.288 4.096.864 1.13.555 1.994 1.355 2.592 2.4l-2.368 1.984c-.406-.853-1.003-1.483-1.792-1.888a5.114 5.114 0 0 0-2.464-.64c-.683 0-1.27.085-1.76.256-.491.171-.864.405-1.12.704a1.572 1.572 0 0 0-.384 1.056c0 .427.16.8.48 1.12.32.32.896.565 1.728.736l3.648.768c1.536.299 2.613.811 3.232 1.536.64.704.96 1.568.96 2.592s-.267 1.931-.8 2.72c-.534.768-1.302 1.365-2.304 1.792-1.003.427-2.198.64-3.584.64Zm29.84 0c-.939 0-1.803-.181-2.592-.544a5.646 5.646 0 0 1-1.952-1.504 6.683 6.683 0 0 1-1.184-2.208l.416-.544-.256 4.48h-3.008v-23.2h3.424v11.232l-.384-.544a5.68 5.68 0 0 1 2.08-2.72c.981-.725 2.165-1.088 3.552-1.088 1.28 0 2.453.331 3.52.992 1.088.661 1.941 1.611 2.56 2.848.618 1.237.928 2.741.928 4.512 0 1.728-.32 3.211-.96 4.448-.619 1.237-1.472 2.187-2.56 2.848-1.067.661-2.262.992-3.584.992Zm-.736-2.752c1.386 0 2.464-.491 3.232-1.472.789-1.003 1.184-2.368 1.184-4.096 0-1.728-.384-3.083-1.152-4.064-.768-.981-1.846-1.472-3.232-1.472-.896 0-1.675.235-2.336.704-.662.448-1.184 1.088-1.568 1.92-.363.832-.544 1.824-.544 2.976 0 1.131.181 2.112.544 2.944.362.811.874 1.44 1.536 1.888.682.448 1.461.672 2.336.672Zm19.166-13.888c1.557 0 2.933.331 4.128.992 1.195.661 2.123 1.621 2.784 2.88.683 1.237 1.024 2.72 1.024 4.448 0 1.728-.341 3.221-1.024 4.48-.661 1.237-1.589 2.187-2.784 2.848-1.195.661-2.571.992-4.128.992s-2.933-.331-4.128-.992c-1.195-.661-2.133-1.611-2.816-2.848-.683-1.259-1.024-2.752-1.024-4.48 0-1.728.341-3.211 1.024-4.448.683-1.259 1.621-2.219 2.816-2.88 1.195-.661 2.571-.992 4.128-.992Zm0 2.688c-.96 0-1.781.224-2.464.672-.661.427-1.173 1.056-1.536 1.888-.363.832-.544 1.856-.544 3.072 0 1.195.181 2.219.544 3.072.363.832.875 1.472 1.536 1.92.683.427 1.504.64 2.464.64s1.771-.213 2.432-.64c.661-.448 1.173-1.088 1.536-1.92.363-.853.544-1.877.544-3.072 0-1.216-.181-2.24-.544-3.072-.363-.832-.875-1.461-1.536-1.888-.661-.448-1.472-.672-2.432-.672Zm19.188-2.688c1.557 0 2.933.331 4.128.992 1.194.661 2.122 1.621 2.784 2.88.682 1.237 1.024 2.72 1.024 4.448 0 1.728-.342 3.221-1.024 4.48-.662 1.237-1.59 2.187-2.784 2.848-1.195.661-2.571.992-4.128.992-1.558 0-2.934-.331-4.128-.992-1.195-.661-2.134-1.611-2.816-2.848-.683-1.259-1.024-2.752-1.024-4.48 0-1.728.341-3.211 1.024-4.448.682-1.259 1.621-2.219 2.816-2.88 1.194-.661 2.57-.992 4.128-.992Zm0 2.688c-.96 0-1.782.224-2.464.672-.662.427-1.174 1.056-1.536 1.888-.363.832-.544 1.856-.544 3.072 0 1.195.181 2.219.544 3.072.362.832.874 1.472 1.536 1.92.682.427 1.504.64 2.464.64s1.77-.213 2.432-.64c.661-.448 1.173-1.088 1.536-1.92.362-.853.544-1.877.544-3.072 0-1.216-.182-2.24-.544-3.072-.363-.832-.875-1.461-1.536-1.888-.662-.448-1.472-.672-2.432-.672ZM244.885 482l-7.136 7.296-.736.512-5.024 5.216-.032-3.904 8.864-9.12h4.064Zm-11.68-7.2V498h-3.424v-23.2h3.424Zm4.96 12.576L245.269 498h-3.968l-5.696-8.672 2.56-1.952ZM42.336 530.56c1.899 0 3.541.363 4.928 1.088 1.387.704 2.56 1.749 3.52 3.136l-2.304 2.208c-.81-1.237-1.728-2.123-2.752-2.656-1.003-.555-2.197-.832-3.584-.832-1.024 0-1.867.139-2.528.416-.661.277-1.152.651-1.472 1.12-.299.448-.448.96-.448 1.536 0 .661.224 1.237.672 1.728.47.491 1.333.875 2.592 1.152l4.288.96c2.048.448 3.499 1.131 4.352 2.048.853.917 1.28 2.08 1.28 3.488 0 1.301-.352 2.432-1.056 3.392-.704.96-1.685 1.696-2.944 2.208-1.237.512-2.699.768-4.384.768-1.493 0-2.837-.192-4.032-.576-1.195-.384-2.24-.907-3.136-1.568a9.274 9.274 0 0 1-2.208-2.272l2.368-2.368a8.428 8.428 0 0 0 1.696 2.016 7.596 7.596 0 0 0 2.368 1.344c.917.32 1.93.48 3.04.48.981 0 1.824-.117 2.528-.352.725-.235 1.27-.576 1.632-1.024.384-.469.576-1.024.576-1.664a2.35 2.35 0 0 0-.64-1.632c-.405-.469-1.173-.832-2.304-1.088l-4.64-1.056c-1.28-.277-2.336-.672-3.168-1.184-.832-.512-1.45-1.131-1.856-1.856-.405-.747-.608-1.579-.608-2.496 0-1.195.32-2.272.96-3.232.661-.981 1.61-1.76 2.848-2.336 1.237-.597 2.71-.896 4.416-.896Zm19.891 21.76c-1.6 0-3.008-.331-4.224-.992a7.04 7.04 0 0 1-2.848-2.848c-.661-1.259-.992-2.752-.992-4.48 0-1.728.33-3.211.992-4.448.683-1.259 1.622-2.219 2.816-2.88 1.195-.661 2.55-.992 4.064-.992 1.558 0 2.88.32 3.968.96a6.428 6.428 0 0 1 2.496 2.624c.576 1.109.864 2.368.864 3.776 0 .384-.01.747-.032 1.088-.021.341-.053.64-.096.896H56.371V542.4h11.36l-1.696.512c0-1.451-.362-2.56-1.088-3.328-.725-.789-1.717-1.184-2.976-1.184-.917 0-1.717.213-2.4.64-.682.427-1.205 1.067-1.568 1.92-.362.832-.544 1.856-.544 3.072 0 1.195.192 2.208.576 3.04.384.832.928 1.461 1.632 1.888.704.427 1.536.64 2.496.64 1.067 0 1.93-.203 2.592-.608a4.304 4.304 0 0 0 1.568-1.696l2.72 1.28a6.52 6.52 0 0 1-1.568 2.016c-.64.555-1.408.981-2.304 1.28-.896.299-1.877.448-2.944.448Zm15.757-21.024V547.2c0 .789.203 1.365.608 1.728.427.363.992.544 1.696.544.576 0 1.078-.085 1.504-.256a4.696 4.696 0 0 0 1.184-.768l.768 2.496c-.49.427-1.098.768-1.824 1.024-.704.235-1.493.352-2.368.352-.917 0-1.76-.149-2.528-.448-.768-.299-1.365-.779-1.792-1.44-.426-.683-.65-1.568-.672-2.656v-15.52l3.424-.96ZM83.488 536v2.688h-12V536h12Zm6.246-4.704V547.2c0 .789.203 1.365.608 1.728.427.363.992.544 1.696.544.576 0 1.078-.085 1.504-.256a4.696 4.696 0 0 0 1.184-.768l.768 2.496c-.49.427-1.098.768-1.824 1.024-.704.235-1.493.352-2.368.352-.917 0-1.76-.149-2.528-.448-.768-.299-1.365-.779-1.792-1.44-.426-.683-.65-1.568-.672-2.656v-15.52l3.424-.96ZM95.238 536v2.688h-12V536h12Zm5.115-2.688c-.747 0-1.323-.181-1.728-.544-.384-.384-.576-.917-.576-1.6s.192-1.205.576-1.568c.405-.363.981-.544 1.728-.544.725 0 1.28.181 1.664.544.405.363.608.885.608 1.568s-.203 1.216-.608 1.6c-.384.363-.939.544-1.664.544Zm1.696 2.688v16h-3.424v-16h3.424Zm5.357 16v-16h3.04l.224 4.16-.448-.448c.299-.917.725-1.675 1.28-2.272a5.077 5.077 0 0 1 2.016-1.344 7.48 7.48 0 0 1 2.496-.416c1.131 0 2.144.224 3.04.672a4.94 4.94 0 0 1 2.176 1.952c.533.875.8 1.984.8 3.328V552h-3.424v-9.312c0-1.579-.331-2.667-.992-3.264-.64-.619-1.451-.928-2.432-.928-.704 0-1.387.171-2.048.512-.661.32-1.216.843-1.664 1.568-.427.725-.64 1.696-.64 2.912V552h-3.424Zm33.893-19.36.544 2.688h-.192a.615.615 0 0 0-.193-.032c-1.023 0-1.802.224-2.335.672-.534.427-.8 1.056-.8 1.888l-1.664-.768c0-.853.181-1.611.544-2.272a3.951 3.951 0 0 1 1.536-1.6c.682-.384 1.45-.576 2.304-.576h.256Zm-5.056 16.864c1.621 0 2.88.363 3.776 1.088.896.704 1.344 1.685 1.344 2.944 0 1.109-.352 2.059-1.056 2.848-.704.811-1.664 1.429-2.88 1.856-1.195.427-2.571.64-4.128.64-2.624 0-4.566-.405-5.824-1.216-1.259-.811-1.888-1.824-1.888-3.04 0-.853.298-1.6.896-2.24.618-.64 1.653-1.003 3.104-1.088l-.192.512c-.896-.192-1.622-.533-2.176-1.024-.534-.512-.8-1.227-.8-2.144s.352-1.696 1.056-2.336c.704-.64 1.696-1.013 2.976-1.12l1.792.864h-.384c-.982.085-1.675.309-2.08.672-.406.363-.608.768-.608 1.216 0 .533.192.928.576 1.184.405.256.97.384 1.696.384h4.8Zm-2.944 6.816c1.173 0 2.133-.117 2.88-.352.768-.213 1.333-.501 1.696-.864.384-.341.576-.725.576-1.152 0-.491-.203-.885-.608-1.184-.384-.299-1.088-.448-2.112-.448h-5.152c-.598 0-1.099.149-1.504.448-.406.32-.608.747-.608 1.28 0 .704.426 1.259 1.28 1.664.853.405 2.037.608 3.552.608Zm-.128-20.64c1.408 0 2.624.224 3.648.672 1.045.448 1.845 1.077 2.4 1.888.576.811.864 1.76.864 2.848 0 1.088-.288 2.037-.864 2.848-.555.811-1.355 1.44-2.4 1.888-1.024.448-2.24.672-3.648.672-2.219 0-3.926-.491-5.12-1.472-1.174-1.003-1.76-2.315-1.76-3.936 0-1.088.288-2.037.864-2.848.576-.811 1.376-1.44 2.4-1.888 1.045-.448 2.25-.672 3.616-.672Zm0 2.4c-.982 0-1.803.277-2.464.832-.64.533-.96 1.259-.96 2.176 0 .917.32 1.653.96 2.208.661.555 1.482.832 2.464.832 1.002 0 1.824-.277 2.464-.832.661-.555.992-1.291.992-2.208 0-.917-.331-1.643-.992-2.176-.64-.555-1.462-.832-2.464-.832Zm17.409 14.24c-1.6 0-3.062-.309-4.384-.928-1.323-.619-2.368-1.493-3.136-2.624l2.368-2.048a5.462 5.462 0 0 0 2.016 2.112c.896.512 1.962.768 3.2.768.981 0 1.76-.171 2.336-.512.576-.341.864-.821.864-1.44 0-.405-.139-.757-.416-1.056-.256-.32-.758-.565-1.504-.736l-3.36-.704c-1.707-.341-2.923-.885-3.648-1.632-.726-.768-1.088-1.739-1.088-2.912 0-.875.256-1.685.768-2.432.512-.747 1.258-1.344 2.24-1.792 1.002-.469 2.197-.704 3.584-.704 1.6 0 2.965.288 4.096.864 1.13.555 1.994 1.355 2.592 2.4l-2.368 1.984c-.406-.853-1.003-1.483-1.792-1.888a5.114 5.114 0 0 0-2.464-.64c-.683 0-1.27.085-1.76.256-.491.171-.864.405-1.12.704a1.572 1.572 0 0 0-.384 1.056c0 .427.16.8.48 1.12.32.32.896.565 1.728.736l3.648.768c1.536.299 2.613.811 3.232 1.536.64.704.96 1.568.96 2.592s-.267 1.931-.8 2.72c-.534.768-1.302 1.365-2.304 1.792-1.003.427-2.198.64-3.584.64ZM37.333 54.663H34.533c-1.248-.002-2.252-.825-2.49-2.047-.03-.15-.04-.305-.041-.458C32 46.143 32 40.128 32 34.114c0-.494.288-.782.787-.782h4.536c.004-.074.009-.136.009-.198v-4.329c0-.53.276-.805.809-.805h18.014c1.41 0 2.504 1.098 2.505 2.51v2.813c.065.003.123.008.18.008.912.002 1.825-.012 2.737.007a2.454 2.454 0 0 1 2.415 2.445c.011 1.919.01 3.838 0 5.757a2.472 2.472 0 0 1-2.486 2.453H58.66V46.838a2.472 2.472 0 0 1-2.482 2.486c-1.894.003-3.788.003-5.682 0-1.402-.002-2.493-1.101-2.494-2.505v-2.826H55.924c1.356 0 2.5-.98 2.701-2.317.022-.146.034-.295.034-.443.002-1.706.001-3.412.001-5.117 0-1.583-1.201-2.784-2.788-2.785H40.15c-1.62 0-2.817 1.2-2.817 2.822V51.86c0 1.595 1.21 2.802 2.809 2.803h5.34c1.24 0 2.26.822 2.472 2.042.146.839.067 1.656-.5 2.353-.493.603-1.135.928-1.913.933-1.914.01-3.828.01-5.742 0a2.483 2.483 0 0 1-2.465-2.495c-.003-.877 0-1.755 0-2.633v-.201Z"/><rect width="81" height="40" x="151" y="24" fill="#FEFCFA" rx="20"/><path fill="#25233A" d="M177.822 39.76V49h-1.386v-5.348l.112-2.548h-.014L173.72 49h-1.246l-2.814-7.896h-.014l.112 2.548V49h-1.386v-9.24h2.226l1.862 5.348.644 2.198h.028l.658-2.198 1.848-5.348h2.184Zm3.207 1.064c-.326 0-.578-.08-.756-.238-.168-.168-.252-.401-.252-.7 0-.299.084-.527.252-.686.178-.159.43-.238.756-.238.318 0 .56.08.728.238.178.159.266.387.266.686 0 .299-.088.532-.266.7-.168.159-.41.238-.728.238Zm.742 1.176v7h-1.498v-7h1.498Zm2.26 7v-7h1.33l.098 1.82-.196-.196c.131-.401.317-.733.56-.994.252-.27.546-.467.882-.588a3.268 3.268 0 0 1 1.092-.182c.495 0 .938.098 1.33.294.401.187.719.471.952.854.233.383.35.868.35 1.456V49h-1.498v-4.074c0-.69-.145-1.167-.434-1.428-.28-.27-.635-.406-1.064-.406a1.93 1.93 0 0 0-.896.224c-.289.14-.532.369-.728.686-.187.317-.28.742-.28 1.274V49h-1.498Zm12.63-4.494c0-.467-.131-.826-.392-1.078-.252-.261-.602-.392-1.05-.392-.42 0-.779.098-1.078.294-.299.196-.518.513-.658.952l-1.26-.532a2.52 2.52 0 0 1 1.036-1.372c.523-.345 1.195-.518 2.016-.518.56 0 1.055.093 1.484.28a2.18 2.18 0 0 1 1.008.812c.252.364.378.83.378 1.4v3.122c0 .345.173.518.518.518.168 0 .331-.023.49-.07l-.084 1.036c-.215.103-.485.154-.812.154-.299 0-.569-.051-.812-.154a1.358 1.358 0 0 1-.56-.49c-.131-.224-.196-.5-.196-.826v-.098l.308-.014a1.749 1.749 0 0 1-.518.91c-.261.233-.565.41-.91.532a3.381 3.381 0 0 1-1.05.168c-.439 0-.835-.07-1.19-.21a1.87 1.87 0 0 1-.826-.63c-.196-.29-.294-.644-.294-1.064 0-.523.168-.952.504-1.288.345-.336.831-.565 1.456-.686l2.716-.532-.014 1.05-1.974.406c-.392.075-.686.182-.882.322-.196.14-.294.345-.294.616a.77.77 0 0 0 .294.63c.205.15.476.224.812.224.233 0 .457-.028.672-.084.224-.056.425-.145.602-.266a1.29 1.29 0 0 0 .406-.49c.103-.205.154-.448.154-.728v-1.904Z"/><path stroke="#25233A" stroke-linecap="round" stroke-linejoin="round" stroke-width="1.364" d="m206 41 6 6 6-6"/><rect width="40" height="40" x="240" y="24" fill="#FEFCFA" rx="20"/><path stroke="#25233A" stroke-linecap="round" stroke-linejoin="round" stroke-width="1.5" d="m269 53-4.35-4.35M267 43a8 8 0 1 1-16 0 8 8 0 0 1 16 0Z"/><rect width="40" height="40" x="288" y="24" fill="#FEFCFA" rx="20"/><path stroke="#25233A" stroke-linecap="round" stroke-linejoin="round" stroke-width="1.5" d="m314 38-12 12m0-12 12 12"/><defs><linearGradient id="a" x1="180" x2="180" y1="0" y2="600" gradientUnits="userSpaceOnUse"><stop stop-color="#ECBCB4"/><stop offset=".39" stop-color="#C27E85"/><stop offset=".765" stop-color="#8E3E5B"/><stop offset="1" stop-color="#291E48"/></linearGradient></defs></svg>