<svg xmlns="http://www.w3.org/2000/svg" width="360" height="600" fill="none"><path fill="#191724" d="M0 0h360v600H0z"/><path fill="#FEFCFA" d="M37.333 54.663H34.533c-1.248-.002-2.252-.825-2.49-2.047-.03-.15-.04-.305-.041-.458C32 46.143 32 40.128 32 34.114c0-.494.288-.782.787-.782h4.536c.004-.074.009-.136.009-.198v-4.329c0-.53.276-.805.809-.805h18.014c1.41 0 2.504 1.098 2.505 2.51v2.813c.065.003.123.008.18.008.912.002 1.825-.012 2.737.007a2.454 2.454 0 0 1 2.415 2.445c.011 1.919.01 3.838 0 5.757a2.472 2.472 0 0 1-2.486 2.453H58.66V46.838a2.472 2.472 0 0 1-2.482 2.486c-1.894.003-3.788.003-5.682 0-1.402-.002-2.493-1.101-2.494-2.505v-2.826H55.924c1.356 0 2.5-.98 2.701-2.317.022-.146.034-.295.034-.443.002-1.706.001-3.412.001-5.117 0-1.583-1.201-2.784-2.788-2.785H40.15c-1.62 0-2.817 1.2-2.817 2.822V51.86c0 1.595 1.21 2.802 2.809 2.803h5.34c1.24 0 2.26.822 2.472 2.042.146.839.067 1.656-.5 2.353-.493.603-1.135.928-1.913.933-1.914.01-3.828.01-5.742 0a2.483 2.483 0 0 1-2.465-2.495c-.003-.877 0-1.755 0-2.633v-.201Z"/><rect width="129" height="40" x="111.5" y="24" fill="#25233A" rx="20"/><path fill="#FEFCFA" d="M128.872 49v-9.24h3.64c1.111 0 1.923.224 2.436.672.513.448.77 1.069.77 1.862 0 .485-.14.92-.42 1.302-.28.373-.691.611-1.232.714v.014c.597.093 1.059.34 1.386.742.336.392.504.85.504 1.372 0 .793-.289 1.419-.868 1.876-.579.457-1.419.686-2.52.686h-3.696Zm1.47-1.246h2.296c.588 0 1.027-.121 1.316-.364.299-.243.448-.583.448-1.022 0-.439-.149-.78-.448-1.022-.289-.243-.728-.364-1.316-.364h-2.296v2.772Zm0-4.018h2.058c1.176 0 1.764-.453 1.764-1.358s-.588-1.358-1.764-1.358h-2.058v2.716Zm10.95-4.116c.494 0 .933.07 1.316.21.382.13.714.34.994.63.289.29.527.667.714 1.134l-1.316.63c-.131-.401-.341-.719-.63-.952-.28-.233-.672-.35-1.176-.35-.364 0-.686.089-.966.266a2.23 2.23 0 0 0-.714.756 3.77 3.77 0 0 0-.448 1.134c-.103.43-.154.896-.154 1.4v.252l.056.028a1.75 1.75 0 0 1 .546-.896c.27-.233.574-.406.91-.518.336-.112.667-.168.994-.168.616 0 1.152.121 1.61.364.457.233.812.57 1.064 1.008.261.439.392.961.392 1.568 0 .616-.136 1.153-.406 1.61a2.807 2.807 0 0 1-1.134 1.05c-.476.243-1.05.364-1.722.364-.784 0-1.452-.196-2.002-.588-.551-.392-.971-.943-1.26-1.652-.29-.71-.434-1.54-.434-2.492 0-1.055.163-1.937.49-2.646.336-.71.788-1.241 1.358-1.596a3.483 3.483 0 0 1 1.918-.546Zm-.098 4.802c-.355 0-.668.075-.938.224-.271.14-.486.336-.644.588-.15.252-.224.546-.224.882 0 .327.079.62.238.882.168.261.387.471.658.63.27.15.574.224.91.224.569 0 1.012-.154 1.33-.462.317-.308.476-.733.476-1.274 0-.345-.07-.644-.21-.896a1.347 1.347 0 0 0-.616-.588c-.262-.14-.588-.21-.98-.21ZM146.14 49v-1.092a46.416 46.416 0 0 0 2.226-1.68c.607-.485 1.092-.933 1.456-1.344.364-.41.625-.798.784-1.162a2.74 2.74 0 0 0 .252-1.134c0-.495-.154-.896-.462-1.204-.308-.308-.737-.462-1.288-.462-.579 0-1.041.196-1.386.588-.336.383-.527.91-.574 1.582l-1.302-.602c.065-.588.238-1.097.518-1.526.28-.43.658-.76 1.134-.994.485-.233 1.045-.35 1.68-.35.523 0 .98.075 1.372.224.401.15.737.36 1.008.63.271.261.476.57.616.924.149.355.224.733.224 1.134 0 .588-.145 1.157-.434 1.708-.289.541-.747 1.097-1.372 1.666-.625.57-1.447 1.18-2.464 1.834v.028c.112-.019.266-.028.462-.028.196-.01.392-.014.588-.014.196-.01.355-.014.476-.014h2.912V49h-6.426Zm13.271 2.94v-4.984l.21.196c-.065.41-.219.765-.462 1.064a2.28 2.28 0 0 1-.882.686 2.68 2.68 0 0 1-1.134.238 2.916 2.916 0 0 1-1.568-.434c-.467-.29-.84-.705-1.12-1.246-.271-.55-.406-1.209-.406-1.974 0-.765.145-1.419.434-1.96.289-.541.677-.952 1.162-1.232a3.058 3.058 0 0 1 1.596-.434c.411 0 .784.084 1.12.252.345.159.63.387.854.686.233.29.387.635.462 1.036l-.21.07.112-1.904h1.33v9.94h-1.498Zm-1.946-4.018c.392 0 .733-.098 1.022-.294.289-.196.513-.476.672-.84.168-.373.252-.812.252-1.316 0-.523-.079-.961-.238-1.316a1.824 1.824 0 0 0-.672-.812 1.816 1.816 0 0 0-1.008-.28c-.607 0-1.083.22-1.428.658-.345.43-.518 1.022-.518 1.778s.168 1.349.504 1.778c.336.43.807.644 1.414.644Zm10.639 4.018v-4.984l.21.196c-.065.41-.219.765-.462 1.064a2.28 2.28 0 0 1-.882.686 2.68 2.68 0 0 1-1.134.238 2.918 2.918 0 0 1-1.568-.434c-.466-.29-.84-.705-1.12-1.246-.27-.55-.406-1.209-.406-1.974 0-.765.145-1.419.434-1.96.29-.541.677-.952 1.162-1.232a3.063 3.063 0 0 1 1.596-.434c.411 0 .784.084 1.12.252.346.159.63.387.854.686.234.29.388.635.462 1.036l-.21.07.112-1.904h1.33v9.94h-1.498Zm-1.946-4.018c.392 0 .733-.098 1.022-.294.29-.196.514-.476.672-.84.168-.373.252-.812.252-1.316 0-.523-.079-.961-.238-1.316a1.81 1.81 0 0 0-.672-.812 1.816 1.816 0 0 0-1.008-.28c-.606 0-1.082.22-1.428.658-.345.43-.518 1.022-.518 1.778s.168 1.349.504 1.778c.336.43.808.644 1.414.644Zm6.44-.812c.317 0 .569.093.756.28.196.177.294.42.294.728s-.098.555-.294.742c-.187.187-.439.28-.756.28-.327 0-.588-.093-.784-.28-.187-.187-.28-.434-.28-.742s.093-.55.28-.728c.196-.187.457-.28.784-.28Zm3.744 0c.317 0 .569.093.756.28.196.177.294.42.294.728s-.098.555-.294.742c-.187.187-.439.28-.756.28-.327 0-.588-.093-.784-.28-.187-.187-.28-.434-.28-.742s.093-.55.28-.728c.196-.187.457-.28.784-.28Zm3.744 0c.317 0 .569.093.756.28.196.177.294.42.294.728s-.098.555-.294.742c-.187.187-.439.28-.756.28-.327 0-.588-.093-.784-.28-.187-.187-.28-.434-.28-.742s.093-.55.28-.728c.196-.187.457-.28.784-.28Zm3.198 1.89v-9.24h3.64c1.111 0 1.923.224 2.436.672.513.448.77 1.069.77 1.862 0 .485-.14.92-.42 1.302-.28.373-.691.611-1.232.714v.014c.597.093 1.059.34 1.386.742.336.392.504.85.504 1.372 0 .793-.289 1.419-.868 1.876-.579.457-1.419.686-2.52.686h-3.696Zm1.47-1.246h2.296c.588 0 1.027-.121 1.316-.364.299-.243.448-.583.448-1.022 0-.439-.149-.78-.448-1.022-.289-.243-.728-.364-1.316-.364h-2.296v2.772Zm0-4.018h2.058c1.176 0 1.764-.453 1.764-1.358s-.588-1.358-1.764-1.358h-2.058v2.716Zm6.876-3.976h7.042v1.246c-.775.803-1.4 1.629-1.876 2.478a9.886 9.886 0 0 0-1.036 2.632 12.972 12.972 0 0 0-.308 2.884h-1.512c0-1.027.126-2.025.378-2.996.261-.98.653-1.913 1.176-2.8a12.299 12.299 0 0 1 2.002-2.52l.28.378h-6.146V39.76Zm11.958-.14c.831 0 1.55.159 2.156.476.607.308 1.12.765 1.54 1.372l-1.008.966c-.354-.541-.756-.929-1.204-1.162-.438-.243-.961-.364-1.568-.364-.448 0-.816.06-1.106.182-.289.121-.504.285-.644.49-.13.196-.196.42-.196.672 0 .29.098.541.294.756.206.215.584.383 1.134.504l1.876.42c.896.196 1.531.495 1.904.896.374.401.56.91.56 1.526 0 .57-.154 1.064-.462 1.484-.308.42-.737.742-1.288.966-.541.224-1.18.336-1.918.336a5.754 5.754 0 0 1-1.764-.252 4.734 4.734 0 0 1-1.372-.686 4.057 4.057 0 0 1-.966-.994l1.036-1.036c.196.327.444.62.742.882.299.252.644.448 1.036.588.402.14.845.21 1.33.21.43 0 .798-.051 1.106-.154.318-.103.556-.252.714-.448.168-.205.252-.448.252-.728 0-.27-.093-.509-.28-.714-.177-.205-.513-.364-1.008-.476l-2.03-.462c-.56-.121-1.022-.294-1.386-.518-.364-.224-.634-.495-.812-.812a2.255 2.255 0 0 1-.266-1.092c0-.523.14-.994.42-1.414.29-.43.705-.77 1.246-1.022.542-.261 1.186-.392 1.932-.392Z"/><path stroke="#FEFCFA" stroke-linecap="round" stroke-linejoin="round" stroke-width="1.5" d="m217.5 50 6-6-6-6"/><rect width="40" height="40" x="288" y="24" fill="#25233A" rx="20"/><path stroke="#FEFCFA" stroke-linecap="round" stroke-linejoin="round" stroke-width="1.5" d="M299 44h12m-12-6h18m-18 12h18"/><path fill="#FEFCFA" d="M52.672 126h-3.616l-2.016-5.536h-8.864L36.16 126h-3.52l7.968-21.12h4.096L52.672 126Zm-13.536-8.32h6.944l-3.456-9.856-3.488 9.856Zm23.37-8c1.28 0 2.368.192 3.263.576.918.363 1.686.885 2.304 1.568a7.053 7.053 0 0 1 1.409 2.336l-3.233 1.28c-.277-.981-.725-1.728-1.343-2.24-.598-.533-1.387-.8-2.369-.8-.96 0-1.78.224-2.463.672-.683.427-1.206 1.056-1.569 1.888-.34.832-.512 1.856-.512 3.072 0 1.195.182 2.208.544 3.04.363.832.886 1.461 1.569 1.888.682.427 1.493.64 2.431.64.726 0 1.355-.117 1.889-.352.533-.256.97-.608 1.311-1.056.363-.469.609-1.035.737-1.696l3.103 1.056a6.843 6.843 0 0 1-1.407 2.528c-.62.704-1.398 1.259-2.337 1.664-.938.384-2.015.576-3.231.576-1.58 0-2.976-.331-4.192-.992a7.04 7.04 0 0 1-2.848-2.848c-.662-1.259-.992-2.752-.992-4.48 0-1.728.33-3.211.992-4.448.682-1.259 1.62-2.219 2.816-2.88 1.215-.661 2.591-.992 4.127-.992Zm15.728-4.384V121.2c0 .789.203 1.365.608 1.728.427.363.992.544 1.696.544.576 0 1.078-.085 1.504-.256a4.696 4.696 0 0 0 1.184-.768l.768 2.496c-.49.427-1.098.768-1.824 1.024-.704.235-1.493.352-2.368.352-.917 0-1.76-.149-2.528-.448-.768-.299-1.365-.779-1.792-1.44-.426-.683-.65-1.568-.672-2.656v-15.52l3.424-.96ZM83.738 110v2.688h-12V110h12Zm5.115-2.688c-.747 0-1.323-.181-1.728-.544-.384-.384-.576-.917-.576-1.6s.192-1.205.576-1.568c.405-.363.981-.544 1.728-.544.725 0 1.28.181 1.664.544.405.363.608.885.608 1.568s-.203 1.216-.608 1.6c-.384.363-.939.544-1.664.544ZM90.549 110v16h-3.424v-16h3.424Zm15.885 0h3.584l-6.368 16h-3.744l-6.4-16h3.744l4.544 13.024 4.64-13.024Zm8.231-2.688c-.746 0-1.322-.181-1.728-.544-.384-.384-.576-.917-.576-1.6s.192-1.205.576-1.568c.406-.363.982-.544 1.728-.544.726 0 1.28.181 1.664.544.406.363.608.885.608 1.568s-.202 1.216-.608 1.6c-.384.363-.938.544-1.664.544Zm1.696 2.688v16h-3.424v-16h3.424Zm10.03-4.704V121.2c0 .789.202 1.365.608 1.728.426.363.992.544 1.696.544.576 0 1.077-.085 1.504-.256a4.712 4.712 0 0 0 1.184-.768l.768 2.496c-.491.427-1.099.768-1.824 1.024-.704.235-1.494.352-2.368.352-.918 0-1.76-.149-2.528-.448-.768-.299-1.366-.779-1.792-1.44-.427-.683-.651-1.568-.672-2.656v-15.52l3.424-.96Zm5.504 4.704v2.688h-12V110h12Zm17.434 0-7.008 17.888c-.469 1.237-.981 2.219-1.536 2.944-.533.725-1.152 1.248-1.856 1.568-.704.32-1.525.48-2.464.48a6.955 6.955 0 0 1-2.144-.32 5.943 5.943 0 0 1-1.696-.8l.832-2.656c.405.341.832.597 1.28.768a4.36 4.36 0 0 0 1.504.256c.576 0 1.088-.16 1.536-.48.469-.299.885-.907 1.248-1.824l.704-1.728-1.696-3.968L133.041 110h3.84l3.552 10.048.928 3.008 1.056-3.296 3.36-9.76h3.552ZM36.688 177.16c-.992 0-1.856-.219-2.592-.656a3.406 3.406 0 0 1-1.488-1.872l1.664-.784c.096.384.245.715.448.992s.47.491.8.64c.33.139.741.208 1.232.208.416 0 .768-.075 1.056-.224.288-.149.507-.357.656-.624.16-.267.24-.571.24-.912 0-.352-.07-.645-.208-.88-.128-.235-.336-.405-.624-.512-.277-.107-.635-.16-1.072-.16-.128 0-.261.005-.4.016-.128 0-.267.011-.416.032v-1.44l.272.032h.272c.693 0 1.19-.139 1.488-.416.299-.277.448-.709.448-1.296 0-.501-.155-.885-.464-1.152-.299-.267-.73-.4-1.296-.4-.587 0-1.045.139-1.376.416-.32.267-.565.656-.736 1.168l-1.568-.656c.15-.491.4-.917.752-1.28s.784-.64 1.296-.832a4.69 4.69 0 0 1 1.712-.304c.757 0 1.387.123 1.888.368.512.245.89.581 1.136 1.008.256.427.384.901.384 1.424 0 .405-.059.763-.176 1.072-.117.299-.277.56-.48.784a2.16 2.16 0 0 1-.64.496 2.425 2.425 0 0 1-.688.24v.032c.31.011.592.075.848.192.267.107.501.261.704.464.213.192.379.427.496.704.117.277.176.581.176.912 0 .64-.16 1.2-.48 1.68-.32.48-.763.853-1.328 1.12-.555.267-1.2.4-1.936.4Zm4.62-10.72h8.049v1.424c-.886.917-1.6 1.861-2.144 2.832-.544.96-.939 1.963-1.184 3.008a14.868 14.868 0 0 0-.352 3.296h-1.728c0-1.173.144-2.315.432-3.424a12.73 12.73 0 0 1 1.344-3.2 14.066 14.066 0 0 1 2.288-2.88l.32.432h-7.024v-1.488ZM55.79 177v-8h1.52l.08 1.344c.277-.512.645-.891 1.104-1.136.47-.245.965-.368 1.488-.368.576 0 1.104.133 1.584.4.49.256.859.645 1.104 1.168.17-.352.405-.645.704-.88a2.93 2.93 0 0 1 .992-.512 3.48 3.48 0 0 1 1.072-.176c.512 0 .992.107 1.44.32.448.213.81.539 1.088.976.277.437.416.997.416 1.68V177H66.67v-4.912c0-.651-.155-1.12-.464-1.408-.31-.288-.704-.432-1.184-.432-.373 0-.72.091-1.04.272-.31.181-.56.453-.752.816-.192.352-.288.789-.288 1.312V177H61.23v-4.912c0-.651-.155-1.12-.464-1.408-.31-.288-.704-.432-1.184-.432-.32 0-.64.085-.96.256-.32.171-.587.437-.8.8-.213.363-.32.843-.32 1.44V177H55.79Zm15.956-9.344c-.374 0-.662-.091-.864-.272-.193-.192-.288-.459-.288-.8s.096-.603.288-.784c.202-.181.49-.272.864-.272.362 0 .64.091.832.272.202.181.303.443.303.784s-.1.608-.303.8c-.193.181-.47.272-.832.272Zm.848 1.344v8h-1.712v-8h1.712Zm2.582 8v-8h1.52l.112 2.08-.224-.224c.15-.459.363-.837.64-1.136a2.549 2.549 0 0 1 1.008-.672 3.73 3.73 0 0 1 1.248-.208c.566 0 1.072.112 1.52.336a2.47 2.47 0 0 1 1.088.976c.267.437.4.992.4 1.664V177h-1.712v-4.656c0-.789-.165-1.333-.496-1.632-.32-.309-.725-.464-1.216-.464-.352 0-.693.085-1.024.256-.33.16-.608.421-.832.784-.213.363-.32.848-.32 1.456V177h-1.712Zm12.658.16a3.657 3.657 0 0 1-1.456-.288 2.331 2.331 0 0 1-1.056-.928c-.266-.427-.4-.981-.4-1.664V169h1.712v4.848c0 .725.155 1.227.464 1.504.31.267.742.4 1.296.4.267 0 .523-.043.768-.128.256-.096.486-.24.688-.432.203-.203.358-.459.464-.768.118-.309.176-.672.176-1.088V169h1.712v8h-1.504l-.08-1.296c-.277.501-.65.869-1.12 1.104-.469.235-1.024.352-1.664.352Zm9.283-10.512v7.952c0 .395.101.683.304.864.213.181.496.272.848.272.288 0 .539-.043.752-.128.213-.096.41-.224.592-.384l.384 1.248a2.79 2.79 0 0 1-.912.512 3.741 3.741 0 0 1-1.184.176c-.459 0-.88-.075-1.264-.224a1.817 1.817 0 0 1-.896-.72c-.213-.341-.325-.784-.336-1.328v-7.76l1.712-.48ZM99.869 169v1.344h-6V169h6Zm5.117 8.16c-.8 0-1.504-.165-2.112-.496a3.524 3.524 0 0 1-1.424-1.424c-.33-.629-.496-1.376-.496-2.24 0-.864.166-1.605.496-2.224a3.534 3.534 0 0 1 1.408-1.44c.598-.331 1.275-.496 2.032-.496.779 0 1.44.16 1.984.48.544.32.96.757 1.248 1.312.288.555.432 1.184.432 1.888 0 .192-.005.373-.016.544-.01.171-.026.32-.048.448h-6.432V172.2h5.68l-.848.256c0-.725-.181-1.28-.544-1.664-.362-.395-.858-.592-1.488-.592-.458 0-.858.107-1.2.32-.341.213-.602.533-.784.96-.181.416-.272.928-.272 1.536 0 .597.096 1.104.288 1.52.192.416.464.731.816.944.352.213.768.32 1.248.32.534 0 .966-.101 1.296-.304a2.15 2.15 0 0 0 .784-.848l1.36.64c-.192.384-.453.72-.784 1.008-.32.277-.704.491-1.152.64a4.637 4.637 0 0 1-1.472.224Zm8.674 0c-.8 0-1.53-.155-2.192-.464a3.794 3.794 0 0 1-1.568-1.312l1.184-1.024c.235.437.571.789 1.008 1.056.448.256.982.384 1.6.384.491 0 .88-.085 1.168-.256.288-.171.432-.411.432-.72a.748.748 0 0 0-.208-.528c-.128-.16-.378-.283-.752-.368l-1.68-.352c-.853-.171-1.461-.443-1.824-.816-.362-.384-.544-.869-.544-1.456 0-.437.128-.843.384-1.216s.63-.672 1.12-.896c.502-.235 1.099-.352 1.792-.352.8 0 1.483.144 2.048.432.566.277.998.677 1.296 1.2l-1.184.992a1.974 1.974 0 0 0-.896-.944 2.558 2.558 0 0 0-1.232-.32c-.341 0-.634.043-.88.128-.245.085-.432.203-.56.352a.784.784 0 0 0-.192.528c0 .213.08.4.24.56.16.16.448.283.864.368l1.824.384c.768.149 1.307.405 1.616.768.32.352.48.784.48 1.296s-.133.965-.4 1.36c-.266.384-.65.683-1.152.896-.501.213-1.098.32-1.792.32Zm15.064-5.296c0-.533-.149-.944-.448-1.232-.288-.299-.688-.448-1.2-.448-.48 0-.891.112-1.232.336-.341.224-.592.587-.752 1.088l-1.44-.608a2.88 2.88 0 0 1 1.184-1.568c.597-.395 1.365-.592 2.304-.592.64 0 1.205.107 1.696.32.491.203.875.512 1.152.928.288.416.432.949.432 1.6v3.568c0 .395.197.592.592.592.192 0 .379-.027.56-.08l-.096 1.184c-.245.117-.555.176-.928.176-.341 0-.651-.059-.928-.176a1.55 1.55 0 0 1-.64-.56c-.149-.256-.224-.571-.224-.944v-.112l.352-.016a1.993 1.993 0 0 1-.592 1.04 3.073 3.073 0 0 1-1.04.608 3.87 3.87 0 0 1-1.2.192c-.501 0-.955-.08-1.36-.24-.395-.16-.709-.4-.944-.72-.224-.331-.336-.736-.336-1.216 0-.597.192-1.088.576-1.472.395-.384.949-.645 1.664-.784l3.104-.608-.016 1.2-2.256.464c-.448.085-.784.208-1.008.368-.224.16-.336.395-.336.704a.88.88 0 0 0 .336.72c.235.171.544.256.928.256.267 0 .523-.032.768-.096.256-.064.485-.165.688-.304a1.47 1.47 0 0 0 .464-.56c.117-.235.176-.512.176-.832v-2.176Zm11.476-4.544.272 1.344h-.096a.293.293 0 0 0-.096-.016c-.512 0-.901.112-1.168.336-.266.213-.4.528-.4.944l-.832-.384c0-.427.091-.805.272-1.136.182-.341.438-.608.768-.8a2.312 2.312 0 0 1 1.152-.288h.128Zm-2.528 8.432c.811 0 1.44.181 1.888.544.448.352.672.843.672 1.472 0 .555-.176 1.029-.528 1.424-.352.405-.832.715-1.44.928-.597.213-1.285.32-2.064.32-1.312 0-2.282-.203-2.912-.608-.629-.405-.944-.912-.944-1.52 0-.427.15-.8.448-1.12.31-.32.827-.501 1.552-.544l-.096.256c-.448-.096-.81-.267-1.088-.512-.266-.256-.4-.613-.4-1.072 0-.459.176-.848.528-1.168.352-.32.848-.507 1.488-.56l.896.432h-.192c-.49.043-.837.155-1.04.336-.202.181-.304.384-.304.608 0 .267.096.464.288.592.203.128.486.192.848.192h2.4Zm-1.472 3.408c.587 0 1.067-.059 1.44-.176.384-.107.667-.251.848-.432.192-.171.288-.363.288-.576a.7.7 0 0 0-.304-.592c-.192-.149-.544-.224-1.056-.224h-2.576c-.298 0-.549.075-.752.224a.775.775 0 0 0-.304.64c0 .352.214.629.64.832.427.203 1.019.304 1.776.304Zm-.064-10.32c.704 0 1.312.112 1.824.336.523.224.923.539 1.2.944.288.405.432.88.432 1.424 0 .544-.144 1.019-.432 1.424-.277.405-.677.72-1.2.944-.512.224-1.12.336-1.824.336-1.109 0-1.962-.245-2.56-.736-.586-.501-.88-1.157-.88-1.968 0-.544.144-1.019.432-1.424.288-.405.688-.72 1.2-.944.523-.224 1.126-.336 1.808-.336Zm0 1.2c-.49 0-.901.139-1.232.416-.32.267-.48.629-.48 1.088 0 .459.16.827.48 1.104.331.277.742.416 1.232.416.502 0 .912-.139 1.232-.416.331-.277.496-.645.496-1.104 0-.459-.165-.821-.496-1.088-.32-.277-.73-.416-1.232-.416Zm9.041-1.2c.779 0 1.467.165 2.064.496a3.43 3.43 0 0 1 1.392 1.44c.341.619.512 1.36.512 2.224 0 .864-.171 1.611-.512 2.24a3.45 3.45 0 0 1-1.392 1.424c-.597.331-1.285.496-2.064.496-.779 0-1.467-.165-2.064-.496a3.548 3.548 0 0 1-1.408-1.424c-.341-.629-.512-1.376-.512-2.24 0-.864.171-1.605.512-2.224a3.527 3.527 0 0 1 1.408-1.44c.597-.331 1.285-.496 2.064-.496Zm0 1.344c-.48 0-.891.112-1.232.336-.331.213-.587.528-.768.944-.181.416-.272.928-.272 1.536 0 .597.091 1.109.272 1.536.181.416.437.736.768.96.341.213.752.32 1.232.32s.885-.107 1.216-.32c.331-.224.587-.544.768-.96.181-.427.272-.939.272-1.536 0-.608-.091-1.12-.272-1.536-.181-.416-.437-.731-.768-.944-.331-.224-.736-.336-1.216-.336Z"/><rect width="48" height="48" x="32" y="202" fill="#25233A" rx="24"/><path fill="#FEFCFA" d="M101.872 207.44c1.131 0 2.027.283 2.688.848.672.565 1.008 1.328 1.008 2.288 0 .992-.336 1.76-1.008 2.304-.661.533-1.557.8-2.688.8l-.16.096h-2.448V218h-1.696v-10.56h4.304Zm-.128 4.912c.693 0 1.205-.139 1.536-.416.341-.288.512-.725.512-1.312 0-.576-.171-1.008-.512-1.296-.331-.288-.843-.432-1.536-.432h-2.48v3.456h2.48Zm1.008.352 3.44 5.296h-1.968l-2.944-4.624 1.472-.672Zm8.531 5.456c-.8 0-1.504-.165-2.112-.496a3.524 3.524 0 0 1-1.424-1.424c-.33-.629-.496-1.376-.496-2.24 0-.864.166-1.605.496-2.224a3.534 3.534 0 0 1 1.408-1.44c.598-.331 1.275-.496 2.032-.496.779 0 1.44.16 1.984.48.544.32.96.757 1.248 1.312.288.555.432 1.184.432 1.888 0 .192-.005.373-.016.544-.01.171-.026.32-.048.448h-6.432V213.2h5.68l-.848.256c0-.725-.181-1.28-.544-1.664-.362-.395-.858-.592-1.488-.592-.458 0-.858.107-1.2.32-.341.213-.602.533-.784.96-.181.416-.272.928-.272 1.536 0 .597.096 1.104.288 1.52.192.416.464.731.816.944.352.213.768.32 1.248.32.534 0 .966-.101 1.296-.304a2.15 2.15 0 0 0 .784-.848l1.36.64c-.192.384-.453.72-.784 1.008-.32.277-.704.491-1.152.64a4.637 4.637 0 0 1-1.472.224Zm9.09-8.32c.64 0 1.184.096 1.632.288.459.181.843.443 1.152.784.31.341.544.731.704 1.168l-1.616.64c-.138-.491-.362-.864-.672-1.12-.298-.267-.693-.4-1.184-.4-.48 0-.89.112-1.232.336-.341.213-.602.528-.784.944-.17.416-.256.928-.256 1.536 0 .597.091 1.104.272 1.52.182.416.443.731.784.944.342.213.747.32 1.216.32.363 0 .678-.059.944-.176.267-.128.486-.304.656-.528a1.97 1.97 0 0 0 .368-.848l1.552.528a3.42 3.42 0 0 1-.704 1.264 3.23 3.23 0 0 1-1.168.832c-.469.192-1.008.288-1.616.288-.789 0-1.488-.165-2.096-.496a3.524 3.524 0 0 1-1.424-1.424c-.33-.629-.496-1.376-.496-2.24 0-.864.166-1.605.496-2.224a3.534 3.534 0 0 1 1.408-1.44c.608-.331 1.296-.496 2.064-.496Zm8.953 8.32c-.8 0-1.504-.165-2.112-.496a3.518 3.518 0 0 1-1.424-1.424c-.331-.629-.496-1.376-.496-2.24 0-.864.165-1.605.496-2.224a3.521 3.521 0 0 1 1.408-1.44c.597-.331 1.274-.496 2.032-.496.778 0 1.44.16 1.984.48.544.32.96.757 1.248 1.312.288.555.432 1.184.432 1.888 0 .192-.006.373-.016.544a4.64 4.64 0 0 1-.048.448h-6.432V213.2h5.68l-.848.256c0-.725-.182-1.28-.544-1.664-.363-.395-.859-.592-1.488-.592-.459 0-.859.107-1.2.32-.342.213-.603.533-.784.96-.182.416-.272.928-.272 1.536 0 .597.096 1.104.288 1.52.192.416.464.731.816.944.352.213.768.32 1.248.32.533 0 .965-.101 1.296-.304.33-.203.592-.485.784-.848l1.36.64a3.27 3.27 0 0 1-.784 1.008c-.32.277-.704.491-1.152.64a4.642 4.642 0 0 1-1.472.224Zm6.498-9.504c-.374 0-.662-.091-.864-.272-.192-.192-.288-.459-.288-.8s.096-.603.288-.784c.202-.181.49-.272.864-.272.362 0 .64.091.832.272.202.181.304.443.304.784s-.102.608-.304.8c-.192.181-.47.272-.832.272Zm.848 1.344v8h-1.712v-8h1.712Zm7.846 0h1.792l-3.184 8h-1.872l-3.2-8h1.872l2.272 6.512 2.32-6.512Zm6.629 8.16c-.8 0-1.504-.165-2.112-.496a3.518 3.518 0 0 1-1.424-1.424c-.331-.629-.496-1.376-.496-2.24 0-.864.165-1.605.496-2.224a3.527 3.527 0 0 1 1.408-1.44c.597-.331 1.275-.496 2.032-.496.779 0 1.44.16 1.984.48.544.32.96.757 1.248 1.312.288.555.432 1.184.432 1.888 0 .192-.005.373-.016.544a4.64 4.64 0 0 1-.048.448h-6.432V213.2h5.68l-.848.256c0-.725-.181-1.28-.544-1.664-.363-.395-.859-.592-1.488-.592-.459 0-.859.107-1.2.32-.341.213-.603.533-.784.96-.181.416-.272.928-.272 1.536 0 .597.096 1.104.288 1.52.192.416.464.731.816.944.352.213.768.32 1.248.32.533 0 .965-.101 1.296-.304a2.15 2.15 0 0 0 .784-.848l1.36.64c-.192.384-.453.72-.784 1.008-.32.277-.704.491-1.152.64a4.642 4.642 0 0 1-1.472.224Zm8.706 0a3.411 3.411 0 0 1-1.808-.496c-.533-.331-.955-.805-1.264-1.424-.309-.619-.464-1.36-.464-2.224 0-.896.165-1.653.496-2.272.331-.619.773-1.088 1.328-1.408a3.495 3.495 0 0 1 1.824-.496c.683 0 1.259.187 1.728.56.469.373.784.859.944 1.456l-.192.176V206.4h1.712V218h-1.52l-.128-2.176.224.016c-.075.48-.251.896-.528 1.248a2.867 2.867 0 0 1-1.04.8 3.181 3.181 0 0 1-1.312.272Zm.368-1.376c.459 0 .853-.117 1.184-.352.331-.235.587-.565.768-.992.181-.427.272-.939.272-1.536 0-.555-.091-1.029-.272-1.424-.181-.405-.437-.715-.768-.928a1.974 1.974 0 0 0-1.12-.32c-.715 0-1.269.245-1.664.736s-.592 1.168-.592 2.032c0 .864.192 1.547.576 2.048.384.491.923.736 1.616.736Z"/><path fill="#7D7A9C" d="M99.248 245v-7.904l.032-.736a5.697 5.697 0 0 1-1.248.912 5.498 5.498 0 0 1-1.424.528l-.32-1.488c.224-.032.485-.107.784-.224.299-.117.608-.267.928-.448.32-.181.613-.373.88-.576.267-.213.475-.421.624-.624h1.44V245h-1.696Zm8.117.16c-1.269 0-2.266-.459-2.992-1.376-.714-.928-1.072-2.283-1.072-4.064 0-1.781.358-3.131 1.072-4.048.726-.928 1.723-1.392 2.992-1.392 1.281 0 2.278.464 2.993 1.392.725.917 1.087 2.267 1.087 4.048 0 1.781-.362 3.136-1.087 4.064-.715.917-1.712 1.376-2.993 1.376Zm0-1.456c.513 0 .939-.144 1.281-.432.352-.299.613-.741.784-1.328.181-.597.271-1.339.271-2.224 0-.885-.09-1.621-.271-2.208-.171-.597-.432-1.04-.784-1.328-.342-.299-.768-.448-1.281-.448-.512 0-.944.149-1.296.448-.341.288-.597.731-.768 1.328-.17.587-.255 1.323-.255 2.208 0 .885.085 1.627.255 2.224.171.587.427 1.029.768 1.328.352.288.784.432 1.296.432Zm7.311-6.864c.363 0 .651.107.864.32.224.203.336.48.336.832s-.112.635-.336.848c-.213.213-.501.32-.864.32-.373 0-.672-.107-.896-.32-.213-.213-.32-.496-.32-.848s.107-.629.32-.832c.224-.213.523-.32.896-.32Zm0 6c.363 0 .651.107.864.32.224.203.336.48.336.832s-.112.635-.336.848c-.213.213-.501.32-.864.32-.373 0-.672-.107-.896-.32-.213-.213-.32-.496-.32-.848s.107-.629.32-.832c.224-.213.523-.32.896-.32Zm8.142 2.16v-2.64h-5.152v-1.168c.021-.053.053-.117.096-.192.053-.075.112-.16.176-.256l4.4-6.304h2.096v6.592h1.792v1.328h-1.792V245h-1.616Zm-3.552-3.968h3.552v-3.728c0-.256.005-.517.016-.784.021-.277.037-.549.048-.816h-.032a7.694 7.694 0 0 1-.464.848c-.181.299-.352.56-.512.784l-2.496 3.552-.064.064a.982.982 0 0 1-.048.08Zm12.241 4.128c-.992 0-1.856-.219-2.592-.656a3.409 3.409 0 0 1-1.488-1.872l1.664-.784c.096.384.245.715.448.992s.469.491.8.64c.331.139.741.208 1.232.208.416 0 .768-.075 1.056-.224a1.54 1.54 0 0 0 .656-.624c.16-.267.24-.571.24-.912 0-.352-.069-.645-.208-.88-.128-.235-.336-.405-.624-.512-.277-.107-.635-.16-1.072-.16-.128 0-.261.005-.4.016-.128 0-.267.011-.416.032v-1.44l.272.032h.272c.693 0 1.189-.139 1.488-.416.299-.277.448-.709.448-1.296 0-.501-.155-.885-.464-1.152-.299-.267-.731-.4-1.296-.4-.587 0-1.045.139-1.376.416-.32.267-.565.656-.736 1.168l-1.568-.656c.149-.491.4-.917.752-1.28s.784-.64 1.296-.832a4.69 4.69 0 0 1 1.712-.304c.757 0 1.387.123 1.888.368.512.245.891.581 1.136 1.008.256.427.384.901.384 1.424 0 .405-.059.763-.176 1.072-.117.299-.277.56-.48.784a2.156 2.156 0 0 1-.64.496 2.421 2.421 0 0 1-.688.24v.032c.309.011.592.075.848.192.267.107.501.261.704.464.213.192.379.427.496.704.117.277.176.581.176.912 0 .64-.16 1.2-.48 1.68-.32.48-.763.853-1.328 1.12-.555.267-1.2.4-1.936.4Z"/><path fill="#FEFCFA" d="M232.267 218v-1.248a52.274 52.274 0 0 0 2.544-1.92c.694-.555 1.248-1.067 1.664-1.536.416-.469.715-.912.896-1.328.192-.427.288-.859.288-1.296 0-.565-.176-1.024-.528-1.376-.352-.352-.842-.528-1.472-.528-.661 0-1.189.224-1.584.672-.384.437-.602 1.04-.656 1.808l-1.488-.688c.075-.672.272-1.253.592-1.744.32-.491.752-.869 1.296-1.136.555-.267 1.195-.4 1.92-.4.598 0 1.12.085 1.568.256.459.171.843.411 1.152.72.31.299.544.651.704 1.056.171.405.256.837.256 1.296 0 .672-.165 1.323-.496 1.952-.33.619-.853 1.253-1.568 1.904-.714.651-1.653 1.349-2.816 2.096v.032c.128-.021.304-.032.528-.032.224-.011.448-.016.672-.016.224-.011.406-.016.544-.016h3.328V218h-7.344Zm10.367-2.16c.363 0 .651.107.864.32.224.203.336.48.336.832s-.112.635-.336.848c-.213.213-.501.32-.864.32-.373 0-.672-.107-.896-.32-.213-.213-.32-.496-.32-.848s.107-.629.32-.832c.224-.213.523-.32.896-.32Zm6.775 2.32c-.992 0-1.856-.219-2.592-.656a3.409 3.409 0 0 1-1.488-1.872l1.664-.784c.096.384.245.715.448.992s.469.491.8.64c.331.139.741.208 1.232.208.416 0 .768-.075 1.056-.224a1.54 1.54 0 0 0 .656-.624c.16-.267.24-.571.24-.912 0-.352-.069-.645-.208-.88-.128-.235-.336-.405-.624-.512-.277-.107-.635-.16-1.072-.16-.128 0-.261.005-.4.016-.128 0-.267.011-.416.032v-1.44l.272.032h.272c.693 0 1.189-.139 1.488-.416.299-.277.448-.709.448-1.296 0-.501-.155-.885-.464-1.152-.299-.267-.731-.4-1.296-.4-.587 0-1.045.139-1.376.416-.32.267-.565.656-.736 1.168l-1.568-.656c.149-.491.4-.917.752-1.28s.784-.64 1.296-.832a4.69 4.69 0 0 1 1.712-.304c.757 0 1.387.123 1.888.368.512.245.891.581 1.136 1.008.256.427.384.901.384 1.424 0 .405-.059.763-.176 1.072-.117.299-.277.56-.48.784a2.156 2.156 0 0 1-.64.496 2.421 2.421 0 0 1-.688.24v.032c.309.011.592.075.848.192.267.107.501.261.704.464.213.192.379.427.496.704.117.277.176.581.176.912 0 .64-.16 1.2-.48 1.68-.32.48-.763.853-1.328 1.12-.555.267-1.2.4-1.936.4Zm10.447-.16v-2.64h-5.152v-1.168c.021-.053.053-.117.096-.192.053-.075.112-.16.176-.256l4.4-6.304h2.096v6.592h1.792v1.328h-1.792V218h-1.616Zm-3.552-3.968h3.552v-3.728c0-.256.005-.517.016-.784.021-.277.037-.549.048-.816h-.032a7.694 7.694 0 0 1-.464.848c-.181.299-.352.56-.512.784l-2.496 3.552-.064.064a.982.982 0 0 1-.048.08Zm12.145 4.128c-.938 0-1.712-.203-2.32-.608-.597-.405-1.072-.992-1.424-1.76l1.6-.832c.16.512.4.933.72 1.264.331.32.816.48 1.456.48.448 0 .827-.08 1.136-.24.32-.171.566-.405.736-.704.171-.309.256-.677.256-1.104 0-.448-.08-.821-.24-1.12a1.546 1.546 0 0 0-.688-.672c-.298-.16-.672-.24-1.12-.24a3.7 3.7 0 0 0-.864.096 2.296 2.296 0 0 0-.72.304c-.213.128-.4.299-.56.512l-1.408-.272.64-5.824h6.144v1.472h-4.784l-.384 2.976-.032.176h.032c.246-.267.56-.475.944-.624.395-.149.859-.224 1.392-.224.683 0 1.27.144 1.76.432.491.277.875.667 1.152 1.168.278.501.416 1.083.416 1.744 0 .576-.096 1.088-.288 1.536a3.13 3.13 0 0 1-.816 1.136 3.606 3.606 0 0 1-1.232.704c-.458.149-.96.224-1.504.224Zm13.505-8.16-3.568 3.648-.368.256-2.512 2.608-.016-1.952 4.432-4.56h2.032Zm-5.84-3.6V218h-1.712v-11.6h1.712Zm2.48 6.288 3.552 5.312h-1.984l-2.848-4.336 1.28-.976Zm20.859-5.248V218h-1.584v-6.112l.128-2.912h-.016L294.765 218h-1.424l-3.216-9.024h-.016l.128 2.912V218h-1.584v-10.56h2.544l2.128 6.112.736 2.512h.032l.752-2.512 2.112-6.112h2.496Zm4.753 0V218h-1.712v-10.56h1.712Zm11.692 0V218h-2.032l-4.08-6.656-1.024-1.872h-.016l.064 1.712V218h-1.568v-10.56h2.016l4.064 6.64 1.04 1.904h.016l-.064-1.728v-6.816h1.584ZM327.695 218h-1.808l-1.008-2.768h-4.432L319.439 218h-1.76l3.984-10.56h2.048l3.984 10.56Zm-6.768-4.16h3.472l-1.728-4.928-1.744 4.928Z"/><path fill="#7D7A9C" d="M259.966 244.984a6.664 6.664 0 0 1-1.968-.272 5.493 5.493 0 0 1-1.52-.768 4.483 4.483 0 0 1-1.056-1.104l1.136-1.152c.224.373.507.704.848.992.341.277.736.496 1.184.656.448.16.939.24 1.472.24.725 0 1.296-.123 1.712-.368.427-.256.64-.635.64-1.136 0-.288-.107-.544-.32-.768-.213-.235-.597-.416-1.152-.544l-2.336-.544c-.619-.139-1.131-.331-1.536-.576-.395-.245-.688-.544-.88-.896a2.492 2.492 0 0 1-.288-1.184c0-.587.155-1.115.464-1.584.32-.469.779-.843 1.376-1.12.597-.288 1.317-.432 2.16-.432.907 0 1.701.171 2.384.512.683.341 1.248.853 1.696 1.536l-1.088 1.056c-.395-.608-.843-1.045-1.344-1.312-.501-.267-1.099-.4-1.792-.4-.512 0-.933.069-1.264.208-.32.128-.56.309-.72.544-.16.224-.24.475-.24.752 0 .224.043.427.128.608.096.181.267.341.512.48.245.139.592.256 1.04.352l2.08.464c.992.224 1.696.555 2.112.992.416.437.624.997.624 1.68 0 .629-.171 1.179-.512 1.648-.341.459-.816.816-1.424 1.072-.608.245-1.317.368-2.128.368Zm-.672 1.552v-13.632h1.28v13.632h-1.28Zm6.623-1.536v-1.248a53.275 53.275 0 0 0 2.544-1.92c.693-.555 1.248-1.067 1.664-1.536.416-.469.715-.912.896-1.328.192-.427.288-.859.288-1.296 0-.565-.176-1.024-.528-1.376-.352-.352-.843-.528-1.472-.528-.661 0-1.189.224-1.584.672-.384.437-.603 1.04-.656 1.808l-1.488-.688c.075-.672.272-1.253.592-1.744.32-.491.752-.869 1.296-1.136.555-.267 1.195-.4 1.92-.4.597 0 1.12.085 1.568.256.459.171.843.411 1.152.72.309.299.544.651.704 1.056.171.405.256.837.256 1.296 0 .672-.165 1.323-.496 1.952-.331.619-.853 1.253-1.568 1.904-.715.651-1.653 1.349-2.816 2.096v.032c.128-.021.304-.032.528-.032.224-.011.448-.016.672-.016.224-.011.405-.016.544-.016h3.328V245h-7.344Zm10.351-2.16c.298 0 .544.075.736.224.202.139.357.336.464.592.106.245.16.528.16.848a3.12 3.12 0 0 1-.88 2.144c-.278.309-.614.56-1.008.752l-.8-.688c.288-.107.544-.245.768-.416.224-.171.41-.363.56-.576.16-.213.272-.432.336-.656l-.064-.032a.81.81 0 0 1-.192.08.982.982 0 0 1-.288.032.987.987 0 0 1-.464-.128.995.995 0 0 1-.384-.352c-.107-.16-.16-.368-.16-.624 0-.235.053-.443.16-.624a1.19 1.19 0 0 1 .448-.416c.181-.107.384-.16.608-.16Zm6.839-8.56c.906 0 1.669.224 2.288.672.629.448 1.098 1.077 1.408 1.888.32.811.48 1.765.48 2.864 0 1.216-.166 2.229-.496 3.04-.331.8-.806 1.403-1.424 1.808-.619.405-1.366.608-2.24.608-.896 0-1.664-.197-2.304-.592-.64-.395-1.12-.987-1.44-1.776l1.616-.752c.149.501.394.901.736 1.2.352.299.826.448 1.424.448.49 0 .901-.096 1.232-.288.33-.192.592-.469.784-.832.202-.363.346-.8.432-1.312a10.61 10.61 0 0 0 .128-1.728v-.176h-.064a2.062 2.062 0 0 1-.64 1.04c-.299.267-.64.464-1.024.592a3.935 3.935 0 0 1-1.152.176c-.683 0-1.291-.133-1.824-.4a3.117 3.117 0 0 1-1.232-1.152c-.299-.491-.448-1.072-.448-1.744 0-.736.149-1.371.448-1.904a3.136 3.136 0 0 1 1.296-1.232c.565-.299 1.237-.448 2.016-.448Zm.016 1.504c-.672 0-1.19.181-1.552.544-.352.363-.528.869-.528 1.52 0 .576.186 1.029.56 1.36.384.32.89.48 1.52.48.405 0 .762-.08 1.072-.24.309-.171.549-.4.72-.688.181-.288.272-.624.272-1.008 0-.405-.091-.752-.272-1.04a1.725 1.725 0 0 0-.72-.688c-.31-.16-.667-.24-1.072-.24ZM294.006 245v-2.64h-5.152v-1.168c.021-.053.053-.117.096-.192.053-.075.112-.16.176-.256l4.4-6.304h2.096v6.592h1.792v1.328h-1.792V245h-1.616Zm-3.552-3.968h3.552v-3.728c0-.256.005-.517.016-.784.021-.277.037-.549.048-.816h-.032a7.865 7.865 0 0 1-.464.848c-.182.299-.352.56-.512.784l-2.496 3.552-.064.064a.982.982 0 0 1-.048.08Zm7.364-6.592h8.048v1.424c-.885.917-1.6 1.861-2.144 2.832-.544.96-.939 1.963-1.184 3.008a14.85 14.85 0 0 0-.352 3.296h-1.728c0-1.173.144-2.315.432-3.424.299-1.12.747-2.187 1.344-3.2a14.08 14.08 0 0 1 2.288-2.88l.32.432h-7.024v-1.488Zm9.05 8.4c.363 0 .651.107.864.32.224.203.336.48.336.832s-.112.635-.336.848c-.213.213-.501.32-.864.32-.373 0-.672-.107-.896-.32-.213-.213-.32-.496-.32-.848s.107-.629.32-.832c.224-.213.523-.32.896-.32Zm7.818 2.16v-2.64h-5.152v-1.168a1.89 1.89 0 0 1 .096-.192c.054-.075.112-.16.176-.256l4.4-6.304h2.096v6.592h1.792v1.328h-1.792V245h-1.616Zm-3.552-3.968h3.552v-3.728c0-.256.006-.517.016-.784.022-.277.038-.549.048-.816h-.032a7.694 7.694 0 0 1-.464.848c-.181.299-.352.56-.512.784l-2.496 3.552-.064.064a.618.618 0 0 1-.048.08Zm12.146 4.128c-.939 0-1.712-.203-2.32-.608-.598-.405-1.072-.992-1.424-1.76l1.6-.832c.16.512.4.933.72 1.264.33.32.816.48 1.456.48.448 0 .826-.08 1.136-.24.32-.171.565-.405.736-.704.17-.309.256-.677.256-1.104 0-.448-.08-.821-.24-1.12a1.551 1.551 0 0 0-.688-.672c-.299-.16-.672-.24-1.121-.24-.309 0-.597.032-.863.096a2.276 2.276 0 0 0-.72.304c-.214.128-.4.299-.56.512l-1.408-.272.64-5.824h6.144v1.472h-4.784l-.384 2.976-.032.176h.032c.245-.267.56-.475.944-.624.394-.149.858-.224 1.392-.224.682 0 1.269.144 1.76.432.49.277.874.667 1.152 1.168.277.501.416 1.083.416 1.744 0 .576-.096 1.088-.288 1.536a3.13 3.13 0 0 1-.816 1.136 3.615 3.615 0 0 1-1.232.704c-.459.149-.96.224-1.504.224Z"/><path stroke="#A3DBE4" stroke-linecap="round" stroke-linejoin="round" stroke-width="1.5" d="m51 221 10 10M61 221v10H51"/><rect width="48" height="48" x="32" y="266" fill="#25233A" rx="24"/><path fill="#FEFCFA" d="M101.168 271.28c.949 0 1.771.181 2.464.544.693.352 1.28.875 1.76 1.568l-1.152 1.104c-.405-.619-.864-1.061-1.376-1.328-.501-.277-1.099-.416-1.792-.416-.512 0-.933.069-1.264.208-.33.139-.576.325-.736.56-.15.224-.224.48-.224.768 0 .331.112.619.336.864.235.245.667.437 1.296.576l2.144.48c1.024.224 1.749.565 2.176 1.024.427.459.64 1.04.64 1.744 0 .651-.176 1.216-.528 1.696-.352.48-.843.848-1.472 1.104-.619.256-1.349.384-2.192.384-.747 0-1.419-.096-2.016-.288a5.392 5.392 0 0 1-1.568-.784 4.637 4.637 0 0 1-1.104-1.136l1.184-1.184c.224.373.507.709.848 1.008.341.288.736.512 1.184.672.459.16.965.24 1.52.24.491 0 .912-.059 1.264-.176.363-.117.635-.288.816-.512.192-.235.288-.512.288-.832 0-.309-.107-.581-.32-.816-.203-.235-.587-.416-1.152-.544l-2.32-.528c-.64-.139-1.168-.336-1.584-.592-.416-.256-.725-.565-.928-.928a2.57 2.57 0 0 1-.304-1.248c0-.597.16-1.136.48-1.616.33-.491.805-.88 1.424-1.168.619-.299 1.355-.448 2.208-.448Zm9.85 10.88c-.8 0-1.504-.165-2.112-.496a3.518 3.518 0 0 1-1.424-1.424c-.331-.629-.496-1.376-.496-2.24 0-.864.165-1.605.496-2.224a3.521 3.521 0 0 1 1.408-1.44c.597-.331 1.274-.496 2.032-.496.778 0 1.44.16 1.984.48.544.32.96.757 1.248 1.312.288.555.432 1.184.432 1.888 0 .192-.006.373-.016.544a4.64 4.64 0 0 1-.048.448h-6.432V277.2h5.68l-.848.256c0-.725-.182-1.28-.544-1.664-.363-.395-.859-.592-1.488-.592-.459 0-.859.107-1.2.32-.342.213-.603.533-.784.96-.182.416-.272.928-.272 1.536 0 .597.096 1.104.288 1.52.192.416.464.731.816.944.352.213.768.32 1.248.32.533 0 .965-.101 1.296-.304.33-.203.592-.485.784-.848l1.36.64a3.27 3.27 0 0 1-.784 1.008c-.32.277-.704.491-1.152.64a4.642 4.642 0 0 1-1.472.224Zm5.634-.16v-8h1.52l.112 2.08-.224-.224c.149-.459.362-.837.64-1.136a2.549 2.549 0 0 1 1.008-.672c.394-.139.81-.208 1.248-.208.565 0 1.072.112 1.52.336.458.213.821.539 1.088.976.266.437.4.992.4 1.664V282h-1.712v-4.656c0-.789-.166-1.333-.496-1.632-.32-.309-.726-.464-1.216-.464a2.2 2.2 0 0 0-1.024.256c-.331.16-.608.421-.832.784-.214.363-.32.848-.32 1.456V282h-1.712Zm12.052-10.352v7.952c0 .395.101.683.304.864.213.181.496.272.848.272.288 0 .539-.043.752-.128.213-.096.411-.224.592-.384l.384 1.248a2.784 2.784 0 0 1-.912.512 3.742 3.742 0 0 1-1.184.176c-.459 0-.88-.075-1.264-.224a1.815 1.815 0 0 1-.896-.72c-.213-.341-.325-.784-.336-1.328v-7.76l1.712-.48Zm2.752 2.352v1.344h-6V274h6Z"/><path fill="#7D7A9C" d="M99.248 309v-7.904l.032-.736a5.697 5.697 0 0 1-1.248.912 5.498 5.498 0 0 1-1.424.528l-.32-1.488c.224-.032.485-.107.784-.224.299-.117.608-.267.928-.448.32-.181.613-.373.88-.576.267-.213.475-.421.624-.624h1.44V309h-1.696Zm8.117.16c-1.269 0-2.266-.459-2.992-1.376-.714-.928-1.072-2.283-1.072-4.064 0-1.781.358-3.131 1.072-4.048.726-.928 1.723-1.392 2.992-1.392 1.281 0 2.278.464 2.993 1.392.725.917 1.087 2.267 1.087 4.048 0 1.781-.362 3.136-1.087 4.064-.715.917-1.712 1.376-2.993 1.376Zm0-1.456c.513 0 .939-.144 1.281-.432.352-.299.613-.741.784-1.328.181-.597.271-1.339.271-2.224 0-.885-.09-1.621-.271-2.208-.171-.597-.432-1.04-.784-1.328-.342-.299-.768-.448-1.281-.448-.512 0-.944.149-1.296.448-.341.288-.597.731-.768 1.328-.17.587-.255 1.323-.255 2.208 0 .885.085 1.627.255 2.224.171.587.427 1.029.768 1.328.352.288.784.432 1.296.432Zm7.311-6.864c.363 0 .651.107.864.32.224.203.336.48.336.832s-.112.635-.336.848c-.213.213-.501.32-.864.32-.373 0-.672-.107-.896-.32-.213-.213-.32-.496-.32-.848s.107-.629.32-.832c.224-.213.523-.32.896-.32Zm0 6c.363 0 .651.107.864.32.224.203.336.48.336.832s-.112.635-.336.848c-.213.213-.501.32-.864.32-.373 0-.672-.107-.896-.32-.213-.213-.32-.496-.32-.848s.107-.629.32-.832c.224-.213.523-.32.896-.32Zm8.142 2.16v-2.64h-5.152v-1.168c.021-.053.053-.117.096-.192.053-.075.112-.16.176-.256l4.4-6.304h2.096v6.592h1.792v1.328h-1.792V309h-1.616Zm-3.552-3.968h3.552v-3.728c0-.256.005-.517.016-.784.021-.277.037-.549.048-.816h-.032a7.694 7.694 0 0 1-.464.848c-.181.299-.352.56-.512.784l-2.496 3.552-.064.064a.982.982 0 0 1-.048.08Zm12.241 4.128c-.992 0-1.856-.219-2.592-.656a3.409 3.409 0 0 1-1.488-1.872l1.664-.784c.096.384.245.715.448.992s.469.491.8.64c.331.139.741.208 1.232.208.416 0 .768-.075 1.056-.224a1.54 1.54 0 0 0 .656-.624c.16-.267.24-.571.24-.912 0-.352-.069-.645-.208-.88-.128-.235-.336-.405-.624-.512-.277-.107-.635-.16-1.072-.16-.128 0-.261.005-.4.016-.128 0-.267.011-.416.032v-1.44l.272.032h.272c.693 0 1.189-.139 1.488-.416.299-.277.448-.709.448-1.296 0-.501-.155-.885-.464-1.152-.299-.267-.731-.4-1.296-.4-.587 0-1.045.139-1.376.416-.32.267-.565.656-.736 1.168l-1.568-.656c.149-.491.4-.917.752-1.28s.784-.64 1.296-.832a4.69 4.69 0 0 1 1.712-.304c.757 0 1.387.123 1.888.368.512.245.891.581 1.136 1.008.256.427.384.901.384 1.424 0 .405-.059.763-.176 1.072-.117.299-.277.56-.48.784a2.156 2.156 0 0 1-.64.496 2.421 2.421 0 0 1-.688.24v.032c.309.011.592.075.848.192.267.107.501.261.704.464.213.192.379.427.496.704.117.277.176.581.176.912 0 .64-.16 1.2-.48 1.68-.32.48-.763.853-1.328 1.12-.555.267-1.2.4-1.936.4Z"/><path fill="#FEFCFA" d="M236.52 282v-7.904c.011-.235.022-.48.032-.736a5.664 5.664 0 0 1-1.248.912 5.484 5.484 0 0 1-1.424.528l-.32-1.488c.224-.032.486-.107.784-.224.299-.117.608-.267.928-.448a7.69 7.69 0 0 0 .88-.576c.267-.213.475-.421.624-.624h1.44V282h-1.696Zm7.686.16c-.939 0-1.712-.203-2.32-.608-.597-.405-1.072-.992-1.424-1.76l1.6-.832c.16.512.4.933.72 1.264.331.32.816.48 1.456.48.448 0 .827-.08 1.136-.24.32-.171.565-.405.736-.704.171-.309.256-.677.256-1.104 0-.448-.08-.821-.24-1.12a1.546 1.546 0 0 0-.688-.672c-.299-.16-.672-.24-1.12-.24a3.7 3.7 0 0 0-.864.096 2.276 2.276 0 0 0-.72.304c-.213.128-.4.299-.56.512l-1.408-.272.64-5.824h6.144v1.472h-4.784l-.384 2.976-.032.176h.032c.245-.267.56-.475.944-.624.395-.149.859-.224 1.392-.224.683 0 1.269.144 1.76.432.491.277.875.667 1.152 1.168.277.501.416 1.083.416 1.744 0 .576-.096 1.088-.288 1.536a3.13 3.13 0 0 1-.816 1.136 3.615 3.615 0 0 1-1.232.704c-.459.149-.96.224-1.504.224Zm9.648 0c-1.269 0-2.266-.459-2.992-1.376-.714-.928-1.072-2.283-1.072-4.064 0-1.781.358-3.131 1.072-4.048.726-.928 1.723-1.392 2.992-1.392 1.28 0 2.278.464 2.992 1.392.726.917 1.088 2.267 1.088 4.048 0 1.781-.362 3.136-1.088 4.064-.714.917-1.712 1.376-2.992 1.376Zm0-1.456c.512 0 .939-.144 1.28-.432.352-.299.614-.741.784-1.328.182-.597.272-1.339.272-2.224 0-.885-.09-1.621-.272-2.208-.17-.597-.432-1.04-.784-1.328-.341-.299-.768-.448-1.28-.448s-.944.149-1.296.448c-.341.288-.597.731-.768 1.328-.17.587-.256 1.323-.256 2.208 0 .885.086 1.627.256 2.224.171.587.427 1.029.768 1.328.352.288.784.432 1.296.432Zm6.791-.864c.363 0 .651.107.864.32.224.203.336.48.336.832s-.112.635-.336.848c-.213.213-.501.32-.864.32-.373 0-.672-.107-.896-.32-.213-.213-.32-.496-.32-.848s.107-.629.32-.832c.224-.213.523-.32.896-.32Zm3.207 2.16v-1.248a52.274 52.274 0 0 0 2.544-1.92c.694-.555 1.248-1.067 1.664-1.536.416-.469.715-.912.896-1.328.192-.427.288-.859.288-1.296 0-.565-.176-1.024-.528-1.376-.352-.352-.842-.528-1.472-.528-.661 0-1.189.224-1.584.672-.384.437-.602 1.04-.656 1.808l-1.488-.688c.075-.672.272-1.253.592-1.744.32-.491.752-.869 1.296-1.136.555-.267 1.195-.4 1.92-.4.598 0 1.12.085 1.568.256.459.171.843.411 1.152.72.31.299.544.651.704 1.056.171.405.256.837.256 1.296 0 .672-.165 1.323-.496 1.952-.33.619-.853 1.253-1.568 1.904-.714.651-1.653 1.349-2.816 2.096v.032c.128-.021.304-.032.528-.032.224-.011.448-.016.672-.016.224-.011.406-.016.544-.016h3.328V282h-7.344Zm13.199.16c-1.269 0-2.267-.459-2.992-1.376-.715-.928-1.072-2.283-1.072-4.064 0-1.781.357-3.131 1.072-4.048.725-.928 1.723-1.392 2.992-1.392 1.28 0 2.277.464 2.992 1.392.725.917 1.088 2.267 1.088 4.048 0 1.781-.363 3.136-1.088 4.064-.715.917-1.712 1.376-2.992 1.376Zm0-1.456c.512 0 .939-.144 1.28-.432.352-.299.613-.741.784-1.328.181-.597.272-1.339.272-2.224 0-.885-.091-1.621-.272-2.208-.171-.597-.432-1.04-.784-1.328-.341-.299-.768-.448-1.28-.448s-.944.149-1.296.448c-.341.288-.597.731-.768 1.328-.171.587-.256 1.323-.256 2.208 0 .885.085 1.627.256 2.224.171.587.427 1.029.768 1.328.352.288.784.432 1.296.432Zm22.402-9.264V282h-1.584v-6.112l.128-2.912h-.016L294.765 282h-1.424l-3.216-9.024h-.016l.128 2.912V282h-1.584v-10.56h2.544l2.128 6.112.736 2.512h.032l.752-2.512 2.112-6.112h2.496Zm4.753 0V282h-1.712v-10.56h1.712Zm11.692 0V282h-2.032l-4.08-6.656-1.024-1.872h-.016l.064 1.712V282h-1.568v-10.56h2.016l4.064 6.64 1.04 1.904h.016l-.064-1.728v-6.816h1.584ZM327.695 282h-1.808l-1.008-2.768h-4.432L319.439 282h-1.76l3.984-10.56h2.048l3.984 10.56Zm-6.768-4.16h3.472l-1.728-4.928-1.744 4.928Z"/><path fill="#7D7A9C" d="M274.415 308.984a6.654 6.654 0 0 1-1.968-.272 5.493 5.493 0 0 1-1.52-.768 4.483 4.483 0 0 1-1.056-1.104l1.136-1.152c.224.373.506.704.848.992.341.277.736.496 1.184.656.448.16.938.24 1.472.24.725 0 1.296-.123 1.712-.368.426-.256.64-.635.64-1.136 0-.288-.107-.544-.32-.768-.214-.235-.598-.416-1.152-.544l-2.336-.544c-.619-.139-1.131-.331-1.536-.576-.395-.245-.688-.544-.88-.896a2.492 2.492 0 0 1-.288-1.184c0-.587.154-1.115.464-1.584.32-.469.778-.843 1.376-1.12.597-.288 1.317-.432 2.16-.432.906 0 1.701.171 2.384.512.682.341 1.248.853 1.696 1.536l-1.088 1.056c-.395-.608-.843-1.045-1.344-1.312-.502-.267-1.099-.4-1.792-.4-.512 0-.934.069-1.264.208-.32.128-.56.309-.72.544-.16.224-.24.475-.24.752 0 .224.042.427.128.608.096.181.266.341.512.48.245.139.592.256 1.04.352l2.08.464c.992.224 1.696.555 2.112.992.416.437.624.997.624 1.68 0 .629-.171 1.179-.512 1.648-.342.459-.816.816-1.424 1.072-.608.245-1.318.368-2.128.368Zm-.672 1.552v-13.632h1.28v13.632h-1.28Zm6.623-1.536v-1.248a53.275 53.275 0 0 0 2.544-1.92c.693-.555 1.248-1.067 1.664-1.536.416-.469.714-.912.896-1.328.192-.427.288-.859.288-1.296 0-.565-.176-1.024-.528-1.376-.352-.352-.843-.528-1.472-.528-.662 0-1.19.224-1.584.672-.384.437-.603 1.04-.656 1.808l-1.488-.688c.074-.672.272-1.253.592-1.744.32-.491.752-.869 1.296-1.136.554-.267 1.194-.4 1.92-.4.597 0 1.12.085 1.568.256.458.171.842.411 1.152.72.309.299.544.651.704 1.056.17.405.256.837.256 1.296 0 .672-.166 1.323-.496 1.952-.331.619-.854 1.253-1.568 1.904-.715.651-1.654 1.349-2.816 2.096v.032c.128-.021.304-.032.528-.032.224-.011.448-.016.672-.016.224-.011.405-.016.544-.016h3.328V309h-7.344Zm13.64 0v-2.64h-5.152v-1.168c.021-.053.053-.117.096-.192.053-.075.112-.16.176-.256l4.4-6.304h2.096v6.592h1.792v1.328h-1.792V309h-1.616Zm-3.552-3.968h3.552v-3.728c0-.256.005-.517.016-.784.021-.277.037-.549.048-.816h-.032a7.865 7.865 0 0 1-.464.848c-.182.299-.352.56-.512.784l-2.496 3.552-.064.064a.982.982 0 0 1-.048.08Zm7.364-6.592h8.048v1.424c-.885.917-1.6 1.861-2.144 2.832-.544.96-.939 1.963-1.184 3.008a14.85 14.85 0 0 0-.352 3.296h-1.728c0-1.173.144-2.315.432-3.424.299-1.12.747-2.187 1.344-3.2a14.08 14.08 0 0 1 2.288-2.88l.32.432h-7.024v-1.488Zm9.05 8.4c.363 0 .651.107.864.32.224.203.336.48.336.832s-.112.635-.336.848c-.213.213-.501.32-.864.32-.373 0-.672-.107-.896-.32-.213-.213-.32-.496-.32-.848s.107-.629.32-.832c.224-.213.523-.32.896-.32Zm7.818 2.16v-2.64h-5.152v-1.168a1.89 1.89 0 0 1 .096-.192c.054-.075.112-.16.176-.256l4.4-6.304h2.096v6.592h1.792v1.328h-1.792V309h-1.616Zm-3.552-3.968h3.552v-3.728c0-.256.006-.517.016-.784.022-.277.038-.549.048-.816h-.032a7.694 7.694 0 0 1-.464.848c-.181.299-.352.56-.512.784l-2.496 3.552-.064.064a.618.618 0 0 1-.048.08Zm12.146 4.128c-.939 0-1.712-.203-2.32-.608-.598-.405-1.072-.992-1.424-1.76l1.6-.832c.16.512.4.933.72 1.264.33.32.816.48 1.456.48.448 0 .826-.08 1.136-.24.32-.171.565-.405.736-.704.17-.309.256-.677.256-1.104 0-.448-.08-.821-.24-1.12a1.551 1.551 0 0 0-.688-.672c-.299-.16-.672-.24-1.121-.24-.309 0-.597.032-.863.096a2.276 2.276 0 0 0-.72.304c-.214.128-.4.299-.56.512l-1.408-.272.64-5.824h6.144v1.472h-4.784l-.384 2.976-.032.176h.032c.245-.267.56-.475.944-.624.394-.149.858-.224 1.392-.224.682 0 1.269.144 1.76.432.49.277.874.667 1.152 1.168.277.501.416 1.083.416 1.744 0 .576-.096 1.088-.288 1.536a3.13 3.13 0 0 1-.816 1.136 3.615 3.615 0 0 1-1.232.704c-.459.149-.96.224-1.504.224Z"/><path stroke="#D1B4F4" stroke-linecap="round" stroke-linejoin="round" stroke-width="1.5" d="m51 295 10-10M51 285h10v10"/><rect width="48" height="48" x="32" y="330" fill="#25233A" rx="24"/><path fill="#FEFCFA" d="M101.168 335.28c.949 0 1.771.181 2.464.544.693.352 1.28.875 1.76 1.568l-1.152 1.104c-.405-.619-.864-1.061-1.376-1.328-.501-.277-1.099-.416-1.792-.416-.512 0-.933.069-1.264.208-.33.139-.576.325-.736.56-.15.224-.224.48-.224.768 0 .331.112.619.336.864.235.245.667.437 1.296.576l2.144.48c1.024.224 1.749.565 2.176 1.024.427.459.64 1.04.64 1.744 0 .651-.176 1.216-.528 1.696-.352.48-.843.848-1.472 1.104-.619.256-1.349.384-2.192.384-.747 0-1.419-.096-2.016-.288a5.392 5.392 0 0 1-1.568-.784 4.637 4.637 0 0 1-1.104-1.136l1.184-1.184c.224.373.507.709.848 1.008.341.288.736.512 1.184.672.459.16.965.24 1.52.24.491 0 .912-.059 1.264-.176.363-.117.635-.288.816-.512.192-.235.288-.512.288-.832 0-.309-.107-.581-.32-.816-.203-.235-.587-.416-1.152-.544l-2.32-.528c-.64-.139-1.168-.336-1.584-.592-.416-.256-.725-.565-.928-.928a2.57 2.57 0 0 1-.304-1.248c0-.597.16-1.136.48-1.616.33-.491.805-.88 1.424-1.168.619-.299 1.355-.448 2.208-.448Zm8.666.368v7.952c0 .395.101.683.304.864.213.181.496.272.848.272.288 0 .538-.043.752-.128.213-.096.41-.224.592-.384l.384 1.248c-.246.213-.55.384-.912.512a3.742 3.742 0 0 1-1.184.176c-.459 0-.88-.075-1.264-.224a1.815 1.815 0 0 1-.896-.72c-.214-.341-.326-.784-.336-1.328v-7.76l1.712-.48Zm2.752 2.352v1.344h-6V338h6Zm6.268 2.864c0-.533-.15-.944-.448-1.232-.288-.299-.688-.448-1.2-.448-.48 0-.891.112-1.232.336-.342.224-.592.587-.752 1.088l-1.44-.608a2.875 2.875 0 0 1 1.184-1.568c.597-.395 1.365-.592 2.304-.592.64 0 1.205.107 1.696.32.49.203.874.512 1.152.928.288.416.432.949.432 1.6v3.568c0 .395.197.592.592.592.192 0 .378-.027.56-.08l-.096 1.184c-.246.117-.555.176-.928.176-.342 0-.651-.059-.928-.176a1.55 1.55 0 0 1-.64-.56c-.15-.256-.224-.571-.224-.944v-.112l.352-.016a2 2 0 0 1-.592 1.04 3.082 3.082 0 0 1-1.04.608 3.87 3.87 0 0 1-1.2.192c-.502 0-.955-.08-1.36-.24a2.13 2.13 0 0 1-.944-.72c-.224-.331-.336-.736-.336-1.216 0-.597.192-1.088.576-1.472.394-.384.949-.645 1.664-.784l3.104-.608-.016 1.2-2.256.464c-.448.085-.784.208-1.008.368-.224.16-.336.395-.336.704a.88.88 0 0 0 .336.72c.234.171.544.256.928.256.266 0 .522-.032.768-.096.256-.064.485-.165.688-.304a1.48 1.48 0 0 0 .464-.56c.117-.235.176-.512.176-.832v-2.176ZM130.811 338l-3.568 3.648-.368.256-2.512 2.608-.016-1.952 4.432-4.56h2.032Zm-5.84-3.6V346h-1.712v-11.6h1.712Zm2.48 6.288 3.552 5.312h-1.984l-2.848-4.336 1.28-.976Zm8.232 5.472c-.8 0-1.504-.165-2.112-.496a3.518 3.518 0 0 1-1.424-1.424c-.331-.629-.496-1.376-.496-2.24 0-.864.165-1.605.496-2.224a3.521 3.521 0 0 1 1.408-1.44c.597-.331 1.274-.496 2.032-.496.778 0 1.44.16 1.984.48.544.32.96.757 1.248 1.312.288.555.432 1.184.432 1.888 0 .192-.006.373-.016.544a4.64 4.64 0 0 1-.048.448h-6.432V341.2h5.68l-.848.256c0-.725-.182-1.28-.544-1.664-.363-.395-.859-.592-1.488-.592-.459 0-.859.107-1.2.32-.342.213-.603.533-.784.96-.182.416-.272.928-.272 1.536 0 .597.096 1.104.288 1.52.192.416.464.731.816.944.352.213.768.32 1.248.32.533 0 .965-.101 1.296-.304.33-.203.592-.485.784-.848l1.36.64a3.27 3.27 0 0 1-.784 1.008c-.32.277-.704.491-1.152.64a4.642 4.642 0 0 1-1.472.224Zm8.706 0a3.409 3.409 0 0 1-1.808-.496c-.534-.331-.955-.805-1.264-1.424-.31-.619-.464-1.36-.464-2.224 0-.896.165-1.653.496-2.272.33-.619.773-1.088 1.328-1.408a3.49 3.49 0 0 1 1.824-.496c.682 0 1.258.187 1.728.56.469.373.784.859.944 1.456l-.192.176V334.4h1.712V346h-1.52l-.128-2.176.224.016c-.075.48-.251.896-.528 1.248a2.875 2.875 0 0 1-1.04.8 3.184 3.184 0 0 1-1.312.272Zm.368-1.376c.458 0 .853-.117 1.184-.352.33-.235.586-.565.768-.992.181-.427.272-.939.272-1.536 0-.555-.091-1.029-.272-1.424-.182-.405-.438-.715-.768-.928a1.976 1.976 0 0 0-1.12-.32c-.715 0-1.27.245-1.664.736-.395.491-.592 1.168-.592 2.032 0 .864.192 1.547.576 2.048.384.491.922.736 1.616.736Z"/><path fill="#7D7A9C" d="M99.248 373v-7.904l.032-.736a5.697 5.697 0 0 1-1.248.912 5.498 5.498 0 0 1-1.424.528l-.32-1.488c.224-.032.485-.107.784-.224.299-.117.608-.267.928-.448.32-.181.613-.373.88-.576.267-.213.475-.421.624-.624h1.44V373h-1.696Zm8.117.16c-1.269 0-2.266-.459-2.992-1.376-.714-.928-1.072-2.283-1.072-4.064 0-1.781.358-3.131 1.072-4.048.726-.928 1.723-1.392 2.992-1.392 1.281 0 2.278.464 2.993 1.392.725.917 1.087 2.267 1.087 4.048 0 1.781-.362 3.136-1.087 4.064-.715.917-1.712 1.376-2.993 1.376Zm0-1.456c.513 0 .939-.144 1.281-.432.352-.299.613-.741.784-1.328.181-.597.271-1.339.271-2.224 0-.885-.09-1.621-.271-2.208-.171-.597-.432-1.04-.784-1.328-.342-.299-.768-.448-1.281-.448-.512 0-.944.149-1.296.448-.341.288-.597.731-.768 1.328-.17.587-.255 1.323-.255 2.208 0 .885.085 1.627.255 2.224.171.587.427 1.029.768 1.328.352.288.784.432 1.296.432Zm7.311-6.864c.363 0 .651.107.864.32.224.203.336.48.336.832s-.112.635-.336.848c-.213.213-.501.32-.864.32-.373 0-.672-.107-.896-.32-.213-.213-.32-.496-.32-.848s.107-.629.32-.832c.224-.213.523-.32.896-.32Zm0 6c.363 0 .651.107.864.32.224.203.336.48.336.832s-.112.635-.336.848c-.213.213-.501.32-.864.32-.373 0-.672-.107-.896-.32-.213-.213-.32-.496-.32-.848s.107-.629.32-.832c.224-.213.523-.32.896-.32Zm8.142 2.16v-2.64h-5.152v-1.168c.021-.053.053-.117.096-.192.053-.075.112-.16.176-.256l4.4-6.304h2.096v6.592h1.792v1.328h-1.792V373h-1.616Zm-3.552-3.968h3.552v-3.728c0-.256.005-.517.016-.784.021-.277.037-.549.048-.816h-.032a7.694 7.694 0 0 1-.464.848c-.181.299-.352.56-.512.784l-2.496 3.552-.064.064a.982.982 0 0 1-.048.08Zm12.241 4.128c-.992 0-1.856-.219-2.592-.656a3.409 3.409 0 0 1-1.488-1.872l1.664-.784c.096.384.245.715.448.992s.469.491.8.64c.331.139.741.208 1.232.208.416 0 .768-.075 1.056-.224a1.54 1.54 0 0 0 .656-.624c.16-.267.24-.571.24-.912 0-.352-.069-.645-.208-.88-.128-.235-.336-.405-.624-.512-.277-.107-.635-.16-1.072-.16-.128 0-.261.005-.4.016-.128 0-.267.011-.416.032v-1.44l.272.032h.272c.693 0 1.189-.139 1.488-.416.299-.277.448-.709.448-1.296 0-.501-.155-.885-.464-1.152-.299-.267-.731-.4-1.296-.4-.587 0-1.045.139-1.376.416-.32.267-.565.656-.736 1.168l-1.568-.656c.149-.491.4-.917.752-1.28s.784-.64 1.296-.832a4.69 4.69 0 0 1 1.712-.304c.757 0 1.387.123 1.888.368.512.245.891.581 1.136 1.008.256.427.384.901.384 1.424 0 .405-.059.763-.176 1.072-.117.299-.277.56-.48.784a2.156 2.156 0 0 1-.64.496 2.421 2.421 0 0 1-.688.24v.032c.309.011.592.075.848.192.267.107.501.261.704.464.213.192.379.427.496.704.117.277.176.581.176.912 0 .64-.16 1.2-.48 1.68-.32.48-.763.853-1.328 1.12-.555.267-1.2.4-1.936.4Z"/><path fill="#FEFCFA" d="M245.693 346.16c-.992 0-1.856-.219-2.592-.656a3.4 3.4 0 0 1-1.488-1.872l1.664-.784c.096.384.245.715.448.992.202.277.469.491.8.64.33.139.741.208 1.232.208.416 0 .768-.075 1.056-.224.288-.149.506-.357.656-.624.16-.267.24-.571.24-.912 0-.352-.07-.645-.208-.88-.128-.235-.336-.405-.624-.512-.278-.107-.635-.16-1.072-.16-.128 0-.262.005-.4.016-.128 0-.267.011-.416.032v-1.44l.272.032h.272c.693 0 1.189-.139 1.488-.416.298-.277.448-.709.448-1.296 0-.501-.155-.885-.464-1.152-.299-.267-.731-.4-1.296-.4-.587 0-1.046.139-1.376.416-.32.267-.566.656-.736 1.168l-1.568-.656c.149-.491.4-.917.752-1.28s.784-.64 1.296-.832a4.685 4.685 0 0 1 1.712-.304c.757 0 1.386.123 1.888.368.512.245.89.581 1.136 1.008.256.427.384.901.384 1.424 0 .405-.059.763-.176 1.072-.118.299-.278.56-.48.784a2.169 2.169 0 0 1-.64.496 2.432 2.432 0 0 1-.688.24v.032c.309.011.592.075.848.192.266.107.501.261.704.464.213.192.378.427.496.704.117.277.176.581.176.912 0 .64-.16 1.2-.48 1.68-.32.48-.763.853-1.328 1.12-.555.267-1.2.4-1.936.4Zm6.783-2.32c.362 0 .65.107.864.32.224.203.336.48.336.832s-.112.635-.336.848c-.214.213-.502.32-.864.32-.374 0-.672-.107-.896-.32-.214-.213-.32-.496-.32-.848s.106-.629.32-.832c.224-.213.522-.32.896-.32Zm6.679 2.32c-.939 0-1.712-.203-2.32-.608-.598-.405-1.072-.992-1.424-1.76l1.6-.832c.16.512.4.933.72 1.264.33.32.816.48 1.456.48.448 0 .826-.08 1.136-.24.32-.171.565-.405.736-.704.17-.309.256-.677.256-1.104 0-.448-.08-.821-.24-1.12a1.551 1.551 0 0 0-.688-.672c-.299-.16-.672-.24-1.12-.24-.31 0-.598.032-.864.096a2.276 2.276 0 0 0-.72.304c-.214.128-.4.299-.56.512l-1.408-.272.64-5.824h6.144v1.472h-4.784l-.384 2.976-.032.176h.032c.245-.267.56-.475.944-.624.394-.149.858-.224 1.392-.224.682 0 1.269.144 1.76.432.49.277.874.667 1.152 1.168.277.501.416 1.083.416 1.744 0 .576-.096 1.088-.288 1.536a3.13 3.13 0 0 1-.816 1.136 3.615 3.615 0 0 1-1.232.704c-.459.149-.96.224-1.504.224Zm5.744-.16v-1.248a53.275 53.275 0 0 0 2.544-1.92c.693-.555 1.248-1.067 1.664-1.536.416-.469.715-.912.896-1.328.192-.427.288-.859.288-1.296 0-.565-.176-1.024-.528-1.376-.352-.352-.843-.528-1.472-.528-.661 0-1.189.224-1.584.672-.384.437-.603 1.04-.656 1.808l-1.488-.688c.075-.672.272-1.253.592-1.744.32-.491.752-.869 1.296-1.136.555-.267 1.195-.4 1.92-.4.597 0 1.12.085 1.568.256.459.171.843.411 1.152.72.309.299.544.651.704 1.056.171.405.256.837.256 1.296 0 .672-.165 1.323-.496 1.952-.331.619-.853 1.253-1.568 1.904-.715.651-1.653 1.349-2.816 2.096v.032c.128-.021.304-.032.528-.032.224-.011.448-.016.672-.016.224-.011.405-.016.544-.016h3.328V346h-7.344Zm17.055-8-3.568 3.648-.368.256-2.512 2.608-.016-1.952 4.432-4.56h2.032Zm-5.84-3.6V346h-1.712v-11.6h1.712Zm2.48 6.288 3.552 5.312h-1.984l-2.848-4.336 1.28-.976Zm20.859-5.248V346h-1.584v-6.112l.128-2.912h-.016L294.765 346h-1.424l-3.216-9.024h-.016l.128 2.912V346h-1.584v-10.56h2.544l2.128 6.112.736 2.512h.032l.752-2.512 2.112-6.112h2.496Zm4.753 0V346h-1.712v-10.56h1.712Zm11.692 0V346h-2.032l-4.08-6.656-1.024-1.872h-.016l.064 1.712V346h-1.568v-10.56h2.016l4.064 6.64 1.04 1.904h.016l-.064-1.728v-6.816h1.584ZM327.695 346h-1.808l-1.008-2.768h-4.432L319.439 346h-1.76l3.984-10.56h2.048l3.984 10.56Zm-6.768-4.16h3.472l-1.728-4.928-1.744 4.928Z"/><path fill="#7D7A9C" d="M251.14 372.984a6.664 6.664 0 0 1-1.968-.272 5.507 5.507 0 0 1-1.52-.768 4.52 4.52 0 0 1-1.056-1.104l1.136-1.152c.224.373.507.704.848.992a4 4 0 0 0 1.184.656c.448.16.939.24 1.472.24.726 0 1.296-.123 1.712-.368.427-.256.64-.635.64-1.136a1.08 1.08 0 0 0-.32-.768c-.213-.235-.597-.416-1.152-.544l-2.336-.544c-.618-.139-1.13-.331-1.536-.576-.394-.245-.688-.544-.88-.896a2.492 2.492 0 0 1-.288-1.184c0-.587.155-1.115.464-1.584.32-.469.779-.843 1.376-1.12.598-.288 1.318-.432 2.16-.432.907 0 1.702.171 2.384.512.683.341 1.248.853 1.696 1.536l-1.088 1.056c-.394-.608-.842-1.045-1.344-1.312-.501-.267-1.098-.4-1.792-.4-.512 0-.933.069-1.264.208-.32.128-.56.309-.72.544-.16.224-.24.475-.24.752 0 .224.043.427.128.608.096.181.267.341.512.48.246.139.592.256 1.04.352l2.08.464c.992.224 1.696.555 2.112.992.416.437.624.997.624 1.68 0 .629-.17 1.179-.512 1.648-.341.459-.816.816-1.424 1.072-.608.245-1.317.368-2.128.368Zm-.672 1.552v-13.632h1.28v13.632h-1.28ZM261.827 373v-2.64h-5.152v-1.168c.021-.053.053-.117.096-.192.053-.075.112-.16.176-.256l4.4-6.304h2.096v6.592h1.792v1.328h-1.792V373h-1.616Zm-3.552-3.968h3.552v-3.728c0-.256.005-.517.016-.784.021-.277.037-.549.048-.816h-.032a7.694 7.694 0 0 1-.464.848c-.181.299-.352.56-.512.784l-2.496 3.552-.064.064a.982.982 0 0 1-.048.08Zm9.589 1.808c.298 0 .544.075.736.224.202.139.357.336.464.592.106.245.16.528.16.848a3.12 3.12 0 0 1-.88 2.144c-.278.309-.614.56-1.008.752l-.8-.688c.288-.107.544-.245.768-.416.224-.171.41-.363.56-.576.16-.213.272-.432.336-.656l-.064-.032a.81.81 0 0 1-.192.08.982.982 0 0 1-.288.032.987.987 0 0 1-.464-.128.995.995 0 0 1-.384-.352c-.107-.16-.16-.368-.16-.624 0-.235.053-.443.16-.624a1.19 1.19 0 0 1 .448-.416c.181-.107.384-.16.608-.16Zm6.791 2.32c-.992 0-1.856-.219-2.592-.656a3.4 3.4 0 0 1-1.488-1.872l1.664-.784c.096.384.245.715.448.992.202.277.469.491.8.64.33.139.741.208 1.232.208.416 0 .768-.075 1.056-.224.288-.149.506-.357.656-.624.16-.267.24-.571.24-.912 0-.352-.07-.645-.208-.88-.128-.235-.336-.405-.624-.512-.278-.107-.635-.16-1.072-.16-.128 0-.262.005-.4.016-.128 0-.267.011-.416.032v-1.44l.272.032h.272c.693 0 1.189-.139 1.488-.416.298-.277.448-.709.448-1.296 0-.501-.155-.885-.464-1.152-.299-.267-.731-.4-1.296-.4-.587 0-1.046.139-1.376.416-.32.267-.566.656-.736 1.168l-1.568-.656c.149-.491.4-.917.752-1.28s.784-.64 1.296-.832a4.685 4.685 0 0 1 1.712-.304c.757 0 1.386.123 1.888.368.512.245.89.581 1.136 1.008.256.427.384.901.384 1.424 0 .405-.059.763-.176 1.072-.118.299-.278.56-.48.784a2.169 2.169 0 0 1-.64.496 2.432 2.432 0 0 1-.688.24v.032c.309.011.592.075.848.192.266.107.501.261.704.464.213.192.378.427.496.704.117.277.176.581.176.912 0 .64-.16 1.2-.48 1.68-.32.48-.763.853-1.328 1.12-.555.267-1.2.4-1.936.4Zm5.711-.16v-1.248a53.275 53.275 0 0 0 2.544-1.92c.693-.555 1.248-1.067 1.664-1.536.416-.469.714-.912.896-1.328.192-.427.288-.859.288-1.296 0-.565-.176-1.024-.528-1.376-.352-.352-.843-.528-1.472-.528-.662 0-1.19.224-1.584.672-.384.437-.603 1.04-.656 1.808l-1.488-.688c.074-.672.272-1.253.592-1.744.32-.491.752-.869 1.296-1.136.554-.267 1.194-.4 1.92-.4.597 0 1.12.085 1.568.256.458.171.842.411 1.152.72.309.299.544.651.704 1.056.17.405.256.837.256 1.296 0 .672-.166 1.323-.496 1.952-.331.619-.854 1.253-1.568 1.904-.715.651-1.654 1.349-2.816 2.096v.032c.128-.021.304-.032.528-.032.224-.011.448-.016.672-.016.224-.011.405-.016.544-.016h3.328V373h-7.344Zm13.64 0v-2.64h-5.152v-1.168c.021-.053.053-.117.096-.192.053-.075.112-.16.176-.256l4.4-6.304h2.096v6.592h1.792v1.328h-1.792V373h-1.616Zm-3.552-3.968h3.552v-3.728c0-.256.005-.517.016-.784.021-.277.037-.549.048-.816h-.032a7.865 7.865 0 0 1-.464.848c-.182.299-.352.56-.512.784l-2.496 3.552-.064.064a.982.982 0 0 1-.048.08Zm7.364-6.592h8.048v1.424c-.885.917-1.6 1.861-2.144 2.832-.544.96-.939 1.963-1.184 3.008a14.85 14.85 0 0 0-.352 3.296h-1.728c0-1.173.144-2.315.432-3.424.299-1.12.747-2.187 1.344-3.2a14.08 14.08 0 0 1 2.288-2.88l.32.432h-7.024v-1.488Zm9.05 8.4c.363 0 .651.107.864.32.224.203.336.48.336.832s-.112.635-.336.848c-.213.213-.501.32-.864.32-.373 0-.672-.107-.896-.32-.213-.213-.32-.496-.32-.848s.107-.629.32-.832c.224-.213.523-.32.896-.32Zm7.818 2.16v-2.64h-5.152v-1.168a1.89 1.89 0 0 1 .096-.192c.054-.075.112-.16.176-.256l4.4-6.304h2.096v6.592h1.792v1.328h-1.792V373h-1.616Zm-3.552-3.968h3.552v-3.728c0-.256.006-.517.016-.784.022-.277.038-.549.048-.816h-.032a7.694 7.694 0 0 1-.464.848c-.181.299-.352.56-.512.784l-2.496 3.552-.064.064a.618.618 0 0 1-.048.08Zm12.146 4.128c-.939 0-1.712-.203-2.32-.608-.598-.405-1.072-.992-1.424-1.76l1.6-.832c.16.512.4.933.72 1.264.33.32.816.48 1.456.48.448 0 .826-.08 1.136-.24.32-.171.565-.405.736-.704.17-.309.256-.677.256-1.104 0-.448-.08-.821-.24-1.12a1.551 1.551 0 0 0-.688-.672c-.299-.16-.672-.24-1.121-.24-.309 0-.597.032-.863.096a2.276 2.276 0 0 0-.72.304c-.214.128-.4.299-.56.512l-1.408-.272.64-5.824h6.144v1.472h-4.784l-.384 2.976-.032.176h.032c.245-.267.56-.475.944-.624.394-.149.858-.224 1.392-.224.682 0 1.269.144 1.76.432.49.277.874.667 1.152 1.168.277.501.416 1.083.416 1.744 0 .576-.096 1.088-.288 1.536a3.13 3.13 0 0 1-.816 1.136 3.615 3.615 0 0 1-1.232.704c-.459.149-.96.224-1.504.224Z"/><path stroke="#A3DBE4" stroke-linecap="round" stroke-linejoin="round" stroke-width="1.5" d="M55 362a6.998 6.998 0 0 1-6.995-6.398A6.999 6.999 0 0 1 53.8 348.1c5.7-1.1 7.2-1.62 9.2-4.1 1 2 2 4.18 2 8 0 5.5-4.78 10-10 10Z"/><path stroke="#A3DBE4" stroke-linecap="round" stroke-linejoin="round" stroke-width="1.5" d="M46 363c0-3 1.85-5.36 5.08-6 2.42-.48 4.92-2 5.92-3"/><path fill="#FEFCFA" d="m41.408 402.44-3.776 6.512V413H35.92v-4.048l-3.76-6.512h1.904l1.888 3.408.832 1.568.832-1.568 1.872-3.408h1.92Zm3.563 10.72c-.8 0-1.504-.165-2.112-.496a3.52 3.52 0 0 1-1.424-1.424c-.33-.629-.496-1.376-.496-2.24 0-.864.165-1.605.496-2.224a3.527 3.527 0 0 1 1.408-1.44c.597-.331 1.274-.496 2.032-.496.778 0 1.44.16 1.984.48.544.32.96.757 1.248 1.312.288.555.432 1.184.432 1.888a8.8 8.8 0 0 1-.016.544c-.01.171-.027.32-.048.448h-6.432V408.2h5.68l-.848.256c0-.725-.182-1.28-.544-1.664-.363-.395-.859-.592-1.488-.592-.459 0-.859.107-1.2.32-.342.213-.603.533-.784.96-.182.416-.272.928-.272 1.536 0 .597.096 1.104.288 1.52.192.416.464.731.816.944.352.213.768.32 1.248.32.533 0 .965-.101 1.296-.304.33-.203.592-.485.784-.848l1.36.64a3.26 3.26 0 0 1-.784 1.008c-.32.277-.704.491-1.152.64a4.64 4.64 0 0 1-1.472.224Zm8.674 0c-.8 0-1.53-.155-2.192-.464a3.791 3.791 0 0 1-1.568-1.312l1.184-1.024c.234.437.57.789 1.008 1.056.448.256.981.384 1.6.384.49 0 .88-.085 1.168-.256.288-.171.432-.411.432-.72a.75.75 0 0 0-.208-.528c-.128-.16-.379-.283-.752-.368l-1.68-.352c-.854-.171-1.462-.443-1.824-.816-.363-.384-.544-.869-.544-1.456 0-.437.128-.843.384-1.216s.63-.672 1.12-.896c.501-.235 1.098-.352 1.792-.352.8 0 1.482.144 2.048.432.565.277.997.677 1.296 1.2l-1.184.992a1.979 1.979 0 0 0-.896-.944 2.561 2.561 0 0 0-1.232-.32c-.342 0-.635.043-.88.128-.246.085-.432.203-.56.352a.784.784 0 0 0-.192.528c0 .213.08.4.24.56.16.16.448.283.864.368l1.824.384c.768.149 1.306.405 1.616.768.32.352.48.784.48 1.296s-.134.965-.4 1.36c-.267.384-.65.683-1.152.896-.502.213-1.099.32-1.792.32Zm7.668-10.512v7.952c0 .395.102.683.304.864.214.181.497.272.849.272.288 0 .538-.043.752-.128.213-.096.41-.224.591-.384l.385 1.248a2.79 2.79 0 0 1-.913.512 3.741 3.741 0 0 1-1.184.176c-.458 0-.88-.075-1.264-.224a1.817 1.817 0 0 1-.895-.72c-.214-.341-.326-.784-.337-1.328v-7.76l1.712-.48ZM64.066 405v1.344h-6V405h6Zm5.118 8.16c-.8 0-1.504-.165-2.112-.496a3.52 3.52 0 0 1-1.424-1.424c-.33-.629-.496-1.376-.496-2.24 0-.864.165-1.605.496-2.224a3.527 3.527 0 0 1 1.408-1.44c.597-.331 1.274-.496 2.032-.496.778 0 1.44.16 1.984.48.544.32.96.757 1.248 1.312.288.555.432 1.184.432 1.888a8.8 8.8 0 0 1-.016.544c-.01.171-.027.32-.048.448h-6.432V408.2h5.68l-.848.256c0-.725-.182-1.28-.544-1.664-.363-.395-.859-.592-1.488-.592-.459 0-.859.107-1.2.32-.342.213-.603.533-.784.96-.182.416-.272.928-.272 1.536 0 .597.096 1.104.288 1.52.192.416.464.731.816.944.352.213.768.32 1.248.32.533 0 .965-.101 1.296-.304.33-.203.592-.485.784-.848l1.36.64a3.26 3.26 0 0 1-.784 1.008c-.32.277-.704.491-1.152.64a4.64 4.64 0 0 1-1.472.224Zm5.634-.16v-8h1.456l.16 1.44c.213-.523.528-.917.944-1.184.426-.277.95-.416 1.568-.416.16 0 .32.016.48.048.16.021.293.059.4.112l-.24 1.504a1.957 1.957 0 0 0-.4-.096 2.692 2.692 0 0 0-.576-.048c-.33 0-.656.091-.976.272-.32.171-.587.432-.8.784-.203.352-.304.8-.304 1.344V413h-1.712Zm9.398.16a3.41 3.41 0 0 1-1.808-.496c-.534-.331-.955-.805-1.264-1.424-.31-.619-.464-1.36-.464-2.224 0-.896.165-1.653.496-2.272.33-.619.773-1.088 1.328-1.408a3.494 3.494 0 0 1 1.824-.496c.682 0 1.258.187 1.728.56.469.373.784.859.944 1.456l-.192.176V401.4h1.712V413h-1.52l-.128-2.176.224.016a2.63 2.63 0 0 1-.528 1.248 2.87 2.87 0 0 1-1.04.8 3.18 3.18 0 0 1-1.312.272Zm.368-1.376c.458 0 .853-.117 1.184-.352.33-.235.586-.565.768-.992.181-.427.272-.939.272-1.536 0-.555-.091-1.029-.272-1.424-.182-.405-.438-.715-.768-.928a1.974 1.974 0 0 0-1.12-.32c-.715 0-1.27.245-1.664.736-.395.491-.592 1.168-.592 2.032 0 .864.192 1.547.576 2.048.384.491.922.736 1.616.736Zm11.119-3.92c0-.533-.15-.944-.448-1.232-.288-.299-.688-.448-1.2-.448-.48 0-.89.112-1.232.336-.341.224-.592.587-.752 1.088L90.63 407a2.879 2.879 0 0 1 1.184-1.568c.597-.395 1.365-.592 2.304-.592.64 0 1.205.107 1.696.32.49.203.875.512 1.152.928.288.416.432.949.432 1.6v3.568c0 .395.197.592.592.592.192 0 .379-.027.56-.08l-.096 1.184c-.245.117-.555.176-.928.176-.341 0-.65-.059-.928-.176a1.552 1.552 0 0 1-.64-.56c-.15-.256-.224-.571-.224-.944v-.112l.352-.016a1.995 1.995 0 0 1-.592 1.04 3.074 3.074 0 0 1-1.04.608 3.868 3.868 0 0 1-1.2.192c-.502 0-.955-.08-1.36-.24-.395-.16-.71-.4-.944-.72-.224-.331-.336-.736-.336-1.216 0-.597.192-1.088.576-1.472.395-.384.95-.645 1.664-.784l3.104-.608-.016 1.2-2.256.464c-.448.085-.784.208-1.008.368-.224.16-.336.395-.336.704a.88.88 0 0 0 .336.72c.234.171.544.256.928.256.267 0 .523-.032.768-.096.256-.064.485-.165.688-.304.203-.149.357-.336.464-.56.117-.235.176-.512.176-.832v-2.176ZM106.647 405l-3.504 8.944c-.235.619-.491 1.109-.768 1.472-.267.363-.576.624-.928.784-.352.16-.763.24-1.232.24-.385 0-.742-.053-1.073-.16a2.955 2.955 0 0 1-.847-.4l.415-1.328c.203.171.416.299.64.384.235.085.486.128.753.128.288 0 .544-.08.768-.24.234-.149.442-.453.624-.912l.352-.864-.848-1.984L98.503 405h1.92l1.776 5.024.464 1.504.528-1.648 1.68-4.88h1.776Z"/><rect width="48" height="48" x="32" y="438" fill="#25233A" rx="24"/><path fill="#FEFCFA" d="M101.168 443.28c.949 0 1.771.181 2.464.544.693.352 1.28.875 1.76 1.568l-1.152 1.104c-.405-.619-.864-1.061-1.376-1.328-.501-.277-1.099-.416-1.792-.416-.512 0-.933.069-1.264.208-.33.139-.576.325-.736.56-.15.224-.224.48-.224.768 0 .331.112.619.336.864.235.245.667.437 1.296.576l2.144.48c1.024.224 1.749.565 2.176 1.024.427.459.64 1.04.64 1.744 0 .651-.176 1.216-.528 1.696-.352.48-.843.848-1.472 1.104-.619.256-1.349.384-2.192.384-.747 0-1.419-.096-2.016-.288a5.392 5.392 0 0 1-1.568-.784 4.637 4.637 0 0 1-1.104-1.136l1.184-1.184c.224.373.507.709.848 1.008.341.288.736.512 1.184.672.459.16.965.24 1.52.24.491 0 .912-.059 1.264-.176.363-.117.635-.288.816-.512.192-.235.288-.512.288-.832 0-.309-.107-.581-.32-.816-.203-.235-.587-.416-1.152-.544l-2.32-.528c-.64-.139-1.168-.336-1.584-.592-.416-.256-.725-.565-.928-.928a2.57 2.57 0 0 1-.304-1.248c0-.597.16-1.136.48-1.616.33-.491.805-.88 1.424-1.168.619-.299 1.355-.448 2.208-.448Zm8.666.368v7.952c0 .395.101.683.304.864.213.181.496.272.848.272.288 0 .538-.043.752-.128.213-.096.41-.224.592-.384l.384 1.248c-.246.213-.55.384-.912.512a3.742 3.742 0 0 1-1.184.176c-.459 0-.88-.075-1.264-.224a1.815 1.815 0 0 1-.896-.72c-.214-.341-.326-.784-.336-1.328v-7.76l1.712-.48Zm2.752 2.352v1.344h-6V446h6Zm6.268 2.864c0-.533-.15-.944-.448-1.232-.288-.299-.688-.448-1.2-.448-.48 0-.891.112-1.232.336-.342.224-.592.587-.752 1.088l-1.44-.608a2.875 2.875 0 0 1 1.184-1.568c.597-.395 1.365-.592 2.304-.592.64 0 1.205.107 1.696.32.49.203.874.512 1.152.928.288.416.432.949.432 1.6v3.568c0 .395.197.592.592.592.192 0 .378-.027.56-.08l-.096 1.184c-.246.117-.555.176-.928.176-.342 0-.651-.059-.928-.176a1.55 1.55 0 0 1-.64-.56c-.15-.256-.224-.571-.224-.944v-.112l.352-.016a2 2 0 0 1-.592 1.04 3.082 3.082 0 0 1-1.04.608 3.87 3.87 0 0 1-1.2.192c-.502 0-.955-.08-1.36-.24a2.13 2.13 0 0 1-.944-.72c-.224-.331-.336-.736-.336-1.216 0-.597.192-1.088.576-1.472.394-.384.949-.645 1.664-.784l3.104-.608-.016 1.2-2.256.464c-.448.085-.784.208-1.008.368-.224.16-.336.395-.336.704a.88.88 0 0 0 .336.72c.234.171.544.256.928.256.266 0 .522-.032.768-.096.256-.064.485-.165.688-.304a1.48 1.48 0 0 0 .464-.56c.117-.235.176-.512.176-.832v-2.176ZM130.811 446l-3.568 3.648-.368.256-2.512 2.608-.016-1.952 4.432-4.56h2.032Zm-5.84-3.6V454h-1.712v-11.6h1.712Zm2.48 6.288 3.552 5.312h-1.984l-2.848-4.336 1.28-.976Zm5.904-4.032c-.373 0-.661-.091-.864-.272-.192-.192-.288-.459-.288-.8s.096-.603.288-.784c.203-.181.491-.272.864-.272.363 0 .64.091.832.272.203.181.304.443.304.784s-.101.608-.304.8c-.192.181-.469.272-.832.272Zm.848 1.344v8h-1.712v-8h1.712Zm2.583 8v-8h1.52l.112 2.08-.224-.224c.149-.459.362-.837.64-1.136a2.549 2.549 0 0 1 1.008-.672c.394-.139.81-.208 1.248-.208.565 0 1.072.112 1.52.336.458.213.821.539 1.088.976.266.437.4.992.4 1.664V454h-1.712v-4.656c0-.789-.166-1.333-.496-1.632-.32-.309-.726-.464-1.216-.464a2.2 2.2 0 0 0-1.024.256c-.331.16-.608.421-.832.784-.214.363-.32.848-.32 1.456V454h-1.712Zm16.85-9.68.272 1.344h-.096a.293.293 0 0 0-.096-.016c-.512 0-.902.112-1.168.336-.267.213-.4.528-.4.944l-.832-.384c0-.427.09-.805.272-1.136.181-.341.437-.608.768-.8a2.307 2.307 0 0 1 1.152-.288h.128Zm-2.528 8.432c.81 0 1.44.181 1.888.544.448.352.672.843.672 1.472 0 .555-.176 1.029-.528 1.424-.352.405-.832.715-1.44.928-.598.213-1.286.32-2.064.32-1.312 0-2.283-.203-2.912-.608-.63-.405-.944-.912-.944-1.52 0-.427.149-.8.448-1.12.309-.32.826-.501 1.552-.544l-.096.256c-.448-.096-.811-.267-1.088-.512-.267-.256-.4-.613-.4-1.072 0-.459.176-.848.528-1.168.352-.32.848-.507 1.488-.56l.896.432h-.192c-.491.043-.838.155-1.04.336-.203.181-.304.384-.304.608 0 .267.096.464.288.592.202.128.485.192.848.192h2.4Zm-1.472 3.408c.586 0 1.066-.059 1.44-.176.384-.107.666-.251.848-.432.192-.171.288-.363.288-.576a.702.702 0 0 0-.304-.592c-.192-.149-.544-.224-1.056-.224h-2.576c-.299 0-.55.075-.752.224a.773.773 0 0 0-.304.64c0 .352.213.629.64.832.426.203 1.018.304 1.776.304Zm-.064-10.32c.704 0 1.312.112 1.824.336.522.224.922.539 1.2.944.288.405.432.88.432 1.424 0 .544-.144 1.019-.432 1.424-.278.405-.678.72-1.2.944-.512.224-1.12.336-1.824.336-1.11 0-1.963-.245-2.56-.736-.587-.501-.88-1.157-.88-1.968 0-.544.144-1.019.432-1.424.288-.405.688-.72 1.2-.944.522-.224 1.125-.336 1.808-.336Zm0 1.2c-.491 0-.902.139-1.232.416-.32.267-.48.629-.48 1.088 0 .459.16.827.48 1.104.33.277.741.416 1.232.416.501 0 .912-.139 1.232-.416.33-.277.496-.645.496-1.104 0-.459-.166-.821-.496-1.088-.32-.277-.731-.416-1.232-.416Zm10.675 6.96v-8h1.456l.16 1.44c.214-.523.528-.917.944-1.184.427-.277.95-.416 1.568-.416.16 0 .32.016.48.048.16.021.294.059.4.112l-.24 1.504a1.94 1.94 0 0 0-.4-.096 2.683 2.683 0 0 0-.576-.048c-.33 0-.656.091-.976.272-.32.171-.586.432-.8.784-.202.352-.304.8-.304 1.344V454h-1.712Zm9.846.16c-.8 0-1.504-.165-2.112-.496a3.524 3.524 0 0 1-1.424-1.424c-.33-.629-.496-1.376-.496-2.24 0-.864.166-1.605.496-2.224a3.534 3.534 0 0 1 1.408-1.44c.598-.331 1.275-.496 2.032-.496.779 0 1.44.16 1.984.48.544.32.96.757 1.248 1.312.288.555.432 1.184.432 1.888 0 .192-.005.373-.016.544-.01.171-.026.32-.048.448h-6.432V449.2h5.68l-.848.256c0-.725-.181-1.28-.544-1.664-.362-.395-.858-.592-1.488-.592-.458 0-.858.107-1.2.32-.341.213-.602.533-.784.96-.181.416-.272.928-.272 1.536 0 .597.096 1.104.288 1.52.192.416.464.731.816.944.352.213.768.32 1.248.32.534 0 .966-.101 1.296-.304a2.15 2.15 0 0 0 .784-.848l1.36.64c-.192.384-.453.72-.784 1.008-.32.277-.704.491-1.152.64a4.637 4.637 0 0 1-1.472.224ZM185.7 446h1.856l-2.688 8h-1.872l-2.016-5.936-1.904 5.936h-1.872l-2.672-8h1.84l1.824 6.32 1.984-6.32h1.712l1.984 6.32L185.7 446Zm7.884 2.864c0-.533-.15-.944-.448-1.232-.288-.299-.688-.448-1.2-.448-.48 0-.891.112-1.232.336-.342.224-.592.587-.752 1.088l-1.44-.608a2.875 2.875 0 0 1 1.184-1.568c.597-.395 1.365-.592 2.304-.592.64 0 1.205.107 1.696.32.49.203.874.512 1.152.928.288.416.432.949.432 1.6v3.568c0 .395.197.592.592.592.192 0 .378-.027.56-.08l-.096 1.184c-.246.117-.555.176-.928.176-.342 0-.651-.059-.928-.176a1.55 1.55 0 0 1-.64-.56c-.15-.256-.224-.571-.224-.944v-.112l.352-.016a2 2 0 0 1-.592 1.04 3.082 3.082 0 0 1-1.04.608 3.87 3.87 0 0 1-1.2.192c-.502 0-.955-.08-1.36-.24a2.13 2.13 0 0 1-.944-.72c-.224-.331-.336-.736-.336-1.216 0-.597.192-1.088.576-1.472.394-.384.949-.645 1.664-.784l3.104-.608-.016 1.2-2.256.464c-.448.085-.784.208-1.008.368-.224.16-.336.395-.336.704a.88.88 0 0 0 .336.72c.234.171.544.256.928.256.266 0 .522-.032.768-.096.256-.064.485-.165.688-.304a1.48 1.48 0 0 0 .464-.56c.117-.235.176-.512.176-.832v-2.176Zm4.404 5.136v-8h1.456l.16 1.44c.214-.523.528-.917.944-1.184.427-.277.95-.416 1.568-.416.16 0 .32.016.48.048.16.021.294.059.401.112l-.241 1.504a1.94 1.94 0 0 0-.4-.096 2.683 2.683 0 0 0-.576-.048c-.33 0-.656.091-.976.272-.32.171-.586.432-.8.784-.202.352-.304.8-.304 1.344V454h-1.712Zm9.398.16a3.411 3.411 0 0 1-1.808-.496c-.533-.331-.954-.805-1.264-1.424-.309-.619-.464-1.36-.464-2.224 0-.896.166-1.653.496-2.272.331-.619.774-1.088 1.328-1.408a3.495 3.495 0 0 1 1.824-.496c.683 0 1.259.187 1.728.56a2.7 2.7 0 0 1 .944 1.456l-.192.176V442.4h1.712V454h-1.52l-.128-2.176.224.016c-.074.48-.25.896-.528 1.248a2.867 2.867 0 0 1-1.04.8 3.178 3.178 0 0 1-1.312.272Zm.368-1.376c.459 0 .854-.117 1.184-.352.331-.235.587-.565.768-.992.182-.427.272-.939.272-1.536 0-.555-.09-1.029-.272-1.424-.181-.405-.437-.715-.768-.928a1.974 1.974 0 0 0-1.12-.32c-.714 0-1.269.245-1.664.736-.394.491-.592 1.168-.592 2.032 0 .864.192 1.547.576 2.048.384.491.923.736 1.616.736Z"/><path fill="#7D7A9C" d="M99.248 481v-7.904l.032-.736a5.697 5.697 0 0 1-1.248.912 5.498 5.498 0 0 1-1.424.528l-.32-1.488c.224-.032.485-.107.784-.224.299-.117.608-.267.928-.448.32-.181.613-.373.88-.576.267-.213.475-.421.624-.624h1.44V481h-1.696Zm8.117.16c-1.269 0-2.266-.459-2.992-1.376-.714-.928-1.072-2.283-1.072-4.064 0-1.781.358-3.131 1.072-4.048.726-.928 1.723-1.392 2.992-1.392 1.281 0 2.278.464 2.993 1.392.725.917 1.087 2.267 1.087 4.048 0 1.781-.362 3.136-1.087 4.064-.715.917-1.712 1.376-2.993 1.376Zm0-1.456c.513 0 .939-.144 1.281-.432.352-.299.613-.741.784-1.328.181-.597.271-1.339.271-2.224 0-.885-.09-1.621-.271-2.208-.171-.597-.432-1.04-.784-1.328-.342-.299-.768-.448-1.281-.448-.512 0-.944.149-1.296.448-.341.288-.597.731-.768 1.328-.17.587-.255 1.323-.255 2.208 0 .885.085 1.627.255 2.224.171.587.427 1.029.768 1.328.352.288.784.432 1.296.432Zm7.311-6.864c.363 0 .651.107.864.32.224.203.336.48.336.832s-.112.635-.336.848c-.213.213-.501.32-.864.32-.373 0-.672-.107-.896-.32-.213-.213-.32-.496-.32-.848s.107-.629.32-.832c.224-.213.523-.32.896-.32Zm0 6c.363 0 .651.107.864.32.224.203.336.48.336.832s-.112.635-.336.848c-.213.213-.501.32-.864.32-.373 0-.672-.107-.896-.32-.213-.213-.32-.496-.32-.848s.107-.629.32-.832c.224-.213.523-.32.896-.32Zm8.142 2.16v-2.64h-5.152v-1.168c.021-.053.053-.117.096-.192.053-.075.112-.16.176-.256l4.4-6.304h2.096v6.592h1.792v1.328h-1.792V481h-1.616Zm-3.552-3.968h3.552v-3.728c0-.256.005-.517.016-.784.021-.277.037-.549.048-.816h-.032a7.694 7.694 0 0 1-.464.848c-.181.299-.352.56-.512.784l-2.496 3.552-.064.064a.982.982 0 0 1-.048.08Zm12.241 4.128c-.992 0-1.856-.219-2.592-.656a3.409 3.409 0 0 1-1.488-1.872l1.664-.784c.096.384.245.715.448.992s.469.491.8.64c.331.139.741.208 1.232.208.416 0 .768-.075 1.056-.224a1.54 1.54 0 0 0 .656-.624c.16-.267.24-.571.24-.912 0-.352-.069-.645-.208-.88-.128-.235-.336-.405-.624-.512-.277-.107-.635-.16-1.072-.16-.128 0-.261.005-.4.016-.128 0-.267.011-.416.032v-1.44l.272.032h.272c.693 0 1.189-.139 1.488-.416.299-.277.448-.709.448-1.296 0-.501-.155-.885-.464-1.152-.299-.267-.731-.4-1.296-.4-.587 0-1.045.139-1.376.416-.32.267-.565.656-.736 1.168l-1.568-.656c.149-.491.4-.917.752-1.28s.784-.64 1.296-.832a4.69 4.69 0 0 1 1.712-.304c.757 0 1.387.123 1.888.368.512.245.891.581 1.136 1.008.256.427.384.901.384 1.424 0 .405-.059.763-.176 1.072-.117.299-.277.56-.48.784a2.156 2.156 0 0 1-.64.496 2.421 2.421 0 0 1-.688.24v.032c.309.011.592.075.848.192.267.107.501.261.704.464.213.192.379.427.496.704.117.277.176.581.176.912 0 .64-.16 1.2-.48 1.68-.32.48-.763.853-1.328 1.12-.555.267-1.2.4-1.936.4Z"/><path fill="#FEFCFA" d="M232.267 454v-1.248a52.274 52.274 0 0 0 2.544-1.92c.694-.555 1.248-1.067 1.664-1.536.416-.469.715-.912.896-1.328.192-.427.288-.859.288-1.296 0-.565-.176-1.024-.528-1.376-.352-.352-.842-.528-1.472-.528-.661 0-1.189.224-1.584.672-.384.437-.602 1.04-.656 1.808l-1.488-.688c.075-.672.272-1.253.592-1.744.32-.491.752-.869 1.296-1.136.555-.267 1.195-.4 1.92-.4.598 0 1.12.085 1.568.256.459.171.843.411 1.152.72.31.299.544.651.704 1.056.171.405.256.837.256 1.296 0 .672-.165 1.323-.496 1.952-.33.619-.853 1.253-1.568 1.904-.714.651-1.653 1.349-2.816 2.096v.032c.128-.021.304-.032.528-.032.224-.011.448-.016.672-.016.224-.011.406-.016.544-.016h3.328V454h-7.344Zm10.367-2.16c.363 0 .651.107.864.32.224.203.336.48.336.832s-.112.635-.336.848c-.213.213-.501.32-.864.32-.373 0-.672-.107-.896-.32-.213-.213-.32-.496-.32-.848s.107-.629.32-.832c.224-.213.523-.32.896-.32Zm6.775 2.32c-.992 0-1.856-.219-2.592-.656a3.409 3.409 0 0 1-1.488-1.872l1.664-.784c.096.384.245.715.448.992s.469.491.8.64c.331.139.741.208 1.232.208.416 0 .768-.075 1.056-.224a1.54 1.54 0 0 0 .656-.624c.16-.267.24-.571.24-.912 0-.352-.069-.645-.208-.88-.128-.235-.336-.405-.624-.512-.277-.107-.635-.16-1.072-.16-.128 0-.261.005-.4.016-.128 0-.267.011-.416.032v-1.44l.272.032h.272c.693 0 1.189-.139 1.488-.416.299-.277.448-.709.448-1.296 0-.501-.155-.885-.464-1.152-.299-.267-.731-.4-1.296-.4-.587 0-1.045.139-1.376.416-.32.267-.565.656-.736 1.168l-1.568-.656c.149-.491.4-.917.752-1.28s.784-.64 1.296-.832a4.69 4.69 0 0 1 1.712-.304c.757 0 1.387.123 1.888.368.512.245.891.581 1.136 1.008.256.427.384.901.384 1.424 0 .405-.059.763-.176 1.072-.117.299-.277.56-.48.784a2.156 2.156 0 0 1-.64.496 2.421 2.421 0 0 1-.688.24v.032c.309.011.592.075.848.192.267.107.501.261.704.464.213.192.379.427.496.704.117.277.176.581.176.912 0 .64-.16 1.2-.48 1.68-.32.48-.763.853-1.328 1.12-.555.267-1.2.4-1.936.4Zm10.447-.16v-2.64h-5.152v-1.168c.021-.053.053-.117.096-.192.053-.075.112-.16.176-.256l4.4-6.304h2.096v6.592h1.792v1.328h-1.792V454h-1.616Zm-3.552-3.968h3.552v-3.728c0-.256.005-.517.016-.784.021-.277.037-.549.048-.816h-.032a7.694 7.694 0 0 1-.464.848c-.181.299-.352.56-.512.784l-2.496 3.552-.064.064a.982.982 0 0 1-.048.08Zm12.145 4.128c-.938 0-1.712-.203-2.32-.608-.597-.405-1.072-.992-1.424-1.76l1.6-.832c.16.512.4.933.72 1.264.331.32.816.48 1.456.48.448 0 .827-.08 1.136-.24.32-.171.566-.405.736-.704.171-.309.256-.677.256-1.104 0-.448-.08-.821-.24-1.12a1.546 1.546 0 0 0-.688-.672c-.298-.16-.672-.24-1.12-.24a3.7 3.7 0 0 0-.864.096 2.296 2.296 0 0 0-.72.304c-.213.128-.4.299-.56.512l-1.408-.272.64-5.824h6.144v1.472h-4.784l-.384 2.976-.032.176h.032c.246-.267.56-.475.944-.624.395-.149.859-.224 1.392-.224.683 0 1.27.144 1.76.432.491.277.875.667 1.152 1.168.278.501.416 1.083.416 1.744 0 .576-.096 1.088-.288 1.536a3.13 3.13 0 0 1-.816 1.136 3.606 3.606 0 0 1-1.232.704c-.458.149-.96.224-1.504.224Zm13.505-8.16-3.568 3.648-.368.256-2.512 2.608-.016-1.952 4.432-4.56h2.032Zm-5.84-3.6V454h-1.712v-11.6h1.712Zm2.48 6.288 3.552 5.312h-1.984l-2.848-4.336 1.28-.976Zm20.859-5.248V454h-1.584v-6.112l.128-2.912h-.016L294.765 454h-1.424l-3.216-9.024h-.016l.128 2.912V454h-1.584v-10.56h2.544l2.128 6.112.736 2.512h.032l.752-2.512 2.112-6.112h2.496Zm4.753 0V454h-1.712v-10.56h1.712Zm11.692 0V454h-2.032l-4.08-6.656-1.024-1.872h-.016l.064 1.712V454h-1.568v-10.56h2.016l4.064 6.64 1.04 1.904h.016l-.064-1.728v-6.816h1.584ZM327.695 454h-1.808l-1.008-2.768h-4.432L319.439 454h-1.76l3.984-10.56h2.048l3.984 10.56Zm-6.768-4.16h3.472l-1.728-4.928-1.744 4.928Z"/><path fill="#7D7A9C" d="M259.966 480.984a6.664 6.664 0 0 1-1.968-.272 5.493 5.493 0 0 1-1.52-.768 4.483 4.483 0 0 1-1.056-1.104l1.136-1.152c.224.373.507.704.848.992.341.277.736.496 1.184.656.448.16.939.24 1.472.24.725 0 1.296-.123 1.712-.368.427-.256.64-.635.64-1.136 0-.288-.107-.544-.32-.768-.213-.235-.597-.416-1.152-.544l-2.336-.544c-.619-.139-1.131-.331-1.536-.576-.395-.245-.688-.544-.88-.896a2.492 2.492 0 0 1-.288-1.184c0-.587.155-1.115.464-1.584.32-.469.779-.843 1.376-1.12.597-.288 1.317-.432 2.16-.432.907 0 1.701.171 2.384.512.683.341 1.248.853 1.696 1.536l-1.088 1.056c-.395-.608-.843-1.045-1.344-1.312-.501-.267-1.099-.4-1.792-.4-.512 0-.933.069-1.264.208-.32.128-.56.309-.72.544-.16.224-.24.475-.24.752 0 .224.043.427.128.608.096.181.267.341.512.48.245.139.592.256 1.04.352l2.08.464c.992.224 1.696.555 2.112.992.416.437.624.997.624 1.68 0 .629-.171 1.179-.512 1.648-.341.459-.816.816-1.424 1.072-.608.245-1.317.368-2.128.368Zm-.672 1.552v-13.632h1.28v13.632h-1.28Zm6.623-1.536v-1.248a53.275 53.275 0 0 0 2.544-1.92c.693-.555 1.248-1.067 1.664-1.536.416-.469.715-.912.896-1.328.192-.427.288-.859.288-1.296 0-.565-.176-1.024-.528-1.376-.352-.352-.843-.528-1.472-.528-.661 0-1.189.224-1.584.672-.384.437-.603 1.04-.656 1.808l-1.488-.688c.075-.672.272-1.253.592-1.744.32-.491.752-.869 1.296-1.136.555-.267 1.195-.4 1.92-.4.597 0 1.12.085 1.568.256.459.171.843.411 1.152.72.309.299.544.651.704 1.056.171.405.256.837.256 1.296 0 .672-.165 1.323-.496 1.952-.331.619-.853 1.253-1.568 1.904-.715.651-1.653 1.349-2.816 2.096v.032c.128-.021.304-.032.528-.032.224-.011.448-.016.672-.016.224-.011.405-.016.544-.016h3.328V481h-7.344Zm10.351-2.16c.298 0 .544.075.736.224.202.139.357.336.464.592.106.245.16.528.16.848a3.12 3.12 0 0 1-.88 2.144c-.278.309-.614.56-1.008.752l-.8-.688c.288-.107.544-.245.768-.416.224-.171.41-.363.56-.576.16-.213.272-.432.336-.656l-.064-.032a.81.81 0 0 1-.192.08.982.982 0 0 1-.288.032.987.987 0 0 1-.464-.128.995.995 0 0 1-.384-.352c-.107-.16-.16-.368-.16-.624 0-.235.053-.443.16-.624a1.19 1.19 0 0 1 .448-.416c.181-.107.384-.16.608-.16Zm6.839-8.56c.906 0 1.669.224 2.288.672.629.448 1.098 1.077 1.408 1.888.32.811.48 1.765.48 2.864 0 1.216-.166 2.229-.496 3.04-.331.8-.806 1.403-1.424 1.808-.619.405-1.366.608-2.24.608-.896 0-1.664-.197-2.304-.592-.64-.395-1.12-.987-1.44-1.776l1.616-.752c.149.501.394.901.736 1.2.352.299.826.448 1.424.448.49 0 .901-.096 1.232-.288.33-.192.592-.469.784-.832.202-.363.346-.8.432-1.312a10.61 10.61 0 0 0 .128-1.728v-.176h-.064a2.062 2.062 0 0 1-.64 1.04c-.299.267-.64.464-1.024.592a3.935 3.935 0 0 1-1.152.176c-.683 0-1.291-.133-1.824-.4a3.117 3.117 0 0 1-1.232-1.152c-.299-.491-.448-1.072-.448-1.744 0-.736.149-1.371.448-1.904a3.136 3.136 0 0 1 1.296-1.232c.565-.299 1.237-.448 2.016-.448Zm.016 1.504c-.672 0-1.19.181-1.552.544-.352.363-.528.869-.528 1.52 0 .576.186 1.029.56 1.36.384.32.89.48 1.52.48.405 0 .762-.08 1.072-.24.309-.171.549-.4.72-.688.181-.288.272-.624.272-1.008 0-.405-.091-.752-.272-1.04a1.725 1.725 0 0 0-.72-.688c-.31-.16-.667-.24-1.072-.24ZM294.006 481v-2.64h-5.152v-1.168c.021-.053.053-.117.096-.192.053-.075.112-.16.176-.256l4.4-6.304h2.096v6.592h1.792v1.328h-1.792V481h-1.616Zm-3.552-3.968h3.552v-3.728c0-.256.005-.517.016-.784.021-.277.037-.549.048-.816h-.032a7.865 7.865 0 0 1-.464.848c-.182.299-.352.56-.512.784l-2.496 3.552-.064.064a.982.982 0 0 1-.048.08Zm7.364-6.592h8.048v1.424c-.885.917-1.6 1.861-2.144 2.832-.544.96-.939 1.963-1.184 3.008a14.85 14.85 0 0 0-.352 3.296h-1.728c0-1.173.144-2.315.432-3.424.299-1.12.747-2.187 1.344-3.2a14.08 14.08 0 0 1 2.288-2.88l.32.432h-7.024v-1.488Zm9.05 8.4c.363 0 .651.107.864.32.224.203.336.48.336.832s-.112.635-.336.848c-.213.213-.501.32-.864.32-.373 0-.672-.107-.896-.32-.213-.213-.32-.496-.32-.848s.107-.629.32-.832c.224-.213.523-.32.896-.32Zm7.818 2.16v-2.64h-5.152v-1.168a1.89 1.89 0 0 1 .096-.192c.054-.075.112-.16.176-.256l4.4-6.304h2.096v6.592h1.792v1.328h-1.792V481h-1.616Zm-3.552-3.968h3.552v-3.728c0-.256.006-.517.016-.784.022-.277.038-.549.048-.816h-.032a7.694 7.694 0 0 1-.464.848c-.181.299-.352.56-.512.784l-2.496 3.552-.064.064a.618.618 0 0 1-.048.08Zm12.146 4.128c-.939 0-1.712-.203-2.32-.608-.598-.405-1.072-.992-1.424-1.76l1.6-.832c.16.512.4.933.72 1.264.33.32.816.48 1.456.48.448 0 .826-.08 1.136-.24.32-.171.565-.405.736-.704.17-.309.256-.677.256-1.104 0-.448-.08-.821-.24-1.12a1.551 1.551 0 0 0-.688-.672c-.299-.16-.672-.24-1.121-.24-.309 0-.597.032-.863.096a2.276 2.276 0 0 0-.72.304c-.214.128-.4.299-.56.512l-1.408-.272.64-5.824h6.144v1.472h-4.784l-.384 2.976-.032.176h.032c.245-.267.56-.475.944-.624.394-.149.858-.224 1.392-.224.682 0 1.269.144 1.76.432.49.277.874.667 1.152 1.168.277.501.416 1.083.416 1.744 0 .576-.096 1.088-.288 1.536a3.13 3.13 0 0 1-.816 1.136 3.615 3.615 0 0 1-1.232.704c-.459.149-.96.224-1.504.224Z"/><path stroke="#A3DBE4" stroke-linecap="round" stroke-linejoin="round" stroke-width="1.5" d="M52 464a6 6 0 1 0 0-12 6 6 0 0 0 0 12ZM62.09 460.369a6.004 6.004 0 0 1 2.113 9.898 5.998 5.998 0 0 1-9.863-2.268"/><path stroke="#A3DBE4" stroke-linecap="round" stroke-linejoin="round" stroke-width="1.5" d="M51 456h1v4M60.71 463.881l.7.71-2.82 2.82"/><rect width="48" height="48" x="32" y="502" fill="#25233A" rx="24"/><path fill="#FEFCFA" d="M101.168 507.28c.949 0 1.771.181 2.464.544.693.352 1.28.875 1.76 1.568l-1.152 1.104c-.405-.619-.864-1.061-1.376-1.328-.501-.277-1.099-.416-1.792-.416-.512 0-.933.069-1.264.208-.33.139-.576.325-.736.56-.15.224-.224.48-.224.768 0 .331.112.619.336.864.235.245.667.437 1.296.576l2.144.48c1.024.224 1.749.565 2.176 1.024.427.459.64 1.04.64 1.744 0 .651-.176 1.216-.528 1.696-.352.48-.843.848-1.472 1.104-.619.256-1.349.384-2.192.384-.747 0-1.419-.096-2.016-.288a5.392 5.392 0 0 1-1.568-.784 4.637 4.637 0 0 1-1.104-1.136l1.184-1.184c.224.373.507.709.848 1.008.341.288.736.512 1.184.672.459.16.965.24 1.52.24.491 0 .912-.059 1.264-.176.363-.117.635-.288.816-.512.192-.235.288-.512.288-.832 0-.309-.107-.581-.32-.816-.203-.235-.587-.416-1.152-.544l-2.32-.528c-.64-.139-1.168-.336-1.584-.592-.416-.256-.725-.565-.928-.928a2.57 2.57 0 0 1-.304-1.248c0-.597.16-1.136.48-1.616.33-.491.805-.88 1.424-1.168.619-.299 1.355-.448 2.208-.448Zm9.85 10.88c-.8 0-1.504-.165-2.112-.496a3.518 3.518 0 0 1-1.424-1.424c-.331-.629-.496-1.376-.496-2.24 0-.864.165-1.605.496-2.224a3.521 3.521 0 0 1 1.408-1.44c.597-.331 1.274-.496 2.032-.496.778 0 1.44.16 1.984.48.544.32.96.757 1.248 1.312.288.555.432 1.184.432 1.888 0 .192-.006.373-.016.544a4.64 4.64 0 0 1-.048.448h-6.432V513.2h5.68l-.848.256c0-.725-.182-1.28-.544-1.664-.363-.395-.859-.592-1.488-.592-.459 0-.859.107-1.2.32-.342.213-.603.533-.784.96-.182.416-.272.928-.272 1.536 0 .597.096 1.104.288 1.52.192.416.464.731.816.944.352.213.768.32 1.248.32.533 0 .965-.101 1.296-.304.33-.203.592-.485.784-.848l1.36.64a3.27 3.27 0 0 1-.784 1.008c-.32.277-.704.491-1.152.64a4.642 4.642 0 0 1-1.472.224Zm5.634-.16v-8h1.52l.112 2.08-.224-.224c.149-.459.362-.837.64-1.136a2.549 2.549 0 0 1 1.008-.672c.394-.139.81-.208 1.248-.208.565 0 1.072.112 1.52.336.458.213.821.539 1.088.976.266.437.4.992.4 1.664V518h-1.712v-4.656c0-.789-.166-1.333-.496-1.632-.32-.309-.726-.464-1.216-.464a2.2 2.2 0 0 0-1.024.256c-.331.16-.608.421-.832.784-.214.363-.32.848-.32 1.456V518h-1.712Zm12.052-10.352v7.952c0 .395.101.683.304.864.213.181.496.272.848.272.288 0 .539-.043.752-.128.213-.096.411-.224.592-.384l.384 1.248a2.784 2.784 0 0 1-.912.512 3.742 3.742 0 0 1-1.184.176c-.459 0-.88-.075-1.264-.224a1.815 1.815 0 0 1-.896-.72c-.213-.341-.325-.784-.336-1.328v-7.76l1.712-.48Zm2.752 2.352v1.344h-6V510h6Z"/><path fill="#7D7A9C" d="M99.248 545v-7.904l.032-.736a5.697 5.697 0 0 1-1.248.912 5.498 5.498 0 0 1-1.424.528l-.32-1.488c.224-.032.485-.107.784-.224.299-.117.608-.267.928-.448.32-.181.613-.373.88-.576.267-.213.475-.421.624-.624h1.44V545h-1.696Zm8.117.16c-1.269 0-2.266-.459-2.992-1.376-.714-.928-1.072-2.283-1.072-4.064 0-1.781.358-3.131 1.072-4.048.726-.928 1.723-1.392 2.992-1.392 1.281 0 2.278.464 2.993 1.392.725.917 1.087 2.267 1.087 4.048 0 1.781-.362 3.136-1.087 4.064-.715.917-1.712 1.376-2.993 1.376Zm0-1.456c.513 0 .939-.144 1.281-.432.352-.299.613-.741.784-1.328.181-.597.271-1.339.271-2.224 0-.885-.09-1.621-.271-2.208-.171-.597-.432-1.04-.784-1.328-.342-.299-.768-.448-1.281-.448-.512 0-.944.149-1.296.448-.341.288-.597.731-.768 1.328-.17.587-.255 1.323-.255 2.208 0 .885.085 1.627.255 2.224.171.587.427 1.029.768 1.328.352.288.784.432 1.296.432Zm7.311-6.864c.363 0 .651.107.864.32.224.203.336.48.336.832s-.112.635-.336.848c-.213.213-.501.32-.864.32-.373 0-.672-.107-.896-.32-.213-.213-.32-.496-.32-.848s.107-.629.32-.832c.224-.213.523-.32.896-.32Zm0 6c.363 0 .651.107.864.32.224.203.336.48.336.832s-.112.635-.336.848c-.213.213-.501.32-.864.32-.373 0-.672-.107-.896-.32-.213-.213-.32-.496-.32-.848s.107-.629.32-.832c.224-.213.523-.32.896-.32Zm8.142 2.16v-2.64h-5.152v-1.168c.021-.053.053-.117.096-.192.053-.075.112-.16.176-.256l4.4-6.304h2.096v6.592h1.792v1.328h-1.792V545h-1.616Zm-3.552-3.968h3.552v-3.728c0-.256.005-.517.016-.784.021-.277.037-.549.048-.816h-.032a7.694 7.694 0 0 1-.464.848c-.181.299-.352.56-.512.784l-2.496 3.552-.064.064a.982.982 0 0 1-.048.08Zm12.241 4.128c-.992 0-1.856-.219-2.592-.656a3.409 3.409 0 0 1-1.488-1.872l1.664-.784c.096.384.245.715.448.992s.469.491.8.64c.331.139.741.208 1.232.208.416 0 .768-.075 1.056-.224a1.54 1.54 0 0 0 .656-.624c.16-.267.24-.571.24-.912 0-.352-.069-.645-.208-.88-.128-.235-.336-.405-.624-.512-.277-.107-.635-.16-1.072-.16-.128 0-.261.005-.4.016-.128 0-.267.011-.416.032v-1.44l.272.032h.272c.693 0 1.189-.139 1.488-.416.299-.277.448-.709.448-1.296 0-.501-.155-.885-.464-1.152-.299-.267-.731-.4-1.296-.4-.587 0-1.045.139-1.376.416-.32.267-.565.656-.736 1.168l-1.568-.656c.149-.491.4-.917.752-1.28s.784-.64 1.296-.832a4.69 4.69 0 0 1 1.712-.304c.757 0 1.387.123 1.888.368.512.245.891.581 1.136 1.008.256.427.384.901.384 1.424 0 .405-.059.763-.176 1.072-.117.299-.277.56-.48.784a2.156 2.156 0 0 1-.64.496 2.421 2.421 0 0 1-.688.24v.032c.309.011.592.075.848.192.267.107.501.261.704.464.213.192.379.427.496.704.117.277.176.581.176.912 0 .64-.16 1.2-.48 1.68-.32.48-.763.853-1.328 1.12-.555.267-1.2.4-1.936.4Z"/><path fill="#FEFCFA" d="M236.52 518v-7.904c.011-.235.022-.48.032-.736a5.664 5.664 0 0 1-1.248.912 5.484 5.484 0 0 1-1.424.528l-.32-1.488c.224-.032.486-.107.784-.224.299-.117.608-.267.928-.448a7.69 7.69 0 0 0 .88-.576c.267-.213.475-.421.624-.624h1.44V518h-1.696Zm7.686.16c-.939 0-1.712-.203-2.32-.608-.597-.405-1.072-.992-1.424-1.76l1.6-.832c.16.512.4.933.72 1.264.331.32.816.48 1.456.48.448 0 .827-.08 1.136-.24.32-.171.565-.405.736-.704.171-.309.256-.677.256-1.104 0-.448-.08-.821-.24-1.12a1.546 1.546 0 0 0-.688-.672c-.299-.16-.672-.24-1.12-.24a3.7 3.7 0 0 0-.864.096 2.276 2.276 0 0 0-.72.304c-.213.128-.4.299-.56.512l-1.408-.272.64-5.824h6.144v1.472h-4.784l-.384 2.976-.032.176h.032c.245-.267.56-.475.944-.624.395-.149.859-.224 1.392-.224.683 0 1.269.144 1.76.432.491.277.875.667 1.152 1.168.277.501.416 1.083.416 1.744 0 .576-.096 1.088-.288 1.536a3.13 3.13 0 0 1-.816 1.136 3.615 3.615 0 0 1-1.232.704c-.459.149-.96.224-1.504.224Zm9.648 0c-1.269 0-2.266-.459-2.992-1.376-.714-.928-1.072-2.283-1.072-4.064 0-1.781.358-3.131 1.072-4.048.726-.928 1.723-1.392 2.992-1.392 1.28 0 2.278.464 2.992 1.392.726.917 1.088 2.267 1.088 4.048 0 1.781-.362 3.136-1.088 4.064-.714.917-1.712 1.376-2.992 1.376Zm0-1.456c.512 0 .939-.144 1.28-.432.352-.299.614-.741.784-1.328.182-.597.272-1.339.272-2.224 0-.885-.09-1.621-.272-2.208-.17-.597-.432-1.04-.784-1.328-.341-.299-.768-.448-1.28-.448s-.944.149-1.296.448c-.341.288-.597.731-.768 1.328-.17.587-.256 1.323-.256 2.208 0 .885.086 1.627.256 2.224.171.587.427 1.029.768 1.328.352.288.784.432 1.296.432Zm6.791-.864c.363 0 .651.107.864.32.224.203.336.48.336.832s-.112.635-.336.848c-.213.213-.501.32-.864.32-.373 0-.672-.107-.896-.32-.213-.213-.32-.496-.32-.848s.107-.629.32-.832c.224-.213.523-.32.896-.32Zm3.207 2.16v-1.248a52.274 52.274 0 0 0 2.544-1.92c.694-.555 1.248-1.067 1.664-1.536.416-.469.715-.912.896-1.328.192-.427.288-.859.288-1.296 0-.565-.176-1.024-.528-1.376-.352-.352-.842-.528-1.472-.528-.661 0-1.189.224-1.584.672-.384.437-.602 1.04-.656 1.808l-1.488-.688c.075-.672.272-1.253.592-1.744.32-.491.752-.869 1.296-1.136.555-.267 1.195-.4 1.92-.4.598 0 1.12.085 1.568.256.459.171.843.411 1.152.72.31.299.544.651.704 1.056.171.405.256.837.256 1.296 0 .672-.165 1.323-.496 1.952-.33.619-.853 1.253-1.568 1.904-.714.651-1.653 1.349-2.816 2.096v.032c.128-.021.304-.032.528-.032.224-.011.448-.016.672-.016.224-.011.406-.016.544-.016h3.328V518h-7.344Zm13.199.16c-1.269 0-2.267-.459-2.992-1.376-.715-.928-1.072-2.283-1.072-4.064 0-1.781.357-3.131 1.072-4.048.725-.928 1.723-1.392 2.992-1.392 1.28 0 2.277.464 2.992 1.392.725.917 1.088 2.267 1.088 4.048 0 1.781-.363 3.136-1.088 4.064-.715.917-1.712 1.376-2.992 1.376Zm0-1.456c.512 0 .939-.144 1.28-.432.352-.299.613-.741.784-1.328.181-.597.272-1.339.272-2.224 0-.885-.091-1.621-.272-2.208-.171-.597-.432-1.04-.784-1.328-.341-.299-.768-.448-1.28-.448s-.944.149-1.296.448c-.341.288-.597.731-.768 1.328-.171.587-.256 1.323-.256 2.208 0 .885.085 1.627.256 2.224.171.587.427 1.029.768 1.328.352.288.784.432 1.296.432Zm22.402-9.264V518h-1.584v-6.112l.128-2.912h-.016L294.765 518h-1.424l-3.216-9.024h-.016l.128 2.912V518h-1.584v-10.56h2.544l2.128 6.112.736 2.512h.032l.752-2.512 2.112-6.112h2.496Zm4.753 0V518h-1.712v-10.56h1.712Zm11.692 0V518h-2.032l-4.08-6.656-1.024-1.872h-.016l.064 1.712V518h-1.568v-10.56h2.016l4.064 6.64 1.04 1.904h.016l-.064-1.728v-6.816h1.584ZM327.695 518h-1.808l-1.008-2.768h-4.432L319.439 518h-1.76l3.984-10.56h2.048l3.984 10.56Zm-6.768-4.16h3.472l-1.728-4.928-1.744 4.928Z"/><path fill="#7D7A9C" d="M274.415 544.984a6.654 6.654 0 0 1-1.968-.272 5.493 5.493 0 0 1-1.52-.768 4.483 4.483 0 0 1-1.056-1.104l1.136-1.152c.224.373.506.704.848.992.341.277.736.496 1.184.656.448.16.938.24 1.472.24.725 0 1.296-.123 1.712-.368.426-.256.64-.635.64-1.136 0-.288-.107-.544-.32-.768-.214-.235-.598-.416-1.152-.544l-2.336-.544c-.619-.139-1.131-.331-1.536-.576-.395-.245-.688-.544-.88-.896a2.492 2.492 0 0 1-.288-1.184c0-.587.154-1.115.464-1.584.32-.469.778-.843 1.376-1.12.597-.288 1.317-.432 2.16-.432.906 0 1.701.171 2.384.512.682.341 1.248.853 1.696 1.536l-1.088 1.056c-.395-.608-.843-1.045-1.344-1.312-.502-.267-1.099-.4-1.792-.4-.512 0-.934.069-1.264.208-.32.128-.56.309-.72.544-.16.224-.24.475-.24.752 0 .224.042.427.128.608.096.181.266.341.512.48.245.139.592.256 1.04.352l2.08.464c.992.224 1.696.555 2.112.992.416.437.624.997.624 1.68 0 .629-.171 1.179-.512 1.648-.342.459-.816.816-1.424 1.072-.608.245-1.318.368-2.128.368Zm-.672 1.552v-13.632h1.28v13.632h-1.28Zm6.623-1.536v-1.248a53.275 53.275 0 0 0 2.544-1.92c.693-.555 1.248-1.067 1.664-1.536.416-.469.714-.912.896-1.328.192-.427.288-.859.288-1.296 0-.565-.176-1.024-.528-1.376-.352-.352-.843-.528-1.472-.528-.662 0-1.19.224-1.584.672-.384.437-.603 1.04-.656 1.808l-1.488-.688c.074-.672.272-1.253.592-1.744.32-.491.752-.869 1.296-1.136.554-.267 1.194-.4 1.92-.4.597 0 1.12.085 1.568.256.458.171.842.411 1.152.72.309.299.544.651.704 1.056.17.405.256.837.256 1.296 0 .672-.166 1.323-.496 1.952-.331.619-.854 1.253-1.568 1.904-.715.651-1.654 1.349-2.816 2.096v.032c.128-.021.304-.032.528-.032.224-.011.448-.016.672-.016.224-.011.405-.016.544-.016h3.328V545h-7.344Zm13.64 0v-2.64h-5.152v-1.168c.021-.053.053-.117.096-.192.053-.075.112-.16.176-.256l4.4-6.304h2.096v6.592h1.792v1.328h-1.792V545h-1.616Zm-3.552-3.968h3.552v-3.728c0-.256.005-.517.016-.784.021-.277.037-.549.048-.816h-.032a7.865 7.865 0 0 1-.464.848c-.182.299-.352.56-.512.784l-2.496 3.552-.064.064a.982.982 0 0 1-.048.08Zm7.364-6.592h8.048v1.424c-.885.917-1.6 1.861-2.144 2.832-.544.96-.939 1.963-1.184 3.008a14.85 14.85 0 0 0-.352 3.296h-1.728c0-1.173.144-2.315.432-3.424.299-1.12.747-2.187 1.344-3.2a14.08 14.08 0 0 1 2.288-2.88l.32.432h-7.024v-1.488Zm9.05 8.4c.363 0 .651.107.864.32.224.203.336.48.336.832s-.112.635-.336.848c-.213.213-.501.32-.864.32-.373 0-.672-.107-.896-.32-.213-.213-.32-.496-.32-.848s.107-.629.32-.832c.224-.213.523-.32.896-.32Zm7.818 2.16v-2.64h-5.152v-1.168a1.89 1.89 0 0 1 .096-.192c.054-.075.112-.16.176-.256l4.4-6.304h2.096v6.592h1.792v1.328h-1.792V545h-1.616Zm-3.552-3.968h3.552v-3.728c0-.256.006-.517.016-.784.022-.277.038-.549.048-.816h-.032a7.694 7.694 0 0 1-.464.848c-.181.299-.352.56-.512.784l-2.496 3.552-.064.064a.618.618 0 0 1-.048.08Zm12.146 4.128c-.939 0-1.712-.203-2.32-.608-.598-.405-1.072-.992-1.424-1.76l1.6-.832c.16.512.4.933.72 1.264.33.32.816.48 1.456.48.448 0 .826-.08 1.136-.24.32-.171.565-.405.736-.704.17-.309.256-.677.256-1.104 0-.448-.08-.821-.24-1.12a1.551 1.551 0 0 0-.688-.672c-.299-.16-.672-.24-1.121-.24-.309 0-.597.032-.863.096a2.276 2.276 0 0 0-.72.304c-.214.128-.4.299-.56.512l-1.408-.272.64-5.824h6.144v1.472h-4.784l-.384 2.976-.032.176h.032c.245-.267.56-.475.944-.624.394-.149.858-.224 1.392-.224.682 0 1.269.144 1.76.432.49.277.874.667 1.152 1.168.277.501.416 1.083.416 1.744 0 .576-.096 1.088-.288 1.536a3.13 3.13 0 0 1-.816 1.136 3.615 3.615 0 0 1-1.232.704c-.459.149-.96.224-1.504.224Z"/><path stroke="#D1B4F4" stroke-linecap="round" stroke-linejoin="round" stroke-width="1.5" d="m51 531 10-10M51 521h10v10"/><path fill="#FEFCFA" d="M265.064 117.048h-5.18v2.688h4.06v1.288h-4.06V125h-1.498v-9.24h6.678v1.288Zm2.342-.224c-.326 0-.578-.079-.756-.238-.168-.168-.252-.401-.252-.7 0-.299.084-.527.252-.686.178-.159.43-.238.756-.238.318 0 .56.079.728.238.178.159.266.387.266.686 0 .299-.088.532-.266.7-.168.159-.41.238-.728.238Zm.742 1.176v7h-1.498v-7h1.498Zm3.716-3.15v8.19c0 .345.061.583.182.714s.322.196.602.196c.168 0 .308-.009.42-.028.121-.028.271-.075.448-.14l-.168 1.12a2.188 2.188 0 0 1-.546.168c-.205.047-.411.07-.616.07-.625 0-1.087-.159-1.386-.476-.289-.327-.434-.826-.434-1.498v-8.316h1.498Zm4.606 1.092v6.958c0 .345.088.597.266.756.186.159.434.238.742.238.252 0 .471-.037.658-.112.186-.084.359-.196.518-.336l.336 1.092a2.438 2.438 0 0 1-.798.448 3.258 3.258 0 0 1-1.036.154c-.402 0-.77-.065-1.106-.196a1.593 1.593 0 0 1-.784-.63c-.187-.299-.285-.686-.294-1.162v-6.79l1.498-.42Zm2.408 2.058v1.176h-5.25V118h5.25Zm4.477 7.14c-.7 0-1.316-.145-1.848-.434a3.082 3.082 0 0 1-1.246-1.246c-.289-.551-.434-1.204-.434-1.96s.145-1.405.434-1.946c.299-.551.71-.971 1.232-1.26.523-.289 1.116-.434 1.778-.434.682 0 1.26.14 1.736.42.476.28.84.663 1.092 1.148.252.485.378 1.036.378 1.652 0 .168-.004.327-.014.476-.009.149-.023.28-.042.392h-5.628V120.8h4.97l-.742.224c0-.635-.158-1.12-.476-1.456-.317-.345-.751-.518-1.302-.518-.401 0-.751.093-1.05.28-.298.187-.527.467-.686.84-.158.364-.238.812-.238 1.344 0 .523.084.966.252 1.33.168.364.406.639.714.826.308.187.672.28 1.092.28.467 0 .845-.089 1.134-.266.29-.177.518-.425.686-.742l1.19.56c-.168.336-.396.63-.686.882-.28.243-.616.429-1.008.56a4.041 4.041 0 0 1-1.288.196Zm4.93-.14v-7h1.274l.14 1.26c.187-.457.462-.803.826-1.036.373-.243.831-.364 1.372-.364.14 0 .28.014.42.042.14.019.257.051.35.098l-.21 1.316a1.797 1.797 0 0 0-.35-.084 2.35 2.35 0 0 0-.504-.042c-.289 0-.574.079-.854.238-.28.149-.513.378-.7.686-.177.308-.266.7-.266 1.176V125h-1.498Zm8.127.14c-.7 0-1.339-.135-1.918-.406a3.315 3.315 0 0 1-1.372-1.148l1.036-.896c.205.383.499.691.882.924.392.224.859.336 1.4.336.429 0 .77-.075 1.022-.224.252-.149.378-.359.378-.63a.66.66 0 0 0-.182-.462c-.112-.14-.331-.247-.658-.322l-1.47-.308c-.747-.149-1.279-.387-1.596-.714-.317-.336-.476-.761-.476-1.274 0-.383.112-.737.336-1.064.224-.327.551-.588.98-.784.439-.205.961-.308 1.568-.308.7 0 1.297.126 1.792.378.495.243.873.593 1.134 1.05l-1.036.868a1.731 1.731 0 0 0-.784-.826 2.234 2.234 0 0 0-1.078-.28c-.299 0-.555.037-.77.112a1.106 1.106 0 0 0-.49.308.689.689 0 0 0-.168.462c0 .187.07.35.21.49.14.14.392.247.756.322l1.596.336c.672.131 1.143.355 1.414.672.28.308.42.686.42 1.134 0 .448-.117.845-.35 1.19-.233.336-.569.597-1.008.784-.439.187-.961.28-1.568.28Z"/><path stroke="#F6C177" stroke-linecap="round" stroke-linejoin="round" stroke-width="1.5" d="M306 112.6c0-.56 0-.84.109-1.054.096-.188.249-.341.437-.437.214-.109.494-.109 1.054-.109h16.8c.56 0 .84 0 1.054.109.188.096.341.249.437.437.109.214.109.494.109 1.054v.669c0 .269 0 .404-.033.529-.029.11-.077.215-.141.31-.073.106-.175.194-.378.37l-6.396 5.544c-.203.176-.305.264-.378.37-.064.095-.112.2-.141.31-.033.125-.033.26-.033.529v5.227c0 .196 0 .294-.032.378a.494.494 0 0 1-.132.196c-.067.06-.157.097-.339.169l-3.4 1.36c-.367.147-.551.221-.699.19a.5.5 0 0 1-.315-.213c-.083-.126-.083-.324-.083-.72v-6.587c0-.269 0-.404-.033-.529a1.023 1.023 0 0 0-.141-.31c-.073-.106-.175-.194-.378-.37l-6.396-5.544c-.203-.176-.305-.264-.378-.37a1.023 1.023 0 0 1-.141-.31c-.033-.125-.033-.26-.033-.529v-.669Z"/></svg>