<svg xmlns="http://www.w3.org/2000/svg" width="360" height="600" fill="none"><g clip-path="url(#a)"><path fill="#191724" d="M0 0h360v600H0z"/><path fill="#25233A" d="M0 0h360v262c0 8.837-7.163 16-16 16H16c-8.837 0-16-7.163-16-16V0Z"/><rect width="293" height="96" x="33" y="158" fill="#191724" rx="16"/><path fill="#FEFCFA" d="M62.632 187.44c.757 0 1.408.133 1.952.4a3.06 3.06 0 0 1 1.296 1.136c.31.491.464 1.083.464 1.776 0 .683-.155 1.275-.464 1.776a3.06 3.06 0 0 1-1.296 1.136c-.544.267-1.195.4-1.952.4H60.28V198h-1.712v-10.56h4.064Zm-.272 5.152c.757 0 1.312-.155 1.664-.464.363-.32.544-.779.544-1.376 0-.608-.181-1.067-.544-1.376-.352-.32-.907-.48-1.664-.48h-2.08v3.696h2.08Zm10.527.272c0-.533-.15-.944-.448-1.232-.288-.299-.688-.448-1.2-.448-.48 0-.89.112-1.232.336-.341.224-.592.587-.752 1.088l-1.44-.608A2.879 2.879 0 0 1 69 190.432c.598-.395 1.366-.592 2.304-.592.64 0 1.206.107 1.696.32.49.203.875.512 1.152.928.288.416.432.949.432 1.6v3.568c0 .395.198.592.592.592.192 0 .379-.027.56-.08l-.096 1.184c-.245.117-.554.176-.928.176-.341 0-.65-.059-.928-.176a1.552 1.552 0 0 1-.64-.56c-.15-.256-.224-.571-.224-.944v-.112l.352-.016a1.995 1.995 0 0 1-.592 1.04 3.074 3.074 0 0 1-1.04.608 3.868 3.868 0 0 1-1.2.192c-.501 0-.954-.08-1.36-.24-.394-.16-.71-.4-.944-.72-.224-.331-.336-.736-.336-1.216 0-.597.192-1.088.576-1.472.395-.384.95-.645 1.664-.784l3.104-.608-.016 1.2-2.256.464c-.448.085-.784.208-1.008.368-.224.16-.336.395-.336.704a.88.88 0 0 0 .336.72c.235.171.544.256.928.256.267 0 .523-.032.768-.096.256-.064.486-.165.688-.304.203-.149.358-.336.464-.56.118-.235.176-.512.176-.832v-2.176Zm6.07-6.464v9.36c0 .395.069.667.207.816.139.149.368.224.688.224.192 0 .352-.011.48-.032.139-.032.31-.085.512-.16l-.192 1.28c-.181.085-.39.149-.624.192-.234.053-.47.08-.704.08-.714 0-1.242-.181-1.584-.544-.33-.373-.496-.944-.496-1.712V186.4h1.712Zm4.888 0v9.36c0 .395.069.667.208.816.138.149.368.224.688.224.192 0 .352-.011.48-.032a4.32 4.32 0 0 0 .512-.16l-.192 1.28a2.55 2.55 0 0 1-.624.192c-.235.053-.47.08-.704.08-.715 0-1.243-.181-1.584-.544-.331-.373-.496-.944-.496-1.712V186.4h1.712Zm7.88 6.464c0-.533-.15-.944-.449-1.232-.288-.299-.688-.448-1.2-.448-.48 0-.89.112-1.232.336-.341.224-.592.587-.752 1.088l-1.44-.608a2.88 2.88 0 0 1 1.184-1.568c.598-.395 1.366-.592 2.304-.592.64 0 1.206.107 1.696.32.49.203.875.512 1.152.928.288.416.432.949.432 1.6v3.568c0 .395.198.592.592.592.192 0 .379-.027.56-.08l-.096 1.184c-.245.117-.554.176-.928.176-.341 0-.65-.059-.928-.176a1.553 1.553 0 0 1-.64-.56c-.15-.256-.224-.571-.224-.944v-.112l.352-.016a1.995 1.995 0 0 1-.592 1.04 3.072 3.072 0 0 1-1.04.608 3.867 3.867 0 0 1-1.2.192c-.501 0-.954-.08-1.36-.24-.394-.16-.71-.4-.944-.72-.224-.331-.336-.736-.336-1.216 0-.597.192-1.088.576-1.472.395-.384.95-.645 1.664-.784l3.104-.608-.016 1.2-2.256.464c-.448.085-.784.208-1.008.368-.224.16-.336.395-.336.704a.88.88 0 0 0 .336.72c.235.171.544.256.928.256.267 0 .523-.032.768-.096.256-.064.486-.165.688-.304a1.47 1.47 0 0 0 .464-.56 1.84 1.84 0 0 0 .176-.832v-2.176Zm7.46 5.296a3.41 3.41 0 0 1-1.807-.496c-.534-.331-.955-.805-1.264-1.424-.31-.619-.464-1.36-.464-2.224 0-.896.165-1.653.496-2.272.33-.619.773-1.088 1.328-1.408a3.494 3.494 0 0 1 1.824-.496c.682 0 1.258.187 1.728.56.469.373.784.859.944 1.456l-.192.176V186.4h1.712V198h-1.52l-.128-2.176.224.016c-.075.48-.251.896-.528 1.248a2.875 2.875 0 0 1-1.04.8 3.185 3.185 0 0 1-1.312.272Zm.369-1.376c.458 0 .853-.117 1.184-.352.33-.235.586-.565.768-.992.181-.427.272-.939.272-1.536 0-.555-.091-1.029-.272-1.424-.182-.405-.438-.715-.768-.928a1.976 1.976 0 0 0-1.12-.32c-.715 0-1.27.245-1.664.736-.395.491-.592 1.168-.592 2.032 0 .864.192 1.547.576 2.048.384.491.922.736 1.616.736Zm15.906-9.344c.757 0 1.408.133 1.952.4.555.267.987.645 1.296 1.136.309.491.464 1.083.464 1.776 0 .683-.155 1.275-.464 1.776a3.056 3.056 0 0 1-1.296 1.136c-.544.267-1.195.4-1.952.4h-2.352V198h-1.712v-10.56h4.064Zm-.272 5.152c.757 0 1.312-.155 1.664-.464.363-.32.544-.779.544-1.376 0-.608-.181-1.067-.544-1.376-.352-.32-.907-.48-1.664-.48h-2.08v3.696h2.08Zm9.203-2.752c.779 0 1.467.165 2.064.496a3.419 3.419 0 0 1 1.392 1.44c.342.619.512 1.36.512 2.224 0 .864-.17 1.611-.512 2.24a3.437 3.437 0 0 1-1.392 1.424c-.597.331-1.285.496-2.064.496-.778 0-1.466-.165-2.064-.496a3.554 3.554 0 0 1-1.408-1.424c-.341-.629-.512-1.376-.512-2.24 0-.864.171-1.605.512-2.224a3.534 3.534 0 0 1 1.408-1.44c.598-.331 1.286-.496 2.064-.496Zm0 1.344c-.48 0-.89.112-1.232.336-.33.213-.586.528-.768.944-.181.416-.272.928-.272 1.536 0 .597.091 1.109.272 1.536.182.416.438.736.768.96.342.213.752.32 1.232.32s.886-.107 1.216-.32c.331-.224.587-.544.768-.96.182-.427.272-.939.272-1.536 0-.608-.09-1.12-.272-1.536-.181-.416-.437-.731-.768-.944-.33-.224-.736-.336-1.216-.336Zm9.498-1.344c.779 0 1.467.165 2.064.496a3.43 3.43 0 0 1 1.392 1.44c.341.619.512 1.36.512 2.224 0 .864-.171 1.611-.512 2.24a3.45 3.45 0 0 1-1.392 1.424c-.597.331-1.285.496-2.064.496-.779 0-1.467-.165-2.064-.496a3.548 3.548 0 0 1-1.408-1.424c-.341-.629-.512-1.376-.512-2.24 0-.864.171-1.605.512-2.224a3.527 3.527 0 0 1 1.408-1.44c.597-.331 1.285-.496 2.064-.496Zm0 1.344c-.48 0-.891.112-1.232.336-.331.213-.587.528-.768.944-.181.416-.272.928-.272 1.536 0 .597.091 1.109.272 1.536.181.416.437.736.768.96.341.213.752.32 1.232.32s.885-.107 1.216-.32c.331-.224.587-.544.768-.96.181-.427.272-.939.272-1.536 0-.608-.091-1.12-.272-1.536-.181-.416-.437-.731-.768-.944-.331-.224-.736-.336-1.216-.336Zm7.69-4.784v9.36c0 .395.069.667.208.816.139.149.368.224.688.224.192 0 .352-.011.48-.032.139-.032.309-.085.512-.16l-.192 1.28a2.541 2.541 0 0 1-.624.192c-.235.053-.469.08-.704.08-.715 0-1.243-.181-1.584-.544-.331-.373-.496-.944-.496-1.712V186.4h1.712ZM58.568 225v-10.56h4.16c1.27 0 2.197.256 2.784.768.587.512.88 1.221.88 2.128 0 .555-.16 1.051-.48 1.488-.32.427-.79.699-1.408.816v.016c.683.107 1.21.389 1.584.848.384.448.576.971.576 1.568 0 .907-.33 1.621-.992 2.144-.661.523-1.621.784-2.88.784h-4.224Zm1.68-1.424h2.624c.672 0 1.173-.139 1.504-.416.341-.277.512-.667.512-1.168 0-.501-.17-.891-.512-1.168-.33-.277-.832-.416-1.504-.416h-2.624v3.168Zm0-4.592H62.6c1.344 0 2.016-.517 2.016-1.552 0-1.035-.672-1.552-2.016-1.552h-2.352v3.104Zm12.514-4.704c.565 0 1.066.08 1.504.24.437.149.816.389 1.136.72.33.331.602.763.816 1.296l-1.504.72c-.15-.459-.39-.821-.72-1.088-.32-.267-.768-.4-1.344-.4-.416 0-.784.101-1.104.304-.32.203-.592.491-.816.864a4.335 4.335 0 0 0-.512 1.296 6.871 6.871 0 0 0-.176 1.6v.288l.064.032c.117-.427.325-.768.624-1.024.31-.267.656-.464 1.04-.592a3.577 3.577 0 0 1 1.136-.192c.704 0 1.317.139 1.84.416.522.267.928.651 1.216 1.152.298.501.448 1.099.448 1.792 0 .704-.155 1.317-.464 1.84-.31.512-.742.912-1.296 1.2-.544.277-1.2.416-1.968.416-.896 0-1.659-.224-2.288-.672-.63-.448-1.11-1.077-1.44-1.888-.33-.811-.496-1.76-.496-2.848 0-1.205.186-2.213.56-3.024.384-.811.901-1.419 1.552-1.824a3.983 3.983 0 0 1 2.192-.624Zm-.112 5.488c-.406 0-.763.085-1.072.256-.31.16-.555.384-.736.672a1.94 1.94 0 0 0-.256 1.008c0 .373.09.709.272 1.008.192.299.442.539.752.72.31.171.656.256 1.04.256.65 0 1.157-.176 1.52-.528.362-.352.544-.837.544-1.456 0-.395-.08-.736-.24-1.024a1.532 1.532 0 0 0-.704-.672c-.299-.16-.672-.24-1.12-.24ZM78.303 225v-1.248a52.97 52.97 0 0 0 2.544-1.92c.693-.555 1.248-1.067 1.664-1.536.416-.469.715-.912.896-1.328.192-.427.288-.859.288-1.296 0-.565-.176-1.024-.528-1.376-.352-.352-.843-.528-1.472-.528-.661 0-1.19.224-1.584.672-.384.437-.603 1.04-.656 1.808l-1.488-.688c.075-.672.272-1.253.592-1.744.32-.491.752-.869 1.296-1.136.555-.267 1.195-.4 1.92-.4.597 0 1.12.085 1.568.256a3.17 3.17 0 0 1 1.152.72c.31.299.544.651.704 1.056.17.405.256.837.256 1.296 0 .672-.165 1.323-.496 1.952-.33.619-.853 1.253-1.568 1.904-.715.651-1.653 1.349-2.816 2.096v.032c.128-.021.304-.032.528-.032.224-.011.448-.016.672-.016.224-.011.405-.016.544-.016h3.328V225h-7.344Zm11.839-10.352v7.952c0 .395.101.683.304.864.213.181.496.272.848.272.288 0 .538-.043.752-.128.213-.096.41-.224.592-.384l.384 1.248a2.79 2.79 0 0 1-.912.512 3.74 3.74 0 0 1-1.184.176c-.459 0-.88-.075-1.264-.224a1.817 1.817 0 0 1-.896-.72c-.214-.341-.326-.784-.336-1.328v-7.76l1.712-.48ZM92.894 217v1.344h-6V217h6Zm5.947 8.16c-.469 0-.901-.091-1.296-.272a2.818 2.818 0 0 1-.976-.752 3.357 3.357 0 0 1-.592-1.104l.208-.272-.128 2.24h-1.504v-11.6h1.712v5.616l-.192-.272a2.84 2.84 0 0 1 1.04-1.36c.491-.363 1.083-.544 1.776-.544.64 0 1.227.165 1.76.496.544.331.971.805 1.28 1.424.31.619.464 1.371.464 2.256 0 .864-.16 1.605-.48 2.224-.309.619-.736 1.093-1.28 1.424a3.327 3.327 0 0 1-1.792.496Zm-.368-1.376c.694 0 1.232-.245 1.616-.736.395-.501.592-1.184.592-2.048 0-.864-.192-1.541-.576-2.032-.384-.491-.922-.736-1.616-.736-.448 0-.837.117-1.168.352-.33.224-.592.544-.784.96-.181.416-.272.912-.272 1.488 0 .565.091 1.056.272 1.472.182.405.438.72.768.944.342.224.731.336 1.168.336Zm6.583-.944c.362 0 .65.107.864.32.224.203.336.48.336.832s-.112.635-.336.848c-.214.213-.502.32-.864.32-.374 0-.672-.107-.896-.32-.214-.213-.32-.496-.32-.848s.106-.629.32-.832c.224-.213.522-.32.896-.32Zm4.279 0c.362 0 .65.107.864.32.224.203.336.48.336.832s-.112.635-.336.848c-.214.213-.502.32-.864.32-.374 0-.672-.107-.896-.32-.214-.213-.32-.496-.32-.848s.106-.629.32-.832c.224-.213.522-.32.896-.32Zm4.279 0c.362 0 .65.107.864.32.224.203.336.48.336.832s-.112.635-.336.848c-.214.213-.502.32-.864.32-.374 0-.672-.107-.896-.32-.214-.213-.32-.496-.32-.848s.106-.629.32-.832c.224-.213.522-.32.896-.32Zm7.959-8.4c1.13 0 2.026.283 2.688.848.672.565 1.008 1.328 1.008 2.288 0 .992-.336 1.76-1.008 2.304-.662.533-1.558.8-2.688.8l-.16.096h-2.448V225h-1.696v-10.56h4.304Zm-.128 4.912c.693 0 1.205-.139 1.536-.416.341-.288.512-.725.512-1.312 0-.576-.171-1.008-.512-1.296-.331-.288-.843-.432-1.536-.432h-2.48v3.456h2.48Zm1.008.352 3.44 5.296h-1.968l-2.944-4.624 1.472-.672Zm4.51-5.264h8.048v1.424c-.886.917-1.6 1.861-2.144 2.832-.544.96-.939 1.963-1.184 3.008a14.85 14.85 0 0 0-.352 3.296h-1.728c0-1.173.144-2.315.432-3.424.298-1.12.746-2.187 1.344-3.2a14.046 14.046 0 0 1 2.288-2.88l.32.432h-7.024v-1.488Zm12.165 10.72a3.409 3.409 0 0 1-1.808-.496c-.534-.331-.955-.805-1.264-1.424-.31-.619-.464-1.36-.464-2.224 0-.896.165-1.653.496-2.272.33-.619.773-1.088 1.328-1.408a3.49 3.49 0 0 1 1.824-.496c.682 0 1.258.187 1.728.56.469.373.784.859.944 1.456l-.192.176V213.4h1.712V225h-1.52l-.128-2.176.224.016c-.075.48-.251.896-.528 1.248a2.875 2.875 0 0 1-1.04.8 3.184 3.184 0 0 1-1.312.272Zm.368-1.376c.458 0 .853-.117 1.184-.352.33-.235.586-.565.768-.992.181-.427.272-.939.272-1.536 0-.555-.091-1.029-.272-1.424-.182-.405-.438-.715-.768-.928a1.976 1.976 0 0 0-1.12-.32c-.715 0-1.27.245-1.664.736-.395.491-.592 1.168-.592 2.032 0 .864.192 1.547.576 2.048.384.491.922.736 1.616.736Z"/><rect width="100" height="48" x="202" y="182" fill="#F6C177" rx="24"/><path fill="#25233A" d="M237.84 211v-10.56h7.92v1.776h-5.712v2.624h4.496v1.696h-4.496v2.688h5.936V211h-8.144Zm12.642.16a3.245 3.245 0 0 1-1.776-.496c-.512-.331-.918-.805-1.216-1.424-.288-.619-.432-1.36-.432-2.224 0-.885.154-1.637.464-2.256.309-.629.725-1.104 1.248-1.424a3.326 3.326 0 0 1 1.792-.496c.704 0 1.285.203 1.744.608.458.405.757.928.896 1.568l-.208.256v-5.776h2.192V211h-1.968l-.144-2.432.272.128a2.986 2.986 0 0 1-.512 1.312 2.777 2.777 0 0 1-1.008.848 2.962 2.962 0 0 1-1.344.304Zm.64-1.68a1.7 1.7 0 0 0 .992-.288c.277-.203.49-.496.64-.88.16-.384.24-.843.24-1.376 0-.512-.075-.944-.224-1.296-.15-.363-.363-.64-.64-.832a1.674 1.674 0 0 0-.976-.288c-.598 0-1.067.213-1.408.64-.331.416-.496 1.029-.496 1.84 0 .811.165 1.429.496 1.856.33.416.789.624 1.376.624Zm7.375-7.632c-.459 0-.8-.096-1.024-.288-.224-.203-.336-.496-.336-.88 0-.395.112-.688.336-.88.224-.203.565-.304 1.024-.304.459 0 .8.101 1.024.304.224.192.336.485.336.88 0 .384-.112.677-.336.88-.224.192-.565.288-1.024.288Zm1.088 1.152v8h-2.192v-8h2.192Zm5.06-2.448v7.84c0 .384.096.667.288.848.202.171.474.256.816.256.266 0 .501-.037.704-.112.202-.085.384-.197.544-.336l.352 1.456a2.88 2.88 0 0 1-.96.48c-.384.117-.79.176-1.216.176-.534 0-1.008-.08-1.424-.24a2.006 2.006 0 0 1-.96-.768c-.224-.352-.336-.821-.336-1.408v-7.584l2.192-.608Zm2.56 2.448v1.632h-6.224V203h6.224Z"/><path fill="#A3DBE4" d="M37.872 306.44c1.13 0 2.027.283 2.688.848.672.565 1.008 1.328 1.008 2.288 0 .992-.336 1.76-1.008 2.304-.661.533-1.557.8-2.688.8l-.16.096h-2.448V317h-1.696v-10.56h4.304Zm-.128 4.912c.693 0 1.205-.139 1.536-.416.341-.288.512-.725.512-1.312 0-.576-.17-1.008-.512-1.296-.33-.288-.843-.432-1.536-.432h-2.48v3.456h2.48Zm1.008.352 3.44 5.296h-1.968l-2.944-4.624 1.472-.672Zm8.531 5.456c-.8 0-1.504-.165-2.112-.496a3.52 3.52 0 0 1-1.424-1.424c-.33-.629-.496-1.376-.496-2.24 0-.864.166-1.605.496-2.224a3.527 3.527 0 0 1 1.408-1.44c.598-.331 1.275-.496 2.032-.496.779 0 1.44.16 1.984.48.544.32.96.757 1.248 1.312.288.555.432 1.184.432 1.888a8.8 8.8 0 0 1-.016.544c-.01.171-.026.32-.048.448h-6.432V312.2h5.68l-.848.256c0-.725-.181-1.28-.544-1.664-.362-.395-.858-.592-1.488-.592-.458 0-.858.107-1.2.32-.341.213-.602.533-.784.96-.181.416-.272.928-.272 1.536 0 .597.096 1.104.288 1.52.192.416.464.731.816.944.352.213.768.32 1.248.32.534 0 .966-.101 1.296-.304.33-.203.592-.485.784-.848l1.36.64a3.26 3.26 0 0 1-.784 1.008c-.32.277-.704.491-1.152.64a4.64 4.64 0 0 1-1.472.224Zm9.09-8.32c.64 0 1.184.096 1.632.288.459.181.843.443 1.152.784.31.341.544.731.704 1.168l-1.616.64c-.138-.491-.362-.864-.672-1.12-.298-.267-.693-.4-1.184-.4-.48 0-.89.112-1.232.336-.341.213-.602.528-.784.944-.17.416-.256.928-.256 1.536 0 .597.09 1.104.272 1.52.182.416.443.731.784.944.342.213.747.32 1.216.32.363 0 .678-.059.944-.176.267-.128.486-.304.656-.528.182-.235.304-.517.368-.848l1.552.528c-.15.48-.384.901-.704 1.264a3.24 3.24 0 0 1-1.168.832c-.47.192-1.008.288-1.616.288-.79 0-1.488-.165-2.096-.496a3.52 3.52 0 0 1-1.424-1.424c-.33-.629-.496-1.376-.496-2.24 0-.864.166-1.605.496-2.224a3.527 3.527 0 0 1 1.408-1.44c.608-.331 1.296-.496 2.064-.496Zm8.953 8.32c-.8 0-1.504-.165-2.112-.496a3.52 3.52 0 0 1-1.424-1.424c-.331-.629-.496-1.376-.496-2.24 0-.864.165-1.605.496-2.224a3.528 3.528 0 0 1 1.408-1.44c.597-.331 1.274-.496 2.032-.496.778 0 1.44.16 1.984.48.544.32.96.757 1.248 1.312.288.555.432 1.184.432 1.888 0 .192-.006.373-.016.544-.011.171-.027.32-.048.448h-6.432V312.2h5.68l-.848.256c0-.725-.182-1.28-.544-1.664-.363-.395-.859-.592-1.488-.592-.459 0-.859.107-1.2.32-.342.213-.603.533-.784.96-.182.416-.272.928-.272 1.536 0 .597.096 1.104.288 1.52.192.416.464.731.816.944.352.213.768.32 1.248.32.533 0 .965-.101 1.296-.304.33-.203.592-.485.784-.848l1.36.64c-.192.384-.454.72-.784 1.008-.32.277-.704.491-1.152.64a4.64 4.64 0 0 1-1.472.224Zm5.634-.16v-8h1.52l.112 2.08-.224-.224c.149-.459.362-.837.64-1.136a2.549 2.549 0 0 1 1.008-.672 3.73 3.73 0 0 1 1.248-.208c.565 0 1.072.112 1.52.336a2.47 2.47 0 0 1 1.088.976c.266.437.4.992.4 1.664V317H76.56v-4.656c0-.789-.166-1.333-.496-1.632-.32-.309-.726-.464-1.216-.464-.352 0-.694.085-1.024.256-.331.16-.608.421-.832.784-.214.363-.32.848-.32 1.456V317H70.96Zm12.052-10.352v7.952c0 .395.102.683.304.864.213.181.496.272.848.272.288 0 .539-.043.752-.128.213-.096.41-.224.592-.384l.384 1.248a2.79 2.79 0 0 1-.912.512 3.74 3.74 0 0 1-1.184.176c-.459 0-.88-.075-1.264-.224a1.817 1.817 0 0 1-.896-.72c-.213-.341-.325-.784-.336-1.328v-7.76l1.712-.48ZM85.764 309v1.344h-6V309h6Z"/><path fill="#FEFCFA" d="M40.808 333.16c1.696 0 3.04.424 4.032 1.272 1.008.848 1.512 1.992 1.512 3.432 0 1.488-.504 2.64-1.512 3.456-.992.8-2.336 1.2-4.032 1.2l-.24.144h-3.672V349h-2.544v-15.84h6.456Zm-.192 7.368c1.04 0 1.808-.208 2.304-.624.512-.432.768-1.088.768-1.968 0-.864-.256-1.512-.768-1.944-.496-.432-1.264-.648-2.304-.648h-3.72v5.184h3.72Zm1.512.528 5.16 7.944h-2.952l-4.416-6.936 2.208-1.008Zm12.797 8.184c-1.2 0-2.256-.248-3.168-.744a5.28 5.28 0 0 1-2.136-2.136c-.496-.944-.744-2.064-.744-3.36 0-1.296.248-2.408.744-3.336.512-.944 1.216-1.664 2.112-2.16.896-.496 1.912-.744 3.048-.744 1.168 0 2.16.24 2.976.72a4.82 4.82 0 0 1 1.872 1.968c.432.832.648 1.776.648 2.832 0 .288-.008.56-.024.816-.016.256-.04.48-.072.672h-9.648V341.8h8.52l-1.272.384c0-1.088-.272-1.92-.816-2.496-.544-.592-1.288-.888-2.232-.888-.688 0-1.288.16-1.8.48-.512.32-.904.8-1.176 1.44-.272.624-.408 1.392-.408 2.304 0 .896.144 1.656.432 2.28.288.624.696 1.096 1.224 1.416.528.32 1.152.48 1.872.48.8 0 1.448-.152 1.944-.456a3.228 3.228 0 0 0 1.176-1.272l2.04.96a4.89 4.89 0 0 1-1.176 1.512 5.034 5.034 0 0 1-1.728.96 6.946 6.946 0 0 1-2.208.336ZM78.335 337h2.784l-4.032 12H74.28l-3.024-8.904L68.4 349h-2.808l-4.008-12h2.76l2.736 9.48 2.976-9.48h2.568l2.976 9.48 2.736-9.48Zm11.825 4.296c0-.8-.224-1.416-.672-1.848-.432-.448-1.032-.672-1.8-.672-.72 0-1.336.168-1.848.504-.512.336-.888.88-1.128 1.632l-2.16-.912c.304-.976.896-1.76 1.776-2.352.896-.592 2.048-.888 3.456-.888.96 0 1.808.16 2.544.48.736.304 1.312.768 1.728 1.392.432.624.648 1.424.648 2.4v5.352c0 .592.296.888.888.888.288 0 .568-.04.84-.12l-.144 1.776c-.368.176-.832.264-1.392.264-.512 0-.976-.088-1.392-.264-.4-.192-.72-.472-.96-.84-.224-.384-.336-.856-.336-1.416v-.168l.528-.024a2.994 2.994 0 0 1-.888 1.56 4.61 4.61 0 0 1-1.56.912 5.801 5.801 0 0 1-1.8.288c-.752 0-1.432-.12-2.04-.36a3.205 3.205 0 0 1-1.416-1.08c-.336-.496-.504-1.104-.504-1.824 0-.896.288-1.632.864-2.208.592-.576 1.424-.968 2.496-1.176l4.656-.912-.024 1.8-3.384.696c-.672.128-1.176.312-1.512.552-.336.24-.504.592-.504 1.056 0 .448.168.808.504 1.08.352.256.816.384 1.392.384.4 0 .784-.048 1.152-.144a3.172 3.172 0 0 0 1.032-.456 2.21 2.21 0 0 0 .696-.84c.176-.352.264-.768.264-1.248v-3.264ZM96.768 349v-12h2.184l.24 2.16c.32-.784.792-1.376 1.416-1.776.64-.416 1.424-.624 2.352-.624.24 0 .48.024.72.072.24.032.44.088.6.168l-.36 2.256a3 3 0 0 0-.6-.144 4.037 4.037 0 0 0-.864-.072c-.496 0-.984.136-1.464.408-.48.256-.88.648-1.2 1.176-.304.528-.456 1.2-.456 2.016V349h-2.568Zm14.096.24a5.12 5.12 0 0 1-2.712-.744c-.8-.496-1.432-1.208-1.896-2.136-.464-.928-.696-2.04-.696-3.336 0-1.344.248-2.48.744-3.408.496-.928 1.16-1.632 1.992-2.112a5.245 5.245 0 0 1 2.736-.744c1.024 0 1.888.28 2.592.84a4.054 4.054 0 0 1 1.416 2.184l-.288.264V331.6h2.568V349h-2.28l-.192-3.264.336.024c-.112.72-.376 1.344-.792 1.872a4.299 4.299 0 0 1-1.56 1.2 4.764 4.764 0 0 1-1.968.408Zm.552-2.064c.688 0 1.28-.176 1.776-.528.496-.352.88-.848 1.152-1.488.272-.64.408-1.408.408-2.304 0-.832-.136-1.544-.408-2.136-.272-.608-.656-1.072-1.152-1.392-.48-.32-1.04-.48-1.68-.48-1.072 0-1.904.368-2.496 1.104-.592.736-.888 1.752-.888 3.048s.288 2.32.864 3.072c.576.736 1.384 1.104 2.424 1.104Zm14.303 2.064c-1.2 0-2.296-.232-3.288-.696-.992-.464-1.776-1.12-2.352-1.968l1.776-1.536a4.104 4.104 0 0 0 1.512 1.584c.672.384 1.472.576 2.4.576.736 0 1.32-.128 1.752-.384.432-.256.648-.616.648-1.08 0-.304-.104-.568-.312-.792-.192-.24-.568-.424-1.128-.552l-2.52-.528c-1.28-.256-2.192-.664-2.736-1.224-.544-.576-.816-1.304-.816-2.184 0-.656.192-1.264.576-1.824.384-.56.944-1.008 1.68-1.344.752-.352 1.648-.528 2.688-.528 1.2 0 2.224.216 3.072.648.848.416 1.496 1.016 1.944 1.8l-1.776 1.488c-.304-.64-.752-1.112-1.344-1.416a3.836 3.836 0 0 0-1.848-.48c-.512 0-.952.064-1.32.192-.368.128-.648.304-.84.528a1.178 1.178 0 0 0-.288.792c0 .32.12.6.36.84s.672.424 1.296.552l2.736.576c1.152.224 1.96.608 2.424 1.152.48.528.72 1.176.72 1.944s-.2 1.448-.6 2.04c-.4.576-.976 1.024-1.728 1.344-.752.32-1.648.48-2.688.48ZM257.596 336.62c.831 0 1.55.159 2.156.476.607.308 1.12.765 1.54 1.372l-1.008.966c-.354-.541-.756-.929-1.204-1.162-.438-.243-.961-.364-1.568-.364-.448 0-.816.061-1.106.182-.289.121-.504.285-.644.49-.13.196-.196.42-.196.672 0 .289.098.541.294.756.206.215.584.383 1.134.504l1.876.42c.896.196 1.531.495 1.904.896.374.401.56.91.56 1.526 0 .569-.154 1.064-.462 1.484-.308.42-.737.742-1.288.966-.541.224-1.18.336-1.918.336a5.754 5.754 0 0 1-1.764-.252 4.741 4.741 0 0 1-1.372-.686 4.057 4.057 0 0 1-.966-.994l1.036-1.036c.196.327.444.621.742.882.299.252.644.448 1.036.588.402.14.845.21 1.33.21.43 0 .798-.051 1.106-.154.318-.103.556-.252.714-.448.168-.205.252-.448.252-.728 0-.271-.093-.509-.28-.714-.177-.205-.513-.364-1.008-.476l-2.03-.462c-.56-.121-1.022-.294-1.386-.518-.364-.224-.634-.495-.812-.812a2.257 2.257 0 0 1-.266-1.092c0-.523.14-.994.42-1.414.29-.429.705-.77 1.246-1.022.542-.261 1.186-.392 1.932-.392Zm8.619 9.52c-.7 0-1.316-.145-1.848-.434a3.076 3.076 0 0 1-1.246-1.246c-.29-.551-.434-1.204-.434-1.96s.144-1.405.434-1.946a3.073 3.073 0 0 1 1.232-1.26c.522-.289 1.115-.434 1.778-.434.681 0 1.26.14 1.736.42.476.28.84.663 1.092 1.148.252.485.378 1.036.378 1.652 0 .168-.005.327-.014.476-.01.149-.024.28-.042.392h-5.628V341.8h4.97l-.742.224c0-.635-.159-1.12-.476-1.456-.318-.345-.752-.518-1.302-.518-.402 0-.752.093-1.05.28-.299.187-.528.467-.686.84-.159.364-.238.812-.238 1.344 0 .523.084.966.252 1.33.168.364.406.639.714.826.308.187.672.28 1.092.28.466 0 .844-.089 1.134-.266.289-.177.518-.425.686-.742l1.19.56c-.168.336-.397.63-.686.882-.28.243-.616.429-1.008.56a4.046 4.046 0 0 1-1.288.196Zm8.009 0c-.7 0-1.316-.145-1.848-.434a3.082 3.082 0 0 1-1.246-1.246c-.289-.551-.434-1.204-.434-1.96s.145-1.405.434-1.946c.299-.551.71-.971 1.232-1.26.523-.289 1.116-.434 1.778-.434.682 0 1.26.14 1.736.42.476.28.84.663 1.092 1.148.252.485.378 1.036.378 1.652 0 .168-.004.327-.014.476-.009.149-.023.28-.042.392h-5.628V341.8h4.97l-.742.224c0-.635-.158-1.12-.476-1.456-.317-.345-.751-.518-1.302-.518-.401 0-.751.093-1.05.28-.298.187-.527.467-.686.84-.158.364-.238.812-.238 1.344 0 .523.084.966.252 1.33.168.364.406.639.714.826.308.187.672.28 1.092.28.467 0 .845-.089 1.134-.266.29-.177.518-.425.686-.742l1.19.56c-.168.336-.396.63-.686.882-.28.243-.616.429-1.008.56a4.041 4.041 0 0 1-1.288.196Zm13.445-4.634c0-.467-.131-.826-.392-1.078-.252-.261-.602-.392-1.05-.392-.42 0-.779.098-1.078.294-.299.196-.518.513-.658.952l-1.26-.532a2.52 2.52 0 0 1 1.036-1.372c.523-.345 1.195-.518 2.016-.518.56 0 1.055.093 1.484.28.429.177.765.448 1.008.812.252.364.378.831.378 1.4v3.122c0 .345.173.518.518.518.168 0 .331-.023.49-.07l-.084 1.036c-.215.103-.485.154-.812.154-.299 0-.569-.051-.812-.154a1.356 1.356 0 0 1-.56-.49c-.131-.224-.196-.499-.196-.826v-.098l.308-.014a1.75 1.75 0 0 1-.518.91 2.689 2.689 0 0 1-.91.532 3.381 3.381 0 0 1-1.05.168c-.439 0-.835-.07-1.19-.21a1.87 1.87 0 0 1-.826-.63c-.196-.289-.294-.644-.294-1.064 0-.523.168-.952.504-1.288.345-.336.831-.565 1.456-.686l2.716-.532-.014 1.05-1.974.406c-.392.075-.686.182-.882.322-.196.14-.294.345-.294.616 0 .261.098.471.294.63.205.149.476.224.812.224.233 0 .457-.028.672-.084.224-.056.425-.145.602-.266.177-.131.313-.294.406-.49.103-.205.154-.448.154-.728v-1.904Zm5.31-5.656v8.19c0 .345.061.583.182.714.122.131.322.196.602.196.168 0 .308-.009.42-.028.122-.028.271-.075.448-.14l-.168 1.12c-.158.075-.34.131-.546.168-.205.047-.41.07-.616.07-.625 0-1.087-.159-1.386-.476-.289-.327-.434-.826-.434-1.498v-8.316h1.498Zm4.278 0v8.19c0 .345.06.583.182.714.121.131.322.196.602.196.168 0 .308-.009.42-.028a3.97 3.97 0 0 0 .448-.14l-.168 1.12a2.188 2.188 0 0 1-.546.168c-.206.047-.411.07-.616.07-.626 0-1.088-.159-1.386-.476-.29-.327-.434-.826-.434-1.498v-8.316h1.498Z"/><path stroke="#F6C177" stroke-linecap="round" stroke-linejoin="round" stroke-width="1.5" d="M308 341h14m0 0-7-7m7 7-7 7"/><path fill="#25233A" d="M32 467c0-8.837 7.163-16 16-16h4c8.837 0 16 7.163 16 16v187c0 8.837-7.163 16-16 16h-4c-8.837 0-16-7.163-16-16V467ZM188 467c0-8.837 7.163-16 16-16h4c8.837 0 16 7.163 16 16v187c0 8.837-7.163 16-16 16h-4c-8.837 0-16-7.163-16-16V467ZM84 467c0-8.837 7.163-16 16-16h4c8.837 0 16 7.163 16 16v187c0 8.837-7.163 16-16 16h-4c-8.837 0-16-7.163-16-16V467ZM240 467c0-8.837 7.163-16 16-16h4c8.837 0 16 7.163 16 16v187c0 8.837-7.163 16-16 16h-4c-8.837 0-16-7.163-16-16V467ZM136 467c0-8.837 7.163-16 16-16h4c8.837 0 16 7.163 16 16v187c0 8.837-7.163 16-16 16h-4c-8.837 0-16-7.163-16-16V467ZM292 467c0-8.837 7.163-16 16-16h4c8.837 0 16 7.163 16 16v187c0 8.837-7.163 16-16 16h-4c-8.837 0-16-7.163-16-16V467Z"/><path fill="#A3DBE4" d="M32 574c0-8.837 7.163-16 16-16h4c8.837 0 16 7.163 16 16v80c0 8.837-7.163 16-16 16h-4c-8.837 0-16-7.163-16-16v-80ZM188 502c0-8.837 7.163-16 16-16h4c8.837 0 16 7.163 16 16v152c0 8.837-7.163 16-16 16h-4c-8.837 0-16-7.163-16-16V502ZM84 556c0-8.837 7.163-16 16-16h4c8.837 0 16 7.163 16 16v98c0 8.837-7.163 16-16 16h-4c-8.837 0-16-7.163-16-16v-98ZM240 516c0-8.837 7.163-16 16-16h4c8.837 0 16 7.163 16 16v138c0 8.837-7.163 16-16 16h-4c-8.837 0-16-7.163-16-16V516ZM136 532c0-8.837 7.163-16 16-16h4c8.837 0 16 7.163 16 16v122c0 8.837-7.163 16-16 16h-4c-8.837 0-16-7.163-16-16V532ZM292 541c0-8.837 7.163-16 16-16h4c8.837 0 16 7.163 16 16v63c0 8.837-7.163 16-16 16h-4c-8.837 0-16-7.163-16-16v-63Z"/><path fill="#FEFCFA" d="M35.281 414.712h5.096V416h-6.594v-9.24h1.498v7.952Zm10.635-3.206c0-.467-.13-.826-.392-1.078-.252-.261-.602-.392-1.05-.392-.42 0-.78.098-1.078.294-.299.196-.518.513-.658.952l-1.26-.532a2.519 2.519 0 0 1 1.036-1.372c.523-.345 1.195-.518 2.016-.518.56 0 1.055.093 1.484.28.43.177.765.448 1.008.812.252.364.378.831.378 1.4v3.122c0 .345.173.518.518.518.168 0 .331-.023.49-.07l-.084 1.036c-.215.103-.485.154-.812.154-.299 0-.57-.051-.812-.154a1.354 1.354 0 0 1-.56-.49c-.13-.224-.196-.499-.196-.826v-.098l.308-.014a1.748 1.748 0 0 1-.518.91 2.69 2.69 0 0 1-.91.532 3.385 3.385 0 0 1-1.05.168c-.439 0-.835-.07-1.19-.21-.345-.14-.62-.35-.826-.63-.196-.289-.294-.644-.294-1.064 0-.523.168-.952.504-1.288.345-.336.83-.565 1.456-.686l2.716-.532-.014 1.05-1.974.406c-.392.075-.686.182-.882.322-.196.14-.294.345-.294.616 0 .261.098.471.294.63.205.149.476.224.812.224.233 0 .457-.028.672-.084.224-.056.425-.145.602-.266.177-.131.313-.294.406-.49a1.61 1.61 0 0 0 .154-.728v-1.904Zm6.514 4.634c-.7 0-1.339-.135-1.918-.406a3.318 3.318 0 0 1-1.372-1.148l1.036-.896c.206.383.5.691.882.924.392.224.86.336 1.4.336.43 0 .77-.075 1.022-.224.252-.149.378-.359.378-.63a.657.657 0 0 0-.182-.462c-.112-.14-.33-.247-.658-.322l-1.47-.308c-.746-.149-1.278-.387-1.596-.714-.317-.336-.476-.761-.476-1.274 0-.383.112-.737.336-1.064.224-.327.551-.588.98-.784.44-.205.962-.308 1.568-.308.7 0 1.298.126 1.792.378.495.243.873.593 1.134 1.05l-1.036.868a1.73 1.73 0 0 0-.784-.826 2.234 2.234 0 0 0-1.078-.28c-.298 0-.555.037-.77.112a1.108 1.108 0 0 0-.49.308.689.689 0 0 0-.168.462c0 .187.07.35.21.49.14.14.392.247.756.322l1.596.336c.672.131 1.144.355 1.414.672.28.308.42.686.42 1.134 0 .448-.116.845-.35 1.19-.233.336-.569.597-1.008.784-.438.187-.96.28-1.568.28Zm6.71-9.198v6.958c0 .345.09.597.267.756.186.159.434.238.742.238.252 0 .47-.037.658-.112.186-.084.359-.196.518-.336l.336 1.092c-.215.187-.481.336-.798.448a3.255 3.255 0 0 1-1.036.154 3.02 3.02 0 0 1-1.106-.196 1.597 1.597 0 0 1-.784-.63c-.187-.299-.285-.686-.294-1.162v-6.79l1.498-.42ZM61.55 409v1.176h-5.25V409h5.25Zm5.866 7v-7h1.274l.14 1.26c.187-.457.462-.803.826-1.036.373-.243.83-.364 1.372-.364.14 0 .28.014.42.042.14.019.257.051.35.098l-.21 1.316a1.795 1.795 0 0 0-.35-.084 2.355 2.355 0 0 0-.504-.042c-.29 0-.574.079-.854.238-.28.149-.513.378-.7.686-.177.308-.266.7-.266 1.176V416h-1.498Zm8.615.14c-.7 0-1.316-.145-1.848-.434a3.08 3.08 0 0 1-1.246-1.246c-.29-.551-.434-1.204-.434-1.96s.145-1.405.434-1.946c.299-.551.71-.971 1.232-1.26.523-.289 1.115-.434 1.778-.434.681 0 1.26.14 1.736.42.476.28.84.663 1.092 1.148.252.485.378 1.036.378 1.652 0 .168-.005.327-.014.476-.01.149-.023.28-.042.392h-5.628V411.8h4.97l-.742.224c0-.635-.159-1.12-.476-1.456-.317-.345-.751-.518-1.302-.518-.401 0-.751.093-1.05.28-.299.187-.527.467-.686.84-.159.364-.238.812-.238 1.344 0 .523.084.966.252 1.33.168.364.406.639.714.826.308.187.672.28 1.092.28.467 0 .845-.089 1.134-.266.29-.177.518-.425.686-.742l1.19.56c-.168.336-.397.63-.686.882-.28.243-.616.429-1.008.56a4.043 4.043 0 0 1-1.288.196ZM89.686 409h1.624l-2.352 7H87.32l-1.764-5.194L83.89 416h-1.638l-2.338-7h1.61l1.596 5.53 1.736-5.53h1.498l1.736 5.53 1.596-5.53Zm6.898 2.506c0-.467-.13-.826-.392-1.078-.252-.261-.602-.392-1.05-.392-.42 0-.78.098-1.078.294-.299.196-.518.513-.658.952l-1.26-.532a2.52 2.52 0 0 1 1.036-1.372c.523-.345 1.195-.518 2.016-.518.56 0 1.055.093 1.484.28.43.177.765.448 1.008.812.252.364.378.831.378 1.4v3.122c0 .345.173.518.518.518.168 0 .331-.023.49-.07l-.084 1.036c-.215.103-.485.154-.812.154-.299 0-.57-.051-.812-.154a1.354 1.354 0 0 1-.56-.49c-.13-.224-.196-.499-.196-.826v-.098l.308-.014a1.747 1.747 0 0 1-.518.91 2.688 2.688 0 0 1-.91.532 3.384 3.384 0 0 1-1.05.168c-.439 0-.835-.07-1.19-.21a1.87 1.87 0 0 1-.826-.63c-.196-.289-.294-.644-.294-1.064 0-.523.168-.952.504-1.288.345-.336.83-.565 1.456-.686l2.716-.532-.014 1.05-1.974.406c-.392.075-.686.182-.882.322-.196.14-.294.345-.294.616 0 .261.098.471.294.63.205.149.476.224.812.224.233 0 .457-.028.672-.084.224-.056.425-.145.602-.266a1.29 1.29 0 0 0 .406-.49c.103-.205.154-.448.154-.728v-1.904Zm3.854 4.494v-7h1.274l.14 1.26c.187-.457.462-.803.826-1.036.374-.243.831-.364 1.372-.364.14 0 .28.014.42.042.14.019.257.051.35.098l-.21 1.316a1.78 1.78 0 0 0-.35-.084 2.35 2.35 0 0 0-.504-.042c-.289 0-.574.079-.854.238-.28.149-.513.378-.7.686-.177.308-.266.7-.266 1.176V416h-1.498Zm8.223.14a2.991 2.991 0 0 1-1.582-.434c-.466-.289-.835-.705-1.106-1.246-.27-.541-.406-1.19-.406-1.946 0-.784.145-1.447.434-1.988.29-.541.677-.952 1.162-1.232a3.066 3.066 0 0 1 1.596-.434c.598 0 1.102.163 1.512.49.411.327.686.751.826 1.274l-.168.154v-4.928h1.498V416h-1.33l-.112-1.904.196.014c-.065.42-.219.784-.462 1.092a2.498 2.498 0 0 1-.91.7 2.77 2.77 0 0 1-1.148.238Zm.322-1.204c.402 0 .747-.103 1.036-.308.29-.205.514-.495.672-.868.159-.373.238-.821.238-1.344 0-.485-.079-.901-.238-1.246a1.81 1.81 0 0 0-.672-.812 1.721 1.721 0 0 0-.98-.28c-.625 0-1.11.215-1.456.644-.345.429-.518 1.022-.518 1.778s.168 1.353.504 1.792c.336.429.808.644 1.414.644ZM56.945 397v-3.96h-7.728v-1.752c.032-.08.08-.176.144-.288.08-.112.168-.24.264-.384l6.6-9.456h3.144v9.888h2.688v1.992H59.37V397h-2.424Zm-5.328-5.952h5.328v-5.592c0-.384.008-.776.024-1.176.032-.416.056-.824.072-1.224h-.048c-.176.384-.408.808-.696 1.272-.272.448-.528.84-.768 1.176l-3.744 5.328-.096.096c-.016.032-.04.072-.072.12Zm14.407 2.712c.544 0 .976.16 1.296.48.336.304.504.72.504 1.248s-.168.952-.504 1.272c-.32.32-.752.48-1.296.48-.56 0-1.008-.16-1.344-.48-.32-.32-.48-.744-.48-1.272s.16-.944.48-1.248c.336-.32.784-.48 1.344-.48Zm10.57-12.816c1.073 0 2 .176 2.785.528.8.336 1.416.816 1.848 1.44.432.624.648 1.376.648 2.256 0 .816-.2 1.536-.6 2.16-.384.608-.952 1.072-1.704 1.392v.024c.912.336 1.632.84 2.16 1.512.544.656.816 1.472.816 2.448 0 .944-.248 1.752-.744 2.424-.48.672-1.168 1.192-2.064 1.56-.88.368-1.928.552-3.144.552-1.216 0-2.272-.184-3.168-.552-.88-.368-1.568-.888-2.064-1.56s-.744-1.48-.744-2.424c0-.96.264-1.776.792-2.448.528-.672 1.264-1.176 2.208-1.512v-.024c-.72-.304-1.288-.76-1.704-1.368-.416-.624-.624-1.352-.624-2.184 0-.88.216-1.632.648-2.256.432-.624 1.048-1.104 1.848-1.44.8-.352 1.736-.528 2.808-.528Zm0 2.16c-.847 0-1.527.208-2.04.624-.495.416-.743.984-.743 1.704s.256 1.288.768 1.704c.512.4 1.184.6 2.016.6.832 0 1.496-.2 1.992-.6.512-.416.768-.984.768-1.704s-.248-1.288-.744-1.704c-.496-.416-1.168-.624-2.016-.624Zm0 11.976c.705 0 1.305-.104 1.8-.312.497-.208.88-.512 1.153-.912.272-.4.408-.864.408-1.392 0-.56-.144-1.032-.432-1.416-.272-.4-.656-.704-1.152-.912-.496-.208-1.088-.312-1.776-.312-.672 0-1.264.104-1.776.312-.512.208-.912.512-1.2.912-.272.384-.408.856-.408 1.416 0 .528.136.992.408 1.392.272.4.664.704 1.176.912.512.208 1.112.312 1.8.312Zm14.164 2.16c-1.408 0-2.568-.304-3.48-.912-.896-.608-1.608-1.488-2.136-2.64l2.4-1.248c.24.768.6 1.4 1.08 1.896.496.48 1.224.72 2.184.72.672 0 1.24-.12 1.704-.36.48-.256.848-.608 1.104-1.056.256-.464.384-1.016.384-1.656 0-.672-.12-1.232-.36-1.68a2.327 2.327 0 0 0-1.032-1.008c-.448-.24-1.008-.36-1.68-.36-.464 0-.896.048-1.296.144-.4.096-.76.248-1.08.456-.32.192-.6.448-.84.768l-2.112-.408.96-8.736h9.216v2.208h-7.176l-.576 4.464-.048.264h.048c.368-.4.84-.712 1.416-.936.592-.224 1.288-.336 2.088-.336 1.024 0 1.904.216 2.64.648a4.44 4.44 0 0 1 1.728 1.752c.416.752.624 1.624.624 2.616 0 .864-.144 1.632-.432 2.304a4.698 4.698 0 0 1-1.224 1.704 5.41 5.41 0 0 1-1.848 1.056 7.252 7.252 0 0 1-2.256.336ZM149.515 416h-1.582l-.882-2.422h-3.878l-.882 2.422h-1.54l3.486-9.24h1.792l3.486 9.24Zm-5.922-3.64h3.038l-1.512-4.312-1.526 4.312Zm11.339-3.36h1.568l-2.786 7h-1.638l-2.8-7h1.638l1.988 5.698 2.03-5.698Zm8.894-1.47.238 1.176h-.084a.274.274 0 0 0-.084-.014c-.448 0-.789.098-1.022.294-.233.187-.35.462-.35.826l-.728-.336c0-.373.079-.705.238-.994.159-.299.383-.532.672-.7a2.022 2.022 0 0 1 1.008-.252h.112Zm-2.212 7.378c.709 0 1.26.159 1.652.476.392.308.588.737.588 1.288 0 .485-.154.901-.462 1.246-.308.355-.728.625-1.26.812-.523.187-1.125.28-1.806.28-1.148 0-1.997-.177-2.548-.532-.551-.355-.826-.798-.826-1.33 0-.373.131-.7.392-.98.271-.28.723-.439 1.358-.476l-.084.224c-.392-.084-.709-.233-.952-.448-.233-.224-.35-.537-.35-.938 0-.401.154-.742.462-1.022.308-.28.742-.443 1.302-.49l.784.378h-.168c-.429.037-.733.135-.91.294-.177.159-.266.336-.266.532 0 .233.084.406.252.518.177.112.425.168.742.168h2.1Zm-1.288 2.982c.513 0 .933-.051 1.26-.154.336-.093.583-.219.742-.378.168-.149.252-.317.252-.504a.614.614 0 0 0-.266-.518c-.168-.131-.476-.196-.924-.196h-2.254c-.261 0-.481.065-.658.196a.679.679 0 0 0-.266.56c0 .308.187.551.56.728.373.177.891.266 1.554.266Zm-.056-9.03c.616 0 1.148.098 1.596.294.457.196.807.471 1.05.826.252.355.378.77.378 1.246s-.126.891-.378 1.246c-.243.355-.593.63-1.05.826-.448.196-.98.294-1.596.294-.971 0-1.717-.215-2.24-.644-.513-.439-.77-1.013-.77-1.722 0-.476.126-.891.378-1.246s.602-.63 1.05-.826c.457-.196.985-.294 1.582-.294Zm0 1.05c-.429 0-.789.121-1.078.364-.28.233-.42.551-.42.952 0 .401.14.723.42.966.289.243.649.364 1.078.364.439 0 .798-.121 1.078-.364.289-.243.434-.565.434-.966s-.145-.719-.434-.952c-.28-.243-.639-.364-1.078-.364Zm5.628 4.2c.318 0 .57.093.756.28.196.177.294.42.294.728s-.098.555-.294.742c-.186.187-.438.28-.756.28-.326 0-.588-.093-.784-.28-.186-.187-.28-.434-.28-.742s.094-.551.28-.728c.196-.187.458-.28.784-.28Zm7.457 1.89v-7h1.274l.14 1.26c.187-.457.462-.803.826-1.036.374-.243.831-.364 1.372-.364.14 0 .28.014.42.042.14.019.257.051.35.098l-.21 1.316a1.78 1.78 0 0 0-.35-.084 2.35 2.35 0 0 0-.504-.042c-.289 0-.574.079-.854.238-.28.149-.513.378-.7.686-.177.308-.266.7-.266 1.176V416h-1.498Zm8.615.14c-.7 0-1.316-.145-1.848-.434a3.082 3.082 0 0 1-1.246-1.246c-.289-.551-.434-1.204-.434-1.96s.145-1.405.434-1.946c.299-.551.71-.971 1.232-1.26.523-.289 1.116-.434 1.778-.434.682 0 1.26.14 1.736.42.476.28.84.663 1.092 1.148.252.485.378 1.036.378 1.652 0 .168-.004.327-.014.476-.009.149-.023.28-.042.392h-5.628V411.8h4.97l-.742.224c0-.635-.158-1.12-.476-1.456-.317-.345-.751-.518-1.302-.518-.401 0-.751.093-1.05.28-.298.187-.527.467-.686.84-.158.364-.238.812-.238 1.344 0 .523.084.966.252 1.33.168.364.406.639.714.826.308.187.672.28 1.092.28.467 0 .845-.089 1.134-.266.29-.177.518-.425.686-.742l1.19.56c-.168.336-.396.63-.686.882-.28.243-.616.429-1.008.56a4.041 4.041 0 0 1-1.288.196Zm13.657-7.14h1.624l-2.352 7h-1.638l-1.764-5.194-1.666 5.194h-1.638l-2.338-7h1.61l1.596 5.53 1.736-5.53h1.498l1.736 5.53 1.596-5.53Zm6.897 2.506c0-.467-.13-.826-.392-1.078-.252-.261-.602-.392-1.05-.392-.42 0-.779.098-1.078.294-.298.196-.518.513-.658.952l-1.26-.532a2.524 2.524 0 0 1 1.036-1.372c.523-.345 1.195-.518 2.016-.518.56 0 1.055.093 1.484.28.43.177.766.448 1.008.812.252.364.378.831.378 1.4v3.122c0 .345.173.518.518.518.168 0 .332-.023.49-.07l-.084 1.036c-.214.103-.485.154-.812.154-.298 0-.569-.051-.812-.154a1.356 1.356 0 0 1-.56-.49c-.13-.224-.196-.499-.196-.826v-.098l.308-.014a1.743 1.743 0 0 1-.518.91 2.68 2.68 0 0 1-.91.532 3.381 3.381 0 0 1-1.05.168 3.22 3.22 0 0 1-1.19-.21c-.345-.14-.62-.35-.826-.63-.196-.289-.294-.644-.294-1.064 0-.523.168-.952.504-1.288.346-.336.831-.565 1.456-.686l2.716-.532-.014 1.05-1.974.406c-.392.075-.686.182-.882.322-.196.14-.294.345-.294.616 0 .261.098.471.294.63.206.149.476.224.812.224.234 0 .458-.028.672-.084.224-.056.425-.145.602-.266.178-.131.313-.294.406-.49.103-.205.154-.448.154-.728v-1.904Zm3.855 4.494v-7h1.274l.14 1.26c.186-.457.462-.803.826-1.036.373-.243.83-.364 1.372-.364.14 0 .28.014.42.042.14.019.256.051.35.098l-.21 1.316a1.815 1.815 0 0 0-.35-.084 2.364 2.364 0 0 0-.504-.042c-.29 0-.574.079-.854.238-.28.149-.514.378-.7.686-.178.308-.266.7-.266 1.176V416h-1.498Zm8.223.14a2.989 2.989 0 0 1-1.582-.434c-.467-.289-.835-.705-1.106-1.246-.271-.541-.406-1.19-.406-1.946 0-.784.145-1.447.434-1.988.289-.541.677-.952 1.162-1.232a3.06 3.06 0 0 1 1.596-.434c.597 0 1.101.163 1.512.49.411.327.686.751.826 1.274l-.168.154v-4.928h1.498V416h-1.33l-.112-1.904.196.014c-.065.42-.219.784-.462 1.092a2.507 2.507 0 0 1-.91.7 2.773 2.773 0 0 1-1.148.238Zm.322-1.204c.401 0 .747-.103 1.036-.308a1.99 1.99 0 0 0 .672-.868c.159-.373.238-.821.238-1.344 0-.485-.079-.901-.238-1.246a1.824 1.824 0 0 0-.672-.812 1.723 1.723 0 0 0-.98-.28c-.625 0-1.111.215-1.456.644-.345.429-.518 1.022-.518 1.778s.168 1.353.504 1.792c.336.429.807.644 1.414.644ZM254.347 406.76v1.288h-3.164V416h-1.498v-7.952h-3.164v-1.288h7.826Zm3.075 2.1c.681 0 1.283.145 1.806.434a3 3 0 0 1 1.218 1.26c.298.541.448 1.19.448 1.946s-.15 1.409-.448 1.96c-.29.541-.696.957-1.218 1.246-.523.289-1.125.434-1.806.434-.682 0-1.284-.145-1.806-.434a3.098 3.098 0 0 1-1.232-1.246c-.299-.551-.448-1.204-.448-1.96s.149-1.405.448-1.946a3.073 3.073 0 0 1 1.232-1.26c.522-.289 1.124-.434 1.806-.434Zm0 1.176c-.42 0-.78.098-1.078.294-.29.187-.514.462-.672.826-.159.364-.238.812-.238 1.344 0 .523.079.971.238 1.344.158.364.382.644.672.84.298.187.658.28 1.078.28.42 0 .774-.093 1.064-.28.289-.196.513-.476.672-.84.158-.373.238-.821.238-1.344 0-.532-.08-.98-.238-1.344-.159-.364-.383-.639-.672-.826-.29-.196-.644-.294-1.064-.294Zm7.221-3.094v6.958c0 .345.088.597.266.756.186.159.434.238.742.238.252 0 .471-.037.658-.112.186-.084.359-.196.518-.336l.336 1.092a2.438 2.438 0 0 1-.798.448 3.258 3.258 0 0 1-1.036.154c-.402 0-.77-.065-1.106-.196a1.593 1.593 0 0 1-.784-.63c-.187-.299-.285-.686-.294-1.162v-6.79l1.498-.42Zm2.408 2.058v1.176h-5.25V409h5.25Zm5.484 2.506c0-.467-.13-.826-.392-1.078-.252-.261-.602-.392-1.05-.392-.42 0-.779.098-1.078.294-.298.196-.518.513-.658.952l-1.26-.532a2.524 2.524 0 0 1 1.036-1.372c.523-.345 1.195-.518 2.016-.518.56 0 1.055.093 1.484.28.43.177.766.448 1.008.812.252.364.378.831.378 1.4v3.122c0 .345.173.518.518.518.168 0 .332-.023.49-.07l-.084 1.036c-.214.103-.485.154-.812.154-.298 0-.569-.051-.812-.154a1.356 1.356 0 0 1-.56-.49c-.13-.224-.196-.499-.196-.826v-.098l.308-.014a1.743 1.743 0 0 1-.518.91 2.68 2.68 0 0 1-.91.532 3.381 3.381 0 0 1-1.05.168 3.22 3.22 0 0 1-1.19-.21c-.345-.14-.62-.35-.826-.63-.196-.289-.294-.644-.294-1.064 0-.523.168-.952.504-1.288.346-.336.831-.565 1.456-.686l2.716-.532-.014 1.05-1.974.406c-.392.075-.686.182-.882.322-.196.14-.294.345-.294.616 0 .261.098.471.294.63.206.149.476.224.812.224.234 0 .458-.028.672-.084.224-.056.425-.145.602-.266.178-.131.313-.294.406-.49.103-.205.154-.448.154-.728v-1.904Zm5.311-5.656v8.19c0 .345.06.583.182.714.121.131.322.196.602.196.168 0 .308-.009.42-.028a3.97 3.97 0 0 0 .448-.14l-.168 1.12a2.188 2.188 0 0 1-.546.168c-.206.047-.411.07-.616.07-.626 0-1.088-.159-1.386-.476-.29-.327-.434-.826-.434-1.498v-8.316h1.498Zm6.879 10.15v-7h1.274l.14 1.26c.187-.457.462-.803.826-1.036.374-.243.831-.364 1.372-.364.14 0 .28.014.42.042.14.019.257.051.35.098l-.21 1.316a1.78 1.78 0 0 0-.35-.084 2.35 2.35 0 0 0-.504-.042c-.289 0-.574.079-.854.238-.28.149-.513.378-.7.686-.177.308-.266.7-.266 1.176V416h-1.498Zm8.616.14c-.7 0-1.316-.145-1.848-.434a3.076 3.076 0 0 1-1.246-1.246c-.29-.551-.434-1.204-.434-1.96s.144-1.405.434-1.946a3.073 3.073 0 0 1 1.232-1.26c.522-.289 1.115-.434 1.778-.434.681 0 1.26.14 1.736.42.476.28.84.663 1.092 1.148.252.485.378 1.036.378 1.652 0 .168-.005.327-.014.476-.01.149-.024.28-.042.392h-5.628V411.8h4.97l-.742.224c0-.635-.159-1.12-.476-1.456-.318-.345-.752-.518-1.302-.518-.402 0-.752.093-1.05.28-.299.187-.528.467-.686.84-.159.364-.238.812-.238 1.344 0 .523.084.966.252 1.33.168.364.406.639.714.826.308.187.672.28 1.092.28.466 0 .844-.089 1.134-.266.289-.177.518-.425.686-.742l1.19.56c-.168.336-.397.63-.686.882-.28.243-.616.429-1.008.56a4.046 4.046 0 0 1-1.288.196Zm13.656-7.14h1.624l-2.352 7h-1.638l-1.764-5.194-1.666 5.194h-1.638l-2.338-7h1.61l1.596 5.53 1.736-5.53h1.498l1.736 5.53 1.596-5.53Zm6.897 2.506c0-.467-.13-.826-.392-1.078-.252-.261-.602-.392-1.05-.392-.42 0-.779.098-1.078.294-.298.196-.518.513-.658.952l-1.26-.532a2.524 2.524 0 0 1 1.036-1.372c.523-.345 1.195-.518 2.016-.518.56 0 1.055.093 1.484.28.43.177.766.448 1.008.812.252.364.378.831.378 1.4v3.122c0 .345.173.518.518.518.168 0 .332-.023.49-.07l-.084 1.036c-.214.103-.485.154-.812.154-.298 0-.569-.051-.812-.154a1.356 1.356 0 0 1-.56-.49c-.13-.224-.196-.499-.196-.826v-.098l.308-.014a1.743 1.743 0 0 1-.518.91 2.68 2.68 0 0 1-.91.532 3.381 3.381 0 0 1-1.05.168 3.22 3.22 0 0 1-1.19-.21c-.345-.14-.62-.35-.826-.63-.196-.289-.294-.644-.294-1.064 0-.523.168-.952.504-1.288.346-.336.831-.565 1.456-.686l2.716-.532-.014 1.05-1.974.406c-.392.075-.686.182-.882.322-.196.14-.294.345-.294.616 0 .261.098.471.294.63.206.149.476.224.812.224.234 0 .458-.028.672-.084.224-.056.425-.145.602-.266.178-.131.313-.294.406-.49.103-.205.154-.448.154-.728v-1.904Zm3.855 4.494v-7h1.274l.14 1.26c.187-.457.462-.803.826-1.036.373-.243.831-.364 1.372-.364.14 0 .28.014.42.042.14.019.257.051.35.098l-.21 1.316a1.797 1.797 0 0 0-.35-.084 2.35 2.35 0 0 0-.504-.042c-.289 0-.574.079-.854.238-.28.149-.513.378-.7.686-.177.308-.266.7-.266 1.176V416h-1.498Zm8.223.14a2.989 2.989 0 0 1-1.582-.434c-.467-.289-.835-.705-1.106-1.246-.271-.541-.406-1.19-.406-1.946 0-.784.145-1.447.434-1.988.289-.541.677-.952 1.162-1.232a3.06 3.06 0 0 1 1.596-.434c.597 0 1.101.163 1.512.49.411.327.686.751.826 1.274l-.168.154v-4.928h1.498V416h-1.33l-.112-1.904.196.014c-.065.42-.219.784-.462 1.092a2.507 2.507 0 0 1-.91.7 2.773 2.773 0 0 1-1.148.238Zm.322-1.204c.401 0 .747-.103 1.036-.308a1.99 1.99 0 0 0 .672-.868c.159-.373.238-.821.238-1.344 0-.485-.079-.901-.238-1.246a1.824 1.824 0 0 0-.672-.812 1.723 1.723 0 0 0-.98-.28c-.625 0-1.111.215-1.456.644-.345.429-.518 1.022-.518 1.778s.168 1.353.504 1.792c.336.429.807.644 1.414.644ZM166.424 397.24c-1.488 0-2.784-.328-3.888-.984-1.088-.672-1.832-1.608-2.232-2.808l2.496-1.176c.144.576.368 1.072.672 1.488.304.416.704.736 1.2.96.496.208 1.112.312 1.848.312.624 0 1.152-.112 1.584-.336a2.32 2.32 0 0 0 .984-.936c.24-.4.36-.856.36-1.368 0-.528-.104-.968-.312-1.32-.192-.352-.504-.608-.936-.768-.416-.16-.952-.24-1.608-.24a7.83 7.83 0 0 0-.6.024c-.192 0-.4.016-.624.048v-2.16l.408.048h.408c1.04 0 1.784-.208 2.232-.624.448-.416.672-1.064.672-1.944 0-.752-.232-1.328-.696-1.728-.448-.4-1.096-.6-1.944-.6-.88 0-1.568.208-2.064.624-.48.4-.848.984-1.104 1.752l-2.352-.984c.224-.736.6-1.376 1.128-1.92a5.217 5.217 0 0 1 1.944-1.248c.784-.304 1.64-.456 2.568-.456 1.136 0 2.08.184 2.832.552.768.368 1.336.872 1.704 1.512.384.64.576 1.352.576 2.136 0 .608-.088 1.144-.264 1.608-.176.448-.416.84-.72 1.176a3.24 3.24 0 0 1-.96.744c-.336.176-.68.296-1.032.36v.048c.464.016.888.112 1.272.288.4.16.752.392 1.056.696.32.288.568.64.744 1.056.176.416.264.872.264 1.368 0 .96-.24 1.8-.72 2.52s-1.144 1.28-1.992 1.68c-.832.4-1.8.6-2.904.6Zm10.174-3.48c.544 0 .976.16 1.296.48.336.304.504.72.504 1.248s-.168.952-.504 1.272c-.32.32-.752.48-1.296.48-.56 0-1.008-.16-1.344-.48-.32-.32-.48-.744-.48-1.272s.16-.944.48-1.248c.336-.32.784-.48 1.344-.48Zm5.284 3.24v-11.856l.048-1.104a8.544 8.544 0 0 1-1.872 1.368 8.21 8.21 0 0 1-2.136.792l-.48-2.232c.336-.048.728-.16 1.176-.336.448-.176.912-.4 1.392-.672.48-.272.92-.56 1.32-.864.4-.32.712-.632.936-.936h2.16V397h-2.544Zm6.32 0v-1.872a80.075 80.075 0 0 0 3.816-2.88c1.04-.832 1.872-1.6 2.496-2.304.624-.704 1.072-1.368 1.344-1.992.288-.64.432-1.288.432-1.944 0-.848-.264-1.536-.792-2.064s-1.264-.792-2.208-.792c-.992 0-1.784.336-2.376 1.008-.576.656-.904 1.56-.984 2.712l-2.232-1.032c.112-1.008.408-1.88.888-2.616a4.787 4.787 0 0 1 1.944-1.704c.832-.4 1.792-.6 2.88-.6.896 0 1.68.128 2.352.384.688.256 1.264.616 1.728 1.08.464.448.816.976 1.056 1.584.256.608.384 1.256.384 1.944 0 1.008-.248 1.984-.744 2.928-.496.928-1.28 1.88-2.352 2.856-1.072.976-2.48 2.024-4.224 3.144v.048c.192-.032.456-.048.792-.048.336-.016.672-.024 1.008-.024.336-.016.608-.024.816-.024h4.992V397h-11.016ZM259.13 397v-11.856l.048-1.104a8.544 8.544 0 0 1-1.872 1.368 8.21 8.21 0 0 1-2.136.792l-.48-2.232c.336-.048.728-.16 1.176-.336.448-.176.912-.4 1.392-.672.48-.272.92-.56 1.32-.864.4-.32.712-.632.936-.936h2.16V397h-2.544Zm11.673.24c-1.488 0-2.784-.328-3.888-.984-1.088-.672-1.832-1.608-2.232-2.808l2.496-1.176c.144.576.368 1.072.672 1.488.304.416.704.736 1.2.96.496.208 1.112.312 1.848.312.624 0 1.152-.112 1.584-.336a2.32 2.32 0 0 0 .984-.936c.24-.4.36-.856.36-1.368 0-.528-.104-.968-.312-1.32-.192-.352-.504-.608-.936-.768-.416-.16-.952-.24-1.608-.24a7.83 7.83 0 0 0-.6.024c-.192 0-.4.016-.624.048v-2.16l.408.048h.408c1.04 0 1.784-.208 2.232-.624.448-.416.672-1.064.672-1.944 0-.752-.232-1.328-.696-1.728-.448-.4-1.096-.6-1.944-.6-.88 0-1.568.208-2.064.624-.48.4-.848.984-1.104 1.752l-2.352-.984c.224-.736.6-1.376 1.128-1.92a5.217 5.217 0 0 1 1.944-1.248c.784-.304 1.64-.456 2.568-.456 1.136 0 2.08.184 2.832.552.768.368 1.336.872 1.704 1.512.384.64.576 1.352.576 2.136 0 .608-.088 1.144-.264 1.608-.176.448-.416.84-.72 1.176a3.24 3.24 0 0 1-.96.744c-.336.176-.68.296-1.032.36v.048c.464.016.888.112 1.272.288.4.16.752.392 1.056.696.32.288.568.64.744 1.056.176.416.264.872.264 1.368 0 .96-.24 1.8-.72 2.52s-1.144 1.28-1.992 1.68c-.832.4-1.8.6-2.904.6Zm13.774 0c-1.408 0-2.568-.304-3.48-.912-.896-.608-1.608-1.488-2.136-2.64l2.4-1.248c.24.768.6 1.4 1.08 1.896.496.48 1.224.72 2.184.72.672 0 1.24-.12 1.704-.36.48-.256.848-.608 1.104-1.056.256-.464.384-1.016.384-1.656 0-.672-.12-1.232-.36-1.68a2.327 2.327 0 0 0-1.032-1.008c-.448-.24-1.008-.36-1.68-.36-.464 0-.896.048-1.296.144-.4.096-.76.248-1.08.456-.32.192-.6.448-.84.768l-2.112-.408.96-8.736h9.216v2.208h-7.176l-.576 4.464-.048.264h.048c.368-.4.84-.712 1.416-.936.592-.224 1.288-.336 2.088-.336 1.024 0 1.904.216 2.64.648a4.44 4.44 0 0 1 1.728 1.752c.416.752.624 1.624.624 2.616 0 .864-.144 1.632-.432 2.304a4.698 4.698 0 0 1-1.224 1.704 5.41 5.41 0 0 1-1.848 1.056 7.252 7.252 0 0 1-2.256.336Zm10.225-3.48c.544 0 .976.16 1.296.48.336.304.504.72.504 1.248s-.168.952-.504 1.272c-.32.32-.752.48-1.296.48-.56 0-1.008-.16-1.344-.48-.32-.32-.48-.744-.48-1.272s.16-.944.48-1.248c.336-.32.784-.48 1.344-.48Zm11.727 3.24v-3.96h-7.728v-1.752c.032-.08.08-.176.144-.288.08-.112.168-.24.264-.384l6.6-9.456h3.144v9.888h2.688v1.992h-2.688V397h-2.424Zm-5.328-5.952h5.328v-5.592c0-.384.008-.776.024-1.176.032-.416.056-.824.072-1.224h-.048c-.176.384-.408.808-.696 1.272-.272.448-.528.84-.768 1.176l-3.744 5.328-.096.096c-.016.032-.04.072-.072.12ZM316.957 397v-11.856l.048-1.104a8.544 8.544 0 0 1-1.872 1.368 8.21 8.21 0 0 1-2.136.792l-.48-2.232c.336-.048.728-.16 1.176-.336.448-.176.912-.4 1.392-.672.48-.272.92-.56 1.32-.864.4-.32.712-.632.936-.936h2.16V397h-2.544ZM37.333 54.663H34.533c-1.248-.002-2.252-.825-2.49-2.047-.03-.15-.04-.305-.041-.458C32 46.143 32 40.128 32 34.114c0-.494.288-.782.787-.782h4.536c.004-.074.009-.136.009-.198v-4.329c0-.53.276-.805.809-.805h18.014c1.41 0 2.504 1.098 2.505 2.51v2.813c.065.003.123.008.18.008.912.002 1.825-.012 2.737.007a2.454 2.454 0 0 1 2.415 2.445c.011 1.919.01 3.838 0 5.757a2.472 2.472 0 0 1-2.486 2.453H58.66V46.838a2.472 2.472 0 0 1-2.482 2.486c-1.894.003-3.788.003-5.682 0-1.402-.002-2.493-1.101-2.494-2.505v-2.826H55.924c1.356 0 2.5-.98 2.701-2.317.022-.146.034-.295.034-.443.002-1.706.001-3.412.001-5.117 0-1.583-1.201-2.784-2.788-2.785H40.15c-1.62 0-2.817 1.2-2.817 2.822V51.86c0 1.595 1.21 2.802 2.809 2.803h5.34c1.24 0 2.26.822 2.472 2.042.146.839.067 1.656-.5 2.353-.493.603-1.135.928-1.913.933-1.914.01-3.828.01-5.742 0a2.483 2.483 0 0 1-2.465-2.495c-.003-.877 0-1.755 0-2.633v-.201Z"/><rect width="129" height="40" x="111.5" y="24" fill="#191724" rx="20"/><path fill="#FEFCFA" d="M128.872 49v-9.24h3.64c1.111 0 1.923.224 2.436.672.513.448.77 1.069.77 1.862 0 .485-.14.92-.42 1.302-.28.373-.691.611-1.232.714v.014c.597.093 1.059.34 1.386.742.336.392.504.85.504 1.372 0 .793-.289 1.419-.868 1.876-.579.457-1.419.686-2.52.686h-3.696Zm1.47-1.246h2.296c.588 0 1.027-.121 1.316-.364.299-.243.448-.583.448-1.022 0-.439-.149-.78-.448-1.022-.289-.243-.728-.364-1.316-.364h-2.296v2.772Zm0-4.018h2.058c1.176 0 1.764-.453 1.764-1.358s-.588-1.358-1.764-1.358h-2.058v2.716Zm10.95-4.116c.494 0 .933.07 1.316.21.382.13.714.34.994.63.289.29.527.667.714 1.134l-1.316.63c-.131-.401-.341-.719-.63-.952-.28-.233-.672-.35-1.176-.35-.364 0-.686.089-.966.266a2.23 2.23 0 0 0-.714.756 3.77 3.77 0 0 0-.448 1.134c-.103.43-.154.896-.154 1.4v.252l.056.028a1.75 1.75 0 0 1 .546-.896c.27-.233.574-.406.91-.518.336-.112.667-.168.994-.168.616 0 1.152.121 1.61.364.457.233.812.57 1.064 1.008.261.439.392.961.392 1.568 0 .616-.136 1.153-.406 1.61a2.807 2.807 0 0 1-1.134 1.05c-.476.243-1.05.364-1.722.364-.784 0-1.452-.196-2.002-.588-.551-.392-.971-.943-1.26-1.652-.29-.71-.434-1.54-.434-2.492 0-1.055.163-1.937.49-2.646.336-.71.788-1.241 1.358-1.596a3.483 3.483 0 0 1 1.918-.546Zm-.098 4.802c-.355 0-.668.075-.938.224-.271.14-.486.336-.644.588-.15.252-.224.546-.224.882 0 .327.079.62.238.882.168.261.387.471.658.63.27.15.574.224.91.224.569 0 1.012-.154 1.33-.462.317-.308.476-.733.476-1.274 0-.345-.07-.644-.21-.896a1.347 1.347 0 0 0-.616-.588c-.262-.14-.588-.21-.98-.21ZM146.14 49v-1.092a46.416 46.416 0 0 0 2.226-1.68c.607-.485 1.092-.933 1.456-1.344.364-.41.625-.798.784-1.162a2.74 2.74 0 0 0 .252-1.134c0-.495-.154-.896-.462-1.204-.308-.308-.737-.462-1.288-.462-.579 0-1.041.196-1.386.588-.336.383-.527.91-.574 1.582l-1.302-.602c.065-.588.238-1.097.518-1.526.28-.43.658-.76 1.134-.994.485-.233 1.045-.35 1.68-.35.523 0 .98.075 1.372.224.401.15.737.36 1.008.63.271.261.476.57.616.924.149.355.224.733.224 1.134 0 .588-.145 1.157-.434 1.708-.289.541-.747 1.097-1.372 1.666-.625.57-1.447 1.18-2.464 1.834v.028c.112-.019.266-.028.462-.028.196-.01.392-.014.588-.014.196-.01.355-.014.476-.014h2.912V49h-6.426Zm13.271 2.94v-4.984l.21.196c-.065.41-.219.765-.462 1.064a2.28 2.28 0 0 1-.882.686 2.68 2.68 0 0 1-1.134.238 2.916 2.916 0 0 1-1.568-.434c-.467-.29-.84-.705-1.12-1.246-.271-.55-.406-1.209-.406-1.974 0-.765.145-1.419.434-1.96.289-.541.677-.952 1.162-1.232a3.058 3.058 0 0 1 1.596-.434c.411 0 .784.084 1.12.252.345.159.63.387.854.686.233.29.387.635.462 1.036l-.21.07.112-1.904h1.33v9.94h-1.498Zm-1.946-4.018c.392 0 .733-.098 1.022-.294.289-.196.513-.476.672-.84.168-.373.252-.812.252-1.316 0-.523-.079-.961-.238-1.316a1.824 1.824 0 0 0-.672-.812 1.816 1.816 0 0 0-1.008-.28c-.607 0-1.083.22-1.428.658-.345.43-.518 1.022-.518 1.778s.168 1.349.504 1.778c.336.43.807.644 1.414.644Zm10.639 4.018v-4.984l.21.196c-.065.41-.219.765-.462 1.064a2.28 2.28 0 0 1-.882.686 2.68 2.68 0 0 1-1.134.238 2.918 2.918 0 0 1-1.568-.434c-.466-.29-.84-.705-1.12-1.246-.27-.55-.406-1.209-.406-1.974 0-.765.145-1.419.434-1.96.29-.541.677-.952 1.162-1.232a3.063 3.063 0 0 1 1.596-.434c.411 0 .784.084 1.12.252.346.159.63.387.854.686.234.29.388.635.462 1.036l-.21.07.112-1.904h1.33v9.94h-1.498Zm-1.946-4.018c.392 0 .733-.098 1.022-.294.29-.196.514-.476.672-.84.168-.373.252-.812.252-1.316 0-.523-.079-.961-.238-1.316a1.81 1.81 0 0 0-.672-.812 1.816 1.816 0 0 0-1.008-.28c-.606 0-1.082.22-1.428.658-.345.43-.518 1.022-.518 1.778s.168 1.349.504 1.778c.336.43.808.644 1.414.644Zm6.44-.812c.317 0 .569.093.756.28.196.177.294.42.294.728s-.098.555-.294.742c-.187.187-.439.28-.756.28-.327 0-.588-.093-.784-.28-.187-.187-.28-.434-.28-.742s.093-.55.28-.728c.196-.187.457-.28.784-.28Zm3.744 0c.317 0 .569.093.756.28.196.177.294.42.294.728s-.098.555-.294.742c-.187.187-.439.28-.756.28-.327 0-.588-.093-.784-.28-.187-.187-.28-.434-.28-.742s.093-.55.28-.728c.196-.187.457-.28.784-.28Zm3.744 0c.317 0 .569.093.756.28.196.177.294.42.294.728s-.098.555-.294.742c-.187.187-.439.28-.756.28-.327 0-.588-.093-.784-.28-.187-.187-.28-.434-.28-.742s.093-.55.28-.728c.196-.187.457-.28.784-.28Zm3.198 1.89v-9.24h3.64c1.111 0 1.923.224 2.436.672.513.448.77 1.069.77 1.862 0 .485-.14.92-.42 1.302-.28.373-.691.611-1.232.714v.014c.597.093 1.059.34 1.386.742.336.392.504.85.504 1.372 0 .793-.289 1.419-.868 1.876-.579.457-1.419.686-2.52.686h-3.696Zm1.47-1.246h2.296c.588 0 1.027-.121 1.316-.364.299-.243.448-.583.448-1.022 0-.439-.149-.78-.448-1.022-.289-.243-.728-.364-1.316-.364h-2.296v2.772Zm0-4.018h2.058c1.176 0 1.764-.453 1.764-1.358s-.588-1.358-1.764-1.358h-2.058v2.716Zm6.876-3.976h7.042v1.246c-.775.803-1.4 1.629-1.876 2.478a9.886 9.886 0 0 0-1.036 2.632 12.972 12.972 0 0 0-.308 2.884h-1.512c0-1.027.126-2.025.378-2.996.261-.98.653-1.913 1.176-2.8a12.299 12.299 0 0 1 2.002-2.52l.28.378h-6.146V39.76Zm11.958-.14c.831 0 1.55.159 2.156.476.607.308 1.12.765 1.54 1.372l-1.008.966c-.354-.541-.756-.929-1.204-1.162-.438-.243-.961-.364-1.568-.364-.448 0-.816.06-1.106.182-.289.121-.504.285-.644.49-.13.196-.196.42-.196.672 0 .29.098.541.294.756.206.215.584.383 1.134.504l1.876.42c.896.196 1.531.495 1.904.896.374.401.56.91.56 1.526 0 .57-.154 1.064-.462 1.484-.308.42-.737.742-1.288.966-.541.224-1.18.336-1.918.336a5.754 5.754 0 0 1-1.764-.252 4.734 4.734 0 0 1-1.372-.686 4.057 4.057 0 0 1-.966-.994l1.036-1.036c.196.327.444.62.742.882.299.252.644.448 1.036.588.402.14.845.21 1.33.21.43 0 .798-.051 1.106-.154.318-.103.556-.252.714-.448.168-.205.252-.448.252-.728 0-.27-.093-.509-.28-.714-.177-.205-.513-.364-1.008-.476l-2.03-.462c-.56-.121-1.022-.294-1.386-.518-.364-.224-.634-.495-.812-.812a2.255 2.255 0 0 1-.266-1.092c0-.523.14-.994.42-1.414.29-.43.705-.77 1.246-1.022.542-.261 1.186-.392 1.932-.392Z"/><path stroke="#FEFCFA" stroke-linecap="round" stroke-linejoin="round" stroke-width="1.5" d="m217.5 50 6-6-6-6"/><rect width="40" height="40" x="288" y="24" fill="#191724" rx="20"/><path stroke="#FEFCFA" stroke-linecap="round" stroke-linejoin="round" stroke-width="1.5" d="M299 44h12m-12-6h18m-18 12h18"/><path fill="#FEFCFA" d="M42.336 104.56c1.899 0 3.541.363 4.928 1.088 1.387.704 2.56 1.749 3.52 3.136l-2.304 2.208c-.81-1.237-1.728-2.123-2.752-2.656-1.003-.555-2.197-.832-3.584-.832-1.024 0-1.867.139-2.528.416-.661.277-1.152.651-1.472 1.12-.299.448-.448.96-.448 1.536 0 .661.224 1.237.672 1.728.47.491 1.333.875 2.592 1.152l4.288.96c2.048.448 3.499 1.131 4.352 2.048.853.917 1.28 2.08 1.28 3.488 0 1.301-.352 2.432-1.056 3.392-.704.96-1.685 1.696-2.944 2.208-1.237.512-2.699.768-4.384.768-1.493 0-2.837-.192-4.032-.576-1.195-.384-2.24-.907-3.136-1.568a9.274 9.274 0 0 1-2.208-2.272l2.368-2.368a8.428 8.428 0 0 0 1.696 2.016 7.596 7.596 0 0 0 2.368 1.344c.917.32 1.93.48 3.04.48.981 0 1.824-.117 2.528-.352.725-.235 1.27-.576 1.632-1.024.384-.469.576-1.024.576-1.664a2.35 2.35 0 0 0-.64-1.632c-.405-.469-1.173-.832-2.304-1.088l-4.64-1.056c-1.28-.277-2.336-.672-3.168-1.184-.832-.512-1.45-1.131-1.856-1.856-.405-.747-.608-1.579-.608-2.496 0-1.195.32-2.272.96-3.232.661-.981 1.61-1.76 2.848-2.336 1.237-.597 2.71-.896 4.416-.896Zm17.523.736V121.2c0 .789.203 1.365.608 1.728.427.363.992.544 1.696.544.576 0 1.078-.085 1.504-.256a4.696 4.696 0 0 0 1.184-.768l.768 2.496c-.49.427-1.098.768-1.824 1.024-.704.235-1.493.352-2.368.352-.917 0-1.76-.149-2.528-.448-.768-.299-1.365-.779-1.792-1.44-.426-.683-.65-1.568-.672-2.656v-15.52l3.424-.96ZM65.363 110v2.688h-12V110h12Zm12.728 5.728c0-1.067-.298-1.888-.895-2.464-.576-.597-1.376-.896-2.4-.896-.96 0-1.782.224-2.465.672-.682.448-1.184 1.173-1.504 2.176L67.948 114c.406-1.301 1.195-2.347 2.368-3.136 1.195-.789 2.731-1.184 4.609-1.184 1.28 0 2.41.213 3.391.64.982.405 1.75 1.024 2.305 1.856.575.832.864 1.899.864 3.2v7.136c0 .789.394 1.184 1.184 1.184.383 0 .757-.053 1.12-.16l-.192 2.368c-.491.235-1.11.352-1.856.352-.683 0-1.302-.117-1.856-.352a3.098 3.098 0 0 1-1.28-1.12c-.3-.512-.448-1.141-.448-1.888v-.224l.703-.032a3.994 3.994 0 0 1-1.183 2.08 6.146 6.146 0 0 1-2.08 1.216c-.79.256-1.59.384-2.4.384-1.003 0-1.91-.16-2.72-.48-.79-.32-1.42-.8-1.888-1.44-.448-.661-.672-1.472-.672-2.432 0-1.195.383-2.176 1.151-2.944.79-.768 1.9-1.291 3.329-1.568l6.207-1.216-.031 2.4-4.513.928c-.895.171-1.567.416-2.016.736-.448.32-.672.789-.672 1.408 0 .597.225 1.077.672 1.44.47.341 1.088.512 1.856.512.534 0 1.046-.064 1.537-.192.511-.128.97-.331 1.375-.608.406-.299.715-.672.928-1.12.235-.469.352-1.024.352-1.664v-4.352ZM102.198 110l-7.136 7.296-.736.512-5.024 5.216-.033-3.904 8.864-9.12h4.065Zm-11.68-7.2V126h-3.424v-23.2h3.424Zm4.96 12.576L102.582 126h-3.968l-5.697-8.672 2.56-1.952Zm12-8.064c-.747 0-1.323-.181-1.728-.544-.384-.384-.576-.917-.576-1.6s.192-1.205.576-1.568c.405-.363.981-.544 1.728-.544.725 0 1.28.181 1.664.544.405.363.608.885.608 1.568s-.203 1.216-.608 1.6c-.384.363-.939.544-1.664.544Zm1.696 2.688v16h-3.424v-16h3.424Zm5.357 16v-16h3.04l.224 4.16-.448-.448c.299-.917.725-1.675 1.28-2.272a5.077 5.077 0 0 1 2.016-1.344 7.48 7.48 0 0 1 2.496-.416c1.131 0 2.144.224 3.04.672a4.94 4.94 0 0 1 2.176 1.952c.533.875.8 1.984.8 3.328V126h-3.424v-9.312c0-1.579-.331-2.667-.992-3.264-.64-.619-1.451-.928-2.432-.928-.704 0-1.387.171-2.048.512-.661.32-1.216.843-1.664 1.568-.427.725-.64 1.696-.64 2.912V126h-3.424Zm33.893-19.36.544 2.688h-.192a.615.615 0 0 0-.193-.032c-1.023 0-1.802.224-2.335.672-.534.427-.8 1.056-.8 1.888l-1.664-.768c0-.853.181-1.611.544-2.272a3.951 3.951 0 0 1 1.536-1.6c.682-.384 1.45-.576 2.304-.576h.256Zm-5.056 16.864c1.621 0 2.88.363 3.776 1.088.896.704 1.344 1.685 1.344 2.944 0 1.109-.352 2.059-1.056 2.848-.704.811-1.664 1.429-2.88 1.856-1.195.427-2.571.64-4.128.64-2.624 0-4.566-.405-5.824-1.216-1.259-.811-1.888-1.824-1.888-3.04 0-.853.298-1.6.896-2.24.618-.64 1.653-1.003 3.104-1.088l-.192.512c-.896-.192-1.622-.533-2.176-1.024-.534-.512-.8-1.227-.8-2.144s.352-1.696 1.056-2.336c.704-.64 1.696-1.013 2.976-1.12l1.792.864h-.384c-.982.085-1.675.309-2.08.672-.406.363-.608.768-.608 1.216 0 .533.192.928.576 1.184.405.256.97.384 1.696.384h4.8Zm-2.944 6.816c1.173 0 2.133-.117 2.88-.352.768-.213 1.333-.501 1.696-.864.384-.341.576-.725.576-1.152 0-.491-.203-.885-.608-1.184-.384-.299-1.088-.448-2.112-.448h-5.152c-.598 0-1.099.149-1.504.448-.406.32-.608.747-.608 1.28 0 .704.426 1.259 1.28 1.664.853.405 2.037.608 3.552.608Zm-.128-20.64c1.408 0 2.624.224 3.648.672 1.045.448 1.845 1.077 2.4 1.888.576.811.864 1.76.864 2.848 0 1.088-.288 2.037-.864 2.848-.555.811-1.355 1.44-2.4 1.888-1.024.448-2.24.672-3.648.672-2.219 0-3.926-.491-5.12-1.472-1.174-1.003-1.76-2.315-1.76-3.936 0-1.088.288-2.037.864-2.848.576-.811 1.376-1.44 2.4-1.888 1.045-.448 2.25-.672 3.616-.672Zm0 2.4c-.982 0-1.803.277-2.464.832-.64.533-.96 1.259-.96 2.176 0 .917.32 1.653.96 2.208.661.555 1.482.832 2.464.832 1.002 0 1.824-.277 2.464-.832.661-.555.992-1.291.992-2.208 0-.917-.331-1.643-.992-2.176-.64-.555-1.462-.832-2.464-.832Z"/></g><defs><clipPath id="a"><path fill="#fff" d="M0 0h360v600H0z"/></clipPath></defs></svg>