<svg xmlns="http://www.w3.org/2000/svg" width="360" height="600" fill="none"><g clip-path="url(#a)"><path fill="#191724" d="M0 0h360v600H0z"/><path fill="#25233A" fill-rule="evenodd" d="m1.022 103.276 9.613-5.388a2 2 0 0 1 1.956 0l9.196 5.154a2 2 0 0 0 2.504-.453l8.799-10.4a2 2 0 0 1 3.21.213l8.536 13.313a2 2 0 0 0 3.325.062l7.7-11.07c.925-1.332 2.968-1.065 3.521.46l9.574 26.366a2 2 0 0 0 2.665 1.157l9.046-3.858a1.997 1.997 0 0 1 1.28-.098l9.884 2.529a1.997 1.997 0 0 0 1.874-.488l9.847-9.359a2 2 0 0 1 2.182-.382l9.42 4.132c.61.268 1.312.214 1.874-.142l9.837-6.233a2.002 2.002 0 0 1 1.836-.158l9.21 3.815a2 2 0 0 0 2.373-.658l9.482-12.826a2 2 0 0 1 2.814-.406l8.795 6.644a2 2 0 0 0 2.411 0l8.509-6.428a2 2 0 0 1 2.985.683l9.553 18.626a2 2 0 0 0 2.805.804l8.403-5.017a2 2 0 0 1 2.48.345l9.42 9.986a2 2 0 0 0 2.464.354l8.625-5.045a2 2 0 0 1 2.665.604l8.772 12.934c.829 1.221 2.649 1.156 3.387-.122l9.066-15.686a2 2 0 0 1 2.643-.78l8.824 4.516c.673.344 1.482.28 2.092-.166l10.618-7.763 10.546-6.297a1.999 1.999 0 0 1 2.11.037l9.485 6.125c.66.427 1.509.427 2.17 0l9.68-6.252a1.999 1.999 0 0 1 1.792-.19l9.002 3.4a2 2 0 0 0 2.484-.954l8.922-17.286c.763-1.479 2.892-1.434 3.591.076l8.707 18.778a2 2 0 0 0 3.211.591l8.52-8.306a2.002 2.002 0 0 1 2.374-.312l9.287 5.206a2 2 0 0 1 1.022 1.744V333c0 8.836-7.163 16-16 16H16c-8.837 0-16-7.164-16-16V105.02a2 2 0 0 1 1.022-1.744Z" clip-rule="evenodd"/><path fill="#FEFCFA" d="M37.333 54.663H34.533c-1.248-.002-2.252-.825-2.49-2.047-.03-.15-.04-.305-.041-.458C32 46.143 32 40.128 32 34.114c0-.494.288-.782.787-.782h4.536c.004-.074.009-.136.009-.198v-4.329c0-.53.276-.805.809-.805h18.014c1.41 0 2.504 1.098 2.505 2.51v2.813c.065.003.123.008.18.008.912.002 1.825-.012 2.737.007a2.454 2.454 0 0 1 2.415 2.445c.011 1.919.01 3.838 0 5.757a2.472 2.472 0 0 1-2.486 2.453H58.66V46.838a2.472 2.472 0 0 1-2.482 2.486c-1.894.003-3.788.003-5.682 0-1.402-.002-2.493-1.101-2.494-2.505v-2.826H55.924c1.356 0 2.5-.98 2.701-2.317.022-.146.034-.295.034-.443.002-1.706.001-3.412.001-5.117 0-1.583-1.201-2.784-2.788-2.785H40.15c-1.62 0-2.817 1.2-2.817 2.822V51.86c0 1.595 1.21 2.802 2.809 2.803h5.34c1.24 0 2.26.822 2.472 2.042.146.839.067 1.656-.5 2.353-.493.603-1.135.928-1.913.933-1.914.01-3.828.01-5.742 0a2.483 2.483 0 0 1-2.465-2.495c-.003-.877 0-1.755 0-2.633v-.201Z"/><rect width="129" height="40" x="111.5" y="24" fill="#25233A" rx="20"/><path fill="#FEFCFA" d="M128.872 49v-9.24h3.64c1.111 0 1.923.224 2.436.672.513.448.77 1.069.77 1.862 0 .485-.14.92-.42 1.302-.28.373-.691.611-1.232.714v.014c.597.093 1.059.34 1.386.742.336.392.504.85.504 1.372 0 .793-.289 1.419-.868 1.876-.579.457-1.419.686-2.52.686h-3.696Zm1.47-1.246h2.296c.588 0 1.027-.121 1.316-.364.299-.243.448-.583.448-1.022 0-.439-.149-.78-.448-1.022-.289-.243-.728-.364-1.316-.364h-2.296v2.772Zm0-4.018h2.058c1.176 0 1.764-.453 1.764-1.358s-.588-1.358-1.764-1.358h-2.058v2.716Zm10.95-4.116c.494 0 .933.07 1.316.21.382.13.714.34.994.63.289.29.527.667.714 1.134l-1.316.63c-.131-.401-.341-.719-.63-.952-.28-.233-.672-.35-1.176-.35-.364 0-.686.089-.966.266a2.23 2.23 0 0 0-.714.756 3.77 3.77 0 0 0-.448 1.134c-.103.43-.154.896-.154 1.4v.252l.056.028a1.75 1.75 0 0 1 .546-.896c.27-.233.574-.406.91-.518.336-.112.667-.168.994-.168.616 0 1.152.121 1.61.364.457.233.812.57 1.064 1.008.261.439.392.961.392 1.568 0 .616-.136 1.153-.406 1.61a2.807 2.807 0 0 1-1.134 1.05c-.476.243-1.05.364-1.722.364-.784 0-1.452-.196-2.002-.588-.551-.392-.971-.943-1.26-1.652-.29-.71-.434-1.54-.434-2.492 0-1.055.163-1.937.49-2.646.336-.71.788-1.241 1.358-1.596a3.483 3.483 0 0 1 1.918-.546Zm-.098 4.802c-.355 0-.668.075-.938.224-.271.14-.486.336-.644.588-.15.252-.224.546-.224.882 0 .327.079.62.238.882.168.261.387.471.658.63.27.15.574.224.91.224.569 0 1.012-.154 1.33-.462.317-.308.476-.733.476-1.274 0-.345-.07-.644-.21-.896a1.347 1.347 0 0 0-.616-.588c-.262-.14-.588-.21-.98-.21ZM146.14 49v-1.092a46.416 46.416 0 0 0 2.226-1.68c.607-.485 1.092-.933 1.456-1.344.364-.41.625-.798.784-1.162a2.74 2.74 0 0 0 .252-1.134c0-.495-.154-.896-.462-1.204-.308-.308-.737-.462-1.288-.462-.579 0-1.041.196-1.386.588-.336.383-.527.91-.574 1.582l-1.302-.602c.065-.588.238-1.097.518-1.526.28-.43.658-.76 1.134-.994.485-.233 1.045-.35 1.68-.35.523 0 .98.075 1.372.224.401.15.737.36 1.008.63.271.261.476.57.616.924.149.355.224.733.224 1.134 0 .588-.145 1.157-.434 1.708-.289.541-.747 1.097-1.372 1.666-.625.57-1.447 1.18-2.464 1.834v.028c.112-.019.266-.028.462-.028.196-.01.392-.014.588-.014.196-.01.355-.014.476-.014h2.912V49h-6.426Zm13.271 2.94v-4.984l.21.196c-.065.41-.219.765-.462 1.064a2.28 2.28 0 0 1-.882.686 2.68 2.68 0 0 1-1.134.238 2.916 2.916 0 0 1-1.568-.434c-.467-.29-.84-.705-1.12-1.246-.271-.55-.406-1.209-.406-1.974 0-.765.145-1.419.434-1.96.289-.541.677-.952 1.162-1.232a3.058 3.058 0 0 1 1.596-.434c.411 0 .784.084 1.12.252.345.159.63.387.854.686.233.29.387.635.462 1.036l-.21.07.112-1.904h1.33v9.94h-1.498Zm-1.946-4.018c.392 0 .733-.098 1.022-.294.289-.196.513-.476.672-.84.168-.373.252-.812.252-1.316 0-.523-.079-.961-.238-1.316a1.824 1.824 0 0 0-.672-.812 1.816 1.816 0 0 0-1.008-.28c-.607 0-1.083.22-1.428.658-.345.43-.518 1.022-.518 1.778s.168 1.349.504 1.778c.336.43.807.644 1.414.644Zm10.639 4.018v-4.984l.21.196c-.065.41-.219.765-.462 1.064a2.28 2.28 0 0 1-.882.686 2.68 2.68 0 0 1-1.134.238 2.918 2.918 0 0 1-1.568-.434c-.466-.29-.84-.705-1.12-1.246-.27-.55-.406-1.209-.406-1.974 0-.765.145-1.419.434-1.96.29-.541.677-.952 1.162-1.232a3.063 3.063 0 0 1 1.596-.434c.411 0 .784.084 1.12.252.346.159.63.387.854.686.234.29.388.635.462 1.036l-.21.07.112-1.904h1.33v9.94h-1.498Zm-1.946-4.018c.392 0 .733-.098 1.022-.294.29-.196.514-.476.672-.84.168-.373.252-.812.252-1.316 0-.523-.079-.961-.238-1.316a1.81 1.81 0 0 0-.672-.812 1.816 1.816 0 0 0-1.008-.28c-.606 0-1.082.22-1.428.658-.345.43-.518 1.022-.518 1.778s.168 1.349.504 1.778c.336.43.808.644 1.414.644Zm6.44-.812c.317 0 .569.093.756.28.196.177.294.42.294.728s-.098.555-.294.742c-.187.187-.439.28-.756.28-.327 0-.588-.093-.784-.28-.187-.187-.28-.434-.28-.742s.093-.55.28-.728c.196-.187.457-.28.784-.28Zm3.744 0c.317 0 .569.093.756.28.196.177.294.42.294.728s-.098.555-.294.742c-.187.187-.439.28-.756.28-.327 0-.588-.093-.784-.28-.187-.187-.28-.434-.28-.742s.093-.55.28-.728c.196-.187.457-.28.784-.28Zm3.744 0c.317 0 .569.093.756.28.196.177.294.42.294.728s-.098.555-.294.742c-.187.187-.439.28-.756.28-.327 0-.588-.093-.784-.28-.187-.187-.28-.434-.28-.742s.093-.55.28-.728c.196-.187.457-.28.784-.28Zm3.198 1.89v-9.24h3.64c1.111 0 1.923.224 2.436.672.513.448.77 1.069.77 1.862 0 .485-.14.92-.42 1.302-.28.373-.691.611-1.232.714v.014c.597.093 1.059.34 1.386.742.336.392.504.85.504 1.372 0 .793-.289 1.419-.868 1.876-.579.457-1.419.686-2.52.686h-3.696Zm1.47-1.246h2.296c.588 0 1.027-.121 1.316-.364.299-.243.448-.583.448-1.022 0-.439-.149-.78-.448-1.022-.289-.243-.728-.364-1.316-.364h-2.296v2.772Zm0-4.018h2.058c1.176 0 1.764-.453 1.764-1.358s-.588-1.358-1.764-1.358h-2.058v2.716Zm6.876-3.976h7.042v1.246c-.775.803-1.4 1.629-1.876 2.478a9.886 9.886 0 0 0-1.036 2.632 12.972 12.972 0 0 0-.308 2.884h-1.512c0-1.027.126-2.025.378-2.996.261-.98.653-1.913 1.176-2.8a12.299 12.299 0 0 1 2.002-2.52l.28.378h-6.146V39.76Zm11.958-.14c.831 0 1.55.159 2.156.476.607.308 1.12.765 1.54 1.372l-1.008.966c-.354-.541-.756-.929-1.204-1.162-.438-.243-.961-.364-1.568-.364-.448 0-.816.06-1.106.182-.289.121-.504.285-.644.49-.13.196-.196.42-.196.672 0 .29.098.541.294.756.206.215.584.383 1.134.504l1.876.42c.896.196 1.531.495 1.904.896.374.401.56.91.56 1.526 0 .57-.154 1.064-.462 1.484-.308.42-.737.742-1.288.966-.541.224-1.18.336-1.918.336a5.754 5.754 0 0 1-1.764-.252 4.734 4.734 0 0 1-1.372-.686 4.057 4.057 0 0 1-.966-.994l1.036-1.036c.196.327.444.62.742.882.299.252.644.448 1.036.588.402.14.845.21 1.33.21.43 0 .798-.051 1.106-.154.318-.103.556-.252.714-.448.168-.205.252-.448.252-.728 0-.27-.093-.509-.28-.714-.177-.205-.513-.364-1.008-.476l-2.03-.462c-.56-.121-1.022-.294-1.386-.518-.364-.224-.634-.495-.812-.812a2.255 2.255 0 0 1-.266-1.092c0-.523.14-.994.42-1.414.29-.43.705-.77 1.246-1.022.542-.261 1.186-.392 1.932-.392Z"/><path stroke="#FEFCFA" stroke-linecap="round" stroke-linejoin="round" stroke-width="1.5" d="m217.5 50 6-6-6-6"/><rect width="40" height="40" x="288" y="24" fill="#25233A" rx="20"/><path stroke="#FEFCFA" stroke-linecap="round" stroke-linejoin="round" stroke-width="1.5" d="M299 44h12m-12-6h18m-18 12h18"/><path fill="#F6C177" d="M37.632 152.44c.757 0 1.408.133 1.952.4a3.06 3.06 0 0 1 1.296 1.136c.31.491.464 1.083.464 1.776 0 .683-.155 1.275-.464 1.776a3.06 3.06 0 0 1-1.296 1.136c-.544.267-1.195.4-1.952.4H35.28V163h-1.712v-10.56h4.064Zm-.272 5.152c.757 0 1.312-.155 1.664-.464.363-.32.544-.779.544-1.376 0-.608-.181-1.067-.544-1.376-.352-.32-.907-.48-1.664-.48h-2.08v3.696h2.08Zm9.203-2.752c.779 0 1.467.165 2.064.496a3.427 3.427 0 0 1 1.392 1.44c.342.619.512 1.36.512 2.224 0 .864-.17 1.611-.512 2.24a3.446 3.446 0 0 1-1.392 1.424c-.597.331-1.285.496-2.064.496-.778 0-1.466-.165-2.064-.496a3.547 3.547 0 0 1-1.408-1.424c-.341-.629-.512-1.376-.512-2.24 0-.864.171-1.605.512-2.224a3.527 3.527 0 0 1 1.408-1.44c.598-.331 1.286-.496 2.064-.496Zm0 1.344c-.48 0-.89.112-1.232.336-.33.213-.586.528-.768.944-.181.416-.272.928-.272 1.536 0 .597.091 1.109.272 1.536.182.416.438.736.768.96.342.213.752.32 1.232.32s.886-.107 1.216-.32c.331-.224.587-.544.768-.96.182-.427.272-.939.272-1.536 0-.608-.09-1.12-.272-1.536-.181-.416-.437-.731-.768-.944-.33-.224-.736-.336-1.216-.336ZM52.59 163v-8h1.456l.16 1.44c.214-.523.528-.917.944-1.184.427-.277.95-.416 1.568-.416.16 0 .32.016.48.048.16.021.293.059.4.112l-.24 1.504a1.954 1.954 0 0 0-.4-.096 2.69 2.69 0 0 0-.576-.048c-.33 0-.656.091-.976.272-.32.171-.587.432-.8.784-.202.352-.304.8-.304 1.344V163H52.59Zm8.474-10.352v7.952c0 .395.102.683.304.864.214.181.497.272.849.272.288 0 .538-.043.752-.128.213-.096.41-.224.591-.384l.385 1.248a2.79 2.79 0 0 1-.913.512 3.741 3.741 0 0 1-1.184.176c-.458 0-.88-.075-1.264-.224a1.817 1.817 0 0 1-.895-.72c-.214-.341-.326-.784-.337-1.328v-7.76l1.712-.48ZM63.816 155v1.344h-6V155h6Zm4.74-3.712c.33 0 .63.037.896.112.277.064.485.155.624.272l-.32 1.232a1.202 1.202 0 0 0-.4-.16 1.854 1.854 0 0 0-.512-.064c-.438 0-.784.101-1.04.304-.246.203-.368.533-.368.992v1.168l.048.432V163H65.77v-9.152c0-.405.058-.768.176-1.088.128-.32.314-.587.56-.8a2.31 2.31 0 0 1 .88-.496 3.687 3.687 0 0 1 1.168-.176ZM70.027 155v1.344h-5.76V155h5.76Zm4.746-.16c.779 0 1.467.165 2.064.496a3.426 3.426 0 0 1 1.392 1.44c.341.619.512 1.36.512 2.224 0 .864-.17 1.611-.512 2.24a3.444 3.444 0 0 1-1.392 1.424c-.597.331-1.285.496-2.064.496-.778 0-1.466-.165-2.064-.496a3.549 3.549 0 0 1-1.408-1.424c-.341-.629-.512-1.376-.512-2.24 0-.864.17-1.605.512-2.224a3.528 3.528 0 0 1 1.408-1.44c.597-.331 1.285-.496 2.064-.496Zm0 1.344c-.48 0-.89.112-1.232.336-.33.213-.587.528-.768.944-.181.416-.272.928-.272 1.536 0 .597.09 1.109.272 1.536.181.416.438.736.768.96.341.213.752.32 1.232.32s.886-.107 1.216-.32c.33-.224.587-.544.768-.96.181-.427.272-.939.272-1.536 0-.608-.09-1.12-.272-1.536-.181-.416-.437-.731-.768-.944-.33-.224-.736-.336-1.216-.336Zm7.69-4.784v9.36c0 .395.07.667.208.816.138.149.368.224.688.224.192 0 .352-.011.48-.032.139-.032.31-.085.512-.16l-.192 1.28c-.181.085-.39.149-.624.192-.235.053-.47.08-.704.08-.715 0-1.243-.181-1.584-.544-.33-.373-.496-.944-.496-1.712V151.4h1.712Zm4.088 2.256c-.373 0-.661-.091-.864-.272-.192-.192-.288-.459-.288-.8s.096-.603.288-.784c.203-.181.49-.272.864-.272.363 0 .64.091.832.272.203.181.304.443.304.784s-.101.608-.304.8c-.192.181-.47.272-.832.272ZM87.4 155v8h-1.712v-8H87.4Zm6.055-.16c.779 0 1.467.165 2.064.496a3.427 3.427 0 0 1 1.392 1.44c.341.619.512 1.36.512 2.224 0 .864-.17 1.611-.512 2.24a3.446 3.446 0 0 1-1.392 1.424c-.597.331-1.285.496-2.064.496-.779 0-1.467-.165-2.064-.496a3.547 3.547 0 0 1-1.408-1.424c-.341-.629-.512-1.376-.512-2.24 0-.864.17-1.605.512-2.224a3.527 3.527 0 0 1 1.408-1.44c.597-.331 1.285-.496 2.064-.496Zm0 1.344c-.48 0-.89.112-1.232.336-.33.213-.587.528-.768.944-.181.416-.272.928-.272 1.536 0 .597.09 1.109.272 1.536.181.416.437.736.768.96.341.213.752.32 1.232.32s.885-.107 1.216-.32c.33-.224.587-.544.768-.96.181-.427.272-.939.272-1.536 0-.608-.09-1.12-.272-1.536-.181-.416-.438-.731-.768-.944-.33-.224-.736-.336-1.216-.336ZM109.46 155h1.792l-3.184 8h-1.872l-3.2-8h1.872l2.272 6.512 2.32-6.512Zm7.592 2.864c0-.533-.149-.944-.448-1.232-.288-.299-.688-.448-1.2-.448-.48 0-.89.112-1.232.336-.341.224-.592.587-.752 1.088l-1.44-.608a2.884 2.884 0 0 1 1.184-1.568c.598-.395 1.366-.592 2.304-.592.64 0 1.206.107 1.696.32.491.203.875.512 1.152.928.288.416.432.949.432 1.6v3.568c0 .395.198.592.592.592.192 0 .379-.027.56-.08l-.096 1.184c-.245.117-.554.176-.928.176-.341 0-.65-.059-.928-.176a1.557 1.557 0 0 1-.64-.56c-.149-.256-.224-.571-.224-.944v-.112l.352-.016a1.993 1.993 0 0 1-.592 1.04 3.063 3.063 0 0 1-1.04.608 3.861 3.861 0 0 1-1.2.192 3.68 3.68 0 0 1-1.36-.24c-.394-.16-.709-.4-.944-.72-.224-.331-.336-.736-.336-1.216 0-.597.192-1.088.576-1.472.395-.384.95-.645 1.664-.784l3.104-.608-.016 1.2-2.256.464c-.448.085-.784.208-1.008.368-.224.16-.336.395-.336.704a.88.88 0 0 0 .336.72c.235.171.544.256.928.256.267 0 .523-.032.768-.096.256-.064.486-.165.688-.304.203-.149.358-.336.464-.56.118-.235.176-.512.176-.832v-2.176Zm6.069-6.464v9.36c0 .395.07.667.208.816.139.149.368.224.688.224.192 0 .352-.011.48-.032a4.27 4.27 0 0 0 .512-.16l-.192 1.28a2.541 2.541 0 0 1-.624.192 3.18 3.18 0 0 1-.704.08c-.714 0-1.242-.181-1.584-.544-.33-.373-.496-.944-.496-1.712V151.4h1.712Zm6.073 11.76a3.656 3.656 0 0 1-1.456-.288 2.325 2.325 0 0 1-1.056-.928c-.267-.427-.4-.981-.4-1.664V155h1.712v4.848c0 .725.154 1.227.464 1.504.309.267.741.4 1.296.4.266 0 .522-.043.768-.128a2.03 2.03 0 0 0 .688-.432c.202-.203.357-.459.464-.768.117-.309.176-.672.176-1.088V155h1.712v8h-1.504l-.08-1.296c-.278.501-.651.869-1.12 1.104-.47.235-1.024.352-1.664.352Zm10.466 0c-.8 0-1.504-.165-2.112-.496a3.524 3.524 0 0 1-1.424-1.424c-.33-.629-.496-1.376-.496-2.24 0-.864.166-1.605.496-2.224a3.534 3.534 0 0 1 1.408-1.44c.598-.331 1.275-.496 2.032-.496.779 0 1.44.16 1.984.48.544.32.96.757 1.248 1.312.288.555.432 1.184.432 1.888 0 .192-.005.373-.016.544-.01.171-.026.32-.048.448h-6.432V158.2h5.68l-.848.256c0-.725-.181-1.28-.544-1.664-.362-.395-.858-.592-1.488-.592-.458 0-.858.107-1.2.32-.341.213-.602.533-.784.96-.181.416-.272.928-.272 1.536 0 .597.096 1.104.288 1.52.192.416.464.731.816.944.352.213.768.32 1.248.32.534 0 .966-.101 1.296-.304a2.15 2.15 0 0 0 .784-.848l1.36.64c-.192.384-.453.72-.784 1.008-.32.277-.704.491-1.152.64a4.637 4.637 0 0 1-1.472.224Z"/><path fill="#FEFCFA" d="M52.48 228.936c-2.901 0-5.525-.363-7.872-1.088-2.304-.768-4.33-1.792-6.08-3.072-1.707-1.28-3.115-2.752-4.224-4.416l4.544-4.608a15.815 15.815 0 0 0 3.392 3.968c1.365 1.109 2.944 1.984 4.736 2.624 1.792.64 3.755.96 5.888.96 2.901 0 5.184-.491 6.848-1.472 1.707-1.024 2.56-2.539 2.56-4.544 0-1.152-.427-2.176-1.28-3.072-.853-.939-2.39-1.664-4.608-2.176l-9.344-2.176c-2.475-.555-4.523-1.323-6.144-2.304-1.579-.981-2.752-2.176-3.52-3.584-.768-1.451-1.152-3.029-1.152-4.736 0-2.347.619-4.459 1.856-6.336 1.28-1.877 3.115-3.371 5.504-4.48 2.39-1.152 5.27-1.728 8.64-1.728 3.627 0 6.805.683 9.536 2.048 2.73 1.365 4.992 3.413 6.784 6.144l-4.352 4.224c-1.579-2.432-3.37-4.181-5.376-5.248-2.005-1.067-4.395-1.6-7.168-1.6-2.048 0-3.733.277-5.056.832-1.28.512-2.24 1.237-2.88 2.176a5.054 5.054 0 0 0-.96 3.008c0 .896.17 1.707.512 2.432.384.725 1.067 1.365 2.048 1.92.981.555 2.368 1.024 4.16 1.408l8.32 1.856c3.968.896 6.784 2.219 8.448 3.968 1.664 1.749 2.496 3.989 2.496 6.72 0 2.517-.683 4.715-2.048 6.592-1.365 1.835-3.264 3.264-5.696 4.288-2.432.981-5.27 1.472-8.512 1.472Zm-2.688 6.208v-54.528h5.12v54.528h-5.12ZM84.796 229v-31.616c.042-.939.085-1.92.127-2.944a22.785 22.785 0 0 1-4.992 3.648 21.918 21.918 0 0 1-5.695 2.112l-1.28-5.952c.895-.128 1.94-.427 3.135-.896a29.277 29.277 0 0 0 3.713-1.792 31.27 31.27 0 0 0 3.52-2.304c1.066-.853 1.898-1.685 2.496-2.496h5.76V229h-6.784Zm32.47.64c-5.078 0-9.067-1.835-11.968-5.504-2.859-3.712-4.288-9.131-4.288-16.256s1.429-12.523 4.288-16.192c2.901-3.712 6.89-5.568 11.968-5.568 5.12 0 9.109 1.856 11.968 5.568 2.901 3.669 4.352 9.067 4.352 16.192s-1.451 12.544-4.352 16.256c-2.859 3.669-6.848 5.504-11.968 5.504Zm0-5.824c2.048 0 3.754-.576 5.12-1.728 1.408-1.195 2.453-2.965 3.136-5.312.725-2.389 1.088-5.355 1.088-8.896 0-3.541-.363-6.485-1.088-8.832-.683-2.389-1.728-4.16-3.136-5.312-1.366-1.195-3.072-1.792-5.12-1.792s-3.776.597-5.184 1.792c-1.366 1.152-2.39 2.923-3.072 5.312-.683 2.347-1.024 5.291-1.024 8.832 0 3.541.341 6.507 1.024 8.896.682 2.347 1.706 4.117 3.072 5.312 1.408 1.152 3.136 1.728 5.184 1.728Zm27.099-3.456c1.194 0 2.176.299 2.944.896.81.555 1.429 1.344 1.856 2.368.426.981.64 2.112.64 3.392 0 1.579-.299 3.093-.896 4.544a12.439 12.439 0 0 1-2.624 4.032c-1.11 1.237-2.454 2.24-4.032 3.008l-3.201-2.752a11.784 11.784 0 0 0 3.072-1.664 10.403 10.403 0 0 0 2.241-2.304c.64-.853 1.088-1.728 1.343-2.624l-.255-.128a3.2 3.2 0 0 1-.769.32c-.256.085-.64.128-1.152.128-.597 0-1.216-.171-1.856-.512-.597-.299-1.109-.768-1.536-1.408-.426-.64-.64-1.472-.64-2.496 0-.939.214-1.771.64-2.496a4.787 4.787 0 0 1 1.792-1.664c.726-.427 1.536-.64 2.433-.64ZM175.7 229v-10.56h-20.608v-4.672c.086-.213.214-.469.384-.768.214-.299.448-.64.704-1.024l17.6-25.216h8.384v26.368h7.169v5.312h-7.169V229H175.7Zm-14.208-15.872H175.7v-14.912c0-1.024.022-2.069.064-3.136.086-1.109.15-2.197.192-3.264h-.128c-.469 1.024-1.088 2.155-1.856 3.392a50.49 50.49 0 0 1-2.048 3.136l-9.984 14.208-.256.256a2.935 2.935 0 0 1-.192.32Zm29.458-26.368h32.192v5.696c-3.542 3.669-6.4 7.445-8.576 11.328-2.176 3.84-3.755 7.851-4.736 12.032-.939 4.139-1.408 8.533-1.408 13.184h-6.912c0-4.693.576-9.259 1.728-13.696a50.904 50.904 0 0 1 5.376-12.8c2.432-4.096 5.482-7.936 9.152-11.52l1.28 1.728H190.95v-5.952Zm53.677-.64c2.261 0 4.267.32 6.016.96a11.324 11.324 0 0 1 4.544 2.88c1.323 1.323 2.411 3.051 3.264 5.184l-6.016 2.88c-.597-1.835-1.557-3.285-2.88-4.352-1.28-1.067-3.072-1.6-5.376-1.6-1.664 0-3.136.405-4.416 1.216-1.28.811-2.368 1.963-3.264 3.456-.896 1.451-1.579 3.179-2.048 5.184-.469 1.963-.704 4.096-.704 6.4v1.152l.256.128c.469-1.707 1.301-3.072 2.496-4.096a12.237 12.237 0 0 1 4.16-2.368c1.536-.512 3.051-.768 4.544-.768 2.816 0 5.269.555 7.36 1.664 2.091 1.067 3.712 2.603 4.864 4.608 1.195 2.005 1.792 4.395 1.792 7.168 0 2.816-.619 5.269-1.856 7.36-1.237 2.048-2.965 3.648-5.184 4.8-2.176 1.109-4.8 1.664-7.872 1.664-3.584 0-6.635-.896-9.152-2.688-2.517-1.792-4.437-4.309-5.76-7.552-1.323-3.243-1.984-7.04-1.984-11.392 0-4.821.747-8.853 2.24-12.096 1.536-3.243 3.605-5.675 6.208-7.296 2.603-1.664 5.525-2.496 8.768-2.496Zm-.448 21.952c-1.621 0-3.051.341-4.288 1.024a7.46 7.46 0 0 0-2.944 2.688c-.683 1.152-1.024 2.496-1.024 4.032 0 1.493.363 2.837 1.088 4.032a8.833 8.833 0 0 0 3.008 2.88c1.237.683 2.624 1.024 4.16 1.024 2.603 0 4.629-.704 6.08-2.112 1.451-1.408 2.176-3.349 2.176-5.824 0-1.579-.32-2.944-.96-4.096a6.138 6.138 0 0 0-2.816-2.688c-1.195-.64-2.688-.96-4.48-.96ZM265.74 223.3c.453 0 .813.133 1.08.4.28.253.42.6.42 1.04 0 .44-.14.793-.42 1.06-.267.267-.627.4-1.08.4-.467 0-.84-.133-1.12-.4-.267-.267-.4-.62-.4-1.06 0-.44.133-.787.4-1.04.28-.267.653-.4 1.12-.4Zm9.893 2.7v-3.3h-6.44v-1.46c.026-.067.066-.147.12-.24.066-.093.14-.2.22-.32l5.5-7.88h2.62v8.24h2.24v1.66h-2.24v3.3h-2.02Zm-4.44-4.96h4.44v-4.66c0-.32.006-.647.02-.98.026-.347.046-.687.06-1.02h-.04c-.147.32-.34.673-.58 1.06-.227.373-.44.7-.64.98l-3.12 4.44-.081.08a.967.967 0 0 1-.059.1Zm15.761-8.42c.893 0 1.667.147 2.32.44.667.28 1.18.68 1.54 1.2.36.52.54 1.147.54 1.88 0 .68-.167 1.28-.5 1.8-.32.507-.793.893-1.42 1.16v.02c.76.28 1.36.7 1.8 1.26.453.547.68 1.227.68 2.04 0 .787-.207 1.46-.62 2.02-.4.56-.973.993-1.72 1.3-.733.307-1.607.46-2.62.46-1.013 0-1.893-.153-2.64-.46-.733-.307-1.307-.74-1.72-1.3-.413-.56-.62-1.233-.62-2.02 0-.8.22-1.48.66-2.04.44-.56 1.053-.98 1.84-1.26v-.02a3.167 3.167 0 0 1-1.42-1.14c-.347-.52-.52-1.127-.52-1.82 0-.733.18-1.36.54-1.88.36-.52.873-.92 1.54-1.2.667-.293 1.447-.44 2.34-.44Zm0 1.8c-.707 0-1.273.173-1.7.52-.413.347-.62.82-.62 1.42s.213 1.073.64 1.42c.427.333.987.5 1.68.5s1.247-.167 1.66-.5c.427-.347.64-.82.64-1.42s-.207-1.073-.62-1.42c-.413-.347-.973-.52-1.68-.52Zm0 9.98c.587 0 1.087-.087 1.5-.26.413-.173.733-.427.96-.76.227-.333.34-.72.34-1.16 0-.467-.12-.86-.36-1.18a2.118 2.118 0 0 0-.96-.76c-.413-.173-.907-.26-1.48-.26-.56 0-1.053.087-1.48.26a2.23 2.23 0 0 0-1 .76c-.227.32-.34.713-.34 1.18 0 .44.113.827.34 1.16.227.333.553.587.98.76.427.173.927.26 1.5.26Z"/><path fill="#A3DBE4" d="M37.584 252.848v8.096h-1.488v-8.096h1.488Zm3.184 3.328v1.424h-7.872v-1.424h7.872ZM42.446 262v-1.248a52.97 52.97 0 0 0 2.544-1.92c.693-.555 1.248-1.067 1.664-1.536.416-.469.714-.912.896-1.328.192-.427.288-.859.288-1.296 0-.565-.176-1.024-.528-1.376-.352-.352-.843-.528-1.472-.528-.662 0-1.19.224-1.584.672-.384.437-.603 1.04-.656 1.808l-1.488-.688c.075-.672.272-1.253.592-1.744.32-.491.752-.869 1.296-1.136.555-.267 1.195-.4 1.92-.4.597 0 1.12.085 1.568.256.459.171.843.411 1.152.72.31.299.544.651.704 1.056.17.405.256.837.256 1.296 0 .672-.166 1.323-.496 1.952-.33.619-.853 1.253-1.568 1.904-.715.651-1.654 1.349-2.816 2.096v.032c.128-.021.304-.032.528-.032.224-.011.448-.016.672-.016.224-.011.405-.016.544-.016h3.328V262h-7.344Zm12.767.16c-.94 0-1.712-.203-2.32-.608-.598-.405-1.072-.992-1.425-1.76l1.6-.832c.16.512.4.933.72 1.264.331.32.817.48 1.457.48.448 0 .826-.08 1.136-.24.32-.171.565-.405.736-.704.17-.309.256-.677.256-1.104 0-.448-.08-.821-.24-1.12a1.548 1.548 0 0 0-.689-.672c-.298-.16-.672-.24-1.12-.24-.309 0-.597.032-.863.096a2.282 2.282 0 0 0-.72.304c-.214.128-.4.299-.56.512l-1.408-.272.64-5.824h6.144v1.472h-4.785l-.383 2.976-.033.176h.032a2.47 2.47 0 0 1 .945-.624c.394-.149.858-.224 1.392-.224.682 0 1.269.144 1.76.432.49.277.874.667 1.151 1.168.278.501.416 1.083.416 1.744 0 .576-.096 1.088-.288 1.536a3.13 3.13 0 0 1-.816 1.136 3.613 3.613 0 0 1-1.231.704c-.46.149-.96.224-1.505.224Zm10.48-.16v-2.64h-5.152v-1.168c.021-.053.053-.117.096-.192.053-.075.112-.16.176-.256l4.4-6.304h2.096v6.592h1.792v1.328h-1.792V262h-1.616Zm-3.552-3.968h3.552v-3.728c0-.256.005-.517.016-.784.021-.277.037-.549.048-.816h-.032a7.745 7.745 0 0 1-.464.848c-.181.299-.352.56-.512.784l-2.496 3.552-.064.064a.834.834 0 0 1-.048.08Zm9.605 1.808c.362 0 .65.107.864.32.224.203.335.48.335.832s-.111.635-.335.848c-.214.213-.502.32-.864.32-.374 0-.672-.107-.896-.32-.214-.213-.32-.496-.32-.848s.106-.629.32-.832c.224-.213.522-.32.896-.32Zm6.678 2.32c-.938 0-1.712-.203-2.32-.608-.597-.405-1.072-.992-1.424-1.76l1.6-.832c.16.512.4.933.72 1.264.331.32.817.48 1.457.48.448 0 .826-.08 1.136-.24.32-.171.565-.405.736-.704.17-.309.256-.677.256-1.104 0-.448-.08-.821-.24-1.12a1.548 1.548 0 0 0-.689-.672c-.298-.16-.672-.24-1.12-.24-.309 0-.597.032-.864.096a2.282 2.282 0 0 0-.72.304c-.213.128-.4.299-.56.512l-1.407-.272.64-5.824h6.144v1.472h-4.785l-.383 2.976-.032.176h.031a2.47 2.47 0 0 1 .945-.624c.394-.149.858-.224 1.391-.224.683 0 1.27.144 1.76.432.491.277.875.667 1.153 1.168.277.501.415 1.083.415 1.744 0 .576-.096 1.088-.287 1.536a3.13 3.13 0 0 1-.817 1.136 3.613 3.613 0 0 1-1.231.704c-.46.149-.96.224-1.505.224Zm9.585-10.864c.715 0 1.333.117 1.856.352.533.224.944.544 1.232.96.288.416.432.917.432 1.504 0 .544-.133 1.024-.4 1.44-.256.405-.635.715-1.136.928v.016c.608.224 1.088.56 1.44 1.008.363.437.544.981.544 1.632 0 .629-.165 1.168-.496 1.616-.32.448-.779.795-1.376 1.04-.587.245-1.285.368-2.096.368-.81 0-1.515-.123-2.112-.368-.587-.245-1.045-.592-1.376-1.04-.33-.448-.496-.987-.496-1.616 0-.64.176-1.184.528-1.632.352-.448.843-.784 1.472-1.008v-.016a2.54 2.54 0 0 1-1.136-.912c-.277-.416-.416-.901-.416-1.456 0-.587.144-1.088.432-1.504.288-.416.699-.736 1.232-.96.533-.235 1.157-.352 1.872-.352Zm0 1.44c-.565 0-1.019.139-1.36.416-.33.277-.496.656-.496 1.136 0 .48.17.859.512 1.136.341.267.79.4 1.344.4.555 0 .997-.133 1.328-.4.341-.277.512-.656.512-1.136 0-.48-.165-.859-.496-1.136-.33-.277-.779-.416-1.344-.416Zm0 7.984c.47 0 .87-.069 1.2-.208.33-.139.587-.341.768-.608.181-.267.272-.576.272-.928 0-.373-.096-.688-.288-.944a1.691 1.691 0 0 0-.768-.608c-.33-.139-.725-.208-1.184-.208-.448 0-.843.069-1.184.208a1.785 1.785 0 0 0-.8.608c-.181.256-.272.571-.272.944 0 .352.09.661.272.928.181.267.443.469.784.608s.741.208 1.2.208Zm14.485-10.672.896.896a8.441 8.441 0 0 0-1.616 1.936 7.741 7.741 0 0 0-.88 2.176 10.732 10.732 0 0 0-.272 2.496c0 .885.091 1.717.272 2.496.182.768.475 1.488.88 2.16.406.672.944 1.317 1.616 1.936l-.896.896c-1.162-.939-2.042-2.032-2.64-3.28-.586-1.259-.88-2.661-.88-4.208 0-1.557.294-2.965.88-4.224.598-1.259 1.478-2.352 2.64-3.28Zm2.09 11.952v-1.248a53.275 53.275 0 0 0 2.544-1.92c.693-.555 1.248-1.067 1.664-1.536.416-.469.715-.912.896-1.328.192-.427.288-.859.288-1.296 0-.565-.176-1.024-.528-1.376-.352-.352-.843-.528-1.472-.528-.661 0-1.189.224-1.584.672-.384.437-.603 1.04-.656 1.808l-1.488-.688c.075-.672.272-1.253.592-1.744.32-.491.752-.869 1.296-1.136.555-.267 1.195-.4 1.92-.4.597 0 1.12.085 1.568.256.459.171.843.411 1.152.72.309.299.544.651.704 1.056.171.405.256.837.256 1.296 0 .672-.165 1.323-.496 1.952-.331.619-.853 1.253-1.568 1.904-.715.651-1.653 1.349-2.816 2.096v.032c.128-.021.304-.032.528-.032.224-.011.448-.016.672-.016.224-.011.405-.016.544-.016h3.328V262h-7.344Zm13.64 0v-2.64h-5.152v-1.168c.021-.053.053-.117.096-.192.053-.075.112-.16.176-.256l4.4-6.304h2.096v6.592h1.792v1.328h-1.792V262h-1.616Zm-3.552-3.968h3.552v-3.728c0-.256.005-.517.016-.784.021-.277.037-.549.048-.816h-.032a7.694 7.694 0 0 1-.464.848c-.181.299-.352.56-.512.784l-2.496 3.552-.064.064a.982.982 0 0 1-.048.08Zm8.881 3.968v-11.6h1.712v4.88c.267-.501.624-.864 1.072-1.088a3.287 3.287 0 0 1 1.52-.352 3.35 3.35 0 0 1 1.52.336c.459.213.822.539 1.088.976.267.437.4.992.4 1.664V262h-1.712v-4.64c0-.789-.165-1.339-.496-1.648-.32-.309-.725-.464-1.216-.464-.341 0-.682.085-1.024.256-.33.16-.608.427-.832.8-.213.363-.32.853-.32 1.472V262h-1.712Zm9.184 3.04-.896-.896c.683-.619 1.221-1.264 1.616-1.936a7.488 7.488 0 0 0 .88-2.16c.181-.779.272-1.611.272-2.496 0-.907-.091-1.739-.272-2.496a7.712 7.712 0 0 0-.88-2.176c-.395-.683-.933-1.328-1.616-1.936l.896-.896c1.163.928 2.037 2.021 2.624 3.28.597 1.259.896 2.667.896 4.224 0 1.547-.299 2.949-.896 4.208-.587 1.248-1.461 2.341-2.624 3.28Z"/><rect width="140" height="48" x="188" y="276" fill="#F6C177" rx="24"/><path fill="#25233A" d="M233.969 294.44c1.194 0 2.133.288 2.816.864.682.576 1.024 1.349 1.024 2.32 0 1.035-.342 1.829-1.024 2.384-.683.544-1.616.816-2.8.816l-.224.128h-2.272V305h-2.176v-10.56h4.656Zm-.256 4.832c.618 0 1.077-.123 1.376-.368.309-.256.464-.645.464-1.168 0-.523-.155-.907-.464-1.152-.299-.256-.758-.384-1.376-.384h-2.224v3.072h2.224Zm1.296.464 3.424 5.264h-2.48l-2.832-4.624 1.888-.64Zm8.415 5.424c-.843 0-1.579-.165-2.208-.496a3.49 3.49 0 0 1-1.44-1.424c-.342-.619-.512-1.365-.512-2.24 0-.875.17-1.621.512-2.24a3.518 3.518 0 0 1 1.424-1.424c.618-.331 1.322-.496 2.112-.496.81 0 1.498.165 2.064.496.565.32.997.763 1.296 1.328.298.555.448 1.189.448 1.904 0 .213-.006.416-.016.608a6.289 6.289 0 0 1-.048.512h-6.384v-1.52h5.424l-1.056.384c0-.672-.155-1.189-.464-1.552-.299-.363-.726-.544-1.28-.544-.406 0-.758.096-1.056.288-.288.192-.507.48-.656.864-.15.373-.224.848-.224 1.424 0 .565.08 1.035.24 1.408.17.363.405.635.704.816.309.181.677.272 1.104.272.469 0 .848-.091 1.136-.272.288-.181.512-.432.672-.752l1.744.672a2.773 2.773 0 0 1-.784 1.072 3.551 3.551 0 0 1-1.232.688 5 5 0 0 1-1.52.224Zm9.089-8.32c.715 0 1.318.107 1.808.32.502.203.902.485 1.2.848.31.352.528.747.656 1.184l-2.048.736c-.106-.48-.288-.843-.544-1.088-.256-.245-.602-.368-1.04-.368-.405 0-.752.096-1.04.288-.288.181-.506.464-.656.848-.149.373-.224.843-.224 1.408s.075 1.035.224 1.408c.16.373.384.651.672.832a1.97 1.97 0 0 0 1.04.272c.32 0 .592-.053.816-.16.224-.117.406-.283.544-.496.15-.213.251-.469.304-.768l1.984.64c-.117.48-.336.901-.656 1.264s-.73.645-1.232.848c-.501.203-1.082.304-1.744.304-.821 0-1.546-.165-2.176-.496a3.477 3.477 0 0 1-1.456-1.424c-.341-.619-.512-1.365-.512-2.24 0-.875.171-1.621.512-2.24a3.502 3.502 0 0 1 1.44-1.424c.619-.331 1.328-.496 2.128-.496Zm9.015 8.32c-.842 0-1.578-.165-2.208-.496a3.502 3.502 0 0 1-1.44-1.424c-.341-.619-.512-1.365-.512-2.24 0-.875.171-1.621.512-2.24a3.524 3.524 0 0 1 1.424-1.424c.619-.331 1.323-.496 2.112-.496.811 0 1.499.165 2.064.496.566.32.998.763 1.296 1.328.299.555.448 1.189.448 1.904 0 .213-.005.416-.016.608-.01.192-.026.363-.048.512h-6.384v-1.52h5.424l-1.056.384c0-.672-.154-1.189-.464-1.552-.298-.363-.725-.544-1.28-.544-.405 0-.757.096-1.056.288-.288.192-.506.48-.656.864-.149.373-.224.848-.224 1.424 0 .565.08 1.035.24 1.408.171.363.406.635.704.816.31.181.678.272 1.104.272.47 0 .848-.091 1.136-.272.288-.181.512-.432.672-.752l1.744.672c-.17.416-.432.773-.784 1.072a3.542 3.542 0 0 1-1.232.688 4.996 4.996 0 0 1-1.52.224Zm6.562-9.312c-.459 0-.8-.096-1.024-.288-.224-.203-.336-.496-.336-.88 0-.395.112-.688.336-.88.224-.203.565-.304 1.024-.304.459 0 .8.101 1.024.304.224.192.336.485.336.88 0 .384-.112.677-.336.88-.224.192-.565.288-1.024.288Zm1.088 1.152v8h-2.192v-8h2.192Zm7.476 0h2.272l-3.04 8h-2.528l-3.04-8h2.336l1.984 6.32 2.016-6.32Zm7.008 8.16c-.842 0-1.578-.165-2.208-.496a3.502 3.502 0 0 1-1.44-1.424c-.341-.619-.512-1.365-.512-2.24 0-.875.171-1.621.512-2.24a3.524 3.524 0 0 1 1.424-1.424c.619-.331 1.323-.496 2.112-.496.811 0 1.499.165 2.064.496.566.32.998.763 1.296 1.328.299.555.448 1.189.448 1.904 0 .213-.005.416-.016.608-.01.192-.026.363-.048.512h-6.384v-1.52h5.424l-1.056.384c0-.672-.154-1.189-.464-1.552-.298-.363-.725-.544-1.28-.544-.405 0-.757.096-1.056.288-.288.192-.506.48-.656.864-.149.373-.224.848-.224 1.424 0 .565.08 1.035.24 1.408.171.363.406.635.704.816.31.181.678.272 1.104.272.47 0 .848-.091 1.136-.272.288-.181.512-.432.672-.752l1.744.672c-.17.416-.432.773-.784 1.072a3.542 3.542 0 0 1-1.232.688 4.996 4.996 0 0 1-1.52.224Z"/><rect width="140" height="48" x="32" y="276" fill="#F6C177" rx="24"/><path fill="#25233A" d="M87.626 294.28c.96 0 1.803.165 2.528.496a4.952 4.952 0 0 1 1.856 1.472l-1.232 1.424c-.437-.555-.917-.96-1.44-1.216-.512-.267-1.109-.4-1.792-.4-.448 0-.82.059-1.12.176-.288.117-.5.272-.64.464a1.128 1.128 0 0 0-.192.64c0 .288.112.533.336.736.224.192.608.352 1.152.48l1.968.448c1.046.235 1.792.587 2.24 1.056.46.459.688 1.056.688 1.792 0 .693-.18 1.291-.544 1.792-.362.491-.869.869-1.52 1.136-.65.256-1.397.384-2.24.384a7.611 7.611 0 0 1-2.032-.256 6.338 6.338 0 0 1-1.632-.736 4.874 4.874 0 0 1-1.2-1.072l1.248-1.488c.246.341.55.645.912.912.363.267.774.48 1.232.64.47.149.96.224 1.472.224.438 0 .806-.048 1.104-.144.31-.107.54-.251.688-.432.16-.192.24-.421.24-.688a.958.958 0 0 0-.288-.704c-.18-.203-.522-.357-1.024-.464l-2.144-.48a6.95 6.95 0 0 1-1.6-.576 2.745 2.745 0 0 1-1.008-.928c-.224-.384-.336-.837-.336-1.36 0-.629.171-1.195.512-1.696.342-.501.832-.896 1.472-1.184.651-.299 1.43-.448 2.336-.448Zm9.833 10.88c-.842 0-1.578-.165-2.208-.496a3.494 3.494 0 0 1-1.44-1.424c-.341-.619-.512-1.365-.512-2.24 0-.875.17-1.621.512-2.24a3.52 3.52 0 0 1 1.424-1.424c.619-.331 1.323-.496 2.112-.496.81 0 1.499.165 2.064.496.566.32.998.763 1.296 1.328.299.555.448 1.189.448 1.904 0 .213-.005.416-.016.608-.01.192-.026.363-.048.512h-6.384v-1.52h5.424l-1.056.384c0-.672-.154-1.189-.464-1.552-.298-.363-.725-.544-1.28-.544a1.91 1.91 0 0 0-1.056.288c-.288.192-.506.48-.656.864-.15.373-.224.848-.224 1.424 0 .565.08 1.035.24 1.408.17.363.406.635.704.816.31.181.678.272 1.104.272.47 0 .848-.091 1.136-.272.288-.181.512-.432.672-.752l1.744.672c-.17.416-.432.773-.784 1.072a3.542 3.542 0 0 1-1.232.688c-.47.149-.976.224-1.52.224Zm5.458-.16v-8h1.968l.128 2.4-.272-.256c.128-.523.331-.955.608-1.296a2.485 2.485 0 0 1 1.008-.752 3.38 3.38 0 0 1 1.328-.256c.555 0 1.045.107 1.472.32a2.32 2.32 0 0 1 1.024.976c.256.427.384.965.384 1.616V305h-2.192v-4.624c0-.683-.133-1.152-.4-1.408-.267-.267-.613-.4-1.04-.4-.299 0-.592.075-.88.224-.277.139-.507.368-.688.688-.171.32-.256.747-.256 1.28V305h-2.192Zm12.834.16a3.25 3.25 0 0 1-1.776-.496c-.512-.331-.917-.805-1.216-1.424-.288-.619-.432-1.36-.432-2.224 0-.885.155-1.637.464-2.256.309-.629.725-1.104 1.248-1.424a3.329 3.329 0 0 1 1.792-.496c.704 0 1.285.203 1.744.608.459.405.757.928.896 1.568l-.208.256v-5.776h2.192V305h-1.968l-.144-2.432.272.128a2.974 2.974 0 0 1-.512 1.312 2.777 2.777 0 0 1-1.008.848 2.956 2.956 0 0 1-1.344.304Zm.64-1.68c.384 0 .715-.096.992-.288.277-.203.491-.496.64-.88.16-.384.24-.843.24-1.376 0-.512-.075-.944-.224-1.296-.149-.363-.363-.64-.64-.832a1.672 1.672 0 0 0-.976-.288c-.597 0-1.067.213-1.408.64-.331.416-.496 1.029-.496 1.84 0 .811.165 1.429.496 1.856.331.416.789.624 1.376.624Z"/><path fill="#A3DBE4" d="M37.872 369.44c1.13 0 2.027.283 2.688.848.672.565 1.008 1.328 1.008 2.288 0 .992-.336 1.76-1.008 2.304-.661.533-1.557.8-2.688.8l-.16.096h-2.448V380h-1.696v-10.56h4.304Zm-.128 4.912c.693 0 1.205-.139 1.536-.416.341-.288.512-.725.512-1.312 0-.576-.17-1.008-.512-1.296-.33-.288-.843-.432-1.536-.432h-2.48v3.456h2.48Zm1.008.352 3.44 5.296h-1.968l-2.944-4.624 1.472-.672Zm8.531 5.456c-.8 0-1.504-.165-2.112-.496a3.52 3.52 0 0 1-1.424-1.424c-.33-.629-.496-1.376-.496-2.24 0-.864.166-1.605.496-2.224a3.527 3.527 0 0 1 1.408-1.44c.598-.331 1.275-.496 2.032-.496.779 0 1.44.16 1.984.48.544.32.96.757 1.248 1.312.288.555.432 1.184.432 1.888a8.8 8.8 0 0 1-.016.544c-.01.171-.026.32-.048.448h-6.432V375.2h5.68l-.848.256c0-.725-.181-1.28-.544-1.664-.362-.395-.858-.592-1.488-.592-.458 0-.858.107-1.2.32-.341.213-.602.533-.784.96-.181.416-.272.928-.272 1.536 0 .597.096 1.104.288 1.52.192.416.464.731.816.944.352.213.768.32 1.248.32.534 0 .966-.101 1.296-.304.33-.203.592-.485.784-.848l1.36.64a3.26 3.26 0 0 1-.784 1.008c-.32.277-.704.491-1.152.64a4.64 4.64 0 0 1-1.472.224Zm9.09-8.32c.64 0 1.184.096 1.632.288.459.181.843.443 1.152.784.31.341.544.731.704 1.168l-1.616.64c-.138-.491-.362-.864-.672-1.12-.298-.267-.693-.4-1.184-.4-.48 0-.89.112-1.232.336-.341.213-.602.528-.784.944-.17.416-.256.928-.256 1.536 0 .597.09 1.104.272 1.52.182.416.443.731.784.944.342.213.747.32 1.216.32.363 0 .678-.059.944-.176.267-.128.486-.304.656-.528.182-.235.304-.517.368-.848l1.552.528c-.15.48-.384.901-.704 1.264a3.24 3.24 0 0 1-1.168.832c-.47.192-1.008.288-1.616.288-.79 0-1.488-.165-2.096-.496a3.52 3.52 0 0 1-1.424-1.424c-.33-.629-.496-1.376-.496-2.24 0-.864.166-1.605.496-2.224a3.527 3.527 0 0 1 1.408-1.44c.608-.331 1.296-.496 2.064-.496Zm8.953 8.32c-.8 0-1.504-.165-2.112-.496a3.52 3.52 0 0 1-1.424-1.424c-.331-.629-.496-1.376-.496-2.24 0-.864.165-1.605.496-2.224a3.528 3.528 0 0 1 1.408-1.44c.597-.331 1.274-.496 2.032-.496.778 0 1.44.16 1.984.48.544.32.96.757 1.248 1.312.288.555.432 1.184.432 1.888 0 .192-.006.373-.016.544-.011.171-.027.32-.048.448h-6.432V375.2h5.68l-.848.256c0-.725-.182-1.28-.544-1.664-.363-.395-.859-.592-1.488-.592-.459 0-.859.107-1.2.32-.342.213-.603.533-.784.96-.182.416-.272.928-.272 1.536 0 .597.096 1.104.288 1.52.192.416.464.731.816.944.352.213.768.32 1.248.32.533 0 .965-.101 1.296-.304.33-.203.592-.485.784-.848l1.36.64c-.192.384-.454.72-.784 1.008-.32.277-.704.491-1.152.64a4.64 4.64 0 0 1-1.472.224Zm5.634-.16v-8h1.52l.112 2.08-.224-.224c.149-.459.362-.837.64-1.136a2.549 2.549 0 0 1 1.008-.672 3.73 3.73 0 0 1 1.248-.208c.565 0 1.072.112 1.52.336a2.47 2.47 0 0 1 1.088.976c.266.437.4.992.4 1.664V380H76.56v-4.656c0-.789-.166-1.333-.496-1.632-.32-.309-.726-.464-1.216-.464-.352 0-.694.085-1.024.256-.331.16-.608.421-.832.784-.214.363-.32.848-.32 1.456V380H70.96Zm12.052-10.352v7.952c0 .395.102.683.304.864.213.181.496.272.848.272.288 0 .539-.043.752-.128.213-.096.41-.224.592-.384l.384 1.248a2.79 2.79 0 0 1-.912.512 3.74 3.74 0 0 1-1.184.176c-.459 0-.88-.075-1.264-.224a1.817 1.817 0 0 1-.896-.72c-.213-.341-.325-.784-.336-1.328v-7.76l1.712-.48ZM85.764 372v1.344h-6V372h6Z"/><path fill="#FEFCFA" d="M46.136 396.16v2.208h-5.424V412h-2.568v-13.632H32.72v-2.208h13.416ZM47.09 412v-12h2.184l.24 2.16c.32-.784.792-1.376 1.416-1.776.64-.416 1.424-.624 2.352-.624.24 0 .48.024.72.072.24.032.44.088.6.168l-.36 2.256a3 3 0 0 0-.6-.144 4.037 4.037 0 0 0-.864-.072c-.496 0-.984.136-1.464.408-.48.256-.88.648-1.2 1.176-.304.528-.456 1.2-.456 2.016V412H47.09Zm16.472-7.704c0-.8-.224-1.416-.672-1.848-.432-.448-1.032-.672-1.8-.672-.72 0-1.336.168-1.848.504-.512.336-.888.88-1.128 1.632l-2.16-.912c.304-.976.896-1.76 1.776-2.352.896-.592 2.048-.888 3.456-.888.96 0 1.808.16 2.544.48.736.304 1.312.768 1.728 1.392.432.624.648 1.424.648 2.4v5.352c0 .592.296.888.888.888.288 0 .568-.04.84-.12l-.144 1.776c-.368.176-.832.264-1.392.264-.512 0-.976-.088-1.392-.264-.4-.192-.72-.472-.96-.84-.224-.384-.336-.856-.336-1.416v-.168l.528-.024a2.994 2.994 0 0 1-.888 1.56 4.61 4.61 0 0 1-1.56.912 5.801 5.801 0 0 1-1.8.288c-.752 0-1.432-.12-2.04-.36a3.205 3.205 0 0 1-1.416-1.08c-.336-.496-.504-1.104-.504-1.824 0-.896.288-1.632.864-2.208.592-.576 1.424-.968 2.496-1.176l4.656-.912-.024 1.8-3.384.696c-.672.128-1.176.312-1.512.552-.336.24-.504.592-.504 1.056 0 .448.168.808.504 1.08.352.256.816.384 1.392.384.4 0 .784-.048 1.152-.144a3.172 3.172 0 0 0 1.032-.456 2.21 2.21 0 0 0 .696-.84c.176-.352.264-.768.264-1.248v-3.264ZM70.169 412v-12h2.28l.168 3.12-.336-.336c.224-.688.544-1.256.96-1.704.432-.464.936-.8 1.512-1.008a5.606 5.606 0 0 1 1.872-.312c.848 0 1.608.168 2.28.504.688.32 1.232.808 1.632 1.464.4.656.6 1.488.6 2.496V412H78.57v-6.984c0-1.184-.248-2-.744-2.448-.48-.464-1.088-.696-1.824-.696a3.31 3.31 0 0 0-1.536.384c-.496.24-.912.632-1.248 1.176-.32.544-.48 1.272-.48 2.184V412H70.17Zm19.276.24c-1.2 0-2.296-.232-3.288-.696-.992-.464-1.776-1.12-2.352-1.968l1.776-1.536a4.103 4.103 0 0 0 1.512 1.584c.672.384 1.472.576 2.4.576.736 0 1.32-.128 1.752-.384.432-.256.648-.616.648-1.08 0-.304-.104-.568-.312-.792-.192-.24-.568-.424-1.128-.552l-2.52-.528c-1.28-.256-2.192-.664-2.736-1.224-.544-.576-.816-1.304-.816-2.184 0-.656.192-1.264.576-1.824.384-.56.944-1.008 1.68-1.344.752-.352 1.648-.528 2.688-.528 1.2 0 2.224.216 3.072.648.848.416 1.496 1.016 1.944 1.8l-1.776 1.488c-.304-.64-.752-1.112-1.344-1.416a3.836 3.836 0 0 0-1.848-.48c-.512 0-.952.064-1.32.192-.368.128-.648.304-.84.528a1.179 1.179 0 0 0-.288.792c0 .32.12.6.36.84s.672.424 1.296.552l2.736.576c1.152.224 1.96.608 2.424 1.152.48.528.72 1.176.72 1.944s-.2 1.448-.6 2.04c-.4.576-.976 1.024-1.728 1.344-.752.32-1.648.48-2.688.48Zm14.935-7.944c0-.8-.224-1.416-.672-1.848-.432-.448-1.032-.672-1.8-.672-.72 0-1.336.168-1.848.504-.512.336-.888.88-1.128 1.632l-2.16-.912c.304-.976.896-1.76 1.776-2.352.896-.592 2.048-.888 3.456-.888.96 0 1.808.16 2.544.48.736.304 1.312.768 1.728 1.392.432.624.648 1.424.648 2.4v5.352c0 .592.296.888.888.888.288 0 .568-.04.84-.12l-.144 1.776c-.368.176-.832.264-1.392.264-.512 0-.976-.088-1.392-.264-.4-.192-.72-.472-.96-.84-.224-.384-.336-.856-.336-1.416v-.168l.528-.024a2.994 2.994 0 0 1-.888 1.56 4.61 4.61 0 0 1-1.56.912 5.801 5.801 0 0 1-1.8.288c-.752 0-1.432-.12-2.04-.36a3.205 3.205 0 0 1-1.416-1.08c-.336-.496-.504-1.104-.504-1.824 0-.896.288-1.632.864-2.208.592-.576 1.424-.968 2.496-1.176l4.656-.912-.024 1.8-3.384.696c-.672.128-1.176.312-1.512.552-.336.24-.504.592-.504 1.056 0 .448.168.808.504 1.08.352.256.816.384 1.392.384.4 0 .784-.048 1.152-.144a3.172 3.172 0 0 0 1.032-.456 2.21 2.21 0 0 0 .696-.84c.176-.352.264-.768.264-1.248v-3.264Zm11.768-4.536c.96 0 1.776.144 2.448.432a4.548 4.548 0 0 1 1.728 1.176 5.29 5.29 0 0 1 1.056 1.752l-2.424.96c-.208-.736-.544-1.296-1.008-1.68-.448-.4-1.04-.6-1.776-.6-.72 0-1.336.168-1.848.504-.512.32-.904.792-1.176 1.416-.256.624-.384 1.392-.384 2.304 0 .896.136 1.656.408 2.28.272.624.664 1.096 1.176 1.416.512.32 1.12.48 1.824.48.544 0 1.016-.088 1.416-.264.4-.192.728-.456.984-.792.272-.352.456-.776.552-1.272l2.328.792a5.134 5.134 0 0 1-1.056 1.896 4.852 4.852 0 0 1-1.752 1.248c-.704.288-1.512.432-2.424.432-1.184 0-2.232-.248-3.144-.744a5.28 5.28 0 0 1-2.136-2.136c-.496-.944-.744-2.064-.744-3.36 0-1.296.248-2.408.744-3.336.512-.944 1.216-1.664 2.112-2.16.912-.496 1.944-.744 3.096-.744Zm11.652-3.288V408.4c0 .592.152 1.024.456 1.296.32.272.744.408 1.272.408.432 0 .808-.064 1.128-.192a3.52 3.52 0 0 0 .888-.576l.576 1.872c-.368.32-.824.576-1.368.768a5.597 5.597 0 0 1-1.776.264c-.688 0-1.32-.112-1.896-.336a2.73 2.73 0 0 1-1.344-1.08c-.32-.512-.488-1.176-.504-1.992v-11.64l2.568-.72Zm4.128 3.528v2.016h-9V400h9Zm3.692-2.016c-.56 0-.992-.136-1.296-.408-.288-.288-.432-.688-.432-1.2s.144-.904.432-1.176c.304-.272.736-.408 1.296-.408.544 0 .96.136 1.248.408.304.272.456.664.456 1.176 0 .512-.152.912-.456 1.2-.288.272-.704.408-1.248.408Zm1.272 2.016v12h-2.568v-12h2.568Zm9.082-.24c1.168 0 2.2.248 3.096.744.896.496 1.592 1.216 2.088 2.16.512.928.768 2.04.768 3.336 0 1.296-.256 2.416-.768 3.36a5.168 5.168 0 0 1-2.088 2.136c-.896.496-1.928.744-3.096.744-1.168 0-2.2-.248-3.096-.744a5.322 5.322 0 0 1-2.112-2.136c-.512-.944-.768-2.064-.768-3.36 0-1.296.256-2.408.768-3.336.512-.944 1.216-1.664 2.112-2.16.896-.496 1.928-.744 3.096-.744Zm0 2.016c-.72 0-1.336.168-1.848.504-.496.32-.88.792-1.152 1.416-.272.624-.408 1.392-.408 2.304 0 .896.136 1.664.408 2.304.272.624.656 1.104 1.152 1.44.512.32 1.128.48 1.848.48.72 0 1.328-.16 1.824-.48.496-.336.88-.816 1.152-1.44.272-.64.408-1.408.408-2.304 0-.912-.136-1.68-.408-2.304-.272-.624-.656-1.096-1.152-1.416-.496-.336-1.104-.504-1.824-.504ZM155.013 412v-12h2.28l.168 3.12-.336-.336c.224-.688.544-1.256.96-1.704.432-.464.936-.8 1.512-1.008a5.606 5.606 0 0 1 1.872-.312c.848 0 1.608.168 2.28.504.688.32 1.232.808 1.632 1.464.4.656.6 1.488.6 2.496V412h-2.568v-6.984c0-1.184-.248-2-.744-2.448-.48-.464-1.088-.696-1.824-.696a3.31 3.31 0 0 0-1.536.384c-.496.24-.912.632-1.248 1.176-.32.544-.48 1.272-.48 2.184V412h-2.568Zm19.275.24c-1.2 0-2.296-.232-3.288-.696-.992-.464-1.776-1.12-2.352-1.968l1.776-1.536a4.104 4.104 0 0 0 1.512 1.584c.672.384 1.472.576 2.4.576.736 0 1.32-.128 1.752-.384.432-.256.648-.616.648-1.08 0-.304-.104-.568-.312-.792-.192-.24-.568-.424-1.128-.552l-2.52-.528c-1.28-.256-2.192-.664-2.736-1.224-.544-.576-.816-1.304-.816-2.184 0-.656.192-1.264.576-1.824.384-.56.944-1.008 1.68-1.344.752-.352 1.648-.528 2.688-.528 1.2 0 2.224.216 3.072.648.848.416 1.496 1.016 1.944 1.8l-1.776 1.488c-.304-.64-.752-1.112-1.344-1.416a3.836 3.836 0 0 0-1.848-.48c-.512 0-.952.064-1.32.192-.368.128-.648.304-.84.528a1.178 1.178 0 0 0-.288.792c0 .32.12.6.36.84s.672.424 1.296.552l2.736.576c1.152.224 1.96.608 2.424 1.152.48.528.72 1.176.72 1.944s-.2 1.448-.6 2.04c-.4.576-.976 1.024-1.728 1.344-.752.32-1.648.48-2.688.48ZM257.596 399.62c.831 0 1.55.159 2.156.476.607.308 1.12.765 1.54 1.372l-1.008.966c-.354-.541-.756-.929-1.204-1.162-.438-.243-.961-.364-1.568-.364-.448 0-.816.061-1.106.182-.289.121-.504.285-.644.49-.13.196-.196.42-.196.672 0 .289.098.541.294.756.206.215.584.383 1.134.504l1.876.42c.896.196 1.531.495 1.904.896.374.401.56.91.56 1.526 0 .569-.154 1.064-.462 1.484-.308.42-.737.742-1.288.966-.541.224-1.18.336-1.918.336a5.754 5.754 0 0 1-1.764-.252 4.741 4.741 0 0 1-1.372-.686 4.057 4.057 0 0 1-.966-.994l1.036-1.036c.196.327.444.621.742.882.299.252.644.448 1.036.588.402.14.845.21 1.33.21.43 0 .798-.051 1.106-.154.318-.103.556-.252.714-.448.168-.205.252-.448.252-.728 0-.271-.093-.509-.28-.714-.177-.205-.513-.364-1.008-.476l-2.03-.462c-.56-.121-1.022-.294-1.386-.518-.364-.224-.634-.495-.812-.812a2.257 2.257 0 0 1-.266-1.092c0-.523.14-.994.42-1.414.29-.429.705-.77 1.246-1.022.542-.261 1.186-.392 1.932-.392Zm8.619 9.52c-.7 0-1.316-.145-1.848-.434a3.076 3.076 0 0 1-1.246-1.246c-.29-.551-.434-1.204-.434-1.96s.144-1.405.434-1.946a3.073 3.073 0 0 1 1.232-1.26c.522-.289 1.115-.434 1.778-.434.681 0 1.26.14 1.736.42.476.28.84.663 1.092 1.148.252.485.378 1.036.378 1.652 0 .168-.005.327-.014.476-.01.149-.024.28-.042.392h-5.628V404.8h4.97l-.742.224c0-.635-.159-1.12-.476-1.456-.318-.345-.752-.518-1.302-.518-.402 0-.752.093-1.05.28-.299.187-.528.467-.686.84-.159.364-.238.812-.238 1.344 0 .523.084.966.252 1.33.168.364.406.639.714.826.308.187.672.28 1.092.28.466 0 .844-.089 1.134-.266.289-.177.518-.425.686-.742l1.19.56c-.168.336-.397.63-.686.882-.28.243-.616.429-1.008.56a4.046 4.046 0 0 1-1.288.196Zm8.009 0c-.7 0-1.316-.145-1.848-.434a3.082 3.082 0 0 1-1.246-1.246c-.289-.551-.434-1.204-.434-1.96s.145-1.405.434-1.946c.299-.551.71-.971 1.232-1.26.523-.289 1.116-.434 1.778-.434.682 0 1.26.14 1.736.42.476.28.84.663 1.092 1.148.252.485.378 1.036.378 1.652 0 .168-.004.327-.014.476-.009.149-.023.28-.042.392h-5.628V404.8h4.97l-.742.224c0-.635-.158-1.12-.476-1.456-.317-.345-.751-.518-1.302-.518-.401 0-.751.093-1.05.28-.298.187-.527.467-.686.84-.158.364-.238.812-.238 1.344 0 .523.084.966.252 1.33.168.364.406.639.714.826.308.187.672.28 1.092.28.467 0 .845-.089 1.134-.266.29-.177.518-.425.686-.742l1.19.56c-.168.336-.396.63-.686.882-.28.243-.616.429-1.008.56a4.041 4.041 0 0 1-1.288.196Zm13.445-4.634c0-.467-.131-.826-.392-1.078-.252-.261-.602-.392-1.05-.392-.42 0-.779.098-1.078.294-.299.196-.518.513-.658.952l-1.26-.532a2.52 2.52 0 0 1 1.036-1.372c.523-.345 1.195-.518 2.016-.518.56 0 1.055.093 1.484.28.429.177.765.448 1.008.812.252.364.378.831.378 1.4v3.122c0 .345.173.518.518.518.168 0 .331-.023.49-.07l-.084 1.036c-.215.103-.485.154-.812.154-.299 0-.569-.051-.812-.154a1.356 1.356 0 0 1-.56-.49c-.131-.224-.196-.499-.196-.826v-.098l.308-.014a1.75 1.75 0 0 1-.518.91 2.689 2.689 0 0 1-.91.532 3.381 3.381 0 0 1-1.05.168c-.439 0-.835-.07-1.19-.21a1.87 1.87 0 0 1-.826-.63c-.196-.289-.294-.644-.294-1.064 0-.523.168-.952.504-1.288.345-.336.831-.565 1.456-.686l2.716-.532-.014 1.05-1.974.406c-.392.075-.686.182-.882.322-.196.14-.294.345-.294.616 0 .261.098.471.294.63.205.149.476.224.812.224.233 0 .457-.028.672-.084.224-.056.425-.145.602-.266.177-.131.313-.294.406-.49.103-.205.154-.448.154-.728v-1.904Zm5.31-5.656v8.19c0 .345.061.583.182.714.122.131.322.196.602.196.168 0 .308-.009.42-.028.122-.028.271-.075.448-.14l-.168 1.12c-.158.075-.34.131-.546.168-.205.047-.41.07-.616.07-.625 0-1.087-.159-1.386-.476-.289-.327-.434-.826-.434-1.498v-8.316h1.498Zm4.278 0v8.19c0 .345.06.583.182.714.121.131.322.196.602.196.168 0 .308-.009.42-.028a3.97 3.97 0 0 0 .448-.14l-.168 1.12a2.188 2.188 0 0 1-.546.168c-.206.047-.411.07-.616.07-.626 0-1.088-.159-1.386-.476-.29-.327-.434-.826-.434-1.498v-8.316h1.498Z"/><path stroke="#F6C177" stroke-linecap="round" stroke-linejoin="round" stroke-width="1.5" d="M308 404h14m0 0-7-7m7 7-7 7"/><path fill="#A3DBE4" d="M33.568 607v-10.56h4.16c1.27 0 2.197.256 2.784.768.587.512.88 1.221.88 2.128 0 .555-.16 1.051-.48 1.488-.32.427-.79.699-1.408.816v.016c.683.107 1.21.389 1.584.848.384.448.576.971.576 1.568 0 .907-.33 1.621-.992 2.144-.661.523-1.621.784-2.88.784h-4.224Zm1.68-1.424h2.624c.672 0 1.173-.139 1.504-.416.341-.277.512-.667.512-1.168 0-.501-.17-.891-.512-1.168-.33-.277-.832-.416-1.504-.416h-2.624v3.168Zm0-4.592H37.6c1.344 0 2.016-.517 2.016-1.552 0-1.035-.672-1.552-2.016-1.552h-2.352v3.104Zm9.442-3.328c-.374 0-.662-.091-.864-.272-.192-.192-.288-.459-.288-.8s.096-.603.288-.784c.202-.181.49-.272.864-.272.362 0 .64.091.832.272.202.181.304.443.304.784s-.102.608-.304.8c-.192.181-.47.272-.832.272Zm.848 1.344v8h-1.712v-8h1.712Zm9.622-1.68.272 1.344h-.096a.293.293 0 0 0-.096-.016c-.512 0-.901.112-1.168.336-.266.213-.4.528-.4.944l-.832-.384c0-.427.091-.805.272-1.136.182-.341.438-.608.768-.8a2.308 2.308 0 0 1 1.152-.288h.128Zm-2.528 8.432c.811 0 1.44.181 1.888.544.448.352.672.843.672 1.472 0 .555-.176 1.029-.528 1.424-.352.405-.832.715-1.44.928-.597.213-1.285.32-2.064.32-1.312 0-2.282-.203-2.912-.608-.629-.405-.944-.912-.944-1.52 0-.427.15-.8.448-1.12.31-.32.827-.501 1.552-.544l-.096.256c-.448-.096-.81-.267-1.088-.512-.266-.256-.4-.613-.4-1.072 0-.459.176-.848.528-1.168.352-.32.848-.507 1.488-.56l.896.432h-.192c-.49.043-.837.155-1.04.336-.202.181-.304.384-.304.608 0 .267.096.464.288.592.203.128.486.192.848.192h2.4Zm-1.472 3.408c.587 0 1.067-.059 1.44-.176.384-.107.667-.251.848-.432.192-.171.288-.363.288-.576a.7.7 0 0 0-.304-.592c-.192-.149-.544-.224-1.056-.224H49.8c-.298 0-.549.075-.752.224a.774.774 0 0 0-.304.64c0 .352.214.629.64.832.427.203 1.019.304 1.776.304Zm-.064-10.32c.704 0 1.312.112 1.824.336.523.224.923.539 1.2.944.288.405.432.88.432 1.424 0 .544-.144 1.019-.432 1.424-.277.405-.677.72-1.2.944-.512.224-1.12.336-1.824.336-1.109 0-1.962-.245-2.56-.736-.586-.501-.88-1.157-.88-1.968 0-.544.144-1.019.432-1.424.288-.405.688-.72 1.2-.944.523-.224 1.126-.336 1.808-.336Zm0 1.2c-.49 0-.901.139-1.232.416-.32.267-.48.629-.48 1.088 0 .459.16.827.48 1.104.331.277.742.416 1.232.416.502 0 .912-.139 1.232-.416.331-.277.496-.645.496-1.104 0-.459-.165-.821-.496-1.088-.32-.277-.73-.416-1.232-.416Zm12.625-2.72.272 1.344h-.096a.293.293 0 0 0-.096-.016c-.512 0-.902.112-1.168.336-.267.213-.4.528-.4.944l-.832-.384c0-.427.09-.805.272-1.136.181-.341.437-.608.768-.8a2.309 2.309 0 0 1 1.152-.288h.128Zm-2.528 8.432c.81 0 1.44.181 1.888.544.448.352.672.843.672 1.472 0 .555-.176 1.029-.528 1.424-.352.405-.832.715-1.44.928-.598.213-1.286.32-2.064.32-1.312 0-2.283-.203-2.912-.608-.63-.405-.944-.912-.944-1.52 0-.427.149-.8.448-1.12.309-.32.826-.501 1.552-.544l-.096.256c-.448-.096-.811-.267-1.088-.512-.267-.256-.4-.613-.4-1.072 0-.459.176-.848.528-1.168.352-.32.848-.507 1.488-.56l.896.432H59c-.491.043-.838.155-1.04.336-.203.181-.304.384-.304.608 0 .267.096.464.288.592.202.128.485.192.848.192h2.4Zm-1.472 3.408c.586 0 1.066-.059 1.44-.176.384-.107.666-.251.848-.432.192-.171.288-.363.288-.576a.7.7 0 0 0-.304-.592c-.192-.149-.544-.224-1.056-.224H58.36c-.299 0-.55.075-.752.224a.774.774 0 0 0-.304.64c0 .352.213.629.64.832.426.203 1.018.304 1.776.304Zm-.064-10.32c.704 0 1.312.112 1.824.336.522.224.922.539 1.2.944.288.405.432.88.432 1.424 0 .544-.144 1.019-.432 1.424-.278.405-.678.72-1.2.944-.512.224-1.12.336-1.824.336-1.11 0-1.963-.245-2.56-.736-.587-.501-.88-1.157-.88-1.968 0-.544.144-1.019.432-1.424.288-.405.688-.72 1.2-.944.522-.224 1.125-.336 1.808-.336Zm0 1.2c-.491 0-.902.139-1.232.416-.32.267-.48.629-.48 1.088 0 .459.16.827.48 1.104.33.277.741.416 1.232.416.501 0 .912-.139 1.232-.416.33-.277.496-.645.496-1.104 0-.459-.166-.821-.496-1.088-.32-.277-.731-.416-1.232-.416Zm9.088 7.12c-.8 0-1.504-.165-2.112-.496a3.52 3.52 0 0 1-1.424-1.424c-.33-.629-.496-1.376-.496-2.24 0-.864.166-1.605.496-2.224a3.528 3.528 0 0 1 1.408-1.44c.598-.331 1.275-.496 2.032-.496.779 0 1.44.16 1.984.48.544.32.96.757 1.248 1.312.288.555.432 1.184.432 1.888 0 .192-.005.373-.016.544-.01.171-.026.32-.048.448h-6.432V602.2h5.68l-.848.256c0-.725-.181-1.28-.544-1.664-.362-.395-.858-.592-1.488-.592-.458 0-.858.107-1.2.32-.341.213-.602.533-.784.96-.181.416-.272.928-.272 1.536 0 .597.096 1.104.288 1.52.192.416.464.731.816.944.352.213.768.32 1.248.32.534 0 .966-.101 1.296-.304.33-.203.592-.485.784-.848l1.36.64c-.192.384-.453.72-.784 1.008-.32.277-.704.491-1.152.64a4.64 4.64 0 0 1-1.472.224Zm8.674 0c-.8 0-1.53-.155-2.192-.464a3.791 3.791 0 0 1-1.568-1.312l1.184-1.024c.235.437.57.789 1.008 1.056.448.256.982.384 1.6.384.49 0 .88-.085 1.168-.256.288-.171.432-.411.432-.72a.75.75 0 0 0-.208-.528c-.128-.16-.378-.283-.752-.368l-1.68-.352c-.853-.171-1.461-.443-1.824-.816-.362-.384-.544-.869-.544-1.456 0-.437.128-.843.384-1.216s.63-.672 1.12-.896c.502-.235 1.099-.352 1.792-.352.8 0 1.483.144 2.048.432.566.277.998.677 1.296 1.2l-1.184.992a1.979 1.979 0 0 0-.896-.944 2.561 2.561 0 0 0-1.232-.32c-.341 0-.634.043-.88.128-.245.085-.432.203-.56.352a.784.784 0 0 0-.192.528c0 .213.08.4.24.56.16.16.448.283.864.368l1.824.384c.768.149 1.307.405 1.616.768.32.352.48.784.48 1.296s-.133.965-.4 1.36c-.266.384-.65.683-1.152.896-.501.213-1.098.32-1.792.32Zm7.669-10.512v7.952c0 .395.101.683.304.864.213.181.496.272.848.272.288 0 .539-.043.752-.128.213-.096.41-.224.592-.384l.384 1.248a2.79 2.79 0 0 1-.912.512 3.741 3.741 0 0 1-1.184.176c-.459 0-.88-.075-1.264-.224a1.817 1.817 0 0 1-.896-.72c-.213-.341-.325-.784-.336-1.328v-7.76l1.712-.48ZM87.84 599v1.344h-6V599h6Z"/><rect width="140" height="139" x="188" y="429" fill="#25233A" rx="16"/><rect width="40" height="40" x="204" y="445" fill="#191724" rx="20"/><path stroke="#D1B4F4" stroke-linecap="round" stroke-linejoin="round" stroke-width="1.5" d="m219 470 10-10m0 0h-10m10 0v10"/><path fill="#FEFCFA" d="M216.368 516.44V527h-1.584v-6.112l.128-2.912h-.016L211.68 527h-1.424l-3.216-9.024h-.016l.128 2.912V527h-1.584v-10.56h2.544l2.128 6.112.736 2.512h.032l.752-2.512 2.112-6.112h2.496Zm3.666 1.216c-.374 0-.662-.091-.864-.272-.192-.192-.288-.459-.288-.8s.096-.603.288-.784c.202-.181.49-.272.864-.272.362 0 .64.091.832.272.202.181.304.443.304.784s-.102.608-.304.8c-.192.181-.47.272-.832.272Zm.848 1.344v8h-1.712v-8h1.712Zm2.582 8v-8h1.52l.112 2.08-.224-.224c.149-.459.363-.837.64-1.136a2.549 2.549 0 0 1 1.008-.672 3.732 3.732 0 0 1 1.248-.208c.565 0 1.072.112 1.52.336a2.47 2.47 0 0 1 1.088.976c.267.437.4.992.4 1.664V527h-1.712v-4.656c0-.789-.165-1.333-.496-1.632-.32-.309-.725-.464-1.216-.464-.352 0-.693.085-1.024.256-.331.16-.608.421-.832.784-.213.363-.32.848-.32 1.456V527h-1.712Zm14.434-5.136c0-.533-.149-.944-.448-1.232-.288-.299-.688-.448-1.2-.448-.48 0-.89.112-1.232.336-.341.224-.592.587-.752 1.088l-1.44-.608a2.884 2.884 0 0 1 1.184-1.568c.598-.395 1.366-.592 2.304-.592.64 0 1.206.107 1.696.32.491.203.875.512 1.152.928.288.416.432.949.432 1.6v3.568c0 .395.198.592.592.592.192 0 .379-.027.56-.08l-.096 1.184c-.245.117-.554.176-.928.176-.341 0-.65-.059-.928-.176a1.557 1.557 0 0 1-.64-.56c-.149-.256-.224-.571-.224-.944v-.112l.352-.016a1.993 1.993 0 0 1-.592 1.04 3.063 3.063 0 0 1-1.04.608 3.861 3.861 0 0 1-1.2.192 3.68 3.68 0 0 1-1.36-.24c-.394-.16-.709-.4-.944-.72-.224-.331-.336-.736-.336-1.216 0-.597.192-1.088.576-1.472.395-.384.95-.645 1.664-.784l3.104-.608-.016 1.2-2.256.464c-.448.085-.784.208-1.008.368-.224.16-.336.395-.336.704a.88.88 0 0 0 .336.72c.235.171.544.256.928.256.267 0 .523-.032.768-.096.256-.064.486-.165.688-.304.203-.149.358-.336.464-.56.118-.235.176-.512.176-.832v-2.176ZM207.248 551v-7.904l.032-.736a5.712 5.712 0 0 1-1.248.912 5.498 5.498 0 0 1-1.424.528l-.32-1.488a3.61 3.61 0 0 0 .784-.224c.299-.117.608-.267.928-.448.32-.181.613-.373.88-.576.267-.213.475-.421.624-.624h1.44V551h-1.696Zm5.269-2.16c.299 0 .544.075.736.224.203.139.358.336.464.592.107.245.161.528.161.848 0 .395-.075.773-.224 1.136-.15.373-.369.709-.657 1.008-.277.309-.613.56-1.008.752l-.8-.688c.288-.107.544-.245.768-.416.224-.171.411-.363.56-.576.16-.213.272-.432.336-.656l-.064-.032a.776.776 0 0 1-.192.08.982.982 0 0 1-.288.032.99.99 0 0 1-.464-.128 1.01 1.01 0 0 1-.384-.352c-.106-.16-.16-.368-.16-.624 0-.235.054-.443.16-.624.118-.181.267-.32.448-.416.182-.107.384-.16.608-.16Zm6.799 2.32c-1.269 0-2.266-.459-2.992-1.376-.714-.928-1.072-2.283-1.072-4.064 0-1.781.358-3.131 1.072-4.048.726-.928 1.723-1.392 2.992-1.392 1.28 0 2.278.464 2.992 1.392.726.917 1.088 2.267 1.088 4.048 0 1.781-.362 3.136-1.088 4.064-.714.917-1.712 1.376-2.992 1.376Zm0-1.456c.512 0 .939-.144 1.28-.432.352-.299.614-.741.784-1.328.182-.597.272-1.339.272-2.224 0-.885-.09-1.621-.272-2.208-.17-.597-.432-1.04-.784-1.328-.341-.299-.768-.448-1.28-.448s-.944.149-1.296.448c-.341.288-.597.731-.768 1.328-.17.587-.256 1.323-.256 2.208 0 .885.086 1.627.256 2.224.171.587.427 1.029.768 1.328.352.288.784.432 1.296.432Zm9.951 1.456c-1.269 0-2.266-.459-2.992-1.376-.714-.928-1.072-2.283-1.072-4.064 0-1.781.358-3.131 1.072-4.048.726-.928 1.723-1.392 2.992-1.392 1.28 0 2.278.464 2.992 1.392.726.917 1.088 2.267 1.088 4.048 0 1.781-.362 3.136-1.088 4.064-.714.917-1.712 1.376-2.992 1.376Zm0-1.456c.512 0 .939-.144 1.28-.432.352-.299.614-.741.784-1.328.182-.597.272-1.339.272-2.224 0-.885-.09-1.621-.272-2.208-.17-.597-.432-1.04-.784-1.328-.341-.299-.768-.448-1.28-.448s-.944.149-1.296.448c-.341.288-.597.731-.768 1.328-.17.587-.256 1.323-.256 2.208 0 .885.086 1.627.256 2.224.171.587.427 1.029.768 1.328.352.288.784.432 1.296.432Zm9.951 1.456c-1.269 0-2.267-.459-2.992-1.376-.715-.928-1.072-2.283-1.072-4.064 0-1.781.357-3.131 1.072-4.048.725-.928 1.723-1.392 2.992-1.392 1.28 0 2.277.464 2.992 1.392.725.917 1.088 2.267 1.088 4.048 0 1.781-.363 3.136-1.088 4.064-.715.917-1.712 1.376-2.992 1.376Zm0-1.456c.512 0 .939-.144 1.28-.432.352-.299.613-.741.784-1.328.181-.597.272-1.339.272-2.224 0-.885-.091-1.621-.272-2.208-.171-.597-.432-1.04-.784-1.328-.341-.299-.768-.448-1.28-.448s-.944.149-1.296.448c-.341.288-.597.731-.768 1.328-.171.587-.256 1.323-.256 2.208 0 .885.085 1.627.256 2.224.171.587.427 1.029.768 1.328.352.288.784.432 1.296.432Zm6.791-.864c.363 0 .651.107.864.32.224.203.336.48.336.832s-.112.635-.336.848c-.213.213-.501.32-.864.32-.373 0-.672-.107-.896-.32-.213-.213-.32-.496-.32-.848s.107-.629.32-.832c.224-.213.523-.32.896-.32Zm6.783 2.32c-1.27 0-2.267-.459-2.992-1.376-.715-.928-1.072-2.283-1.072-4.064 0-1.781.357-3.131 1.072-4.048.725-.928 1.722-1.392 2.992-1.392 1.28 0 2.277.464 2.992 1.392.725.917 1.088 2.267 1.088 4.048 0 1.781-.363 3.136-1.088 4.064-.715.917-1.712 1.376-2.992 1.376Zm0-1.456c.512 0 .938-.144 1.28-.432.352-.299.613-.741.784-1.328.181-.597.272-1.339.272-2.224 0-.885-.091-1.621-.272-2.208-.171-.597-.432-1.04-.784-1.328-.342-.299-.768-.448-1.28-.448s-.944.149-1.296.448c-.342.288-.598.731-.768 1.328-.171.587-.256 1.323-.256 2.208 0 .885.085 1.627.256 2.224.17.587.426 1.029.768 1.328.352.288.784.432 1.296.432Zm9.663-9.424c.906 0 1.669.224 2.288.672.629.448 1.098 1.077 1.408 1.888.32.811.48 1.765.48 2.864 0 1.216-.166 2.229-.496 3.04-.331.8-.806 1.403-1.424 1.808-.619.405-1.366.608-2.24.608-.896 0-1.664-.197-2.304-.592-.64-.395-1.12-.987-1.44-1.776l1.616-.752c.149.501.394.901.736 1.2.352.299.826.448 1.424.448.49 0 .901-.096 1.232-.288.33-.192.592-.469.784-.832.202-.363.346-.8.432-1.312a10.61 10.61 0 0 0 .128-1.728v-.176h-.064a2.062 2.062 0 0 1-.64 1.04c-.299.267-.64.464-1.024.592a3.935 3.935 0 0 1-1.152.176c-.683 0-1.291-.133-1.824-.4a3.117 3.117 0 0 1-1.232-1.152c-.299-.491-.448-1.072-.448-1.744 0-.736.149-1.371.448-1.904a3.136 3.136 0 0 1 1.296-1.232c.565-.299 1.237-.448 2.016-.448Zm.016 1.504c-.672 0-1.19.181-1.552.544-.352.363-.528.869-.528 1.52 0 .576.186 1.029.56 1.36.384.32.89.48 1.52.48.405 0 .762-.08 1.072-.24.309-.171.549-.4.72-.688.181-.288.272-.624.272-1.008 0-.405-.091-.752-.272-1.04a1.725 1.725 0 0 0-.72-.688c-.31-.16-.667-.24-1.072-.24Zm9.987-1.488c.714 0 1.333.117 1.856.352.533.224.944.544 1.232.96.288.416.432.917.432 1.504 0 .544-.134 1.024-.4 1.44-.256.405-.635.715-1.136.928v.016c.608.224 1.088.56 1.44 1.008.362.437.544.981.544 1.632 0 .629-.166 1.168-.496 1.616-.32.448-.779.795-1.376 1.04-.587.245-1.286.368-2.096.368-.811 0-1.515-.123-2.112-.368-.587-.245-1.046-.592-1.376-1.04-.331-.448-.496-.987-.496-1.616 0-.64.176-1.184.528-1.632.352-.448.842-.784 1.472-1.008v-.016a2.538 2.538 0 0 1-1.136-.912c-.278-.416-.416-.901-.416-1.456 0-.587.144-1.088.432-1.504.288-.416.698-.736 1.232-.96.533-.235 1.157-.352 1.872-.352Zm0 1.44c-.566 0-1.019.139-1.36.416-.331.277-.496.656-.496 1.136 0 .48.17.859.512 1.136.341.267.789.4 1.344.4.554 0 .997-.133 1.328-.4.341-.277.512-.656.512-1.136 0-.48-.166-.859-.496-1.136-.331-.277-.779-.416-1.344-.416Zm0 7.984c.469 0 .869-.069 1.2-.208.33-.139.586-.341.768-.608.181-.267.272-.576.272-.928 0-.373-.096-.688-.288-.944a1.699 1.699 0 0 0-.768-.608c-.331-.139-.726-.208-1.184-.208a3.12 3.12 0 0 0-1.184.208 1.781 1.781 0 0 0-.8.608c-.182.256-.272.571-.272.944 0 .352.09.661.272.928.181.267.442.469.784.608.341.139.741.208 1.2.208Zm5.97 1.28v-1.248a53.275 53.275 0 0 0 2.544-1.92c.693-.555 1.248-1.067 1.664-1.536.416-.469.715-.912.896-1.328.192-.427.288-.859.288-1.296 0-.565-.176-1.024-.528-1.376-.352-.352-.843-.528-1.472-.528-.661 0-1.189.224-1.584.672-.384.437-.603 1.04-.656 1.808l-1.488-.688c.075-.672.272-1.253.592-1.744.32-.491.752-.869 1.296-1.136.555-.267 1.195-.4 1.92-.4.597 0 1.12.085 1.568.256.459.171.843.411 1.152.72.309.299.544.651.704 1.056.171.405.256.837.256 1.296 0 .672-.165 1.323-.496 1.952-.331.619-.853 1.253-1.568 1.904-.715.651-1.653 1.349-2.816 2.096v.032c.128-.021.304-.032.528-.032.224-.011.448-.016.672-.016.224-.011.405-.016.544-.016h3.328V551h-7.344Z"/><rect width="140" height="139" x="32" y="429" fill="#25233A" rx="16"/><rect width="40" height="40" x="48" y="445" fill="#191724" rx="20"/><path stroke="#A3DBE4" stroke-linecap="round" stroke-linejoin="round" stroke-width="1.5" d="m63 460 10 10m0 0v-10m0 10H63"/><path fill="#FEFCFA" d="M60.368 516.44V527h-1.584v-6.112l.128-2.912h-.016L55.68 527h-1.424l-3.216-9.024h-.016l.128 2.912V527h-1.584v-10.56h2.544l2.128 6.112.736 2.512h.032l.752-2.512 2.112-6.112h2.496Zm3.666 1.216c-.374 0-.662-.091-.865-.272-.191-.192-.287-.459-.287-.8s.096-.603.288-.784c.202-.181.49-.272.864-.272.362 0 .64.091.831.272.203.181.305.443.305.784s-.102.608-.305.8c-.191.181-.469.272-.831.272ZM64.88 519v8H63.17v-8h1.713Zm2.583 8v-8h1.52l.112 2.08-.224-.224c.15-.459.363-.837.64-1.136a2.549 2.549 0 0 1 1.008-.672 3.73 3.73 0 0 1 1.248-.208c.566 0 1.072.112 1.52.336a2.47 2.47 0 0 1 1.088.976c.267.437.4.992.4 1.664V527h-1.712v-4.656c0-.789-.165-1.333-.496-1.632-.32-.309-.725-.464-1.216-.464-.352 0-.693.085-1.024.256-.33.16-.608.421-.832.784-.213.363-.32.848-.32 1.456V527h-1.712Zm14.434-5.136c0-.533-.149-.944-.448-1.232-.288-.299-.688-.448-1.2-.448-.48 0-.89.112-1.232.336-.341.224-.592.587-.752 1.088l-1.44-.608a2.879 2.879 0 0 1 1.184-1.568c.598-.395 1.366-.592 2.304-.592.64 0 1.206.107 1.696.32.491.203.875.512 1.152.928.288.416.432.949.432 1.6v3.568c0 .395.198.592.592.592.192 0 .379-.027.56-.08l-.096 1.184c-.245.117-.554.176-.928.176-.341 0-.65-.059-.928-.176a1.552 1.552 0 0 1-.64-.56c-.149-.256-.224-.571-.224-.944v-.112l.352-.016a1.995 1.995 0 0 1-.592 1.04 3.074 3.074 0 0 1-1.04.608 3.868 3.868 0 0 1-1.2.192c-.501 0-.954-.08-1.36-.24-.394-.16-.709-.4-.944-.72-.224-.331-.336-.736-.336-1.216 0-.597.192-1.088.576-1.472.395-.384.95-.645 1.664-.784l3.104-.608-.016 1.2-2.256.464c-.448.085-.784.208-1.008.368-.224.16-.336.395-.336.704a.88.88 0 0 0 .336.72c.235.171.544.256.928.256.267 0 .523-.032.768-.096.256-.064.486-.165.688-.304.203-.149.358-.336.464-.56.118-.235.176-.512.176-.832v-2.176ZM51.248 551v-7.904l.032-.736a5.697 5.697 0 0 1-1.248.912 5.498 5.498 0 0 1-1.424.528l-.32-1.488c.224-.032.485-.107.784-.224.299-.117.608-.267.928-.448.32-.181.613-.373.88-.576.267-.213.475-.421.624-.624h1.44V551h-1.696Zm5.27-2.16c.298 0 .544.075.736.224.202.139.357.336.464.592.106.245.16.528.16.848 0 .395-.075.773-.224 1.136-.15.373-.369.709-.657 1.008-.277.309-.613.56-1.008.752l-.8-.688c.288-.107.544-.245.769-.416.224-.171.41-.363.56-.576.16-.213.271-.432.335-.656l-.064-.032a.785.785 0 0 1-.192.08.982.982 0 0 1-.288.032.989.989 0 0 1-.463-.128 1.005 1.005 0 0 1-.384-.352c-.107-.16-.16-.368-.16-.624 0-.235.053-.443.16-.624.117-.181.266-.32.447-.416.182-.107.385-.16.608-.16Zm6.798 2.32c-1.269 0-2.266-.459-2.992-1.376-.714-.928-1.072-2.283-1.072-4.064 0-1.781.358-3.131 1.072-4.048.726-.928 1.723-1.392 2.992-1.392 1.28 0 2.278.464 2.992 1.392.726.917 1.088 2.267 1.088 4.048 0 1.781-.362 3.136-1.088 4.064-.714.917-1.712 1.376-2.992 1.376Zm0-1.456c.512 0 .939-.144 1.28-.432.352-.299.614-.741.784-1.328.182-.597.272-1.339.272-2.224 0-.885-.09-1.621-.272-2.208-.17-.597-.432-1.04-.784-1.328-.341-.299-.768-.448-1.28-.448s-.944.149-1.296.448c-.341.288-.597.731-.768 1.328-.17.587-.256 1.323-.256 2.208 0 .885.086 1.627.256 2.224.171.587.427 1.029.768 1.328.352.288.784.432 1.296.432Zm9.951 1.456c-1.27 0-2.266-.459-2.992-1.376-.714-.928-1.072-2.283-1.072-4.064 0-1.781.358-3.131 1.072-4.048.726-.928 1.723-1.392 2.992-1.392 1.28 0 2.278.464 2.992 1.392.726.917 1.088 2.267 1.088 4.048 0 1.781-.362 3.136-1.088 4.064-.714.917-1.712 1.376-2.992 1.376Zm0-1.456c.512 0 .939-.144 1.28-.432.352-.299.614-.741.784-1.328.182-.597.272-1.339.272-2.224 0-.885-.09-1.621-.272-2.208-.17-.597-.432-1.04-.784-1.328-.341-.299-.768-.448-1.28-.448s-.944.149-1.296.448c-.341.288-.597.731-.768 1.328-.17.587-.256 1.323-.256 2.208 0 .885.086 1.627.256 2.224.17.587.427 1.029.768 1.328.352.288.784.432 1.296.432Zm9.951 1.456c-1.27 0-2.267-.459-2.992-1.376-.715-.928-1.072-2.283-1.072-4.064 0-1.781.358-3.131 1.072-4.048.725-.928 1.723-1.392 2.992-1.392 1.28 0 2.278.464 2.992 1.392.726.917 1.088 2.267 1.088 4.048 0 1.781-.362 3.136-1.088 4.064-.714.917-1.712 1.376-2.992 1.376Zm0-1.456c.512 0 .939-.144 1.28-.432.352-.299.614-.741.784-1.328.181-.597.272-1.339.272-2.224 0-.885-.09-1.621-.272-2.208-.17-.597-.432-1.04-.784-1.328-.341-.299-.768-.448-1.28-.448s-.944.149-1.296.448c-.341.288-.597.731-.768 1.328-.17.587-.256 1.323-.256 2.208 0 .885.086 1.627.256 2.224.17.587.427 1.029.768 1.328.352.288.784.432 1.296.432Zm6.79-.864c.364 0 .651.107.865.32.224.203.336.48.336.832s-.112.635-.336.848c-.214.213-.502.32-.864.32-.374 0-.672-.107-.896-.32-.213-.213-.32-.496-.32-.848s.106-.629.32-.832c.224-.213.522-.32.896-.32Zm6.784 2.32c-1.27 0-2.267-.459-2.992-1.376-.715-.928-1.072-2.283-1.072-4.064 0-1.781.357-3.131 1.072-4.048.725-.928 1.722-1.392 2.992-1.392 1.28 0 2.277.464 2.992 1.392.725.917 1.088 2.267 1.088 4.048 0 1.781-.363 3.136-1.088 4.064-.715.917-1.712 1.376-2.992 1.376Zm0-1.456c.512 0 .938-.144 1.28-.432.352-.299.613-.741.784-1.328.181-.597.272-1.339.272-2.224 0-.885-.09-1.621-.272-2.208-.17-.597-.432-1.04-.784-1.328-.342-.299-.768-.448-1.28-.448s-.944.149-1.296.448c-.342.288-.598.731-.768 1.328-.17.587-.256 1.323-.256 2.208 0 .885.085 1.627.256 2.224.17.587.426 1.029.768 1.328.352.288.784.432 1.296.432Zm9.663-9.424c.906 0 1.669.224 2.288.672.629.448 1.098 1.077 1.408 1.888.32.811.48 1.765.48 2.864 0 1.216-.166 2.229-.496 3.04-.331.8-.806 1.403-1.424 1.808-.619.405-1.366.608-2.24.608-.896 0-1.664-.197-2.304-.592-.64-.395-1.12-.987-1.44-1.776l1.616-.752c.149.501.394.901.736 1.2.352.299.826.448 1.424.448.49 0 .901-.096 1.232-.288.33-.192.592-.469.784-.832.202-.363.346-.8.432-1.312a10.61 10.61 0 0 0 .128-1.728v-.176h-.064a2.062 2.062 0 0 1-.64 1.04c-.299.267-.64.464-1.024.592a3.935 3.935 0 0 1-1.152.176c-.683 0-1.291-.133-1.824-.4a3.117 3.117 0 0 1-1.232-1.152c-.299-.491-.448-1.072-.448-1.744 0-.736.149-1.371.448-1.904a3.136 3.136 0 0 1 1.296-1.232c.565-.299 1.237-.448 2.016-.448Zm.016 1.504c-.672 0-1.19.181-1.552.544-.352.363-.528.869-.528 1.52 0 .576.186 1.029.56 1.36.384.32.89.48 1.52.48.405 0 .762-.08 1.072-.24.309-.171.549-.4.72-.688.181-.288.272-.624.272-1.008 0-.405-.091-.752-.272-1.04a1.725 1.725 0 0 0-.72-.688c-.31-.16-.667-.24-1.072-.24Zm9.987-1.488c.714 0 1.333.117 1.856.352.533.224.944.544 1.232.96.288.416.432.917.432 1.504 0 .544-.134 1.024-.4 1.44-.256.405-.635.715-1.136.928v.016c.608.224 1.088.56 1.44 1.008.362.437.544.981.544 1.632 0 .629-.166 1.168-.496 1.616-.32.448-.779.795-1.376 1.04-.587.245-1.286.368-2.096.368-.811 0-1.515-.123-2.112-.368-.587-.245-1.046-.592-1.376-1.04-.331-.448-.496-.987-.496-1.616 0-.64.176-1.184.528-1.632.352-.448.842-.784 1.472-1.008v-.016a2.538 2.538 0 0 1-1.136-.912c-.278-.416-.416-.901-.416-1.456 0-.587.144-1.088.432-1.504.288-.416.698-.736 1.232-.96.533-.235 1.157-.352 1.872-.352Zm0 1.44c-.566 0-1.019.139-1.36.416-.331.277-.496.656-.496 1.136 0 .48.17.859.512 1.136.341.267.789.4 1.344.4.554 0 .997-.133 1.328-.4.341-.277.512-.656.512-1.136 0-.48-.166-.859-.496-1.136-.331-.277-.779-.416-1.344-.416Zm0 7.984c.469 0 .869-.069 1.2-.208.33-.139.586-.341.768-.608.181-.267.272-.576.272-.928 0-.373-.096-.688-.288-.944a1.699 1.699 0 0 0-.768-.608c-.331-.139-.726-.208-1.184-.208a3.12 3.12 0 0 0-1.184.208 1.781 1.781 0 0 0-.8.608c-.182.256-.272.571-.272.944 0 .352.09.661.272.928.181.267.442.469.784.608.341.139.741.208 1.2.208Zm5.97 1.28v-1.248a53.275 53.275 0 0 0 2.544-1.92c.693-.555 1.248-1.067 1.664-1.536.416-.469.715-.912.896-1.328.192-.427.288-.859.288-1.296 0-.565-.176-1.024-.528-1.376-.352-.352-.843-.528-1.472-.528-.661 0-1.189.224-1.584.672-.384.437-.603 1.04-.656 1.808l-1.488-.688c.075-.672.272-1.253.592-1.744.32-.491.752-.869 1.296-1.136.555-.267 1.195-.4 1.92-.4.597 0 1.12.085 1.568.256.459.171.843.411 1.152.72.309.299.544.651.704 1.056.171.405.256.837.256 1.296 0 .672-.165 1.323-.496 1.952-.331.619-.853 1.253-1.568 1.904-.715.651-1.653 1.349-2.816 2.096v.032c.128-.021.304-.032.528-.032.224-.011.448-.016.672-.016.224-.011.405-.016.544-.016h3.328V551h-7.344Z"/></g><defs><clipPath id="a"><path fill="#fff" d="M0 0h360v600H0z"/></clipPath></defs></svg>