<svg xmlns="http://www.w3.org/2000/svg" width="360" height="600" fill="none"><g clip-path="url(#a)"><path fill="#191724" d="M0 0h360v600H0z"/><path fill="#FEFCFA" d="M56.736 104.88V126h-3.168v-12.224l.256-5.824h-.032L47.36 126h-2.848l-6.432-18.048h-.032l.256 5.824V126h-3.168v-21.12h5.088l4.256 12.224 1.472 5.024h.064l1.504-5.024 4.224-12.224h4.992ZM76.579 110l-7.008 17.888c-.47 1.237-.981 2.219-1.536 2.944-.533.725-1.152 1.248-1.856 1.568-.704.32-1.525.48-2.464.48a6.956 6.956 0 0 1-2.144-.32 5.939 5.939 0 0 1-1.696-.8l.832-2.656c.405.341.832.597 1.28.768.47.171.97.256 1.504.256.576 0 1.088-.16 1.536-.48.47-.299.885-.907 1.248-1.824l.704-1.728-1.696-3.968L60.291 110h3.84l3.552 10.048.928 3.008 1.056-3.296 3.36-9.76h3.552Zm32.179 0h3.712l-5.376 16h-3.744l-4.032-11.872L95.51 126h-3.744l-5.344-16h3.68l3.648 12.64L97.718 110h3.424l3.968 12.64 3.648-12.64Zm15.959 5.728c0-1.067-.299-1.888-.896-2.464-.576-.597-1.376-.896-2.4-.896-.96 0-1.782.224-2.464.672-.683.448-1.184 1.173-1.504 2.176l-2.88-1.216c.405-1.301 1.194-2.347 2.368-3.136 1.194-.789 2.73-1.184 4.608-1.184 1.28 0 2.41.213 3.392.64.981.405 1.749 1.024 2.304 1.856.576.832.864 1.899.864 3.2v7.136c0 .789.394 1.184 1.184 1.184.384 0 .757-.053 1.12-.16l-.192 2.368c-.491.235-1.11.352-1.856.352-.683 0-1.302-.117-1.856-.352a3.094 3.094 0 0 1-1.28-1.12c-.299-.512-.448-1.141-.448-1.888v-.224l.704-.032a3.996 3.996 0 0 1-1.184 2.08 6.15 6.15 0 0 1-2.081 1.216 7.73 7.73 0 0 1-2.399.384c-1.003 0-1.91-.16-2.72-.48-.79-.32-1.419-.8-1.888-1.44-.448-.661-.672-1.472-.672-2.432 0-1.195.384-2.176 1.152-2.944.789-.768 1.898-1.291 3.328-1.568l6.208-1.216-.032 2.4-4.512.928c-.896.171-1.568.416-2.016.736-.448.32-.672.789-.672 1.408 0 .597.224 1.077.672 1.44.469.341 1.088.512 1.856.512.533 0 1.045-.064 1.536-.192.512-.128.97-.331 1.376-.608.405-.299.714-.672.928-1.12.234-.469.352-1.024.352-1.664v-4.352Zm12.33-12.928v18.72c0 .789.138 1.333.416 1.632.277.299.736.448 1.376.448.384 0 .704-.021.96-.064a8.906 8.906 0 0 0 1.024-.32l-.384 2.56a5.025 5.025 0 0 1-1.248.384c-.47.107-.939.16-1.408.16-1.43 0-2.486-.363-3.168-1.088-.662-.747-.992-1.888-.992-3.424V102.8h3.424Zm9.968 0v18.72c0 .789.139 1.333.416 1.632.278.299.736.448 1.376.448.384 0 .704-.021.96-.064a8.786 8.786 0 0 0 1.024-.32l-.384 2.56a4.999 4.999 0 0 1-1.248.384c-.469.107-.938.16-1.408.16-1.429 0-2.485-.363-3.168-1.088-.661-.747-.992-1.888-.992-3.424V102.8h3.424Zm13.681 23.52c-1.6 0-3.008-.331-4.224-.992a7.042 7.042 0 0 1-2.848-2.848c-.661-1.259-.992-2.752-.992-4.48 0-1.728.331-3.211.992-4.448.683-1.259 1.621-2.219 2.816-2.88 1.195-.661 2.549-.992 4.064-.992 1.557 0 2.88.32 3.968.96a6.428 6.428 0 0 1 2.496 2.624c.576 1.109.864 2.368.864 3.776 0 .384-.011.747-.032 1.088-.021.341-.053.64-.096.896H154.84V116.4h11.36l-1.696.512c0-1.451-.363-2.56-1.088-3.328-.725-.789-1.717-1.184-2.976-1.184-.917 0-1.717.213-2.4.64-.683.427-1.205 1.067-1.568 1.92-.363.832-.544 1.856-.544 3.072 0 1.195.192 2.208.576 3.04.384.832.928 1.461 1.632 1.888.704.427 1.536.64 2.496.64 1.067 0 1.931-.203 2.592-.608a4.306 4.306 0 0 0 1.568-1.696l2.72 1.28a6.524 6.524 0 0 1-1.568 2.016c-.64.555-1.408.981-2.304 1.28-.896.299-1.877.448-2.944.448Zm15.757-21.024V121.2c0 .789.203 1.365.608 1.728.427.363.992.544 1.696.544.576 0 1.077-.085 1.504-.256a4.695 4.695 0 0 0 1.184-.768l.768 2.496c-.491.427-1.099.768-1.824 1.024-.704.235-1.493.352-2.368.352-.917 0-1.76-.149-2.528-.448-.768-.299-1.365-.779-1.792-1.44-.427-.683-.651-1.568-.672-2.656v-15.52l3.424-.96Zm5.504 4.704v2.688h-12V110h12ZM37.333 57.663H34.533c-1.248-.002-2.252-.825-2.49-2.047-.03-.15-.04-.305-.041-.458C32 49.143 32 43.128 32 37.114c0-.494.288-.782.787-.782h4.536c.004-.074.009-.136.009-.198v-4.329c0-.53.276-.805.809-.805h18.014c1.41 0 2.504 1.098 2.505 2.51v2.813c.065.003.123.008.18.008.912.002 1.825-.012 2.737.007a2.454 2.454 0 0 1 2.415 2.445c.011 1.919.01 3.838 0 5.757a2.472 2.472 0 0 1-2.486 2.453H58.66V49.838a2.472 2.472 0 0 1-2.482 2.486c-1.894.003-3.788.003-5.682 0-1.402-.002-2.493-1.101-2.494-2.505v-2.826H55.924c1.356 0 2.5-.98 2.701-2.317.022-.146.034-.295.034-.443.002-1.706.001-3.412.001-5.117 0-1.583-1.201-2.784-2.788-2.785H40.15c-1.62 0-2.817 1.2-2.817 2.822V54.86c0 1.595 1.21 2.802 2.809 2.803h5.34c1.24 0 2.26.822 2.472 2.042.146.839.067 1.656-.5 2.353-.493.603-1.135.928-1.913.933-1.914.01-3.828.01-5.742 0a2.483 2.483 0 0 1-2.465-2.495c-.003-.877 0-1.755 0-2.633v-.201Z"/><rect width="81" height="40" x="199" y="27" fill="#25233A" rx="20"/><path fill="#FEFCFA" d="M225.822 42.76V52h-1.386v-5.348l.112-2.548h-.014L221.72 52h-1.246l-2.814-7.896h-.014l.112 2.548V52h-1.386v-9.24h2.226l1.862 5.348.644 2.198h.028l.658-2.198 1.848-5.348h2.184Zm3.207 1.064c-.326 0-.578-.08-.756-.238-.168-.168-.252-.401-.252-.7 0-.299.084-.527.252-.686.178-.159.43-.238.756-.238.318 0 .56.08.728.238.178.159.266.387.266.686 0 .299-.088.532-.266.7-.168.159-.41.238-.728.238Zm.742 1.176v7h-1.498v-7h1.498Zm2.26 7v-7h1.33l.098 1.82-.196-.196c.131-.401.317-.733.56-.994.252-.27.546-.467.882-.588a3.268 3.268 0 0 1 1.092-.182c.495 0 .938.098 1.33.294.401.187.719.471.952.854.233.383.35.868.35 1.456V52h-1.498v-4.074c0-.69-.145-1.167-.434-1.428-.28-.27-.635-.406-1.064-.406a1.93 1.93 0 0 0-.896.224c-.289.14-.532.369-.728.686-.187.317-.28.742-.28 1.274V52h-1.498Zm12.63-4.494c0-.467-.131-.826-.392-1.078-.252-.261-.602-.392-1.05-.392-.42 0-.779.098-1.078.294-.299.196-.518.513-.658.952l-1.26-.532a2.52 2.52 0 0 1 1.036-1.372c.523-.345 1.195-.518 2.016-.518.56 0 1.055.093 1.484.28a2.18 2.18 0 0 1 1.008.812c.252.364.378.83.378 1.4v3.122c0 .345.173.518.518.518.168 0 .331-.023.49-.07l-.084 1.036c-.215.103-.485.154-.812.154-.299 0-.569-.051-.812-.154a1.358 1.358 0 0 1-.56-.49c-.131-.224-.196-.5-.196-.826v-.098l.308-.014a1.749 1.749 0 0 1-.518.91c-.261.233-.565.41-.91.532a3.381 3.381 0 0 1-1.05.168c-.439 0-.835-.07-1.19-.21a1.87 1.87 0 0 1-.826-.63c-.196-.29-.294-.644-.294-1.064 0-.523.168-.952.504-1.288.345-.336.831-.565 1.456-.686l2.716-.532-.014 1.05-1.974.406c-.392.075-.686.182-.882.322-.196.14-.294.345-.294.616a.77.77 0 0 0 .294.63c.205.15.476.224.812.224.233 0 .457-.028.672-.084.224-.056.425-.145.602-.266a1.29 1.29 0 0 0 .406-.49c.103-.205.154-.448.154-.728v-1.904Z"/><path stroke="#FEFCFA" stroke-linecap="round" stroke-linejoin="round" stroke-width="1.364" d="m254 44 6 6 6-6"/><rect width="40" height="40" x="288" y="27" fill="#25233A" rx="20"/><path stroke="#FEFCFA" stroke-linecap="round" stroke-linejoin="round" stroke-width="1.5" d="m314 41-12 12m0-12 12 12"/><path fill="#A3DBE4" d="M37.952 420.28c1.024 0 1.91.219 2.656.656.747.437 1.323 1.061 1.728 1.872.405.811.608 1.781.608 2.912s-.203 2.101-.608 2.912c-.405.811-.981 1.435-1.728 1.872-.747.437-1.632.656-2.656.656-1.013 0-1.893-.219-2.64-.656-.747-.437-1.323-1.061-1.728-1.872-.405-.811-.608-1.781-.608-2.912s.203-2.101.608-2.912c.405-.811.981-1.435 1.728-1.872.747-.437 1.627-.656 2.64-.656Zm0 1.488c-.661 0-1.232.155-1.712.464-.47.309-.832.757-1.088 1.344-.256.587-.384 1.301-.384 2.144 0 .832.128 1.547.384 2.144.256.587.619 1.035 1.088 1.344.48.309 1.05.464 1.712.464.672 0 1.243-.155 1.712-.464.48-.309.848-.757 1.104-1.344.256-.597.384-1.312.384-2.144 0-.843-.128-1.557-.384-2.144-.256-.587-.624-1.035-1.104-1.344-.47-.309-1.04-.464-1.712-.464Zm9.538-1.12v7.952c0 .395.101.683.304.864.213.181.496.272.848.272.288 0 .538-.043.752-.128a2.35 2.35 0 0 0 .592-.384l.384 1.248c-.245.213-.55.384-.912.512a3.741 3.741 0 0 1-1.184.176c-.459 0-.88-.075-1.264-.224a1.817 1.817 0 0 1-.896-.72c-.213-.341-.325-.784-.336-1.328v-7.76l1.712-.48ZM50.242 423v1.344h-6V423h6Zm1.66 8v-11.6h1.712v4.88c.266-.501.624-.864 1.072-1.088a3.284 3.284 0 0 1 1.52-.352c.565 0 1.072.112 1.52.336a2.47 2.47 0 0 1 1.088.976c.266.437.4.992.4 1.664V431h-1.712v-4.64c0-.789-.166-1.339-.496-1.648-.32-.309-.726-.464-1.216-.464-.342 0-.683.085-1.024.256-.331.16-.608.427-.832.8-.214.363-.32.853-.32 1.472V431h-1.712Zm13.33.16c-.8 0-1.504-.165-2.112-.496a3.52 3.52 0 0 1-1.424-1.424c-.33-.629-.496-1.376-.496-2.24 0-.864.165-1.605.496-2.224a3.527 3.527 0 0 1 1.408-1.44c.597-.331 1.275-.496 2.032-.496.779 0 1.44.16 1.984.48.544.32.96.757 1.248 1.312.288.555.432 1.184.432 1.888a8.8 8.8 0 0 1-.016.544c-.01.171-.027.32-.048.448h-6.432V426.2h5.68l-.848.256c0-.725-.181-1.28-.544-1.664-.363-.395-.859-.592-1.488-.592-.459 0-.859.107-1.2.32-.342.213-.603.533-.784.96-.181.416-.272.928-.272 1.536 0 .597.096 1.104.288 1.52.192.416.464.731.816.944.352.213.768.32 1.248.32.533 0 .965-.101 1.296-.304.33-.203.592-.485.784-.848l1.36.64a3.26 3.26 0 0 1-.784 1.008c-.32.277-.704.491-1.152.64a4.64 4.64 0 0 1-1.472.224Zm5.634-.16v-8h1.456l.16 1.44c.213-.523.528-.917.944-1.184.427-.277.95-.416 1.568-.416.16 0 .32.016.48.048.16.021.293.059.4.112l-.24 1.504a1.957 1.957 0 0 0-.4-.096 2.692 2.692 0 0 0-.576-.048c-.33 0-.656.091-.976.272-.32.171-.587.432-.8.784-.203.352-.304.8-.304 1.344V431h-1.712Z"/><path fill="#FEFCFA" d="m37.328 463-4.656-15.84h2.712l3.552 13.608 3.456-13.608h2.64l3.48 13.632 3.528-13.632h2.616L50.024 463H47l-2.52-9.504-.792-3.648h-.024l-.792 3.648L40.376 463h-3.048Zm25.815-7.704c0-.8-.224-1.416-.672-1.848-.432-.448-1.032-.672-1.8-.672-.72 0-1.336.168-1.848.504-.512.336-.888.88-1.128 1.632l-2.16-.912c.304-.976.896-1.76 1.776-2.352.896-.592 2.048-.888 3.456-.888.96 0 1.808.16 2.544.48.736.304 1.312.768 1.728 1.392.432.624.648 1.424.648 2.4v5.352c0 .592.296.888.888.888.288 0 .568-.04.84-.12l-.144 1.776c-.368.176-.832.264-1.392.264-.512 0-.976-.088-1.392-.264-.4-.192-.72-.472-.96-.84-.224-.384-.336-.856-.336-1.416v-.168l.528-.024a2.994 2.994 0 0 1-.888 1.56 4.61 4.61 0 0 1-1.56.912 5.801 5.801 0 0 1-1.8.288c-.752 0-1.432-.12-2.04-.36a3.205 3.205 0 0 1-1.416-1.08c-.336-.496-.504-1.104-.504-1.824 0-.896.288-1.632.864-2.208.592-.576 1.424-.968 2.496-1.176l4.656-.912-.024 1.8-3.384.696c-.672.128-1.176.312-1.512.552-.336.24-.504.592-.504 1.056 0 .448.168.808.504 1.08.352.256.816.384 1.392.384.4 0 .784-.048 1.152-.144a3.172 3.172 0 0 0 1.032-.456 2.21 2.21 0 0 0 .696-.84c.176-.352.264-.768.264-1.248v-3.264Zm9.104-9.696v14.04c0 .592.104 1 .312 1.224.208.224.552.336 1.032.336.288 0 .528-.016.72-.048.208-.048.464-.128.768-.24l-.288 1.92a3.783 3.783 0 0 1-.936.288c-.352.08-.704.12-1.056.12-1.072 0-1.864-.272-2.376-.816-.496-.56-.744-1.416-.744-2.568V445.6h2.568Zm7.332 0v14.04c0 .592.104 1 .312 1.224.208.224.552.336 1.032.336.288 0 .528-.016.72-.048.208-.048.464-.128.768-.24l-.288 1.92a3.783 3.783 0 0 1-.936.288c-.352.08-.704.12-1.056.12-1.072 0-1.864-.272-2.376-.816-.496-.56-.744-1.416-.744-2.568V445.6h2.568Zm10.117 17.64c-1.2 0-2.256-.248-3.168-.744a5.28 5.28 0 0 1-2.136-2.136c-.496-.944-.744-2.064-.744-3.36 0-1.296.248-2.408.744-3.336.512-.944 1.216-1.664 2.112-2.16.896-.496 1.912-.744 3.048-.744 1.168 0 2.16.24 2.976.72a4.82 4.82 0 0 1 1.872 1.968c.432.832.648 1.776.648 2.832 0 .288-.008.56-.024.816-.016.256-.04.48-.072.672h-9.648V455.8h8.52l-1.272.384c0-1.088-.272-1.92-.816-2.496-.544-.592-1.288-.888-2.232-.888-.688 0-1.288.16-1.8.48-.512.32-.904.8-1.176 1.44-.272.624-.408 1.392-.408 2.304 0 .896.144 1.656.432 2.28.288.624.696 1.096 1.224 1.416.528.32 1.152.48 1.872.48.8 0 1.448-.152 1.944-.456a3.228 3.228 0 0 0 1.176-1.272l2.04.96a4.89 4.89 0 0 1-1.176 1.512 5.034 5.034 0 0 1-1.728.96 6.946 6.946 0 0 1-2.208.336Zm11.674-15.768V459.4c0 .592.152 1.024.456 1.296.32.272.744.408 1.272.408.432 0 .808-.064 1.128-.192a3.52 3.52 0 0 0 .888-.576l.576 1.872c-.368.32-.824.576-1.368.768a5.597 5.597 0 0 1-1.776.264c-.688 0-1.32-.112-1.896-.336a2.731 2.731 0 0 1-1.344-1.08c-.32-.512-.488-1.176-.504-1.992v-11.64l2.568-.72Zm4.128 3.528v2.016h-9V451h9Zm6.956 12.24c-1.2 0-2.296-.232-3.288-.696-.992-.464-1.776-1.12-2.352-1.968l1.776-1.536a4.104 4.104 0 0 0 1.512 1.584c.672.384 1.472.576 2.4.576.736 0 1.32-.128 1.752-.384.432-.256.648-.616.648-1.08 0-.304-.104-.568-.312-.792-.192-.24-.568-.424-1.128-.552l-2.52-.528c-1.28-.256-2.192-.664-2.736-1.224-.544-.576-.816-1.304-.816-2.184 0-.656.192-1.264.576-1.824.384-.56.944-1.008 1.68-1.344.752-.352 1.648-.528 2.688-.528 1.2 0 2.224.216 3.072.648.848.416 1.496 1.016 1.944 1.8l-1.776 1.488c-.304-.64-.752-1.112-1.344-1.416a3.836 3.836 0 0 0-1.848-.48c-.512 0-.952.064-1.32.192-.368.128-.648.304-.84.528a1.178 1.178 0 0 0-.288.792c0 .32.12.6.36.84s.672.424 1.296.552l2.736.576c1.152.224 1.96.608 2.424 1.152.48.528.72 1.176.72 1.944s-.2 1.448-.6 2.04c-.4.576-.976 1.024-1.728 1.344-.752.32-1.648.48-2.688.48Z"/><rect width="296" height="64" x="32" y="480" fill="#25233A" rx="16"/><path fill="#FEFCFA" d="M217.809 516v-10.56h4.16c1.27 0 2.198.256 2.784.768.587.512.88 1.221.88 2.128 0 .555-.16 1.051-.48 1.488-.32.427-.789.699-1.408.816v.016c.683.107 1.211.389 1.584.848.384.448.576.971.576 1.568 0 .907-.33 1.621-.992 2.144-.661.523-1.621.784-2.88.784h-4.224Zm1.68-1.424h2.624c.672 0 1.174-.139 1.504-.416.342-.277.512-.667.512-1.168 0-.501-.17-.891-.512-1.168-.33-.277-.832-.416-1.504-.416h-2.624v3.168Zm0-4.592h2.352c1.344 0 2.016-.517 2.016-1.552 0-1.035-.672-1.552-2.016-1.552h-2.352v3.104Zm12.514-4.704c.565 0 1.067.08 1.504.24.437.149.816.389 1.136.72.331.331.603.763.816 1.296l-1.504.72c-.149-.459-.389-.821-.72-1.088-.32-.267-.768-.4-1.344-.4-.416 0-.784.101-1.104.304-.32.203-.592.491-.816.864a4.327 4.327 0 0 0-.512 1.296 6.893 6.893 0 0 0-.176 1.6v.288l.064.032c.117-.427.325-.768.624-1.024a3.053 3.053 0 0 1 1.04-.592 3.58 3.58 0 0 1 1.136-.192c.704 0 1.317.139 1.84.416.523.267.928.651 1.216 1.152.299.501.448 1.099.448 1.792 0 .704-.155 1.317-.464 1.84a3.199 3.199 0 0 1-1.296 1.2c-.544.277-1.2.416-1.968.416-.896 0-1.659-.224-2.288-.672-.629-.448-1.109-1.077-1.44-1.888-.331-.811-.496-1.76-.496-2.848 0-1.205.187-2.213.56-3.024.384-.811.901-1.419 1.552-1.824a3.983 3.983 0 0 1 2.192-.624Zm-.112 5.488a2.18 2.18 0 0 0-1.072.256c-.309.16-.555.384-.736.672a1.937 1.937 0 0 0-.256 1.008c0 .373.091.709.272 1.008.192.299.443.539.752.72.309.171.656.256 1.04.256.651 0 1.157-.176 1.52-.528.363-.352.544-.837.544-1.456 0-.395-.08-.736-.24-1.024a1.533 1.533 0 0 0-.704-.672c-.299-.16-.672-.24-1.12-.24Zm5.653 5.232v-1.248a52.274 52.274 0 0 0 2.544-1.92c.694-.555 1.248-1.067 1.664-1.536.416-.469.715-.912.896-1.328.192-.427.288-.859.288-1.296 0-.565-.176-1.024-.528-1.376-.352-.352-.842-.528-1.472-.528-.661 0-1.189.224-1.584.672-.384.437-.602 1.04-.656 1.808l-1.488-.688c.075-.672.272-1.253.592-1.744.32-.491.752-.869 1.296-1.136.555-.267 1.195-.4 1.92-.4.598 0 1.12.085 1.568.256.459.171.843.411 1.152.72.31.299.544.651.704 1.056.171.405.256.837.256 1.296 0 .672-.165 1.323-.496 1.952-.33.619-.853 1.253-1.568 1.904-.714.651-1.653 1.349-2.816 2.096v.032c.128-.021.304-.032.528-.032.224-.011.448-.016.672-.016.224-.011.406-.016.544-.016h3.328V516h-7.344Zm11.839-10.352v7.952c0 .395.101.683.304.864.213.181.496.272.848.272.288 0 .539-.043.752-.128.213-.096.411-.224.592-.384l.384 1.248a2.784 2.784 0 0 1-.912.512 3.742 3.742 0 0 1-1.184.176c-.459 0-.88-.075-1.264-.224a1.815 1.815 0 0 1-.896-.72c-.213-.341-.325-.784-.336-1.328v-7.76l1.712-.48Zm2.752 2.352v1.344h-6V508h6Zm5.948 8.16c-.47 0-.902-.091-1.296-.272a2.812 2.812 0 0 1-.976-.752 3.351 3.351 0 0 1-.592-1.104l.208-.272-.128 2.24h-1.504v-11.6h1.712v5.616l-.192-.272a2.835 2.835 0 0 1 1.04-1.36c.49-.363 1.082-.544 1.776-.544.64 0 1.226.165 1.76.496.544.331.97.805 1.28 1.424.309.619.464 1.371.464 2.256 0 .864-.16 1.605-.48 2.224-.31.619-.736 1.093-1.28 1.424a3.331 3.331 0 0 1-1.792.496Zm-.368-1.376c.693 0 1.232-.245 1.616-.736.394-.501.592-1.184.592-2.048 0-.864-.192-1.541-.576-2.032-.384-.491-.923-.736-1.616-.736-.448 0-.838.117-1.168.352-.331.224-.592.544-.784.96-.182.416-.272.912-.272 1.488 0 .565.09 1.056.272 1.472.181.405.437.72.768.944.341.224.73.336 1.168.336Zm6.582-.944c.363 0 .651.107.864.32.224.203.336.48.336.832s-.112.635-.336.848c-.213.213-.501.32-.864.32-.373 0-.672-.107-.896-.32-.213-.213-.32-.496-.32-.848s.107-.629.32-.832c.224-.213.523-.32.896-.32Zm4.279 0c.363 0 .651.107.864.32.224.203.336.48.336.832s-.112.635-.336.848c-.213.213-.501.32-.864.32-.373 0-.672-.107-.896-.32-.213-.213-.32-.496-.32-.848s.107-.629.32-.832c.224-.213.523-.32.896-.32Zm4.279 0c.363 0 .651.107.864.32.224.203.336.48.336.832s-.112.635-.336.848c-.213.213-.501.32-.864.32-.373 0-.672-.107-.896-.32-.213-.213-.32-.496-.32-.848s.107-.629.32-.832c.224-.213.523-.32.896-.32Zm7.959-8.4c1.131 0 2.027.283 2.688.848.672.565 1.008 1.328 1.008 2.288 0 .992-.336 1.76-1.008 2.304-.661.533-1.557.8-2.688.8l-.16.096h-2.448V516h-1.696v-10.56h4.304Zm-.128 4.912c.693 0 1.205-.139 1.536-.416.341-.288.512-.725.512-1.312 0-.576-.171-1.008-.512-1.296-.331-.288-.843-.432-1.536-.432h-2.48v3.456h2.48Zm1.008.352 3.44 5.296h-1.968l-2.944-4.624 1.472-.672Zm4.51-5.264h8.048v1.424c-.885.917-1.6 1.861-2.144 2.832-.544.96-.939 1.963-1.184 3.008a14.85 14.85 0 0 0-.352 3.296h-1.728c0-1.173.144-2.315.432-3.424.299-1.12.747-2.187 1.344-3.2a14.08 14.08 0 0 1 2.288-2.88l.32.432h-7.024v-1.488Zm12.165 10.72a3.409 3.409 0 0 1-1.808-.496c-.534-.331-.955-.805-1.264-1.424-.31-.619-.464-1.36-.464-2.224 0-.896.165-1.653.496-2.272.33-.619.773-1.088 1.328-1.408a3.49 3.49 0 0 1 1.824-.496c.682 0 1.258.187 1.728.56.469.373.784.859.944 1.456l-.192.176V504.4h1.712V516h-1.52l-.128-2.176.224.016c-.075.48-.251.896-.528 1.248a2.875 2.875 0 0 1-1.04.8 3.184 3.184 0 0 1-1.312.272Zm.368-1.376c.458 0 .853-.117 1.184-.352.33-.235.586-.565.768-.992.181-.427.272-.939.272-1.536 0-.555-.091-1.029-.272-1.424-.182-.405-.438-.715-.768-.928a1.976 1.976 0 0 0-1.12-.32c-.715 0-1.27.245-1.664.736-.395.491-.592 1.168-.592 2.032 0 .864.192 1.547.576 2.048.384.491.922.736 1.616.736ZM83.78 504.8v1.84h-4.52V518h-2.14v-11.36H72.6v-1.84h11.18Zm.915 13.2v-10h1.82l.2 1.8c.267-.653.66-1.147 1.18-1.48.534-.347 1.187-.52 1.96-.52.2 0 .4.02.6.06.2.027.367.073.5.14l-.3 1.88a2.548 2.548 0 0 0-.5-.12 3.365 3.365 0 0 0-.72-.06c-.413 0-.82.113-1.22.34-.4.213-.733.54-1 .98-.253.44-.38 1-.38 1.68v5.3h-2.14Zm13.847-6.42c0-.667-.187-1.18-.56-1.54-.36-.373-.86-.56-1.5-.56-.6 0-1.114.14-1.54.42-.427.28-.74.733-.94 1.36l-1.8-.76c.253-.813.746-1.467 1.48-1.96.746-.493 1.706-.74 2.88-.74.8 0 1.506.133 2.12.4a3.11 3.11 0 0 1 1.44 1.16c.36.52.54 1.187.54 2v4.46c0 .493.246.74.74.74.24 0 .473-.033.7-.1l-.12 1.48c-.307.147-.694.22-1.16.22-.427 0-.814-.073-1.16-.22-.334-.16-.6-.393-.8-.7-.187-.32-.28-.713-.28-1.18v-.14l.44-.02c-.12.52-.367.953-.74 1.3a3.842 3.842 0 0 1-1.3.76c-.494.16-.994.24-1.5.24-.627 0-1.194-.1-1.7-.3a2.67 2.67 0 0 1-1.18-.9c-.28-.413-.42-.92-.42-1.52 0-.747.24-1.36.72-1.84.493-.48 1.186-.807 2.08-.98l3.88-.76-.02 1.5-2.82.58c-.56.107-.98.26-1.26.46s-.42.493-.42.88c0 .373.14.673.42.9.293.213.68.32 1.16.32.333 0 .653-.04.96-.12.32-.08.606-.207.86-.38.253-.187.446-.42.58-.7.146-.293.22-.64.22-1.04v-2.72Zm9.446 6.62c-.826 0-1.58-.207-2.26-.62-.666-.413-1.193-1.007-1.58-1.78-.386-.773-.58-1.7-.58-2.78 0-1.12.207-2.067.62-2.84.414-.773.967-1.36 1.66-1.76a4.377 4.377 0 0 1 2.28-.62c.854 0 1.574.233 2.16.7.587.467.98 1.073 1.18 1.82l-.24.22v-7.04h2.14V518h-1.9l-.16-2.72.28.02c-.093.6-.313 1.12-.66 1.56-.346.427-.78.76-1.3 1a3.961 3.961 0 0 1-1.64.34Zm.46-1.72c.574 0 1.067-.147 1.48-.44.414-.293.734-.707.96-1.24.227-.533.34-1.173.34-1.92 0-.693-.113-1.287-.34-1.78-.226-.507-.546-.893-.96-1.16-.4-.267-.866-.4-1.4-.4-.893 0-1.586.307-2.08.92-.493.613-.74 1.46-.74 2.54s.24 1.933.72 2.56c.48.613 1.154.92 2.02.92Zm9.319-10.16c-.466 0-.826-.113-1.08-.34-.24-.24-.36-.573-.36-1 0-.427.12-.753.36-.98.254-.227.614-.34 1.08-.34.454 0 .8.113 1.04.34.254.227.38.553.38.98 0 .427-.126.76-.38 1-.24.227-.586.34-1.04.34Zm1.06 1.68v10h-2.14v-10h2.14Zm3.349 10v-10h1.9l.14 2.6-.28-.28c.186-.573.453-1.047.8-1.42a3.17 3.17 0 0 1 1.26-.84 4.677 4.677 0 0 1 1.56-.26c.706 0 1.34.14 1.9.42a3.092 3.092 0 0 1 1.36 1.22c.333.547.5 1.24.5 2.08V518h-2.14v-5.82c0-.987-.207-1.667-.62-2.04-.4-.387-.907-.58-1.52-.58-.44 0-.867.107-1.28.32-.414.2-.76.527-1.04.98-.267.453-.4 1.06-.4 1.82V518h-2.14Zm21.182-12.1.34 1.68h-.12a.387.387 0 0 0-.12-.02c-.64 0-1.126.14-1.46.42-.333.267-.5.66-.5 1.18l-1.04-.48c0-.533.114-1.007.34-1.42.227-.427.547-.76.96-1 .427-.24.907-.36 1.44-.36h.16Zm-3.16 10.54c1.014 0 1.8.227 2.36.68.56.44.84 1.053.84 1.84 0 .693-.22 1.287-.66 1.78-.44.507-1.04.893-1.8 1.16-.746.267-1.606.4-2.58.4-1.64 0-2.853-.253-3.64-.76-.786-.507-1.18-1.14-1.18-1.9 0-.533.187-1 .56-1.4.387-.4 1.034-.627 1.94-.68l-.12.32c-.56-.12-1.013-.333-1.36-.64-.333-.32-.5-.767-.5-1.34 0-.573.22-1.06.66-1.46.44-.4 1.06-.633 1.86-.7l1.12.54h-.24c-.613.053-1.046.193-1.3.42-.253.227-.38.48-.38.76 0 .333.12.58.36.74.254.16.607.24 1.06.24h3Zm-1.84 4.26c.734 0 1.334-.073 1.8-.22.48-.133.834-.313 1.06-.54.24-.213.36-.453.36-.72a.874.874 0 0 0-.38-.74c-.24-.187-.68-.28-1.32-.28h-3.22c-.373 0-.686.093-.94.28a.969.969 0 0 0-.38.8c0 .44.267.787.8 1.04.534.253 1.274.38 2.22.38Zm-.08-12.9c.88 0 1.64.14 2.28.42.654.28 1.154.673 1.5 1.18.36.507.54 1.1.54 1.78 0 .68-.18 1.273-.54 1.78-.346.507-.846.9-1.5 1.18-.64.28-1.4.42-2.28.42-1.386 0-2.453-.307-3.2-.92-.733-.627-1.1-1.447-1.1-2.46 0-.68.18-1.273.54-1.78.36-.507.86-.9 1.5-1.18.654-.28 1.407-.42 2.26-.42Zm0 1.5c-.613 0-1.126.173-1.54.52-.4.333-.6.787-.6 1.36 0 .573.2 1.033.6 1.38.414.347.927.52 1.54.52.627 0 1.14-.173 1.54-.52.414-.347.62-.807.62-1.38 0-.573-.206-1.027-.62-1.36-.4-.347-.913-.52-1.54-.52Z"/><circle cx="56" cy="512" r="8" fill="#A3DBE4"/><rect width="296" height="64" x="32" y="552" fill="#25233A" rx="16"/><path fill="#FEFCFA" d="M217.809 588v-10.56h4.16c1.27 0 2.198.256 2.784.768.587.512.88 1.221.88 2.128 0 .555-.16 1.051-.48 1.488-.32.427-.789.699-1.408.816v.016c.683.107 1.211.389 1.584.848.384.448.576.971.576 1.568 0 .907-.33 1.621-.992 2.144-.661.523-1.621.784-2.88.784h-4.224Zm1.68-1.424h2.624c.672 0 1.174-.139 1.504-.416.342-.277.512-.667.512-1.168 0-.501-.17-.891-.512-1.168-.33-.277-.832-.416-1.504-.416h-2.624v3.168Zm0-4.592h2.352c1.344 0 2.016-.517 2.016-1.552 0-1.035-.672-1.552-2.016-1.552h-2.352v3.104Zm12.514-4.704c.565 0 1.067.08 1.504.24.437.149.816.389 1.136.72.331.331.603.763.816 1.296l-1.504.72c-.149-.459-.389-.821-.72-1.088-.32-.267-.768-.4-1.344-.4-.416 0-.784.101-1.104.304-.32.203-.592.491-.816.864a4.327 4.327 0 0 0-.512 1.296 6.893 6.893 0 0 0-.176 1.6v.288l.064.032c.117-.427.325-.768.624-1.024a3.053 3.053 0 0 1 1.04-.592 3.58 3.58 0 0 1 1.136-.192c.704 0 1.317.139 1.84.416.523.267.928.651 1.216 1.152.299.501.448 1.099.448 1.792 0 .704-.155 1.317-.464 1.84a3.199 3.199 0 0 1-1.296 1.2c-.544.277-1.2.416-1.968.416-.896 0-1.659-.224-2.288-.672-.629-.448-1.109-1.077-1.44-1.888-.331-.811-.496-1.76-.496-2.848 0-1.205.187-2.213.56-3.024.384-.811.901-1.419 1.552-1.824a3.983 3.983 0 0 1 2.192-.624Zm-.112 5.488a2.18 2.18 0 0 0-1.072.256c-.309.16-.555.384-.736.672a1.937 1.937 0 0 0-.256 1.008c0 .373.091.709.272 1.008.192.299.443.539.752.72.309.171.656.256 1.04.256.651 0 1.157-.176 1.52-.528.363-.352.544-.837.544-1.456 0-.395-.08-.736-.24-1.024a1.533 1.533 0 0 0-.704-.672c-.299-.16-.672-.24-1.12-.24Zm5.653 5.232v-1.248a52.274 52.274 0 0 0 2.544-1.92c.694-.555 1.248-1.067 1.664-1.536.416-.469.715-.912.896-1.328.192-.427.288-.859.288-1.296 0-.565-.176-1.024-.528-1.376-.352-.352-.842-.528-1.472-.528-.661 0-1.189.224-1.584.672-.384.437-.602 1.04-.656 1.808l-1.488-.688c.075-.672.272-1.253.592-1.744.32-.491.752-.869 1.296-1.136.555-.267 1.195-.4 1.92-.4.598 0 1.12.085 1.568.256.459.171.843.411 1.152.72.31.299.544.651.704 1.056.171.405.256.837.256 1.296 0 .672-.165 1.323-.496 1.952-.33.619-.853 1.253-1.568 1.904-.714.651-1.653 1.349-2.816 2.096v.032c.128-.021.304-.032.528-.032.224-.011.448-.016.672-.016.224-.011.406-.016.544-.016h3.328V588h-7.344Zm11.839-10.352v7.952c0 .395.101.683.304.864.213.181.496.272.848.272.288 0 .539-.043.752-.128.213-.096.411-.224.592-.384l.384 1.248a2.784 2.784 0 0 1-.912.512 3.742 3.742 0 0 1-1.184.176c-.459 0-.88-.075-1.264-.224a1.815 1.815 0 0 1-.896-.72c-.213-.341-.325-.784-.336-1.328v-7.76l1.712-.48Zm2.752 2.352v1.344h-6V580h6Zm5.948 8.16c-.47 0-.902-.091-1.296-.272a2.812 2.812 0 0 1-.976-.752 3.351 3.351 0 0 1-.592-1.104l.208-.272-.128 2.24h-1.504v-11.6h1.712v5.616l-.192-.272a2.835 2.835 0 0 1 1.04-1.36c.49-.363 1.082-.544 1.776-.544.64 0 1.226.165 1.76.496.544.331.97.805 1.28 1.424.309.619.464 1.371.464 2.256 0 .864-.16 1.605-.48 2.224-.31.619-.736 1.093-1.28 1.424a3.331 3.331 0 0 1-1.792.496Zm-.368-1.376c.693 0 1.232-.245 1.616-.736.394-.501.592-1.184.592-2.048 0-.864-.192-1.541-.576-2.032-.384-.491-.923-.736-1.616-.736-.448 0-.838.117-1.168.352-.331.224-.592.544-.784.96-.182.416-.272.912-.272 1.488 0 .565.09 1.056.272 1.472.181.405.437.72.768.944.341.224.73.336 1.168.336Zm6.582-.944c.363 0 .651.107.864.32.224.203.336.48.336.832s-.112.635-.336.848c-.213.213-.501.32-.864.32-.373 0-.672-.107-.896-.32-.213-.213-.32-.496-.32-.848s.107-.629.32-.832c.224-.213.523-.32.896-.32Zm4.279 0c.363 0 .651.107.864.32.224.203.336.48.336.832s-.112.635-.336.848c-.213.213-.501.32-.864.32-.373 0-.672-.107-.896-.32-.213-.213-.32-.496-.32-.848s.107-.629.32-.832c.224-.213.523-.32.896-.32Zm4.279 0c.363 0 .651.107.864.32.224.203.336.48.336.832s-.112.635-.336.848c-.213.213-.501.32-.864.32-.373 0-.672-.107-.896-.32-.213-.213-.32-.496-.32-.848s.107-.629.32-.832c.224-.213.523-.32.896-.32Zm7.959-8.4c1.131 0 2.027.283 2.688.848.672.565 1.008 1.328 1.008 2.288 0 .992-.336 1.76-1.008 2.304-.661.533-1.557.8-2.688.8l-.16.096h-2.448V588h-1.696v-10.56h4.304Zm-.128 4.912c.693 0 1.205-.139 1.536-.416.341-.288.512-.725.512-1.312 0-.576-.171-1.008-.512-1.296-.331-.288-.843-.432-1.536-.432h-2.48v3.456h2.48Zm1.008.352 3.44 5.296h-1.968l-2.944-4.624 1.472-.672Zm4.51-5.264h8.048v1.424c-.885.917-1.6 1.861-2.144 2.832-.544.96-.939 1.963-1.184 3.008a14.85 14.85 0 0 0-.352 3.296h-1.728c0-1.173.144-2.315.432-3.424.299-1.12.747-2.187 1.344-3.2a14.08 14.08 0 0 1 2.288-2.88l.32.432h-7.024v-1.488Zm12.165 10.72a3.409 3.409 0 0 1-1.808-.496c-.534-.331-.955-.805-1.264-1.424-.31-.619-.464-1.36-.464-2.224 0-.896.165-1.653.496-2.272.33-.619.773-1.088 1.328-1.408a3.49 3.49 0 0 1 1.824-.496c.682 0 1.258.187 1.728.56.469.373.784.859.944 1.456l-.192.176V576.4h1.712V588h-1.52l-.128-2.176.224.016c-.075.48-.251.896-.528 1.248a2.875 2.875 0 0 1-1.04.8 3.184 3.184 0 0 1-1.312.272Zm.368-1.376c.458 0 .853-.117 1.184-.352.33-.235.586-.565.768-.992.181-.427.272-.939.272-1.536 0-.555-.091-1.029-.272-1.424-.182-.405-.438-.715-.768-.928a1.976 1.976 0 0 0-1.12-.32c-.715 0-1.27.245-1.664.736-.395.491-.592 1.168-.592 2.032 0 .864.192 1.547.576 2.048.384.491.922.736 1.616.736ZM84.78 576.8V590h-2.54l-5.1-8.32-1.28-2.34h-.02l.08 2.14V590h-1.96v-13.2h2.52l5.08 8.3 1.3 2.38h.02l-.08-2.16v-8.52h1.98Zm13.447 1.84h-7.4v3.84h5.8v1.84h-5.8V590h-2.14v-13.2h9.54v1.84Zm12.506-1.84v1.84h-4.52V590h-2.14v-11.36h-4.52v-1.84h11.18Zm4.188 13.4c-1 0-1.913-.193-2.74-.58-.827-.387-1.48-.933-1.96-1.64l1.48-1.28a3.41 3.41 0 0 0 1.26 1.32c.56.32 1.227.48 2 .48.613 0 1.1-.107 1.46-.32.36-.213.54-.513.54-.9a.94.94 0 0 0-.26-.66c-.16-.2-.473-.353-.94-.46l-2.1-.44c-1.067-.213-1.827-.553-2.28-1.02-.453-.48-.68-1.087-.68-1.82 0-.547.16-1.053.48-1.52.32-.467.787-.84 1.4-1.12.627-.293 1.373-.44 2.24-.44 1 0 1.853.18 2.56.54a3.683 3.683 0 0 1 1.62 1.5l-1.48 1.24a2.473 2.473 0 0 0-1.12-1.18 3.193 3.193 0 0 0-1.54-.4c-.427 0-.793.053-1.1.16-.307.107-.54.253-.7.44a.983.983 0 0 0-.24.66c0 .267.1.5.3.7.2.2.56.353 1.08.46l2.28.48c.96.187 1.633.507 2.02.96.4.44.6.98.6 1.62 0 .64-.167 1.207-.5 1.7-.333.48-.813.853-1.44 1.12-.627.267-1.373.4-2.24.4Z"/><circle cx="56" cy="584" r="8" fill="#F2BEBC"/><path fill="#FEFCFA" d="M251.72 123h-1.582l-.882-2.422h-3.878l-.882 2.422h-1.54l3.486-9.24h1.792l3.486 9.24Zm-5.922-3.64h3.038l-1.512-4.312-1.526 4.312Zm9.804 3.78a2.989 2.989 0 0 1-1.582-.434c-.467-.289-.835-.705-1.106-1.246-.271-.541-.406-1.19-.406-1.946 0-.784.145-1.447.434-1.988.289-.541.677-.952 1.162-1.232a3.06 3.06 0 0 1 1.596-.434c.597 0 1.101.163 1.512.49.411.327.686.751.826 1.274l-.168.154v-4.928h1.498V123h-1.33l-.112-1.904.196.014c-.065.42-.219.784-.462 1.092a2.507 2.507 0 0 1-.91.7 2.773 2.773 0 0 1-1.148.238Zm.322-1.204c.401 0 .747-.103 1.036-.308a1.99 1.99 0 0 0 .672-.868c.159-.373.238-.821.238-1.344 0-.485-.079-.901-.238-1.246a1.824 1.824 0 0 0-.672-.812 1.723 1.723 0 0 0-.98-.28c-.625 0-1.111.215-1.456.644-.345.429-.518 1.022-.518 1.778s.168 1.353.504 1.792c.336.429.807.644 1.414.644Zm8.371 1.204a2.991 2.991 0 0 1-1.582-.434c-.466-.289-.835-.705-1.106-1.246-.27-.541-.406-1.19-.406-1.946 0-.784.145-1.447.434-1.988.29-.541.677-.952 1.162-1.232a3.066 3.066 0 0 1 1.596-.434c.598 0 1.102.163 1.512.49.411.327.686.751.826 1.274l-.168.154v-4.928h1.498V123h-1.33l-.112-1.904.196.014c-.065.42-.219.784-.462 1.092a2.498 2.498 0 0 1-.91.7 2.77 2.77 0 0 1-1.148.238Zm.322-1.204c.402 0 .747-.103 1.036-.308.29-.205.514-.495.672-.868.159-.373.238-.821.238-1.344 0-.485-.079-.901-.238-1.246a1.81 1.81 0 0 0-.672-.812 1.721 1.721 0 0 0-.98-.28c-.625 0-1.11.215-1.456.644-.345.429-.518 1.022-.518 1.778s.168 1.353.504 1.792c.336.429.808.644 1.414.644ZM274.769 123v-7h1.33l.098 1.82-.196-.196c.131-.401.318-.733.56-.994.252-.271.546-.467.882-.588.346-.121.71-.182 1.092-.182.495 0 .938.098 1.33.294.402.187.719.471.952.854.234.383.35.868.35 1.456V123h-1.498v-4.074c0-.691-.144-1.167-.434-1.428-.28-.271-.634-.406-1.064-.406-.308 0-.606.075-.896.224-.289.14-.532.369-.728.686-.186.317-.28.742-.28 1.274V123h-1.498Zm11.664.14c-.7 0-1.316-.145-1.848-.434a3.082 3.082 0 0 1-1.246-1.246c-.289-.551-.434-1.204-.434-1.96s.145-1.405.434-1.946c.299-.551.71-.971 1.232-1.26.523-.289 1.116-.434 1.778-.434.682 0 1.26.14 1.736.42.476.28.84.663 1.092 1.148.252.485.378 1.036.378 1.652 0 .168-.004.327-.014.476-.009.149-.023.28-.042.392h-5.628V118.8h4.97l-.742.224c0-.635-.158-1.12-.476-1.456-.317-.345-.751-.518-1.302-.518-.401 0-.751.093-1.05.28-.298.187-.527.467-.686.84-.158.364-.238.812-.238 1.344 0 .523.084.966.252 1.33.168.364.406.639.714.826.308.187.672.28 1.092.28.467 0 .845-.089 1.134-.266.29-.177.518-.425.686-.742l1.19.56c-.168.336-.396.63-.686.882-.28.243-.616.429-1.008.56a4.041 4.041 0 0 1-1.288.196Zm13.656-7.14h1.624l-2.352 7h-1.638l-1.764-5.194-1.666 5.194h-1.638l-2.338-7h1.61l1.596 5.53 1.736-5.53h1.498l1.736 5.53 1.596-5.53Z"/><path stroke="#F6C177" stroke-linecap="round" stroke-linejoin="round" stroke-width="1.364" d="M318 111v14m-7-7h14"/><rect width="296" height="229" x="32" y="163" fill="#D1B4F4" rx="16"/><rect width="40" height="40" x="272" y="179" fill="#FEFCFA" rx="20"/><path stroke="#25233A" stroke-linecap="round" stroke-linejoin="round" stroke-width="1.5" d="M292 200a1 1 0 1 0 0-2 1 1 0 0 0 0 2ZM299 200a1 1 0 1 0 0-2 1 1 0 0 0 0 2ZM285 200a1 1 0 1 0 0-2 1 1 0 0 0 0 2Z"/><g fill="#25233A" clip-path="url(#b)"><path d="M227.2 338.996c0 .546.039 1.095-.003 1.641-.056.689.157.974.905.956a155.54 155.54 0 0 1 6.223 0c.678.011.904-.215.904-.886.007-1.881-.4-1.777 1.904-1.787.623 0 .901.201.86.848-.039.602-.014 1.207-.018 1.812-.661.027-1.329 0-1.976.107-.237.039-.582.369-.606.595-.233 2.006-.049 2.169 1.886 2.082.547-.024.693-.243.675-.737-.02-.688 0-1.38 0-2.072.721.011 1.452-.031 2.162.056.229.028.591.372.598.584a59.973 59.973 0 0 1 0 4.325c-.007.209-.397.577-.612.581a186.32 186.32 0 0 1-6.933-.004c-.202-.003-.4-.393-.592-.615-.027-.035-.003-.112-.007-.171-.041-1.295-.728-1.943-2.06-1.943-3.494 0-6.992-.025-10.486.01-.758.007-.999-.219-.995-.98.014-1.832.365-1.749-1.754-1.756-.289 0-.578-.021-.867-.035 0-.233.007-.462.011-.695.007-1.85.003-1.86 1.879-1.989.477-.031.748-.16.745-.705-.007-2.309.167-1.927-1.754-1.958-.087 0-.206.028-.254-.014-.216-.198-.564-.403-.592-.636-.219-1.964-.202-1.968 1.768-2.069.059 0 .115-.007.174-.007.477.007.658-.233.654-.702-.014-1.3-.017-2.6 0-3.901.007-.521-.202-.73-.72-.705-.637.031-1.274.017-1.911.024 0-1.214.021-2.423-.003-3.637-.042-1.995.421-1.735-1.89-1.766-.519-.007-.724.181-.717.702.021 1.297.021 2.597 0 3.894-.01.536.24.71.731.716.633.007 1.267.046 1.9.07 0 .202-.007.403-.007.605-.007 1.898-.007 1.902-1.9 2.051-.425.031-.72.118-.717.636.011 3.147-.007 6.293.031 9.443 0 .205.369.553.599.581.654.083 1.326.035 1.991.035 0 .695-.028 1.387 0 2.079.021.532-.206.709-.721.702-1.273-.021-2.547-.042-3.818.01-.723.028-.866-.278-.863-.918.018-3.873.007-7.746.007-11.619v-18.645c0-1.158.004-1.165 1.131-1.165 1.894 0 1.629-.101 1.647 1.617.01.984.027 1.968-.007 2.948-.021.608.226.827.81.817.606-.01 1.212.042 1.817.066l-.017-.017c.007.664.028 1.328.017 1.992-.01.445.181.615.62.612 1.385-.014 2.773.017 4.159-.032.198-.006.393-.337.577-.528.032-.031.007-.111.007-.17.091-1.93.091-1.933 2.019-1.926 1.127.003 2.251.027 3.379.041 0 .876-.003 1.753-.007 2.629-.633.017-1.267.052-1.9.052-.505 0-.717.212-.71.73.021 1.297.024 2.594 0 3.887-.011.532.212.706.72.695 1.065-.021 2.134-.003 3.199-.007.881 0 1.322-.436 1.322-1.307s-.421-1.298-1.263-1.279c-.23 0-.463-.021-.693 0-.543.045-.703-.223-.689-.724.021-.691-.007-1.38-.014-2.072.658 0 1.319.025 1.977-.014.216-.013.595-.177.606-.292.048-.678.128-1.401-.067-2.027-.062-.208-.904-.194-1.392-.243-.369-.035-.744-.01-1.117-.01.011-.932.018-1.86.028-2.792l-.017.017c1.211-.007 2.422.004 3.633-.021 1.991-.038 1.709.372 1.761-1.807.014-.616-.223-.793-.807-.783-1.528.025-3.056 0-4.584-.01l.018.017c-.004-.692.006-1.387-.021-2.079-.021-.511.16-.768.696-.713.087.011.174 0 .261 0 1.83-.024 1.82-.024 1.695-1.901-.032-.452-.154-.723-.658-.678h-.087c-1.395-.07-2.027-.801-1.897-2.194.007-.087-.021-.202.024-.254.623-.709 1.445-.229 2.169-.309.174-.018.414.323.574.535.069.094.017.282.021.424.045 1.784-.376 1.725 1.709 1.725 1.792 0 3.588-.018 5.38.007.665.01.954-.212.894-.904-.052-.602-.017-1.214-.02-1.819 1.186 0 2.373-.003 3.556-.007 2.026 0 2.008 0 1.845-1.995-.038-.463-.23-.591-.647-.588-1.361.011-2.722-.021-4.079.032-.216.006-.561.361-.592.591-.09.653-.052 1.324-.063 1.988-.605.014-1.214 0-1.82.049-.745.063-.946-.292-.929-.977.035-1.186-.014-2.371.014-3.557.014-.639-.164-.924-.881-.921-1.781.01-1.781-.024-1.781-1.78 0-.984.017-1.968 0-2.948-.011-.487.191-.664.668-.657 2.638.038 2.067-.317 2.13 1.967a40.28 40.28 0 0 1-.004 2.601c-.021.577.143.834.776.82 2.196-.052 1.786.233 1.813-1.762.025-1.794-.017-3.585.018-5.379.01-.636-.188-.851-.839-.858-2.039-.025-2.025-.046-1.907-2.059.031-.5.191-.764.72-.709.056.007.115 0 .174 0 1.821-.038 1.848-.038 1.869 1.791.007.653.237.848.867.838 2.025-.039 1.775.152 1.761-1.676-.007-.765.257-1.04 1.013-.963.574.059 1.155.024 1.736.028l-.017-.018c.017.633.052 1.266.042 1.898-.007.508.184.762.71.713.055-.003.114 0 .174 0 1.248.03 1.872.662 1.872 1.895 0 .953-.035 1.905.031 2.851.014.222.366.427.578.622.049.045.167.011.254.011 2.106-.011 1.716.153 1.702-1.676-.007-.786.257-1.019.999-.956.602.052 1.211.007 1.816.003 0 .633.025 1.266 0 1.898-.017.498.14.741.683.731 2.286-.035 1.854.25 1.903-1.833 0-.059-.007-.114 0-.173.038-.456-.195-.605-.623-.598-.661.013-1.322 0-1.987-.007-.021-.637-.052-1.269-.056-1.906-.003-.5-.208-.761-.734-.705h-.087c-2.043-.073-2.029-.07-1.904-2.139.028-.486.209-.653.679-.65 1.274.018 2.547-.024 3.818.014.654.021.926-.156.905-.869-.06-2.065.191-1.728-1.681-1.724-.745 0-1.1-.216-.999-.984.003-.028 0-.059 0-.087.007-2.1-.094-1.721 1.698-1.711.755.004 1.093-.201.968-.973-.011-.056 0-.115 0-.174-.021-1.61.184-1.45-1.417-1.467-1.242-.011-1.242-.007-1.246-1.241 0-.261.018-.522 0-.779-.034-.546.185-.776.756-.769 2.199.021 4.399.025 6.598 0 .637-.007.769.279.783.835.049 1.79.066 1.79 1.9 1.79 1.796 0 3.588.014 5.384-.007.581-.007.86.171.818.793-.042.664-.021 1.328-.024 1.992l.017-.017c-2.022.007-4.04.021-6.062.014-.658 0-1.493.163-1.915-.171-.334-.264-.191-1.168-.198-1.79-.007-.487-.202-.675-.672-.654-.459.021-.932-.045-1.381.035-.199.035-.501.323-.505.497a511.617 511.617 0 0 0-.003 9.516c0 .177.236.466.41.508 1.681.403 2.123.052 2.148-1.645 0-.028.003-.059 0-.087-.08-.615.139-.911.81-.859.662.049 1.326.021 1.991.028l-.017-.017c.007.201.017.403.017.605.014 2.048.014 2.065-2.008 2.166-.536.028-.699.254-.71.733-.01.63-.052 1.259-.08 1.892l.017-.018c-.636.007-1.273.038-1.907.014-.532-.021-.71.195-.699.713.021 1.241-.042 2.486.021 3.723.038.79-.258.995-.999.96-1.096-.052-2.196-.01-3.296-.014-.786 0-1.182-.399-1.187-1.196-.007-.95-.476-1.424-1.409-1.422-.059 0-.119.007-.174 0-.822-.122-1.107.205-1.096 1.054.045 2.917.017 5.833.017 8.75 0 1.819.014 3.641-.007 5.459-.007.594.223.806.811.827 1.827.066 1.855.087 1.841-1.7-.007-.761.195-1.071 1.023-1.05 1.674.045 1.643 0 1.671-1.634.01-.702-.185-.956-.919-.945-1.803.024-1.806-.011-1.761-1.826 0-.087.01-.174.003-.261-.028-.521.223-.705.735-.702.598 0 1.409.146 1.733-.17.32-.313.191-1.13.184-1.725-.007-.573.233-.768.776-.754.752.021 1.504 0 2.256 0 1.756 0 2.552.885 2.387 2.656-.633.024-1.27.011-1.893.094-.251.035-.63.24-.682.438-.449 1.763.08 2.34 1.879 2.19.522-.041.696-.264.679-.761-.025-.661-.004-1.325 0-1.985.925.007 1.851.017 2.78.024l.014.014c0 1.474-.049 2.948.014 4.422.035.835-.292 1.047-1.054 1.019-1.128-.042-2.259.028-3.383-.021-.769-.031-.992.258-.975 1.008.046 2.052-.017 4.106.035 6.158.021.785-.254 1.025-.999.963-.602-.052-1.214-.011-1.82-.011 0-1.561-.017-3.118 0-4.679.007-.522-.181-.692-.703-.71-1.841-.066-1.862-.083-1.872 1.781-.004.601-.15.879-.818.893-1.855.045-1.876.07-1.928 1.933-.018.608-.24.807-.828.786-.982-.035-1.967-.018-2.948-.007-1.824.017-1.639-.223-1.615 1.61.01.771-.209 1.074-1.023 1.056-1.876-.041-1.598-.114-1.625 1.617 0 .059.007.118 0 .174-.094.661.24.855.852.848 1.706-.017 3.411-.003 5.12-.003 1.285 0 1.952-.65 2.001-1.951 0-.027.003-.059 0-.087-.056-.538.216-.709.72-.691.693.024 1.389.003 2.081.003 0 1.561.014 3.119-.01 4.68-.007.525.188.688.706.709 1.841.066 1.859.083 1.869-1.784 0-.605.146-.893.818-.89 3.988.018 7.98.014 11.969 0 .581 0 .807.178.818.793.031 1.881.055 1.905-1.817 1.944-.679.013-.915.274-.902.931.028 1.155-.024 2.312.014 3.467.025.726-.188 1.056-.978 1.004-.922-.062-1.848-.007-2.773-.017-2.026-.021-1.692.212-1.768-1.756-.028-.765.226-1.001.981-.994 1.9.017 1.761.334 1.779-1.836.003-.619-.265-.813-.839-.799-.808.02-1.618 0-2.429 0-1.97 0-1.991 0-2.047 1.974-.017.56-.202.765-.762.751-1.27-.028-2.544.011-3.814-.017-.564-.011-.849.122-.832.765.038 1.269.028 2.541.003 3.81-.01.518.195.737.703.737.634 0 1.271.032 1.904.052.007 2.657.018 5.309.024 7.966l-.066.062c-.605.014-1.214.042-1.82.031-.557-.01-.738.233-.752.783-.045 1.94-.066 1.94-2.06 1.94-.866 0-1.736.021-2.603-.004-.515-.014-.766.167-.71.699.01.115.01.233 0 .348-.052.535.021 1.46-.191 1.529-.679.226-1.462.15-2.207.153-.122 0-.348-.187-.351-.295-.028-.72-.039-1.443.02-2.159.011-.111.401-.257.623-.275 1.908-.128 1.935-.121 1.988-1.978.017-.657.271-.821.887-.821 1.813 0 1.813-.027 1.813-1.832 0-1.762-.024-3.525.011-5.288.014-.646-.206-.862-.849-.841-1.184.042-2.374-.038-3.557.028-.829.045-1.037-.275-1.006-1.043.052-1.182-.01-2.371.021-3.554.017-.591-.174-.82-.79-.806-1.531.038-3.066.024-4.601.028-.007-.936-.01-1.874-.017-2.81.661 0 1.322.007 1.983-.013.188-.007.533-.077.54-.146.066-.706.135-1.422.052-2.118-.017-.142-.658-.264-1.02-.302-.511-.052-1.033-.021-1.552-.021 0-1.561.017-3.122.004-4.683-.004-.49.135-.751.682-.758.602-.007 1.437.132 1.736-.191.338-.365.237-1.175.251-1.794.014-.564.24-.758.793-.741.982.028 1.967.007 2.952.007 1.761 0 1.743 0 1.667-1.78-.025-.581-.216-.827-.822-.81-1.099.035-2.199.01-3.299.007-.851 0-1.28-.427-1.284-1.28-.007-.971-.506-1.452-1.497-1.442-.114 0-.233.01-.348 0-.605-.046-.79.243-.8.827-.038 1.822-.056 1.843-1.859 1.881-.549.01-.751.174-.769.744-.048 1.836-.069 1.86-1.935 1.912-.654.018-.845.278-.831.894.031 1.185-.025 2.371.02 3.556.028.72-.233.956-.946.95-1.911-.018-1.664-.199-1.685 1.738 0 .087-.034.205.011.254.191.222.376.559.616.612.605.135 1.472-.08 1.799.26.334.348.118 1.196.216 1.815.035.219.25.539.435.581 1.723.386 2.123.066 2.168-1.655 0-.087.01-.174.004-.261-.028-.525.243-.723.744-.706.665.025 1.33.025 1.994.039 0 .879 0 1.762-.003 2.642-.258.014-.515.038-.776.042-2.074.045-1.827-.359-1.789 2.026 0 .209.369.553.606.592.647.104 1.315.08 1.976.107.004 1.471.035 2.942 0 4.412-.017.685.244.96.909.894h.087c1.809.038 2.14.455 1.75 2.249-.035.16-.209.41-.33.417-.689.042-1.382.042-2.071 0-.125-.007-.275-.246-.341-.406-.059-.15-.024-.341-.028-.515-.024-1.717-.414-2.03-2.144-1.641-.181.042-.386.365-.424.584-.112.636.08 1.499-.272 1.871-.317.333-1.194.156-1.823.166-.526.007-.679.254-.7.751-.087 1.972-.101 1.968-2.119 1.972-1.097 0-2.193.017-3.289.024-.004-.942-.007-1.881-.014-2.82.658 0 1.319.025 1.977-.013.215-.014.595-.178.605-.292.049-.678.129-1.402-.066-2.027-.063-.209-.905-.195-1.392-.244-.369-.035-.745-.007-1.117-.01v-2.785c1.211 0 2.419.017 3.63-.007 1.997-.042 1.733.417 1.768-1.877.007-.515-.171-.72-.7-.71-1.326.025-2.652.025-3.974 0-.533-.01-.714.212-.696.72.02.633 0 1.266-.007 1.898-1.208.014-2.419.035-3.627.042-2.025.014-1.702-.136-1.764 1.759-.021.689.24.911.901.904 1.497-.014 2.993.021 4.49.038 0 .877-.004 1.753-.007 2.629-1.497.017-2.997.055-4.493.042-.669-.007-.943.232-.888.914.049.601.014 1.21.018 1.815-.662 0-1.333-.049-1.984.028-.23.027-.581.347-.609.57-.24 1.919-.042 2.107 1.886 1.992.028 0 .07.01.084-.004.202-.205.546-.396.57-.625.08-.654.028-1.322.032-1.982l5.398.031.02.052Zm20.193-13.482h-1.646c-.55 0-1.097.014-1.647 0-.504-.011-.727.201-.727.723 0 2.291-.143 1.916 1.775 1.912.738 0 1.002.212.999.984-.011 1.877-.376 1.644 1.688 1.697.668.017.978-.188.884-.88-.025-.17 0-.344 0-.518 0-.844.428-1.268 1.284-1.273.958-.004 1.435-.477 1.43-1.418 0-.115-.01-.233 0-.344.066-.689-.268-.915-.925-.894-1.038.032-2.078.007-3.119.007l.004.004Zm-25.646 2.652h.863c2.043-.027 1.789.251 1.827-1.867.011-.625-.278-.796-.835-.789-1.006.018-2.015 0-3.024 0-.922 0-1.382.45-1.382 1.349 0 .867.447 1.302 1.34 1.304h1.207l.004.003Zm24.264-29.534h.007v-.866c0-1.968 0-1.954-1.977-1.822-.48.032-.671.209-.664.678.01.981 0 1.961 0 2.945 0 1.829.041 1.857 1.907 1.707.497-.038.741-.226.731-.737-.014-.633 0-1.269 0-1.905h-.004Zm-2.68-5.406v-.866c0-1.961 0-1.978-1.959-1.759-.226.024-.585.375-.592.584a56.82 56.82 0 0 0-.007 3.981c.007.205.241.538.425.58 1.73.403 2.133.073 2.133-1.658v-.866.004Zm.046 12.13c0 .862.425 1.293 1.277 1.293.909 0 1.364-.438 1.364-1.314 0-.89-.448-1.335-1.343-1.335-.868 0-1.302.452-1.302 1.356h.004Zm-8.158 5.371c0-.899-.439-1.349-1.316-1.349-.87 0-1.305.42-1.305 1.259 0 .927.42 1.391 1.26 1.391.907 0 1.361-.435 1.361-1.304v.003Z"/><path d="M267.683 360.496c0 .664-.032 1.332.01 1.992.038.622-.237.782-.818.796-1.994.045-1.994.063-2.025-1.933-.004-.229-.028-.455-.046-.754h-2.505c0 .685-.018 1.342.007 1.995.014.477-.181.651-.658.685-2.179.167-2.179.181-2.179-1.947 0-.952.025-1.908-.003-2.861-.018-.567.209-.803.762-.758.115.011.23 0 .348 0 1.799-.028 1.629.268 1.639-1.693.004-.897-.021-1.794.007-2.687.017-.581-.174-.835-.793-.821-2.092.045-1.859-.229-1.845 1.759.004.685-.233.904-.908.88-2.106-.08-1.807.354-1.859-1.919-.014-.668.213-.904.898-.904 1.758 0 1.758-.032 1.761-1.798 0-.26.007-.521.011-.778l.055-.053c.578.007 1.159-.017 1.733.032.71.062.968-.192.957-.922a170.41 170.41 0 0 1 0-6.233c.014-.741-.285-.946-.974-.932-1.444.024-2.889-.011-4.333-.018l-.073-.073.031-7.958c.637-.014 1.271-.017 1.908-.048.549-.028.755.205.783.758.094 1.814.111 1.835 1.969 1.88.561.014.766.199.752.758-.028 1.242.035 2.49-.021 3.727-.031.741.24.974.947.908.536-.049 1.082-.011 1.681-.011.031.484.073.852.073 1.221.007 1.707 0 3.41.003 5.117 0 1.787 0 1.822 1.796 1.794.731-.01.933.226.922.936-.027 1.759.007 1.762 1.761 1.7.06 0 .115-.007.174 0 .446.031.62-.171.61-.616-.018-.865 0-1.735 0-2.6 0-1.266-.618-1.925-1.852-1.978-.028 0-.059-.004-.087 0-.536.048-.706-.226-.696-.727.021-.897.003-1.791.003-2.688 0-1.564.789-2.279 2.367-2.145.084.007.167.045.324.091.024.347.073.712.076 1.081.014 1.158.011 2.312.011 3.47 0 .413.076.74.609.733 1.36-.014 2.721.014 4.079-.028.184-.007.501-.295.518-.479.063-.65.024-1.308.024-1.996-.309-.031-.504-.059-.703-.066-1.997-.059-1.98-.056-1.928-2.086.014-.553.178-.768.749-.758 1.329.031 2.662-.007 3.991.014.488.007.669-.174.665-.657-.007-.602-.181-1.443.136-1.745.355-.338 1.176-.219 1.796-.247.515-.021.703-.23.696-.744-.032-2.215.223-1.871-1.796-1.899-.059 0-.115-.007-.174 0-.477.032-.675-.184-.665-.664.021-.924.004-1.849.004-2.774 0-1.94 0-1.957 1.9-2.01.494-.013.717-.132.741-.678.087-1.87.108-1.87-1.764-1.905-.059 0-.115-.007-.174 0-.536.059-.714-.201-.7-.712.025-.897.007-1.791.007-2.688 0-1.279-.649-1.94-1.949-1.982-.087 0-.202.032-.254-.014-.195-.153-.525-.326-.529-.5a81.53 81.53 0 0 1 .011-4.423c.003-.163.285-.424.476-.465 1.821-.39 2.224-.063 2.27 1.745 0 .059.006.115 0 .174-.053.525.194.712.71.705 1.301-.017 2.603.018 3.904-.003.557-.01.749.191.769.754.067 1.944.087 1.965-1.841 2.01-.602.014-.824.219-.81.813.027 1.214.045 2.431 0 3.644-.025.713.295.897.936.883 1.155-.024 2.318.031 3.473-.01.769-.032 1.03.274.992 1.018-.042.807-.004 1.617 0 2.427.004 1.224.624 1.872 1.858 1.944.028 0 .059.003.087 0 .529-.032.714.233.696.737-.021.636 0 1.272.007 1.908-1.799.011-3.602.018-5.401.028-.007-1.21 0-2.423-.021-3.633-.035-1.752.428-1.717-1.813-1.697-.059 0-.139-.02-.171.011-.212.205-.584.414-.595.636-.055 1.325-.017 2.653-.035 3.977-.007.546.258.689.749.671.633-.02 1.27.007 1.903.011 0 .577-.048 1.161.011 1.731.083.814-.174 1.102-1.037 1.092-1.713-.024-1.622-.424-1.622 1.676 0 .087-.031.205.014.253.195.213.404.56.63.578.891.069 1.789.031 2.687.034 1.222 0 1.857-.613 1.903-1.839v-.087c-.049-.518.192-.74.707-.723.692.024 1.385.031 2.077.045.004.661-.024 1.325.032 1.982.017.212.229.549.407.591 1.789.421 2.21.038 2.179-1.783-.011-.623-.251-.8-.825-.769-.602.031-1.208.004-1.814 0 .004-.939.007-1.874.014-2.812.637.006 1.274-.004 1.908.027.525.028.72-.191.713-.709a95.072 95.072 0 0 1 .01-3.814c.018-.626-.271-.779-.831-.799-1.925-.077-1.907-.091-1.8-1.989.028-.529.241-.716.738-.713 1.041.007 2.085 0 3.125 0 1.546 0 1.49-.003 1.556-1.564.038-.901-.289-1.148-1.141-1.127-1.995.045-3.992-.007-5.99.028-.766.014-1.086-.209-1.058-1.033.059-1.675.021-3.351.025-5.027 0-1.902.003-1.923-1.869-1.982-.557-.017-.773-.201-.763-.761.021-1.3-.007-2.601.007-3.901.007-.504-.174-.73-.706-.733-.627 0-1.472.149-1.82-.188-.341-.327-.216-1.179-.226-1.801-.007-.529-.244-.716-.738-.723-.637-.007-1.271-.039-1.907-.059l.013.017v-7.996l-.017.017c.637-.021 1.27-.056 1.907-.063.494-.003.769-.194.721-.723-.007-.055 0-.115 0-.174.048-1.954.198-2.093 2.203-1.787.208.032.476.352.525.581.087.417.056.866.025 1.297-.046.612.236.82.814.817 1.242-.014 2.488.021 3.734 0 .637-.011.842.247.853.876.028 1.95.049 1.933 1.97 1.794.48-.035.685-.223.661-.688v-.174c.042-1.203.682-1.805 1.921-1.805.867 0 1.737-.017 2.603 0 .609.014.863-.205.877-.858.035-2.007.181-2.121 2.158-1.836.209.031.376.368.557.567.014.017 0 .055.003.083.136 1.985.136 2.003-1.851 2.072-.543.017-.822.184-.78.751.007.087-.003.174-.003.261-.007 1.905-.035 1.648 1.555 1.596.916-.028 1.128.299 1.097 1.143-.07 1.888.142 1.641-1.629 1.617-.797-.01-1.131.247-1.037 1.036.017.143 0 .289 0 .435.007 1.164.007 1.158 1.141 1.171 1.657.021 1.493-.198 1.5 1.568.007 1.179 0 1.179-1.193 1.182-1.041 0-2.085-.038-3.126.014-.762.039-1.075-.173-1.058-1.004.039-1.86-.007-1.843-1.872-1.735-.609.035-.773.302-.793.865-.063 1.864-.081 1.864-1.932 1.864-.839 0-1.681.038-2.516-.01-.738-.042-.961.274-.94.966a47.701 47.701 0 0 1 0 3.383c-.031.754.251 1.026 1.002 1.015 1.998-.031 3.996.028 5.99-.017.839-.021 1.18.271 1.065 1.098-.018.115 0 .23 0 .348 0 .83-.412 1.248-1.236 1.255-1.127.007-2.258.017-3.386.007-.543-.003-.776.209-.766.775.039 2.128-.24 1.885 1.807 1.902 1.764.014 3.529-.021 5.297.011.713.013.96-.254.953-.967-.021-1.943-.212-1.724 1.862-1.773.727-.017.87.295.863.928-.024 2.111-.028 4.221.007 6.331.011.668-.191.908-.884.904-1.705-.007-1.733.025-1.743 1.745-.004.678-.251.967-.919.901h-.087c-1.97.035-1.74-.292-1.754 1.947 0 .462.16.692.64.713.654.031 1.542-.129 1.897.226.355.354.143 1.248.257 1.887.035.202.324.362.505.532.031.032.111.007.171.011 1.28.076 1.921.746 1.921 2.009 0 2.632-.025 5.261.017 7.892.011.772-.188 1.089-1.009 1.047-1.211-.063-2.429.007-3.644-.021-.567-.01-.759.205-.748.765.038 2.26-.209 1.822 1.736 1.822.776 0 1.149.208 1.031 1.018-.018.115 0 .23 0 .348.002.846.428 1.271 1.277 1.276.895.005 1.344.462 1.347 1.373 0 2.834-.032 5.667.017 8.497.014.859-.275 1.078-1.089 1.057-1.994-.052-3.992.007-5.99-.028-.696-.01-.971.185-.964.922.011 1.707-.024 1.71-1.778 1.71-1.013 0-2.026-.017-3.038.007-.516.011-.724-.17-.721-.702.018-2.253.014-4.509 0-6.766 0-.532.237-.709.738-.705 2.554.027 2.001-.268 2.06 1.96.021.866.028 1.735-.003 2.601-.021.57.136.841.769.831 2.206-.038 1.799.191 1.827-1.763.024-1.762.042-3.529-.01-5.288-.025-.782.254-.98.998-.97 1.935.028 1.953-.007 1.761-1.94-.024-.229-.344-.563-.574-.612-.665-.135-1.562.087-1.97-.274-.351-.313-.104-1.248-.226-1.892-.045-.236-.365-.57-.588-.594-1.973-.209-1.973-.191-1.973 1.738 0 .897-.042 1.794.01 2.688.042.712-.198.949-.926.942-2.892-.031-5.787-.007-8.679 0h-1.177v5.34l-.034.031c-.693 0-1.389-.017-2.078.014-.526.025-.714-.181-.703-.702.024-1.21.01-2.423 0-3.637 0-.309-.028-.619-.042-.984h-7.883c0 .71-.041 1.422.035 2.118.018.153.453.365.7.372 1.27.038 2.54.045 3.811.01.647-.017.838.226.842.859.007 1.957.031 1.961-1.953 1.957-1.155 0-2.311-.003-3.466-.007-.021-.66-.007-1.328-.08-1.985-.024-.219-.233-.553-.418-.598-1.761-.434-2.3.045-2.189 1.815.035.567.265.747.804.723.634-.028 1.271.011 1.904.021h-.017Zm26.888-18.941c.633.007 1.27-.004 1.904.024.515.025.727-.174.716-.699-.02-1.296-.013-2.593 0-3.89.007-.455-.149-.713-.636-.713-1.326 0-2.656-.017-3.982.025-.205.007-.539.257-.585.448-.41 1.665-.038 2.131 1.654 2.173.059 0 .114.007.174 0 .539-.038.797.174.772.748-.031.632 0 1.269 0 1.901-.661.028-1.329.011-1.984.105-.233.031-.577.299-.616.507-.358 1.898-.013 2.27 1.894 2.159.028 0 .059-.003.087 0 .463.038.602-.208.591-.629-.014-.72 0-1.443 0-2.163l.011.004Zm-16.114 2.83c0 2.59-.01 5.034.025 7.482 0 .156.355.441.546.445 2.252.031 4.507.038 6.759 0 .209-.004.584-.376.588-.584.042-2.25.042-4.503 0-6.752 0-.198-.334-.563-.515-.563-2.422-.038-4.845-.025-7.403-.025v-.003Zm16.128-39.071c0-.888-.44-1.332-1.319-1.332-.88 0-1.332.466-1.358 1.398 0 .86.461 1.289 1.382 1.286.863 0 1.295-.452 1.295-1.356v.004Zm-4.051 39.061c-1.326 0-1.333 0-1.323 1.192.011 1.492-.184 1.391 1.298 1.398 1.292.007 1.292 0 1.292-1.332 0-.841-.423-1.262-1.267-1.262v.004Zm1.298-36.367c0-.871-.447-1.307-1.34-1.307-.875 0-1.312.44-1.312 1.321 0 .872.442 1.307 1.326 1.307.884 0 1.326-.44 1.326-1.321Zm-9.397 1.318c.917 0 1.375-.422 1.375-1.266 0-.904-.398-1.357-1.194-1.359-.988-.002-1.484.42-1.486 1.266 0 .903.435 1.357 1.305 1.359Z"/><path d="M267.648 282.43c1.531-.007 3.066.007 4.597-.028.581-.014.888.157.808.779-.007.056 0 .115 0 .174.052 1.832-.387 1.637 1.726 1.69.713.017.877-.265.866-.915-.031-2.02.018-4.043-.024-6.063-.014-.755.157-1.074.995-1.05 1.817.049 1.82 0 1.82 1.856 0 2.688-.02 5.372.011 8.059.007.671-.195.901-.884.897-1.782-.01-1.782.021-1.782 1.798 0 .925.017 1.849 0 2.771-.01.528.157.768.741.789 1.911.07 1.911.09 1.908 2.006 0 2.051-.007 4.103-.011 6.15l.017-.017c-.605 0-1.211.031-1.816-.003-.641-.039-.87.225-.863.851.021 1.499 0 2.994 0 4.492 0 1.776.893 2.661 2.679 2.656l-.013-.017c0 .375.003.751 0 1.126-.028 1.86.25 1.596-1.674 1.666-.811.031-1.121-.198-1.104-1.057.039-1.756.282-1.69-1.66-1.665-.699.01-.978-.219-.964-.946.039-1.791.025-3.581.007-5.372-.021-1.933.275-1.689-1.782-1.731-.637-.014-.88.219-.866.852.024 1.213-.018 2.427.01 3.64.014.66-.216.921-.905.907-2.182-.045-1.841.192-1.834-1.755 0-.783-.299-.995-1.026-.981-1.445.024-2.889-.021-4.333-.035l-.014-.014c-.014-1.098-.035-2.193-.039-3.292-.006-2.006 0-2.027-1.962-2.058-.613-.011-.801-.223-.787-.814.035-1.529.021-3.063.024-4.592l-.017.017c.606-.007 1.218.028 1.82-.028.742-.066 1.006.17.999.956-.014 1.822-.407 1.638 1.712 1.686.714.018.884-.271.867-.917-.038-1.214.017-2.427-.021-3.637-.021-.654.24-.869.863-.845.839.035 1.678.007 2.516.007 2.015 0 2.029 0 2.134 1.999.028.536.191.796.765.769.634-.035 1.271-.011 1.908-.014 0 1.209 0 2.423-.004 3.633 0 1.94 0 1.957 1.98 1.735.227-.025.585-.379.592-.588.052-1.38.049-2.767-.007-4.148-.007-.208-.369-.549-.595-.577-.654-.08-1.323-.031-1.987-.031-.004-2.079.007-4.162-.018-6.241-.024-1.936.369-1.728-1.834-1.759-.626-.01-.814.268-.793.834.021.567.003 1.134.003 1.787-.835 0-1.5.053-2.151-.027-.222-.028-.577-.386-.581-.602-.035-1.585 0-3.174.014-4.763l-.017.018-.014-.018Zm.017 14.776h-.007c0 .81-.014 1.617 0 2.427.035 1.651-.404 1.634 1.695 1.658.745.007.929-.295.915-.984-.038-1.79.004-3.581-.024-5.371-.031-1.985.376-1.707-1.82-1.756-.634-.014-.79.247-.773.821.032 1.067.011 2.138.011 3.205h.003ZM243.359 360.493c.007 1.534 0 3.063.028 4.597.014.587-.174.848-.793.806-.603-.042-1.208-.01-1.984-.01 0-.657-.018-1.224.003-1.791.021-.563-.163-.824-.79-.841-1.883-.052-1.883-.077-1.883-1.961 0-1.794-.017-3.584.011-5.378.01-.598-.188-.797-.794-.804-1.778-.02-1.809-.045-1.785 1.784.011.751-.216 1.026-.985 1.001-2.144-.062-1.789.212-1.82-1.78-.017-.984.021-1.968-.01-2.948-.018-.577.156-.821.779-.834 1.754-.042 1.768-.067 1.876-1.892.028-.5.188-.768.717-.713.056.007.115 0 .174 0 1.817-.038 1.837-.038 1.872 1.791.011.57.153.848.783.831a77.301 77.301 0 0 1 3.822 0c.556.01.748-.188.762-.751.049-1.87.069-1.871 1.956-1.871.898 0 1.795-.017 2.69.004.498.014.727-.136.738-.681.014-.671-.098-1.572.275-1.94.348-.345 1.259-.133 1.921-.143a46.834 46.834 0 0 1 2.429 0c.567.021.762-.198.752-.758-.032-1.533-.025-3.063-.032-4.596.021-.021.046-.042.066-.063.902 0 1.807 0 2.708-.003l.073.073c-.007 1.071-.028 2.138-.017 3.209.007.657-.167 1.495.163 1.919.261.334 1.173.198 1.796.205.54.007.71.257.7.748-.018.664-.018 1.328-.025 1.992l-.055.052c-2.343 0-4.688.024-7.03-.011-.693-.01-.978.16-.954.908.066 1.992-.188 1.693 1.636 1.676.783-.007 1.082.219 1.047 1.025-.087 2.062.359 1.756-2.074 1.787-.477.007-.647-.184-.686-.657-.156-1.964-.167-1.964-2.164-1.964-.839 0-1.681-.038-2.513.031-.219.018-.532.355-.588.595-.139.629.066 1.502-.286 1.86-.323.327-1.204.135-1.837.125-.494-.007-.658.212-.658.678.007 2.364-.167 1.888 1.765 1.909 2.662.027 5.321.027 7.983-.011.759-.01 1.09.174 1.062 1.005-.073 2.166.209 1.769-1.786 1.808-.953.017-1.91.028-2.864-.007-.571-.021-.772.205-.766.758.021 1.241-.017 2.486.014 3.727.018.636-.139.942-.863.914-2.175-.083-1.872.337-1.907-1.863a91.68 91.68 0 0 1-.003-2.775c.007-.542-.195-.793-.769-.765-.634.035-1.274.007-1.908.007-.003-.66.039-1.328-.041-1.978-.028-.233-.345-.584-.561-.612-1.921-.236-2.095-.056-1.983 1.878 0 .027.003.059 0 .086-.039.456.198.602.623.595.661-.014 1.322.003 1.983.01l.007.007ZM220.459 365.879c-2.836 0-5.669-.021-8.505.014-.724.01-.937-.226-.933-.939.024-5.695.024-11.386.003-17.081 0-.657.174-.915.877-.911 5.729.021 11.457.017 17.186 0 .682 0 .898.236.898.911-.021 5.722-.025 11.445 0 17.168 0 .737-.31.852-.933.848-2.864-.021-5.728-.01-8.593-.007v-.003Zm6.728-9.429c0-1.937-.021-3.873.01-5.81.01-.657-.167-.911-.874-.907-3.877.028-7.757.028-11.634 0-.693-.004-.894.233-.887.9.024 3.873.02 7.75 0 11.623 0 .622.177.869.835.866 3.908-.021 7.813-.021 11.721 0 .651.003.849-.226.839-.859-.031-1.937-.01-3.873-.01-5.81v-.003ZM290.506 277.035c2.864 0 5.725.017 8.589-.014.682-.007.891.208.888.886-.025 5.692-.032 11.383-.011 17.074 0 .696-.188.963-.926.96-5.697-.024-11.394-.024-17.091 0-.734 0-.933-.282-.933-.974.018-5.691.014-11.382-.014-17.074 0-.702.247-.879.905-.872 2.864.028 5.725.01 8.589.014h.004Zm-.045 16.142c1.938 0 3.877-.028 5.815.014.731.017.936-.247.929-.949a853.097 853.097 0 0 1-.01-11.536c.003-.664-.191-.907-.884-.904-3.877.028-7.754.024-11.634 0-.613 0-.874.15-.871.821.025 3.9.018 7.805-.006 11.709-.004.636.191.862.842.852 1.938-.035 3.877-.011 5.815-.011l.004.004ZM211.031 286.415c0-2.834.021-5.667-.01-8.501-.011-.684.209-.89.887-.89 5.732.021 11.461.021 17.193 0 .692 0 .887.23.884.897-.021 5.695-.021 11.394 0 17.088 0 .717-.233.953-.947.95-5.701-.021-11.405-.021-17.105.003-.745 0-.923-.271-.916-.963.032-2.861.014-5.726.014-8.588v.004Zm9.446 6.752c1.966 0 3.936-.018 5.902.01.588.007.815-.167.811-.782-.021-3.929-.021-7.861 0-11.79 0-.608-.216-.796-.807-.796-3.905.018-7.81.021-11.718 0-.627 0-.867.178-.863.835a951.61 951.61 0 0 1 0 11.706c-.004.653.226.845.859.834 1.939-.031 3.877-.01 5.816-.014v-.003ZM221.813 309.323c-.007-.633-.035-1.266-.01-1.898.021-.518-.178-.706-.703-.713-.648-.007-1.497.118-1.876-.23-.334-.306-.174-1.185-.178-1.811-.003-.49-.236-.643-.685-.671-.62-.038-1.518.097-1.779-.243-.33-.428-.139-1.255-.167-1.912-.007-.171.011-.345.014-.519l-.017.018c.633-.024 1.267-.066 1.9-.073.494-.004.734-.184.734-.716 0-.626-.142-1.565.185-1.801.473-.338 1.312-.185 1.994-.202.894-.021 1.792.011 2.69-.007.48-.01.672.177.668.661-.01 3.15-.01 6.296 0 9.446 0 .518-.205.744-.717.723-.692-.028-1.381-.045-2.074-.066l.018.017.003-.003Zm-.017-6.648c0-.885-.397-1.329-1.191-1.331-.937 0-1.407.431-1.409 1.293-.002.862.411 1.292 1.239 1.29.905 0 1.357-.417 1.357-1.252h.004ZM243.394 279.767c-.832.053-2.008-.208-2.405.233-.445.497-.209 1.624-.24 2.479-.024.692.042 1.394-.038 2.076-.028.229-.369.573-.599.605-2.081.264-2.13.215-2.161-1.905-.007-.56-.122-.824-.762-.835-1.859-.028-1.876-.056-1.97-1.87-.028-.571-.258-.727-.794-.744-1.969-.063-1.952-.077-1.875-2.062.02-.511.174-.699.703-.72 1.997-.083 2.015-.101 2.095 1.916.021.518.188.723.71.713a94.655 94.655 0 0 1 3.73 0c.596.014.808-.209.829-.803.073-1.822.09-1.822 1.942-1.822.985 0 1.966.014 2.951 0 .445-.007.619.174.616.615-.021 2.628.285 2.107-1.952 2.166-.261.007-.522 0-.78 0v-.049.007ZM278.436 360.486c1.56 0 3.122.011 4.681-.01.512-.007.728.156.717.692a119.867 119.867 0 0 0-.003 4.067c.007.48-.178.699-.658.654-.056-.007-.115 0-.174 0-1.914.049-1.931.049-1.97-1.846-.01-.536-.149-.762-.731-.779-1.823-.052-1.855-.076-1.83 1.728.01.73-.226.949-.94.918a55.137 55.137 0 0 0-3.727 0c-.585.017-.825-.153-.811-.775.059-2.445-.31-1.989 1.984-2.038.866-.017 1.736-.038 2.599.007.662.035.87-.229.829-.859-.039-.573 0-1.154.003-1.731l.035-.031-.004.003Z"/><path d="M216.415 309.323h5.398l-.017-.017c.007 1.529-.007 3.063.031 4.592.017.633-.205.856-.846.87-1.743.034-1.768.059-1.771 1.814 0 .657-.181.963-.888.908-.633-.052-1.27-.021-1.907-.025l.018.018v-8.174l-.018.018v-.004ZM254.151 365.895c-.692 0-1.392.049-2.077-.027-.23-.025-.588-.348-.616-.571-.275-2.162-.223-2.204 1.966-2.204.926 0 1.848.014 2.774 0 .511-.01.699.191.724.713.097 2.096.115 2.096-1.991 2.093h-.78v-.004ZM243.349 287.809c-.007-1.526 0-3.056-.028-4.582-.011-.567.129-.841.766-.824 2.488.063 1.987-.313 2.039 1.964.021.866-.028 1.732.014 2.594.028.615-.143.914-.818.862-.661-.052-1.326-.021-1.991-.028l.018.018v-.004ZM235.362 363.226v.779c0 1.985-.279 2.221-2.297 1.846-.188-.035-.46-.351-.467-.543-.041-1.411-.021-2.826-.021-4.241 0-.059-.013-.129.014-.171.564-.855 1.41-.246 2.116-.368.181-.031.595.327.62.539.08.713.031 1.439.031 2.162h.007l-.003-.003ZM216.429 301.327c-1.528.007-3.055-.004-4.583.024-.568.01-.839-.132-.825-.768.063-2.479-.313-1.982 1.966-2.034.895-.021 1.789.017 2.683-.011.54-.017.804.146.77.73-.039.689-.021 1.381-.028 2.073l.017-.018v.004ZM216.429 309.302c-1.611.021-3.226.059-4.837.035-.188 0-.498-.348-.533-.567a5.016 5.016 0 0 1 0-1.547c.035-.212.359-.532.56-.539a66.475 66.475 0 0 1 4.236 0c.195.007.518.351.539.56.066.685.018 1.38.014 2.072l.018-.017.003.003ZM246.129 337.648c0 1.345 0 1.352-1.454 1.342-1.525-.011-1.337.149-1.34-1.534 0-1.432-.122-1.244 1.528-1.258 1.266-.007 1.266 0 1.263 1.446l.003.004ZM227.18 299.946c.02-1.551-.157-1.394 1.392-1.394 1.534 0 1.395-.16 1.399 1.387 0 1.568.118 1.397-1.486 1.397-1.452 0-1.288.133-1.305-1.394v.004ZM227.197 314.684c-.693.021-1.382.042-2.074.066-.46.014-.689-.177-.689-.664 0-2.458-.202-2.009 1.903-2.051.286-.007.575.045.86.066l-.017-.017v2.618l.017-.018ZM273.06 328.246c0 .755.052 1.391-.028 2.01-.032.233-.362.431-.575.629-.048.045-.167.014-.254.011-2.304-.039-1.91.323-1.966-1.972-.014-.553.178-.817.745-.765.087.007.174 0 .261 0 1.952-.038 1.747.351 1.764-1.933 0-.466-.163-.716-.647-.699-.059 0-.115 0-.174-.003-1.292-.056-1.939-.722-1.939-1.999 0-1.763-.01-3.525.014-5.288.007-.553-.174-.751-.744-.765-1.817-.042-1.848-.063-1.827 1.735.006.716-.22.949-.937.949-1.858 0-1.876.028-1.876-1.804 0-.598-.107-.88-.803-.88-1.758 0-1.786-.031-1.768 1.714.007.688-.167.991-.912.967-2.245-.067-1.862.271-1.918-1.951-.014-.532.139-.772.724-.803 2.022-.104 2.022-.125 2.026-2.201 0-.779.024-1.561 0-2.34-.021-.58.191-.837.8-.831 2.234.025 1.925-.205 1.956 1.847.014.865.028 1.734 0 2.6-.024.65.202.942.891.939 2.137-.011 1.736.028 1.747-1.697.003-.664.073-1.064.922-1.05 1.862.035 1.848-.01 1.733-1.915-.028-.48-.198-.692-.675-.654a1.683 1.683 0 0 1-.174 0c-.564-.056-1.514.045-1.615-.198-.254-.623-.156-1.401-.139-2.117.004-.15.254-.411.407-.425.602-.048 1.222-.076 1.817.011.188.028.411.41.459.664.119.612-.069 1.425.265 1.801.292.327 1.134.201 1.733.205.693.003.693.434.693.928 0 3.758.01 7.513.017 11.272 0 1.192.003 1.182 1.148 1.199 1.608.028 1.57-.316 1.57 1.596 0 1.21-.007 1.21-1.256 1.213H273.06ZM267.623 336.17c-.003-.637.011-1.273-.017-1.906-.021-.507.164-.733.696-.73 2.255.014 4.51.011 6.769 0 .463 0 .703.16.7.647a412.239 412.239 0 0 0 0 4.161c0 .459-.171.678-.669.671-1.416-.02-2.836.018-4.249-.038-.209-.007-.501-.351-.592-.601-.24-.657.428-1.631-.41-2.013-.606-.275-1.42-.091-2.144-.111-.028-.028-.056-.056-.084-.08ZM256.897 333.614h-2.798v-1.804c0-.142-.017-.292.011-.428.191-1.025 1.005-.483 1.524-.525.425-.034 1.197-.403 1.253.525.045.744.01 1.492.014 2.236l-.004-.004Z"/><path d="m267.71 336.253-.031 1.558c-.003.202-.014.403 0 .605.035.709-.508.657-.891.567-.64-.157-1.528.552-1.917-.512-.011-.024 0-.059-.004-.086-.128-1.461.533-2.194 1.98-2.201.261 0 .519-.011.78-.014.028.028.056.056.083.08v.003ZM251.496 320.084c-.118-3.122-.466-2.705 2.624-2.622.014.682.08 1.37.014 2.041-.021.226-.369.57-.592.595-.675.066-1.36 0-2.043-.014h-.003ZM262.285 287.809c-.018-.719-.087-1.439-.025-2.152.021-.222.387-.591.599-.594 2.405-.018 2.095-.393 2.116 2.051.003.501-.188.734-.72.702-.662-.034-1.326-.017-1.988-.024l.018.017ZM282.394 349.763c-1.507-.017-1.372.164-1.379-1.307-.01-1.495 0-1.498 1.403-1.491 1.58.007 1.413-.101 1.409 1.376 0 1.607.181 1.402-1.43 1.426l-.003-.004ZM220.449 360.497c-1.069 0-2.137-.021-3.205.006-.564.014-.843-.132-.832-.768.028-2.221.021-4.443.007-6.661 0-.511.174-.727.703-.723 2.251.014 4.503.01 6.755 0 .522 0 .713.233.71.737a607.145 607.145 0 0 0 0 6.748c0 .483-.195.667-.672.661-1.155-.018-2.311-.007-3.466-.007v.007ZM290.495 290.562c-1.068 0-2.14-.021-3.208.007-.62.018-.884-.194-.877-.845.024-2.166.017-4.332-.004-6.498-.007-.573.15-.83.78-.824 2.227.028 4.454.025 6.678 0 .585-.006.738.233.731.772a321.21 321.21 0 0 0 0 6.585c.007.595-.195.828-.8.81-1.097-.031-2.196-.01-3.296-.01l-.004.003ZM224.587 286.446c0 1.099-.018 2.197.007 3.296.014.577-.178.841-.794.834a391.666 391.666 0 0 0-6.682 0c-.525.004-.71-.201-.706-.719.017-2.253.021-4.51 0-6.763-.004-.546.236-.688.734-.685 2.227.014 4.455.025 6.682-.007.641-.006.783.272.769.835-.028 1.067-.007 2.138-.007 3.209h-.003Z"/></g><path fill="#25233A" d="M65.04 323.3c.947 0 1.76.167 2.44.5a3.825 3.825 0 0 1 1.62 1.42c.387.613.58 1.353.58 2.22 0 .853-.193 1.593-.58 2.22a3.825 3.825 0 0 1-1.62 1.42c-.68.333-1.493.5-2.44.5H62.1v4.92h-2.14v-13.2h5.08Zm-.34 6.44c.947 0 1.64-.193 2.08-.58.453-.4.68-.973.68-1.72 0-.76-.227-1.333-.68-1.72-.44-.4-1.133-.6-2.08-.6h-2.6v4.62h2.6Zm11.684 6.96c-1 0-1.88-.207-2.64-.62a4.4 4.4 0 0 1-1.78-1.78c-.413-.787-.62-1.72-.62-2.8 0-1.08.207-2.007.62-2.78a4.4 4.4 0 0 1 1.76-1.8c.747-.413 1.594-.62 2.54-.62.974 0 1.8.2 2.48.6.68.4 1.2.947 1.56 1.64.36.693.54 1.48.54 2.36 0 .24-.006.467-.02.68-.013.213-.033.4-.06.56h-8.04v-1.64h7.1l-1.06.32c0-.907-.226-1.6-.68-2.08-.453-.493-1.073-.74-1.86-.74-.573 0-1.073.133-1.5.4-.426.267-.753.667-.98 1.2-.226.52-.34 1.16-.34 1.92 0 .747.12 1.38.36 1.9s.58.913 1.02 1.18c.44.267.96.4 1.56.4.667 0 1.207-.127 1.62-.38a2.69 2.69 0 0 0 .98-1.06l1.7.8c-.24.48-.566.9-.98 1.26-.4.347-.88.613-1.44.8-.56.187-1.173.28-1.84.28Zm7.163-.2v-10h1.82l.2 1.8c.266-.653.66-1.147 1.18-1.48.533-.347 1.186-.52 1.96-.52.2 0 .4.02.6.06.2.027.366.073.5.14l-.3 1.88a2.545 2.545 0 0 0-.5-.12 3.364 3.364 0 0 0-.72-.06c-.414 0-.82.113-1.22.34-.4.213-.734.54-1 .98-.254.44-.38 1-.38 1.68v5.3h-2.14Zm11.73.2c-1 0-1.914-.193-2.74-.58-.827-.387-1.48-.933-1.96-1.64l1.48-1.28c.293.547.713.987 1.26 1.32.56.32 1.226.48 2 .48.613 0 1.1-.107 1.46-.32.36-.213.54-.513.54-.9a.94.94 0 0 0-.26-.66c-.16-.2-.474-.353-.94-.46l-2.1-.44c-1.067-.213-1.827-.553-2.28-1.02-.454-.48-.68-1.087-.68-1.82 0-.547.16-1.053.48-1.52.32-.467.786-.84 1.4-1.12.626-.293 1.373-.44 2.24-.44 1 0 1.853.18 2.56.54a3.686 3.686 0 0 1 1.62 1.5l-1.48 1.24c-.254-.533-.627-.927-1.12-1.18a3.193 3.193 0 0 0-1.54-.4c-.427 0-.794.053-1.1.16-.307.107-.54.253-.7.44a.983.983 0 0 0-.24.66c0 .267.1.5.3.7.2.2.56.353 1.08.46l2.28.48c.96.187 1.633.507 2.02.96.4.44.6.98.6 1.62 0 .64-.167 1.207-.5 1.7-.334.48-.814.853-1.44 1.12-.627.267-1.374.4-2.24.4Zm11.106-10.4c.973 0 1.833.207 2.58.62a4.283 4.283 0 0 1 1.74 1.8c.426.773.64 1.7.64 2.78 0 1.08-.214 2.013-.64 2.8a4.315 4.315 0 0 1-1.74 1.78c-.747.413-1.607.62-2.58.62-.974 0-1.834-.207-2.58-.62a4.429 4.429 0 0 1-1.76-1.78c-.427-.787-.64-1.72-.64-2.8 0-1.08.213-2.007.64-2.78a4.394 4.394 0 0 1 1.76-1.8c.746-.413 1.606-.62 2.58-.62Zm0 1.68c-.6 0-1.114.14-1.54.42-.414.267-.734.66-.96 1.18-.227.52-.34 1.16-.34 1.92 0 .747.113 1.387.34 1.92.226.52.546.92.96 1.2.426.267.94.4 1.54.4.6 0 1.106-.133 1.52-.4.413-.28.733-.68.96-1.2.226-.533.34-1.173.34-1.92 0-.76-.114-1.4-.34-1.92-.227-.52-.547-.913-.96-1.18-.414-.28-.92-.42-1.52-.42Zm7.652 8.52v-10h1.9l.14 2.6-.28-.28c.187-.573.453-1.047.8-1.42a3.17 3.17 0 0 1 1.26-.84 4.677 4.677 0 0 1 1.56-.26c.707 0 1.34.14 1.9.42a3.087 3.087 0 0 1 1.36 1.22c.333.547.5 1.24.5 2.08v6.48h-2.14v-5.82c0-.987-.207-1.667-.62-2.04-.4-.387-.907-.58-1.52-.58-.44 0-.867.107-1.28.32-.413.2-.76.527-1.04.98-.267.453-.4 1.06-.4 1.82v5.32h-2.14Zm18.163-6.42c0-.667-.187-1.18-.56-1.54-.36-.373-.86-.56-1.5-.56-.6 0-1.114.14-1.54.42-.427.28-.74.733-.94 1.36l-1.8-.76c.253-.813.746-1.467 1.48-1.96.746-.493 1.706-.74 2.88-.74.8 0 1.506.133 2.12.4a3.11 3.11 0 0 1 1.44 1.16c.36.52.54 1.187.54 2v4.46c0 .493.246.74.74.74.24 0 .473-.033.7-.1l-.12 1.48c-.307.147-.694.22-1.16.22a2.94 2.94 0 0 1-1.16-.22c-.334-.16-.6-.393-.8-.7-.187-.32-.28-.713-.28-1.18v-.14l.44-.02c-.12.52-.367.953-.74 1.3a3.85 3.85 0 0 1-1.3.76 4.84 4.84 0 0 1-1.5.24c-.627 0-1.194-.1-1.7-.3-.494-.2-.887-.5-1.18-.9-.28-.413-.42-.92-.42-1.52 0-.747.24-1.36.72-1.84.493-.48 1.186-.807 2.08-.98l3.88-.76-.02 1.5-2.82.58c-.56.107-.98.26-1.26.46s-.42.493-.42.88c0 .373.14.673.42.9.293.213.68.32 1.16.32.333 0 .653-.04.96-.12.32-.08.606-.207.86-.38.253-.187.446-.42.58-.7.146-.293.22-.64.22-1.04v-2.72Zm7.706-8.08v11.7c0 .493.087.833.26 1.02.173.187.46.28.86.28.24 0 .44-.013.6-.04.173-.04.387-.107.64-.2l-.24 1.6a3.133 3.133 0 0 1-.78.24 3.94 3.94 0 0 1-.88.1c-.893 0-1.553-.227-1.98-.68-.413-.467-.62-1.18-.62-2.14V322h2.14Z"/><path stroke="#25233A" stroke-linecap="round" stroke-linejoin="round" stroke-width="1.5" d="m156 326.5 2 2 4-4m3.667 2a6.666 6.666 0 0 1-6.667 6.666 6.666 6.666 0 1 1 0-13.333 6.667 6.667 0 0 1 6.667 6.667Z"/><path fill="#25233A" d="M59.568 362.5v-10.56h4.16c1.27 0 2.197.256 2.784.768.587.512.88 1.221.88 2.128 0 .555-.16 1.051-.48 1.488-.32.427-.79.699-1.408.816v.016c.683.107 1.21.389 1.584.848.384.448.576.971.576 1.568 0 .907-.33 1.621-.992 2.144-.661.523-1.621.784-2.88.784h-4.224Zm1.68-1.424h2.624c.672 0 1.173-.139 1.504-.416.341-.277.512-.667.512-1.168 0-.501-.17-.891-.512-1.168-.33-.277-.832-.416-1.504-.416h-2.624v3.168Zm0-4.592H63.6c1.344 0 2.016-.517 2.016-1.552 0-1.035-.672-1.552-2.016-1.552h-2.352v3.104Zm12.514-4.704c.565 0 1.066.08 1.504.24.437.149.816.389 1.136.72.33.331.602.763.816 1.296l-1.504.72c-.15-.459-.39-.821-.72-1.088-.32-.267-.768-.4-1.344-.4-.416 0-.784.101-1.104.304-.32.203-.592.491-.816.864a4.335 4.335 0 0 0-.512 1.296 6.871 6.871 0 0 0-.176 1.6v.288l.064.032c.117-.427.325-.768.624-1.024.31-.267.656-.464 1.04-.592a3.577 3.577 0 0 1 1.136-.192c.704 0 1.317.139 1.84.416.522.267.928.651 1.216 1.152.298.501.448 1.099.448 1.792 0 .704-.155 1.317-.464 1.84-.31.512-.742.912-1.296 1.2-.544.277-1.2.416-1.968.416-.896 0-1.659-.224-2.288-.672-.63-.448-1.11-1.077-1.44-1.888-.33-.811-.496-1.76-.496-2.848 0-1.205.186-2.213.56-3.024.384-.811.901-1.419 1.552-1.824a3.983 3.983 0 0 1 2.192-.624Zm-.112 5.488c-.406 0-.763.085-1.072.256-.31.16-.555.384-.736.672a1.94 1.94 0 0 0-.256 1.008c0 .373.09.709.272 1.008.192.299.442.539.752.72.31.171.656.256 1.04.256.65 0 1.157-.176 1.52-.528.362-.352.544-.837.544-1.456 0-.395-.08-.736-.24-1.024a1.532 1.532 0 0 0-.704-.672c-.299-.16-.672-.24-1.12-.24Zm5.653 5.232v-1.248a52.97 52.97 0 0 0 2.544-1.92c.693-.555 1.248-1.067 1.664-1.536.416-.469.715-.912.896-1.328.192-.427.288-.859.288-1.296 0-.565-.176-1.024-.528-1.376-.352-.352-.843-.528-1.472-.528-.661 0-1.19.224-1.584.672-.384.437-.603 1.04-.656 1.808l-1.488-.688c.075-.672.272-1.253.592-1.744.32-.491.752-.869 1.296-1.136.555-.267 1.195-.4 1.92-.4.597 0 1.12.085 1.568.256a3.17 3.17 0 0 1 1.152.72c.31.299.544.651.704 1.056.17.405.256.837.256 1.296 0 .672-.165 1.323-.496 1.952-.33.619-.853 1.253-1.568 1.904-.715.651-1.653 1.349-2.816 2.096v.032c.128-.021.304-.032.528-.032.224-.011.448-.016.672-.016.224-.011.405-.016.544-.016h3.328v1.472h-7.344Zm15.167 3.36v-5.696l.24.224c-.075.469-.251.875-.528 1.216a2.61 2.61 0 0 1-1.008.784 3.071 3.071 0 0 1-1.296.272 3.33 3.33 0 0 1-1.792-.496c-.534-.331-.96-.805-1.28-1.424-.31-.629-.464-1.381-.464-2.256 0-.875.165-1.621.496-2.24.33-.619.773-1.088 1.328-1.408a3.494 3.494 0 0 1 1.824-.496c.469 0 .896.096 1.28.288.394.181.72.443.976.784.266.331.442.725.528 1.184l-.24.08.128-2.176h1.52v11.36H94.47Zm-2.224-4.592c.448 0 .837-.112 1.168-.336.33-.224.586-.544.768-.96.192-.427.288-.928.288-1.504 0-.597-.091-1.099-.272-1.504-.182-.405-.438-.715-.768-.928a2.08 2.08 0 0 0-1.152-.32c-.694 0-1.238.251-1.632.752-.395.491-.592 1.168-.592 2.032 0 .864.192 1.541.576 2.032.384.491.922.736 1.616.736Zm12.159 4.592v-5.696l.24.224a2.523 2.523 0 0 1-.528 1.216 2.615 2.615 0 0 1-1.008.784 3.074 3.074 0 0 1-1.296.272 3.329 3.329 0 0 1-1.792-.496c-.534-.331-.96-.805-1.28-1.424-.31-.629-.464-1.381-.464-2.256 0-.875.165-1.621.496-2.24.33-.619.773-1.088 1.328-1.408a3.495 3.495 0 0 1 1.824-.496c.469 0 .896.096 1.28.288.395.181.72.443.976.784.267.331.443.725.528 1.184l-.24.08.128-2.176h1.52v11.36h-1.712Zm-2.224-4.592c.448 0 .837-.112 1.168-.336.331-.224.587-.544.768-.96.192-.427.288-.928.288-1.504 0-.597-.091-1.099-.272-1.504-.181-.405-.437-.715-.768-.928a2.082 2.082 0 0 0-1.152-.32c-.693 0-1.237.251-1.632.752-.395.491-.592 1.168-.592 2.032 0 .864.192 1.541.576 2.032.384.491.923.736 1.616.736Zm7.359-.928c.363 0 .651.107.864.32.224.203.336.48.336.832s-.112.635-.336.848c-.213.213-.501.32-.864.32-.373 0-.672-.107-.896-.32-.213-.213-.32-.496-.32-.848s.107-.629.32-.832c.224-.213.523-.32.896-.32Zm4.279 0c.363 0 .651.107.864.32.224.203.336.48.336.832s-.112.635-.336.848c-.213.213-.501.32-.864.32-.373 0-.672-.107-.896-.32-.213-.213-.32-.496-.32-.848s.107-.629.32-.832c.224-.213.523-.32.896-.32Zm4.279 0c.363 0 .651.107.864.32.224.203.336.48.336.832s-.112.635-.336.848c-.213.213-.501.32-.864.32-.373 0-.672-.107-.896-.32-.213-.213-.32-.496-.32-.848s.107-.629.32-.832c.224-.213.523-.32.896-.32Zm3.655 2.16v-10.56h4.16c1.269 0 2.197.256 2.784.768.587.512.88 1.221.88 2.128 0 .555-.16 1.051-.48 1.488-.32.427-.789.699-1.408.816v.016c.683.107 1.211.389 1.584.848.384.448.576.971.576 1.568 0 .907-.331 1.621-.992 2.144-.661.523-1.621.784-2.88.784h-4.224Zm1.68-1.424h2.624c.672 0 1.173-.139 1.504-.416.341-.277.512-.667.512-1.168 0-.501-.171-.891-.512-1.168-.331-.277-.832-.416-1.504-.416h-2.624v3.168Zm0-4.592h2.352c1.344 0 2.016-.517 2.016-1.552 0-1.035-.672-1.552-2.016-1.552h-2.352v3.104Zm7.858-4.544h8.048v1.424c-.885.917-1.6 1.861-2.144 2.832-.544.96-.939 1.963-1.184 3.008a14.85 14.85 0 0 0-.352 3.296h-1.728c0-1.173.144-2.315.432-3.424.299-1.12.747-2.187 1.344-3.2a14.08 14.08 0 0 1 2.288-2.88l.32.432h-7.024v-1.488Zm13.667-.16c.949 0 1.771.181 2.464.544.693.352 1.28.875 1.76 1.568l-1.152 1.104c-.405-.619-.864-1.061-1.376-1.328-.501-.277-1.099-.416-1.792-.416-.512 0-.933.069-1.264.208-.331.139-.576.325-.736.56-.149.224-.224.48-.224.768 0 .331.112.619.336.864.235.245.667.437 1.296.576l2.144.48c1.024.224 1.749.565 2.176 1.024.427.459.64 1.04.64 1.744 0 .651-.176 1.216-.528 1.696-.352.48-.843.848-1.472 1.104-.619.256-1.349.384-2.192.384-.747 0-1.419-.096-2.016-.288a5.396 5.396 0 0 1-1.568-.784 4.637 4.637 0 0 1-1.104-1.136l1.184-1.184c.224.373.507.709.848 1.008.341.288.736.512 1.184.672.459.16.965.24 1.52.24.491 0 .912-.059 1.264-.176.363-.117.635-.288.816-.512.192-.235.288-.512.288-.832 0-.309-.107-.581-.32-.816-.203-.235-.587-.416-1.152-.544l-2.32-.528c-.64-.139-1.168-.336-1.584-.592-.416-.256-.725-.565-.928-.928a2.567 2.567 0 0 1-.304-1.248c0-.597.16-1.136.48-1.616.331-.491.805-.88 1.424-1.168.619-.299 1.355-.448 2.208-.448ZM63.333 209.663H60.533c-1.248-.002-2.252-.825-2.49-2.047-.03-.15-.04-.305-.041-.458C58 201.143 58 195.128 58 189.114c0-.494.288-.782.787-.782l4.359-.001h.177c.004-.073.009-.135.009-.197v-4.329c0-.53.276-.805.809-.805h18.014c1.41 0 2.504 1.098 2.505 2.509v2.814c.065.003.123.008.18.008.912.002 1.825-.011 2.737.007a2.455 2.455 0 0 1 2.415 2.445c.011 1.919.01 3.838 0 5.757a2.472 2.472 0 0 1-2.486 2.453H84.66V201.838a2.472 2.472 0 0 1-2.482 2.486c-1.894.003-3.788.003-5.682 0-1.402-.001-2.493-1.101-2.494-2.505v-2.826H81.924a2.72 2.72 0 0 0 2.701-2.317c.022-.146.034-.295.034-.443.002-1.706.001-3.412.001-5.117 0-1.583-1.201-2.784-2.788-2.785H66.15c-1.62 0-2.817 1.2-2.817 2.822v15.708c0 1.594 1.21 2.802 2.809 2.803h5.34c1.24.001 2.26.822 2.472 2.042.146.839.067 1.656-.5 2.353-.493.603-1.135.928-1.913.933-1.914.011-3.828.01-5.742.001a2.484 2.484 0 0 1-2.465-2.496c-.003-.877 0-1.755 0-2.632v-.202Z"/></g><defs><clipPath id="a"><path fill="#fff" d="M0 0h360v600H0z"/></clipPath><clipPath id="b"><path fill="#fff" d="M211 277h89v89h-89z"/></clipPath></defs></svg>