<svg xmlns="http://www.w3.org/2000/svg" width="360" height="600" fill="none"><path fill="#191724" d="M0 0h360v600H0z"/><rect width="40" height="40" x="32" y="27" fill="#25233A" rx="20"/><path stroke="#FEFCFA" stroke-linecap="round" stroke-linejoin="round" stroke-width="1.5" d="M60 47H44m0 0 6 6m-6-6 6-6"/><rect width="81" height="40" x="199" y="27" fill="#25233A" rx="20"/><path fill="#FEFCFA" d="M225.822 42.76V52h-1.386v-5.348l.112-2.548h-.014L221.72 52h-1.246l-2.814-7.896h-.014l.112 2.548V52h-1.386v-9.24h2.226l1.862 5.348.644 2.198h.028l.658-2.198 1.848-5.348h2.184Zm3.207 1.064c-.326 0-.578-.08-.756-.238-.168-.168-.252-.401-.252-.7 0-.299.084-.527.252-.686.178-.159.43-.238.756-.238.318 0 .56.08.728.238.178.159.266.387.266.686 0 .299-.088.532-.266.7-.168.159-.41.238-.728.238Zm.742 1.176v7h-1.498v-7h1.498Zm2.26 7v-7h1.33l.098 1.82-.196-.196c.131-.401.317-.733.56-.994.252-.27.546-.467.882-.588a3.268 3.268 0 0 1 1.092-.182c.495 0 .938.098 1.33.294.401.187.719.471.952.854.233.383.35.868.35 1.456V52h-1.498v-4.074c0-.69-.145-1.167-.434-1.428-.28-.27-.635-.406-1.064-.406a1.93 1.93 0 0 0-.896.224c-.289.14-.532.369-.728.686-.187.317-.28.742-.28 1.274V52h-1.498Zm12.63-4.494c0-.467-.131-.826-.392-1.078-.252-.261-.602-.392-1.05-.392-.42 0-.779.098-1.078.294-.299.196-.518.513-.658.952l-1.26-.532a2.52 2.52 0 0 1 1.036-1.372c.523-.345 1.195-.518 2.016-.518.56 0 1.055.093 1.484.28a2.18 2.18 0 0 1 1.008.812c.252.364.378.83.378 1.4v3.122c0 .345.173.518.518.518.168 0 .331-.023.49-.07l-.084 1.036c-.215.103-.485.154-.812.154-.299 0-.569-.051-.812-.154a1.358 1.358 0 0 1-.56-.49c-.131-.224-.196-.5-.196-.826v-.098l.308-.014a1.749 1.749 0 0 1-.518.91c-.261.233-.565.41-.91.532a3.381 3.381 0 0 1-1.05.168c-.439 0-.835-.07-1.19-.21a1.87 1.87 0 0 1-.826-.63c-.196-.29-.294-.644-.294-1.064 0-.523.168-.952.504-1.288.345-.336.831-.565 1.456-.686l2.716-.532-.014 1.05-1.974.406c-.392.075-.686.182-.882.322-.196.14-.294.345-.294.616a.77.77 0 0 0 .294.63c.205.15.476.224.812.224.233 0 .457-.028.672-.084.224-.056.425-.145.602-.266a1.29 1.29 0 0 0 .406-.49c.103-.205.154-.448.154-.728v-1.904Z"/><path stroke="#FEFCFA" stroke-linecap="round" stroke-linejoin="round" stroke-width="1.364" d="m254 44 6 6 6-6"/><rect width="40" height="40" x="288" y="27" fill="#25233A" rx="20"/><path stroke="#FEFCFA" stroke-linecap="round" stroke-linejoin="round" stroke-width="1.5" d="m314 41-12 12m0-12 12 12"/><g opacity=".3"><rect width="192" height="48" x="84" y="520" fill="#F6C177" rx="24"/><path fill="#25233A" d="M172.28 538.44V549h-2.528l-3.696-6.208-.912-1.728h-.016l.064 1.824V549h-1.984v-10.56h2.512l3.696 6.192.912 1.744h.032l-.064-1.824v-6.112h1.984Zm6.07 10.72c-.843 0-1.579-.165-2.208-.496a3.49 3.49 0 0 1-1.44-1.424c-.341-.619-.512-1.365-.512-2.24 0-.875.171-1.621.512-2.24a3.518 3.518 0 0 1 1.424-1.424c.619-.331 1.323-.496 2.112-.496.811 0 1.499.165 2.064.496.565.32.997.763 1.296 1.328.299.555.448 1.189.448 1.904 0 .213-.005.416-.016.608a6.289 6.289 0 0 1-.048.512h-6.384v-1.52h5.424l-1.056.384c0-.672-.155-1.189-.464-1.552-.299-.363-.725-.544-1.28-.544-.405 0-.757.096-1.056.288-.288.192-.507.48-.656.864-.149.373-.224.848-.224 1.424 0 .565.08 1.035.24 1.408.171.363.405.635.704.816.309.181.677.272 1.104.272.469 0 .848-.091 1.136-.272.288-.181.512-.432.672-.752l1.744.672a2.773 2.773 0 0 1-.784 1.072 3.542 3.542 0 0 1-1.232.688 4.996 4.996 0 0 1-1.52.224Zm6.859-8.16 2.112 3.504.592-.016 3.2 4.512h-2.544l-2.192-3.584-.64-.064-3.088-4.352h2.56Zm5.856 0-3.088 4.304-.656-.048-2.336 3.744h-2.48l3.312-4.544.624.08 2.144-3.536h2.48Zm4.213-2.448v7.84c0 .384.096.667.288.848.203.171.475.256.816.256.267 0 .501-.037.704-.112.203-.085.384-.197.544-.336l.352 1.456a2.88 2.88 0 0 1-.96.48 4.148 4.148 0 0 1-1.216.176c-.533 0-1.008-.08-1.424-.24a2.015 2.015 0 0 1-.96-.768c-.224-.352-.336-.821-.336-1.408v-7.584l2.192-.608Zm2.56 2.448v1.632h-6.224V541h6.224Z"/></g><rect width="296" height="80" x="32" y="150" fill="#25233A" rx="16"/><rect width="48" height="48" fill="#191724" rx="24" transform="matrix(1 0 0 1 42 166)"/><path fill="#FEFCFA" stroke="#FEFCFA" stroke-width=".133" d="M64.993 199.013c.273.256.64.391 1.007.384.372.022.743-.114 1.029-.371v-.001c.277-.258.458-.615.482-1.01l.145-1.265c1.536-.478 2.468-1.701 2.699-3.546l1.387-10.995c.278-.05.567-.06.85-.06.425 0 .852.053 1.268.161v16.757h2.873v-13.528c0-1.832-.801-3.151-2.256-3.704v-.827c0-.514-.154-.95-.426-1.258a1.45 1.45 0 0 0-1.115-.484c-.452 0-.83.147-1.112.432-.28.283-.46.696-.53 1.219l-.099.759a3.511 3.511 0 0 0-1.889 1.337c-.476.664-.78 1.537-.914 2.612l-1.284 10.593a5.9 5.9 0 0 1-2.216 0l-1.284-10.593v-.001c-.139-1.075-.444-1.947-.918-2.611a3.496 3.496 0 0 0-1.885-1.337l-.098-.759c-.07-.523-.247-.936-.527-1.219-.28-.285-.658-.432-1.117-.432a1.45 1.45 0 0 0-1.114.484c-.272.308-.426.744-.426 1.258v.827c-.723.278-1.284.739-1.666 1.358-.39.63-.59 1.422-.59 2.346v13.528h2.873V182.31a5.05 5.05 0 0 1 1.269-.161c.29 0 .57.02.85.062l1.386 10.993c.116.946.405 1.722.864 2.319.452.587 1.066.998 1.836 1.228l.155 1.264v.001c.037.382.217.739.493.997Zm.123-1.059-.127-1.044c.682.1 1.364.099 2.045-.002l-.127 1.046v.008a.866.866 0 0 1-.075.326.868.868 0 0 1-.203.273.798.798 0 0 1-.616.219v-.001l-.01.001a.84.84 0 0 1-.608-.218.908.908 0 0 1-.278-.603v-.005Zm-9.22-12.403v-.001c0-1.483.566-2.512 1.627-3.011v15.911h-1.64l.012-12.899Zm6.365 7.577-1.356-10.732c1.183.471 1.877 1.553 2.099 3.328l1.253 10.332c-1.13-.446-1.808-1.422-1.996-2.928Zm7.512-.012c-.096.777-.321 1.409-.67 1.9-.329.463-.77.805-1.325 1.027l1.253-10.319c.222-1.775.915-2.857 2.098-3.328l-1.356 10.72ZM59.421 181.52a5.12 5.12 0 0 0-1.258.133v-.621c0-.355.09-.634.247-.822.155-.186.383-.291.677-.291.295 0 .524.092.692.269.17.18.284.454.335.829l.07.54a6.995 6.995 0 0 0-.763-.037Zm13.23 0a4.71 4.71 0 0 0-.766.037l.07-.54c.05-.375.168-.649.339-.828.17-.178.399-.27.689-.27a.84.84 0 0 1 .672.296c.159.19.251.468.251.817v.624a5.773 5.773 0 0 0-1.256-.136Zm3.489 4.03v12.9H74.51v-15.911c1.061.499 1.629 1.528 1.629 3.011Z"/><path fill="#FEFCFA" d="M110.368 170.94v10.56h-1.584v-6.112l.128-2.912h-.016l-3.216 9.024h-1.424l-3.216-9.024h-.016l.128 2.912v6.112h-1.584v-10.56h2.544l2.128 6.112.736 2.512h.032l.752-2.512 2.112-6.112h2.496Zm3.666 1.216c-.374 0-.662-.091-.864-.272-.192-.192-.288-.459-.288-.8s.096-.603.288-.784c.202-.181.49-.272.864-.272.362 0 .64.091.832.272.202.181.304.443.304.784s-.102.608-.304.8c-.192.181-.47.272-.832.272Zm.848 1.344v8h-1.712v-8h1.712Zm2.582 8v-8h1.52l.112 2.08-.224-.224c.15-.459.363-.837.64-1.136a2.549 2.549 0 0 1 1.008-.672 3.732 3.732 0 0 1 1.248-.208 3.35 3.35 0 0 1 1.52.336c.459.213.822.539 1.088.976.267.437.4.992.4 1.664v5.184h-1.712v-4.656c0-.789-.165-1.333-.496-1.632-.32-.309-.725-.464-1.216-.464-.352 0-.693.085-1.024.256-.33.16-.608.421-.832.784-.213.363-.32.848-.32 1.456v4.256h-1.712Zm14.435-5.136c0-.533-.15-.944-.448-1.232-.288-.299-.688-.448-1.2-.448-.48 0-.891.112-1.232.336-.342.224-.592.587-.752 1.088l-1.44-.608a2.875 2.875 0 0 1 1.184-1.568c.597-.395 1.365-.592 2.304-.592.64 0 1.205.107 1.696.32.49.203.874.512 1.152.928.288.416.432.949.432 1.6v3.568c0 .395.197.592.592.592.192 0 .378-.027.56-.08l-.096 1.184c-.246.117-.555.176-.928.176-.342 0-.651-.059-.928-.176a1.55 1.55 0 0 1-.64-.56c-.15-.256-.224-.571-.224-.944v-.112l.352-.016a2 2 0 0 1-.592 1.04 3.082 3.082 0 0 1-1.04.608 3.87 3.87 0 0 1-1.2.192c-.502 0-.955-.08-1.36-.24a2.13 2.13 0 0 1-.944-.72c-.224-.331-.336-.736-.336-1.216 0-.597.192-1.088.576-1.472.394-.384.949-.645 1.664-.784l3.104-.608-.016 1.2-2.256.464c-.448.085-.784.208-1.008.368-.224.16-.336.395-.336.704a.88.88 0 0 0 .336.72c.234.171.544.256.928.256.266 0 .522-.032.768-.096.256-.064.485-.165.688-.304a1.48 1.48 0 0 0 .464-.56c.117-.235.176-.512.176-.832v-2.176Z"/><path fill="#7D7A9C" d="M110.368 196.94v10.56h-1.584v-6.112l.128-2.912h-.016l-3.216 9.024h-1.424l-3.216-9.024h-.016l.128 2.912v6.112h-1.584v-10.56h2.544l2.128 6.112.736 2.512h.032l.752-2.512 2.112-6.112h2.496Zm4.754 0v10.56h-1.712v-10.56h1.712Zm11.691 0v10.56h-2.032l-4.08-6.656-1.024-1.872h-.016l.064 1.712v6.816h-1.568v-10.56h2.016l4.064 6.64 1.04 1.904h.016l-.064-1.728v-6.816h1.584Zm11.798 10.56h-1.808l-1.008-2.768h-4.432l-1.008 2.768h-1.76l3.984-10.56h2.048l3.984 10.56Zm-6.768-4.16h3.472l-1.728-4.928-1.744 4.928Z"/><path fill="#FEFCFA" d="M213.794 181.5v-1.248a52.274 52.274 0 0 0 2.544-1.92c.694-.555 1.248-1.067 1.664-1.536.416-.469.715-.912.896-1.328.192-.427.288-.859.288-1.296 0-.565-.176-1.024-.528-1.376-.352-.352-.842-.528-1.472-.528-.661 0-1.189.224-1.584.672-.384.437-.602 1.04-.656 1.808l-1.488-.688c.075-.672.272-1.253.592-1.744.32-.491.752-.869 1.296-1.136.555-.267 1.195-.4 1.92-.4.598 0 1.12.085 1.568.256.459.171.843.411 1.152.72.31.299.544.651.704 1.056.171.405.256.837.256 1.296 0 .672-.165 1.323-.496 1.952-.33.619-.853 1.253-1.568 1.904-.714.651-1.653 1.349-2.816 2.096v.032c.128-.021.304-.032.528-.032.224-.011.448-.016.672-.016.224-.011.406-.016.544-.016h3.328v1.472h-7.344Zm10.351-2.16c.299 0 .544.075.736.224.203.139.357.336.464.592.107.245.16.528.16.848 0 .395-.075.773-.224 1.136a3.103 3.103 0 0 1-.656 1.008c-.277.309-.613.56-1.008.752l-.8-.688c.288-.107.544-.245.768-.416.224-.171.411-.363.56-.576.16-.213.272-.432.336-.656l-.064-.032a.776.776 0 0 1-.192.08.982.982 0 0 1-.288.032.99.99 0 0 1-.464-.128 1.01 1.01 0 0 1-.384-.352c-.107-.16-.16-.368-.16-.624 0-.235.053-.443.16-.624.117-.181.267-.32.448-.416.181-.107.384-.16.608-.16Zm6.791 2.32c-.992 0-1.856-.219-2.592-.656a3.409 3.409 0 0 1-1.488-1.872l1.664-.784c.096.384.245.715.448.992s.469.491.8.64c.331.139.741.208 1.232.208.416 0 .768-.075 1.056-.224a1.54 1.54 0 0 0 .656-.624c.16-.267.24-.571.24-.912 0-.352-.069-.645-.208-.88-.128-.235-.336-.405-.624-.512-.277-.107-.635-.16-1.072-.16-.128 0-.261.005-.4.016-.128 0-.267.011-.416.032v-1.44l.272.032h.272c.693 0 1.189-.139 1.488-.416.299-.277.448-.709.448-1.296 0-.501-.155-.885-.464-1.152-.299-.267-.731-.4-1.296-.4-.587 0-1.045.139-1.376.416-.32.267-.565.656-.736 1.168l-1.568-.656c.149-.491.4-.917.752-1.28s.784-.64 1.296-.832a4.69 4.69 0 0 1 1.712-.304c.757 0 1.387.123 1.888.368.512.245.891.581 1.136 1.008.256.427.384.901.384 1.424 0 .405-.059.763-.176 1.072-.117.299-.277.56-.48.784a2.156 2.156 0 0 1-.64.496 2.421 2.421 0 0 1-.688.24v.032c.309.011.592.075.848.192.267.107.501.261.704.464.213.192.379.427.496.704.117.277.176.581.176.912 0 .64-.16 1.2-.48 1.68-.32.48-.763.853-1.328 1.12-.555.267-1.2.4-1.936.4Zm9.183 0c-.939 0-1.712-.203-2.32-.608-.597-.405-1.072-.992-1.424-1.76l1.6-.832c.16.512.4.933.72 1.264.331.32.816.48 1.456.48.448 0 .827-.08 1.136-.24.32-.171.565-.405.736-.704.171-.309.256-.677.256-1.104 0-.448-.08-.821-.24-1.12a1.546 1.546 0 0 0-.688-.672c-.299-.16-.672-.24-1.12-.24a3.7 3.7 0 0 0-.864.096 2.276 2.276 0 0 0-.72.304c-.213.128-.4.299-.56.512l-1.408-.272.64-5.824h6.144v1.472h-4.784l-.384 2.976-.032.176h.032c.245-.267.56-.475.944-.624.395-.149.859-.224 1.392-.224.683 0 1.269.144 1.76.432.491.277.875.667 1.152 1.168.277.501.416 1.083.416 1.744 0 .576-.096 1.088-.288 1.536a3.13 3.13 0 0 1-.816 1.136 3.615 3.615 0 0 1-1.232.704c-.459.149-.96.224-1.504.224Zm5.745-.16v-1.248a53.275 53.275 0 0 0 2.544-1.92c.693-.555 1.248-1.067 1.664-1.536.416-.469.714-.912.896-1.328.192-.427.288-.859.288-1.296 0-.565-.176-1.024-.528-1.376-.352-.352-.843-.528-1.472-.528-.662 0-1.19.224-1.584.672-.384.437-.603 1.04-.656 1.808l-1.488-.688c.074-.672.272-1.253.592-1.744.32-.491.752-.869 1.296-1.136.554-.267 1.194-.4 1.92-.4.597 0 1.12.085 1.568.256.458.171.842.411 1.152.72.309.299.544.651.704 1.056.17.405.256.837.256 1.296 0 .672-.166 1.323-.496 1.952-.331.619-.854 1.253-1.568 1.904-.715.651-1.654 1.349-2.816 2.096v.032c.128-.021.304-.032.528-.032.224-.011.448-.016.672-.016.224-.011.405-.016.544-.016h3.328v1.472h-7.344Zm10.366-2.16c.363 0 .651.107.864.32.224.203.336.48.336.832s-.112.635-.336.848c-.213.213-.501.32-.864.32-.373 0-.672-.107-.896-.32-.213-.213-.32-.496-.32-.848s.107-.629.32-.832c.224-.213.523-.32.896-.32Zm6.775 2.32c-.992 0-1.856-.219-2.592-.656a3.409 3.409 0 0 1-1.488-1.872l1.664-.784c.096.384.246.715.448.992.203.277.47.491.8.64.331.139.742.208 1.232.208.416 0 .768-.075 1.056-.224a1.54 1.54 0 0 0 .656-.624c.16-.267.24-.571.24-.912 0-.352-.069-.645-.208-.88-.128-.235-.336-.405-.624-.512-.277-.107-.634-.16-1.072-.16-.128 0-.261.005-.4.016-.128 0-.266.011-.416.032v-1.44l.272.032h.272c.694 0 1.19-.139 1.488-.416.299-.277.448-.709.448-1.296 0-.501-.154-.885-.464-1.152-.298-.267-.73-.4-1.296-.4-.586 0-1.045.139-1.376.416-.32.267-.565.656-.736 1.168l-1.568-.656c.15-.491.4-.917.752-1.28s.784-.64 1.296-.832a4.693 4.693 0 0 1 1.712-.304c.758 0 1.387.123 1.888.368.512.245.891.581 1.136 1.008.256.427.384.901.384 1.424 0 .405-.058.763-.176 1.072-.117.299-.277.56-.48.784a2.156 2.156 0 0 1-.64.496 2.421 2.421 0 0 1-.688.24v.032c.31.011.592.075.848.192.267.107.502.261.704.464.214.192.379.427.496.704.118.277.176.581.176.912 0 .64-.16 1.2-.48 1.68-.32.48-.762.853-1.328 1.12-.554.267-1.2.4-1.936.4Zm9.551-10.864c.715 0 1.334.117 1.856.352.534.224.944.544 1.232.96.288.416.432.917.432 1.504 0 .544-.133 1.024-.4 1.44-.256.405-.634.715-1.136.928v.016c.608.224 1.088.56 1.44 1.008.363.437.544.981.544 1.632 0 .629-.165 1.168-.496 1.616-.32.448-.778.795-1.376 1.04-.586.245-1.285.368-2.096.368-.81 0-1.514-.123-2.112-.368-.586-.245-1.045-.592-1.376-1.04-.33-.448-.496-.987-.496-1.616 0-.64.176-1.184.528-1.632.352-.448.843-.784 1.472-1.008v-.016a2.544 2.544 0 0 1-1.136-.912c-.277-.416-.416-.901-.416-1.456 0-.587.144-1.088.432-1.504.288-.416.699-.736 1.232-.96.534-.235 1.158-.352 1.872-.352Zm0 1.44c-.565 0-1.018.139-1.36.416-.33.277-.496.656-.496 1.136 0 .48.171.859.512 1.136.342.267.79.4 1.344.4.555 0 .998-.133 1.328-.4.342-.277.512-.656.512-1.136 0-.48-.165-.859-.496-1.136-.33-.277-.778-.416-1.344-.416Zm0 7.984c.47 0 .87-.069 1.2-.208.331-.139.587-.341.768-.608.182-.267.272-.576.272-.928 0-.373-.096-.688-.288-.944a1.688 1.688 0 0 0-.768-.608c-.33-.139-.725-.208-1.184-.208-.448 0-.842.069-1.184.208a1.787 1.787 0 0 0-.8.608c-.181.256-.272.571-.272.944 0 .352.091.661.272.928.182.267.443.469.784.608.342.139.742.208 1.2.208Zm4.849-9.28h8.048v1.424c-.885.917-1.6 1.861-2.144 2.832-.544.96-.939 1.963-1.184 3.008a14.85 14.85 0 0 0-.352 3.296h-1.728c0-1.173.144-2.315.432-3.424.299-1.12.747-2.187 1.344-3.2a14.08 14.08 0 0 1 2.288-2.88l.32.432h-7.024v-1.488Z"/><path fill="#7D7A9C" d="M217.966 207.484a6.664 6.664 0 0 1-1.968-.272 5.507 5.507 0 0 1-1.52-.768 4.52 4.52 0 0 1-1.056-1.104l1.136-1.152c.224.373.507.704.848.992a4 4 0 0 0 1.184.656c.448.16.939.24 1.472.24.726 0 1.296-.123 1.712-.368.427-.256.64-.635.64-1.136a1.08 1.08 0 0 0-.32-.768c-.213-.235-.597-.416-1.152-.544l-2.336-.544c-.618-.139-1.13-.331-1.536-.576-.394-.245-.688-.544-.88-.896a2.492 2.492 0 0 1-.288-1.184c0-.587.155-1.115.464-1.584.32-.469.779-.843 1.376-1.12.598-.288 1.318-.432 2.16-.432.907 0 1.702.171 2.384.512.683.341 1.248.853 1.696 1.536l-1.088 1.056c-.394-.608-.842-1.045-1.344-1.312-.501-.267-1.098-.4-1.792-.4-.512 0-.933.069-1.264.208-.32.128-.56.309-.72.544-.16.224-.24.475-.24.752 0 .224.043.427.128.608.096.181.267.341.512.48.246.139.592.256 1.04.352l2.08.464c.992.224 1.696.555 2.112.992.416.437.624.997.624 1.68 0 .629-.17 1.179-.512 1.648-.341.459-.816.816-1.424 1.072-.608.245-1.317.368-2.128.368Zm-.672 1.552v-13.632h1.28v13.632h-1.28Zm6.623-1.536v-1.248a52.274 52.274 0 0 0 2.544-1.92c.694-.555 1.248-1.067 1.664-1.536.416-.469.715-.912.896-1.328.192-.427.288-.859.288-1.296 0-.565-.176-1.024-.528-1.376-.352-.352-.842-.528-1.472-.528-.661 0-1.189.224-1.584.672-.384.437-.602 1.04-.656 1.808l-1.488-.688c.075-.672.272-1.253.592-1.744.32-.491.752-.869 1.296-1.136.555-.267 1.195-.4 1.92-.4.598 0 1.12.085 1.568.256.459.171.843.411 1.152.72.31.299.544.651.704 1.056.171.405.256.837.256 1.296 0 .672-.165 1.323-.496 1.952-.33.619-.853 1.253-1.568 1.904-.714.651-1.653 1.349-2.816 2.096v.032c.128-.021.304-.032.528-.032.224-.011.448-.016.672-.016.224-.011.406-.016.544-.016h3.328v1.472h-7.344Zm10.351-2.16c.298 0 .544.075.736.224.202.139.357.336.464.592.106.245.16.528.16.848a3.12 3.12 0 0 1-.88 2.144c-.278.309-.614.56-1.008.752l-.8-.688c.288-.107.544-.245.768-.416.224-.171.41-.363.56-.576.16-.213.272-.432.336-.656l-.064-.032a.81.81 0 0 1-.192.08.982.982 0 0 1-.288.032.987.987 0 0 1-.464-.128.995.995 0 0 1-.384-.352c-.107-.16-.16-.368-.16-.624 0-.235.053-.443.16-.624a1.19 1.19 0 0 1 .448-.416c.181-.107.384-.16.608-.16Zm6.839-8.56c.906 0 1.669.224 2.288.672.629.448 1.098 1.077 1.408 1.888.32.811.48 1.765.48 2.864 0 1.216-.166 2.229-.496 3.04-.331.8-.806 1.403-1.424 1.808-.619.405-1.366.608-2.24.608-.896 0-1.664-.197-2.304-.592-.64-.395-1.12-.987-1.44-1.776l1.616-.752c.149.501.394.901.736 1.2.352.299.826.448 1.424.448.49 0 .901-.096 1.232-.288.33-.192.592-.469.784-.832.202-.363.346-.8.432-1.312a10.61 10.61 0 0 0 .128-1.728v-.176h-.064a2.062 2.062 0 0 1-.64 1.04c-.299.267-.64.464-1.024.592a3.935 3.935 0 0 1-1.152.176c-.683 0-1.291-.133-1.824-.4a3.117 3.117 0 0 1-1.232-1.152c-.299-.491-.448-1.072-.448-1.744 0-.736.149-1.371.448-1.904a3.136 3.136 0 0 1 1.296-1.232c.565-.299 1.237-.448 2.016-.448Zm.016 1.504c-.672 0-1.19.181-1.552.544-.352.363-.528.869-.528 1.52 0 .576.186 1.029.56 1.36.384.32.89.48 1.52.48.405 0 .762-.08 1.072-.24.309-.171.549-.4.72-.688.181-.288.272-.624.272-1.008 0-.405-.091-.752-.272-1.04a1.725 1.725 0 0 0-.72-.688c-.31-.16-.667-.24-1.072-.24Zm10.883 9.216v-2.64h-5.152v-1.168c.021-.053.053-.117.096-.192.053-.075.112-.16.176-.256l4.4-6.304h2.096v6.592h1.792v1.328h-1.792v2.64h-1.616Zm-3.552-3.968h3.552v-3.728c0-.256.005-.517.016-.784.021-.277.037-.549.048-.816h-.032a7.865 7.865 0 0 1-.464.848c-.182.299-.352.56-.512.784l-2.496 3.552-.064.064a.982.982 0 0 1-.048.08Zm7.364-6.592h8.048v1.424c-.885.917-1.6 1.861-2.144 2.832-.544.96-.939 1.963-1.184 3.008a14.85 14.85 0 0 0-.352 3.296h-1.728c0-1.173.144-2.315.432-3.424.299-1.12.747-2.187 1.344-3.2a14.08 14.08 0 0 1 2.288-2.88l.32.432h-7.024v-1.488Zm9.051 8.4c.362 0 .65.107.864.32.224.203.336.48.336.832s-.112.635-.336.848c-.214.213-.502.32-.864.32-.374 0-.672-.107-.896-.32-.214-.213-.32-.496-.32-.848s.106-.629.32-.832c.224-.213.522-.32.896-.32Zm7.818 2.16v-2.64h-5.152v-1.168c.021-.053.053-.117.096-.192.053-.075.112-.16.176-.256l4.4-6.304h2.096v6.592h1.792v1.328h-1.792v2.64h-1.616Zm-3.552-3.968h3.552v-3.728c0-.256.005-.517.016-.784.021-.277.037-.549.048-.816h-.032a7.865 7.865 0 0 1-.464.848c-.182.299-.352.56-.512.784l-2.496 3.552-.064.064a.982.982 0 0 1-.048.08Zm12.145 4.128c-.939 0-1.712-.203-2.32-.608-.598-.405-1.072-.992-1.424-1.76l1.6-.832c.16.512.4.933.72 1.264.33.32.816.48 1.456.48.448 0 .826-.08 1.136-.24.32-.171.565-.405.736-.704.17-.309.256-.677.256-1.104 0-.448-.08-.821-.24-1.12a1.551 1.551 0 0 0-.688-.672c-.299-.16-.672-.24-1.12-.24-.31 0-.598.032-.864.096a2.276 2.276 0 0 0-.72.304c-.214.128-.4.299-.56.512l-1.408-.272.64-5.824h6.144v1.472h-4.784l-.384 2.976-.032.176h.032c.245-.267.56-.475.944-.624.394-.149.858-.224 1.392-.224.682 0 1.269.144 1.76.432.49.277.874.667 1.152 1.168.277.501.416 1.083.416 1.744 0 .576-.096 1.088-.288 1.536a3.13 3.13 0 0 1-.816 1.136 3.615 3.615 0 0 1-1.232.704c-.459.149-.96.224-1.504.224Z"/><path stroke="#F6C177" stroke-linecap="round" stroke-linejoin="round" stroke-width="1.5" d="m303 196 6-6-6-6"/><rect width="296" height="56" x="32" y="238" fill="#25233A" rx="28"/><path fill="#7D7A9C" d="M66.336 271h-1.808l-1.008-2.768h-4.432L58.08 271h-1.76l3.984-10.56h2.048L66.336 271Zm-6.768-4.16h3.472l-1.728-4.928-1.744 4.928Zm11.205 4.32a3.41 3.41 0 0 1-1.808-.496c-.534-.331-.955-.805-1.264-1.424-.31-.619-.464-1.36-.464-2.224 0-.896.165-1.653.496-2.272.33-.619.773-1.088 1.328-1.408a3.493 3.493 0 0 1 1.824-.496c.682 0 1.258.187 1.728.56.47.373.784.859.944 1.456l-.192.176V259.4h1.712V271h-1.52l-.128-2.176.224.016c-.075.48-.25.896-.528 1.248a2.87 2.87 0 0 1-1.04.8 3.181 3.181 0 0 1-1.312.272Zm.368-1.376c.458 0 .853-.117 1.184-.352.33-.235.586-.565.768-.992.181-.427.272-.939.272-1.536 0-.555-.09-1.029-.272-1.424-.182-.405-.438-.715-.768-.928a1.974 1.974 0 0 0-1.12-.32c-.715 0-1.27.245-1.664.736-.395.491-.592 1.168-.592 2.032 0 .864.192 1.547.576 2.048.384.491.922.736 1.616.736Zm9.567 1.376a3.41 3.41 0 0 1-1.808-.496c-.533-.331-.955-.805-1.264-1.424-.31-.619-.464-1.36-.464-2.224 0-.896.165-1.653.496-2.272.33-.619.773-1.088 1.328-1.408a3.494 3.494 0 0 1 1.824-.496c.683 0 1.259.187 1.728.56.47.373.784.859.944 1.456l-.192.176V259.4h1.712V271h-1.52l-.128-2.176.224.016c-.075.48-.25.896-.528 1.248a2.87 2.87 0 0 1-1.04.8 3.181 3.181 0 0 1-1.312.272Zm.368-1.376c.459 0 .853-.117 1.184-.352.33-.235.587-.565.768-.992.181-.427.272-.939.272-1.536 0-.555-.09-1.029-.272-1.424-.181-.405-.437-.715-.768-.928a1.974 1.974 0 0 0-1.12-.32c-.715 0-1.27.245-1.664.736-.395.491-.592 1.168-.592 2.032 0 .864.192 1.547.576 2.048.384.491.923.736 1.616.736ZM87.571 271v-8h1.456l.16 1.44c.214-.523.528-.917.944-1.184.427-.277.95-.416 1.568-.416.16 0 .32.016.48.048.16.021.294.059.4.112l-.24 1.504a1.956 1.956 0 0 0-.4-.096 2.69 2.69 0 0 0-.576-.048c-.33 0-.656.091-.976.272-.32.171-.586.432-.8.784-.202.352-.304.8-.304 1.344V271h-1.712Zm9.846.16c-.8 0-1.504-.165-2.112-.496a3.52 3.52 0 0 1-1.424-1.424c-.33-.629-.496-1.376-.496-2.24 0-.864.165-1.605.496-2.224a3.528 3.528 0 0 1 1.408-1.44c.597-.331 1.275-.496 2.032-.496.779 0 1.44.16 1.984.48.544.32.96.757 1.248 1.312.288.555.432 1.184.432 1.888 0 .192-.005.373-.016.544a4.64 4.64 0 0 1-.048.448h-6.432V266.2h5.68l-.848.256c0-.725-.181-1.28-.544-1.664-.362-.395-.859-.592-1.488-.592-.459 0-.859.107-1.2.32-.341.213-.602.533-.784.96-.181.416-.272.928-.272 1.536 0 .597.096 1.104.288 1.52.192.416.464.731.816.944.352.213.768.32 1.248.32.533 0 .965-.101 1.296-.304.33-.203.592-.485.784-.848l1.36.64c-.192.384-.453.72-.784 1.008-.32.277-.704.491-1.152.64a4.64 4.64 0 0 1-1.472.224Zm8.674 0c-.8 0-1.531-.155-2.192-.464a3.794 3.794 0 0 1-1.568-1.312l1.184-1.024c.235.437.571.789 1.008 1.056.448.256.981.384 1.6.384.491 0 .88-.085 1.168-.256.288-.171.432-.411.432-.72a.748.748 0 0 0-.208-.528c-.128-.16-.379-.283-.752-.368l-1.68-.352c-.853-.171-1.461-.443-1.824-.816-.363-.384-.544-.869-.544-1.456 0-.437.128-.843.384-1.216s.629-.672 1.12-.896c.501-.235 1.099-.352 1.792-.352.8 0 1.483.144 2.048.432.565.277.997.677 1.296 1.2l-1.184.992a1.979 1.979 0 0 0-.896-.944 2.561 2.561 0 0 0-1.232-.32c-.341 0-.635.043-.88.128s-.432.203-.56.352a.784.784 0 0 0-.192.528c0 .213.08.4.24.56.16.16.448.283.864.368l1.824.384c.768.149 1.307.405 1.616.768.32.352.48.784.48 1.296s-.133.965-.4 1.36c-.267.384-.651.683-1.152.896-.501.213-1.099.32-1.792.32Zm8.373 0c-.8 0-1.531-.155-2.192-.464a3.794 3.794 0 0 1-1.568-1.312l1.184-1.024c.235.437.571.789 1.008 1.056.448.256.981.384 1.6.384.491 0 .88-.085 1.168-.256.288-.171.432-.411.432-.72a.748.748 0 0 0-.208-.528c-.128-.16-.379-.283-.752-.368l-1.68-.352c-.853-.171-1.461-.443-1.824-.816-.363-.384-.544-.869-.544-1.456 0-.437.128-.843.384-1.216s.629-.672 1.12-.896c.501-.235 1.099-.352 1.792-.352.8 0 1.483.144 2.048.432.565.277.997.677 1.296 1.2l-1.184.992a1.979 1.979 0 0 0-.896-.944 2.561 2.561 0 0 0-1.232-.32c-.341 0-.635.043-.88.128s-.432.203-.56.352a.784.784 0 0 0-.192.528c0 .213.08.4.24.56.16.16.448.283.864.368l1.824.384c.768.149 1.307.405 1.616.768.32.352.48.784.48 1.296s-.133.965-.4 1.36c-.267.384-.651.683-1.152.896-.501.213-1.099.32-1.792.32Z"/><path stroke="#F6C177" stroke-linecap="round" stroke-linejoin="round" stroke-width="1.5" d="M284 275.817c.603.183 1.416.183 2.8.183h10.4c1.384 0 2.197 0 2.8-.183m-16 0a2.15 2.15 0 0 1-.362-.144 3.009 3.009 0 0 1-1.311-1.311C282 273.72 282 272.88 282 271.2v-10.4c0-1.68 0-2.52.327-3.162a3.009 3.009 0 0 1 1.311-1.311c.642-.327 1.482-.327 3.162-.327h10.4c1.68 0 2.52 0 3.162.327a3.009 3.009 0 0 1 1.311 1.311c.327.642.327 1.482.327 3.162v10.4c0 1.68 0 2.52-.327 3.162a3.009 3.009 0 0 1-1.311 1.311 2.15 2.15 0 0 1-.362.144m-16 0c0-.809.005-1.237.077-1.597a3.998 3.998 0 0 1 3.143-3.143c.386-.077.851-.077 1.78-.077h6c.929 0 1.394 0 1.78.077a3.998 3.998 0 0 1 3.143 3.143c.072.36.077.788.077 1.597m-4-12.317a4 4 0 1 1-8 0 4 4 0 0 1 8 0Z"/><rect width="296" height="56" x="32" y="302" fill="#25233A" rx="28"/><path fill="#7D7A9C" d="M66.336 335h-1.808l-1.008-2.768h-4.432L58.08 335h-1.76l3.984-10.56h2.048L66.336 335Zm-6.768-4.16h3.472l-1.728-4.928-1.744 4.928Zm8.305 4.16v-8h1.52l.08 1.344c.277-.512.645-.891 1.104-1.136.469-.245.965-.368 1.488-.368.576 0 1.104.133 1.584.4.49.256.858.645 1.104 1.168a2.48 2.48 0 0 1 .704-.88 2.93 2.93 0 0 1 .992-.512 3.48 3.48 0 0 1 1.072-.176c.512 0 .992.107 1.44.32.448.213.81.539 1.088.976.277.437.416.997.416 1.68V335h-1.712v-4.912c0-.651-.155-1.12-.464-1.408-.31-.288-.704-.432-1.184-.432-.374 0-.72.091-1.04.272-.31.181-.56.453-.752.816-.192.352-.288.789-.288 1.312V335h-1.712v-4.912c0-.651-.155-1.12-.464-1.408-.31-.288-.704-.432-1.184-.432-.32 0-.64.085-.96.256-.32.171-.587.437-.8.8-.214.363-.32.843-.32 1.44V335h-1.712Zm18.563-8.16c.779 0 1.467.165 2.064.496a3.426 3.426 0 0 1 1.392 1.44c.342.619.512 1.36.512 2.224 0 .864-.17 1.611-.512 2.24a3.444 3.444 0 0 1-1.392 1.424c-.597.331-1.285.496-2.064.496-.779 0-1.467-.165-2.064-.496a3.549 3.549 0 0 1-1.408-1.424c-.341-.629-.512-1.376-.512-2.24 0-.864.17-1.605.512-2.224a3.528 3.528 0 0 1 1.408-1.44c.597-.331 1.285-.496 2.064-.496Zm0 1.344c-.48 0-.89.112-1.232.336-.33.213-.586.528-.768.944-.181.416-.272.928-.272 1.536 0 .597.09 1.109.272 1.536.181.416.438.736.768.96.342.213.752.32 1.232.32s.885-.107 1.216-.32c.33-.224.587-.544.768-.96.181-.427.272-.939.272-1.536 0-.608-.09-1.12-.272-1.536-.181-.416-.437-.731-.768-.944-.33-.224-.736-.336-1.216-.336Zm8.874 6.976a3.657 3.657 0 0 1-1.456-.288 2.331 2.331 0 0 1-1.056-.928c-.267-.427-.4-.981-.4-1.664V327h1.712v4.848c0 .725.154 1.227.464 1.504.31.267.741.4 1.296.4.266 0 .522-.043.768-.128.256-.096.485-.24.688-.432.203-.203.357-.459.464-.768.117-.309.176-.672.176-1.088V327h1.712v8h-1.504l-.08-1.296c-.277.501-.65.869-1.12 1.104-.47.235-1.024.352-1.664.352Zm6.947-.16v-8h1.52l.112 2.08-.224-.224c.149-.459.362-.837.64-1.136a2.549 2.549 0 0 1 1.008-.672c.394-.139.81-.208 1.248-.208.565 0 1.072.112 1.52.336.458.213.821.539 1.088.976.266.437.4.992.4 1.664V335h-1.712v-4.656c0-.789-.166-1.333-.496-1.632-.32-.309-.726-.464-1.216-.464a2.2 2.2 0 0 0-1.024.256c-.331.16-.608.421-.832.784-.214.363-.32.848-.32 1.456V335h-1.712Zm12.052-10.352v7.952c0 .395.101.683.304.864.213.181.496.272.848.272.288 0 .539-.043.752-.128.213-.096.411-.224.592-.384l.384 1.248a2.784 2.784 0 0 1-.912.512 3.742 3.742 0 0 1-1.184.176c-.459 0-.88-.075-1.264-.224a1.815 1.815 0 0 1-.896-.72c-.213-.341-.325-.784-.336-1.328v-7.76l1.712-.48Zm2.752 2.352v1.344h-6V327h6Z"/><path stroke="#FEFCFA" stroke-linecap="round" stroke-linejoin="round" stroke-width="1.5" d="M284 339.817c.603.183 1.416.183 2.8.183h10.4c1.384 0 2.197 0 2.8-.183m-16 0a2.15 2.15 0 0 1-.362-.144 3.009 3.009 0 0 1-1.311-1.311C282 337.72 282 336.88 282 335.2v-10.4c0-1.68 0-2.52.327-3.162a3.009 3.009 0 0 1 1.311-1.311c.642-.327 1.482-.327 3.162-.327h10.4c1.68 0 2.52 0 3.162.327a3.009 3.009 0 0 1 1.311 1.311c.327.642.327 1.482.327 3.162v10.4c0 1.68 0 2.52-.327 3.162a3.009 3.009 0 0 1-1.311 1.311 2.15 2.15 0 0 1-.362.144m-16 0c0-.809.005-1.237.077-1.597a3.998 3.998 0 0 1 3.143-3.143c.386-.077.851-.077 1.78-.077h6c.929 0 1.394 0 1.78.077a3.998 3.998 0 0 1 3.143 3.143c.072.36.077.788.077 1.597m-4-12.317a4 4 0 1 1-8 0 4 4 0 0 1 8 0Z"/><rect width="87" height="48" x="237" y="306" fill="#191724" rx="24"/><path fill="#F6C177" d="M265.328 335.5v-8h1.52l.08 1.344c.277-.512.645-.891 1.104-1.136a3.17 3.17 0 0 1 1.488-.368c.576 0 1.104.133 1.584.4.491.256.859.645 1.104 1.168.171-.352.405-.645.704-.88a2.93 2.93 0 0 1 .992-.512 3.48 3.48 0 0 1 1.072-.176c.512 0 .992.107 1.44.32.448.213.811.539 1.088.976.277.437.416.997.416 1.68v5.184h-1.712v-4.912c0-.651-.155-1.12-.464-1.408-.309-.288-.704-.432-1.184-.432-.373 0-.72.091-1.04.272-.309.181-.56.453-.752.816-.192.352-.288.789-.288 1.312v4.352h-1.712v-4.912c0-.651-.155-1.12-.464-1.408-.309-.288-.704-.432-1.184-.432-.32 0-.64.085-.96.256-.32.171-.587.437-.8.8-.213.363-.32.843-.32 1.44v4.256h-1.712Zm19.716-5.136c0-.533-.15-.944-.448-1.232-.288-.299-.688-.448-1.2-.448-.48 0-.891.112-1.232.336-.342.224-.592.587-.752 1.088l-1.44-.608a2.875 2.875 0 0 1 1.184-1.568c.597-.395 1.365-.592 2.304-.592.64 0 1.205.107 1.696.32.49.203.874.512 1.152.928.288.416.432.949.432 1.6v3.568c0 .395.197.592.592.592.192 0 .378-.027.56-.08l-.096 1.184c-.246.117-.555.176-.928.176-.342 0-.651-.059-.928-.176a1.55 1.55 0 0 1-.64-.56c-.15-.256-.224-.571-.224-.944v-.112l.352-.016a2 2 0 0 1-.592 1.04 3.082 3.082 0 0 1-1.04.608 3.87 3.87 0 0 1-1.2.192c-.502 0-.955-.08-1.36-.24a2.13 2.13 0 0 1-.944-.72c-.224-.331-.336-.736-.336-1.216 0-.597.192-1.088.576-1.472.394-.384.949-.645 1.664-.784l3.104-.608-.016 1.2-2.256.464c-.448.085-.784.208-1.008.368-.224.16-.336.395-.336.704a.88.88 0 0 0 .336.72c.234.171.544.256.928.256.266 0 .522-.032.768-.096.256-.064.485-.165.688-.304a1.48 1.48 0 0 0 .464-.56c.117-.235.176-.512.176-.832v-2.176Zm5.653-2.864 2.256 3.424.32.048 3.248 4.528h-2.032l-2.352-3.52-.368-.128-3.136-4.352h2.064Zm5.776 0-3.136 4.288-.352-.016-2.56 3.728h-1.952l3.408-4.56.336.032 2.288-3.472h1.968Z"/><rect width="87" height="48" x="237" y="242" fill="#191724" rx="24"/><path stroke="#F6C177" stroke-linecap="round" stroke-linejoin="round" stroke-width="1.5" d="m289 275-4.35-4.35M287 265a8 8 0 1 1-16 0 8 8 0 0 1 16 0Z"/><path fill="#FEFCFA" d="M42.336 104.56c1.899 0 3.541.363 4.928 1.088 1.387.704 2.56 1.749 3.52 3.136l-2.304 2.208c-.81-1.237-1.728-2.123-2.752-2.656-1.003-.555-2.197-.832-3.584-.832-1.024 0-1.867.139-2.528.416-.661.277-1.152.651-1.472 1.12-.299.448-.448.96-.448 1.536 0 .661.224 1.237.672 1.728.47.491 1.333.875 2.592 1.152l4.288.96c2.048.448 3.499 1.131 4.352 2.048.853.917 1.28 2.08 1.28 3.488 0 1.301-.352 2.432-1.056 3.392-.704.96-1.685 1.696-2.944 2.208-1.237.512-2.699.768-4.384.768-1.493 0-2.837-.192-4.032-.576-1.195-.384-2.24-.907-3.136-1.568a9.274 9.274 0 0 1-2.208-2.272l2.368-2.368a8.428 8.428 0 0 0 1.696 2.016 7.596 7.596 0 0 0 2.368 1.344c.917.32 1.93.48 3.04.48.981 0 1.824-.117 2.528-.352.725-.235 1.27-.576 1.632-1.024.384-.469.576-1.024.576-1.664a2.35 2.35 0 0 0-.64-1.632c-.405-.469-1.173-.832-2.304-1.088l-4.64-1.056c-1.28-.277-2.336-.672-3.168-1.184-.832-.512-1.45-1.131-1.856-1.856-.405-.747-.608-1.579-.608-2.496 0-1.195.32-2.272.96-3.232.661-.981 1.61-1.76 2.848-2.336 1.237-.597 2.71-.896 4.416-.896Zm19.891 21.76c-1.6 0-3.008-.331-4.224-.992a7.04 7.04 0 0 1-2.848-2.848c-.661-1.259-.992-2.752-.992-4.48 0-1.728.33-3.211.992-4.448.683-1.259 1.622-2.219 2.816-2.88 1.195-.661 2.55-.992 4.064-.992 1.558 0 2.88.32 3.968.96a6.428 6.428 0 0 1 2.496 2.624c.576 1.109.864 2.368.864 3.776 0 .384-.01.747-.032 1.088-.021.341-.053.64-.096.896H56.371V116.4h11.36l-1.696.512c0-1.451-.362-2.56-1.088-3.328-.725-.789-1.717-1.184-2.976-1.184-.917 0-1.717.213-2.4.64-.682.427-1.205 1.067-1.568 1.92-.362.832-.544 1.856-.544 3.072 0 1.195.192 2.208.576 3.04.384.832.928 1.461 1.632 1.888.704.427 1.536.64 2.496.64 1.067 0 1.93-.203 2.592-.608a4.304 4.304 0 0 0 1.568-1.696l2.72 1.28a6.52 6.52 0 0 1-1.568 2.016c-.64.555-1.408.981-2.304 1.28-.896.299-1.877.448-2.944.448Zm11.46-.32v-16h3.04l.224 4.16-.448-.448c.299-.917.726-1.675 1.28-2.272a5.077 5.077 0 0 1 2.016-1.344 7.483 7.483 0 0 1 2.496-.416c1.13 0 2.144.224 3.04.672a4.94 4.94 0 0 1 2.176 1.952c.534.875.8 1.984.8 3.328V126h-3.424v-9.312c0-1.579-.33-2.667-.992-3.264-.64-.619-1.45-.928-2.432-.928-.704 0-1.386.171-2.048.512-.661.32-1.216.843-1.664 1.568-.426.725-.64 1.696-.64 2.912V126h-3.424Zm25.957.32c-1.323 0-2.528-.331-3.616-.992-1.067-.661-1.91-1.611-2.528-2.848-.619-1.237-.928-2.72-.928-4.448 0-1.792.33-3.307.992-4.544.661-1.237 1.546-2.176 2.656-2.816a6.996 6.996 0 0 1 3.648-.992c1.365 0 2.517.373 3.456 1.12.938.747 1.568 1.717 1.888 2.912l-.384.352V102.8h3.424V126h-3.04l-.256-4.352.448.032c-.15.96-.502 1.792-1.056 2.496a5.73 5.73 0 0 1-2.08 1.6 6.35 6.35 0 0 1-2.624.544Zm.736-2.752c.917 0 1.706-.235 2.368-.704.661-.469 1.173-1.131 1.536-1.984.362-.853.544-1.877.544-3.072 0-1.109-.182-2.059-.544-2.848-.363-.811-.875-1.429-1.536-1.856-.64-.427-1.387-.64-2.24-.64-1.43 0-2.539.491-3.328 1.472-.79.981-1.184 2.336-1.184 4.064 0 1.728.384 3.093 1.152 4.096.768.981 1.845 1.472 3.232 1.472ZM81.711 385.44v1.472h-3.616V396h-1.712v-9.088h-3.616v-1.472h8.944Zm.636 10.56v-8h1.456l.16 1.44c.214-.523.528-.917.944-1.184.427-.277.95-.416 1.568-.416.16 0 .32.016.48.048.16.021.294.059.4.112l-.24 1.504a1.955 1.955 0 0 0-.4-.096 2.692 2.692 0 0 0-.576-.048c-.33 0-.656.091-.976.272-.32.171-.587.432-.8.784-.203.352-.304.8-.304 1.344V396h-1.712Zm10.981-5.136c0-.533-.149-.944-.448-1.232-.288-.299-.688-.448-1.2-.448-.48 0-.89.112-1.232.336-.341.224-.592.587-.752 1.088l-1.44-.608a2.88 2.88 0 0 1 1.184-1.568c.598-.395 1.366-.592 2.304-.592.64 0 1.206.107 1.696.32.491.203.875.512 1.152.928.288.416.432.949.432 1.6v3.568c0 .395.198.592.592.592.192 0 .379-.027.56-.08l-.096 1.184c-.245.117-.554.176-.928.176-.341 0-.65-.059-.928-.176a1.552 1.552 0 0 1-.64-.56c-.149-.256-.224-.571-.224-.944v-.112l.352-.016a1.995 1.995 0 0 1-.592 1.04 3.073 3.073 0 0 1-1.04.608 3.868 3.868 0 0 1-1.2.192c-.501 0-.954-.08-1.36-.24-.394-.16-.709-.4-.944-.72-.224-.331-.336-.736-.336-1.216 0-.597.192-1.088.576-1.472.395-.384.95-.645 1.664-.784l3.104-.608-.016 1.2-2.256.464c-.448.085-.784.208-1.008.368-.224.16-.336.395-.336.704a.88.88 0 0 0 .336.72c.235.171.544.256.928.256.267 0 .523-.032.768-.096.256-.064.486-.165.688-.304a1.47 1.47 0 0 0 .464-.56c.118-.235.176-.512.176-.832v-2.176ZM97.733 396v-8h1.52l.112 2.08-.224-.224c.15-.459.363-.837.64-1.136a2.546 2.546 0 0 1 1.008-.672 3.732 3.732 0 0 1 1.248-.208 3.35 3.35 0 0 1 1.52.336c.459.213.822.539 1.088.976.267.437.4.992.4 1.664V396h-1.712v-4.656c0-.789-.165-1.333-.496-1.632-.32-.309-.725-.464-1.216-.464-.352 0-.693.085-1.024.256-.33.16-.608.421-.832.784-.213.363-.32.848-.32 1.456V396h-1.712Zm12.851.16c-.8 0-1.531-.155-2.192-.464a3.787 3.787 0 0 1-1.568-1.312l1.184-1.024c.234.437.57.789 1.008 1.056.448.256.981.384 1.6.384.49 0 .88-.085 1.168-.256.288-.171.432-.411.432-.72a.752.752 0 0 0-.208-.528c-.128-.16-.379-.283-.752-.368l-1.68-.352c-.854-.171-1.462-.443-1.824-.816-.363-.384-.544-.869-.544-1.456 0-.437.128-.843.384-1.216s.629-.672 1.12-.896c.501-.235 1.098-.352 1.792-.352.8 0 1.482.144 2.048.432.565.277.997.677 1.296 1.2l-1.184.992a1.983 1.983 0 0 0-.896-.944 2.564 2.564 0 0 0-1.232-.32c-.342 0-.635.043-.88.128a1.262 1.262 0 0 0-.56.352.784.784 0 0 0-.192.528c0 .213.08.4.24.56.16.16.448.283.864.368l1.824.384c.768.149 1.306.405 1.616.768.32.352.48.784.48 1.296s-.134.965-.4 1.36c-.267.384-.651.683-1.152.896-.502.213-1.099.32-1.792.32Zm9.956-5.296c0-.533-.149-.944-.448-1.232-.288-.299-.688-.448-1.2-.448-.48 0-.89.112-1.232.336-.341.224-.592.587-.752 1.088l-1.44-.608a2.884 2.884 0 0 1 1.184-1.568c.598-.395 1.366-.592 2.304-.592.64 0 1.206.107 1.696.32.491.203.875.512 1.152.928.288.416.432.949.432 1.6v3.568c0 .395.198.592.592.592.192 0 .379-.027.56-.08l-.096 1.184c-.245.117-.554.176-.928.176-.341 0-.65-.059-.928-.176a1.557 1.557 0 0 1-.64-.56c-.149-.256-.224-.571-.224-.944v-.112l.352-.016a1.993 1.993 0 0 1-.592 1.04 3.063 3.063 0 0 1-1.04.608 3.861 3.861 0 0 1-1.2.192 3.68 3.68 0 0 1-1.36-.24c-.394-.16-.709-.4-.944-.72-.224-.331-.336-.736-.336-1.216 0-.597.192-1.088.576-1.472.395-.384.95-.645 1.664-.784l3.104-.608-.016 1.2-2.256.464c-.448.085-.784.208-1.008.368-.224.16-.336.395-.336.704a.88.88 0 0 0 .336.72c.235.171.544.256.928.256.267 0 .523-.032.768-.096.256-.064.486-.165.688-.304.203-.149.358-.336.464-.56.118-.235.176-.512.176-.832v-2.176Zm7.846-3.024c.64 0 1.184.096 1.632.288.458.181.842.443 1.152.784.309.341.544.731.704 1.168l-1.616.64c-.139-.491-.363-.864-.672-1.12-.299-.267-.694-.4-1.184-.4-.48 0-.891.112-1.232.336-.342.213-.603.528-.784.944-.171.416-.256.928-.256 1.536 0 .597.09 1.104.272 1.52.181.416.442.731.784.944.341.213.746.32 1.216.32.362 0 .677-.059.944-.176.266-.128.485-.304.656-.528.181-.235.304-.517.368-.848l1.552.528c-.15.48-.384.901-.704 1.264-.31.352-.699.629-1.168.832-.47.192-1.008.288-1.616.288-.79 0-1.488-.165-2.096-.496a3.518 3.518 0 0 1-1.424-1.424c-.331-.629-.496-1.376-.496-2.24 0-.864.165-1.605.496-2.224a3.521 3.521 0 0 1 1.408-1.44c.608-.331 1.296-.496 2.064-.496Zm7.768-2.192v7.952c0 .395.101.683.304.864.213.181.496.272.848.272.288 0 .539-.043.752-.128.213-.096.411-.224.592-.384l.384 1.248a2.784 2.784 0 0 1-.912.512 3.742 3.742 0 0 1-1.184.176c-.459 0-.88-.075-1.264-.224a1.815 1.815 0 0 1-.896-.72c-.213-.341-.325-.784-.336-1.328v-7.76l1.712-.48Zm2.752 2.352v1.344h-6V388h6Zm2.461-1.344c-.373 0-.661-.091-.864-.272-.192-.192-.288-.459-.288-.8s.096-.603.288-.784c.203-.181.491-.272.864-.272.363 0 .64.091.832.272.203.181.304.443.304.784s-.101.608-.304.8c-.192.181-.469.272-.832.272Zm.848 1.344v8h-1.712v-8h1.712Zm6.055-.16c.779 0 1.467.165 2.064.496a3.43 3.43 0 0 1 1.392 1.44c.341.619.512 1.36.512 2.224 0 .864-.171 1.611-.512 2.24a3.45 3.45 0 0 1-1.392 1.424c-.597.331-1.285.496-2.064.496-.779 0-1.467-.165-2.064-.496a3.548 3.548 0 0 1-1.408-1.424c-.341-.629-.512-1.376-.512-2.24 0-.864.171-1.605.512-2.224a3.527 3.527 0 0 1 1.408-1.44c.597-.331 1.285-.496 2.064-.496Zm0 1.344c-.48 0-.891.112-1.232.336-.331.213-.587.528-.768.944-.181.416-.272.928-.272 1.536 0 .597.091 1.109.272 1.536.181.416.437.736.768.96.341.213.752.32 1.232.32s.885-.107 1.216-.32c.331-.224.587-.544.768-.96.181-.427.272-.939.272-1.536 0-.608-.091-1.12-.272-1.536-.181-.416-.437-.731-.768-.944-.331-.224-.736-.336-1.216-.336Zm6.026 6.816v-8h1.52l.112 2.08-.224-.224c.149-.459.362-.837.64-1.136a2.549 2.549 0 0 1 1.008-.672c.394-.139.81-.208 1.248-.208.565 0 1.072.112 1.52.336.458.213.821.539 1.088.976.266.437.4.992.4 1.664V396h-1.712v-4.656c0-.789-.166-1.333-.496-1.632-.32-.309-.726-.464-1.216-.464a2.2 2.2 0 0 0-1.024.256c-.331.16-.608.421-.832.784-.214.363-.32.848-.32 1.456V396h-1.712Zm18.075-11.712c.33 0 .629.037.896.112.277.064.485.155.624.272l-.32 1.232a1.212 1.212 0 0 0-.4-.16 1.857 1.857 0 0 0-.512-.064c-.438 0-.784.101-1.04.304-.246.203-.368.533-.368.992v1.168l.048.432V396h-1.712v-9.152c0-.405.058-.768.176-1.088a2.04 2.04 0 0 1 .56-.8c.245-.224.538-.389.88-.496a3.685 3.685 0 0 1 1.168-.176Zm1.472 3.712v1.344h-5.76V388h5.76Zm4.794 8.16c-.8 0-1.504-.165-2.112-.496a3.518 3.518 0 0 1-1.424-1.424c-.331-.629-.496-1.376-.496-2.24 0-.864.165-1.605.496-2.224a3.527 3.527 0 0 1 1.408-1.44c.597-.331 1.275-.496 2.032-.496.779 0 1.44.16 1.984.48.544.32.96.757 1.248 1.312.288.555.432 1.184.432 1.888 0 .192-.005.373-.016.544a4.64 4.64 0 0 1-.048.448h-6.432V391.2h5.68l-.848.256c0-.725-.181-1.28-.544-1.664-.363-.395-.859-.592-1.488-.592-.459 0-.859.107-1.2.32-.341.213-.603.533-.784.96-.181.416-.272.928-.272 1.536 0 .597.096 1.104.288 1.52.192.416.464.731.816.944.352.213.768.32 1.248.32.533 0 .965-.101 1.296-.304a2.15 2.15 0 0 0 .784-.848l1.36.64c-.192.384-.453.72-.784 1.008-.32.277-.704.491-1.152.64a4.642 4.642 0 0 1-1.472.224Zm9.154 0c-.8 0-1.504-.165-2.112-.496a3.518 3.518 0 0 1-1.424-1.424c-.331-.629-.496-1.376-.496-2.24 0-.864.165-1.605.496-2.224a3.527 3.527 0 0 1 1.408-1.44c.597-.331 1.275-.496 2.032-.496.779 0 1.44.16 1.984.48.544.32.96.757 1.248 1.312.288.555.432 1.184.432 1.888 0 .192-.005.373-.016.544a4.64 4.64 0 0 1-.048.448h-6.432V391.2h5.68l-.848.256c0-.725-.181-1.28-.544-1.664-.363-.395-.859-.592-1.488-.592-.459 0-.859.107-1.2.32-.341.213-.603.533-.784.96-.181.416-.272.928-.272 1.536 0 .597.096 1.104.288 1.52.192.416.464.731.816.944.352.213.768.32 1.248.32.533 0 .965-.101 1.296-.304a2.15 2.15 0 0 0 .784-.848l1.36.64c-.192.384-.453.72-.784 1.008-.32.277-.704.491-1.152.64a4.642 4.642 0 0 1-1.472.224Zm6.69-8.32c.363 0 .651.107.864.32.224.203.336.48.336.832s-.112.635-.336.848c-.213.213-.501.32-.864.32-.373 0-.672-.107-.896-.32-.213-.213-.32-.496-.32-.848s.107-.629.32-.832c.224-.213.523-.32.896-.32Zm0 6c.363 0 .651.107.864.32.224.203.336.48.336.832s-.112.635-.336.848c-.213.213-.501.32-.864.32-.373 0-.672-.107-.896-.32-.213-.213-.32-.496-.32-.848s.107-.629.32-.832c.224-.213.523-.32.896-.32Zm12.417 2.32c-1.27 0-2.267-.459-2.992-1.376-.715-.928-1.072-2.283-1.072-4.064 0-1.781.357-3.131 1.072-4.048.725-.928 1.722-1.392 2.992-1.392 1.28 0 2.277.464 2.992 1.392.725.917 1.088 2.267 1.088 4.048 0 1.781-.363 3.136-1.088 4.064-.715.917-1.712 1.376-2.992 1.376Zm0-1.456c.512 0 .938-.144 1.28-.432.352-.299.613-.741.784-1.328.181-.597.272-1.339.272-2.224 0-.885-.091-1.621-.272-2.208-.171-.597-.432-1.04-.784-1.328-.342-.299-.768-.448-1.28-.448s-.944.149-1.296.448c-.342.288-.598.731-.768 1.328-.171.587-.256 1.323-.256 2.208 0 .885.085 1.627.256 2.224.17.587.426 1.029.768 1.328.352.288.784.432 1.296.432Zm6.791-.864c.362 0 .65.107.864.32.224.203.336.48.336.832s-.112.635-.336.848c-.214.213-.502.32-.864.32-.374 0-.672-.107-.896-.32-.214-.213-.32-.496-.32-.848s.106-.629.32-.832c.224-.213.522-.32.896-.32Zm6.782 2.32c-1.269 0-2.266-.459-2.992-1.376-.714-.928-1.072-2.283-1.072-4.064 0-1.781.358-3.131 1.072-4.048.726-.928 1.723-1.392 2.992-1.392 1.28 0 2.278.464 2.992 1.392.726.917 1.088 2.267 1.088 4.048 0 1.781-.362 3.136-1.088 4.064-.714.917-1.712 1.376-2.992 1.376Zm0-1.456c.512 0 .939-.144 1.28-.432.352-.299.614-.741.784-1.328.182-.597.272-1.339.272-2.224 0-.885-.09-1.621-.272-2.208-.17-.597-.432-1.04-.784-1.328-.341-.299-.768-.448-1.28-.448s-.944.149-1.296.448c-.341.288-.597.731-.768 1.328-.17.587-.256 1.323-.256 2.208 0 .885.086 1.627.256 2.224.171.587.427 1.029.768 1.328.352.288.784.432 1.296.432Zm9.951 1.456c-1.269 0-2.266-.459-2.992-1.376-.714-.928-1.072-2.283-1.072-4.064 0-1.781.358-3.131 1.072-4.048.726-.928 1.723-1.392 2.992-1.392 1.28 0 2.278.464 2.992 1.392.726.917 1.088 2.267 1.088 4.048 0 1.781-.362 3.136-1.088 4.064-.714.917-1.712 1.376-2.992 1.376Zm0-1.456c.512 0 .939-.144 1.28-.432.352-.299.614-.741.784-1.328.182-.597.272-1.339.272-2.224 0-.885-.09-1.621-.272-2.208-.17-.597-.432-1.04-.784-1.328-.341-.299-.768-.448-1.28-.448s-.944.149-1.296.448c-.341.288-.597.731-.768 1.328-.17.587-.256 1.323-.256 2.208 0 .885.086 1.627.256 2.224.171.587.427 1.029.768 1.328.352.288.784.432 1.296.432Zm8.175 1.296v-7.904c.011-.235.022-.48.032-.736a5.664 5.664 0 0 1-1.248.912 5.484 5.484 0 0 1-1.424.528l-.32-1.488c.224-.032.486-.107.784-.224.299-.117.608-.267.928-.448a7.69 7.69 0 0 0 .88-.576c.267-.213.475-.421.624-.624h1.44V396h-1.696Zm20.569-10.56V396h-1.584v-6.112l.128-2.912h-.016L254.478 396h-1.424l-3.216-9.024h-.016l.128 2.912V396h-1.584v-10.56h2.544l2.128 6.112.736 2.512h.032l.752-2.512 2.112-6.112h2.496Zm4.753 0V396h-1.712v-10.56h1.712Zm11.692 0V396h-2.032l-4.08-6.656-1.024-1.872h-.016l.064 1.712V396h-1.568v-10.56h2.016l4.064 6.64 1.04 1.904h.016l-.064-1.728v-6.816h1.584ZM287.408 396H285.6l-1.008-2.768h-4.432L279.152 396h-1.76l3.984-10.56h2.048l3.984 10.56Zm-6.768-4.16h3.472l-1.728-4.928-1.744 4.928ZM72.287 398H196.77v.8H72.287v-.8ZM218.044 120h-1.582l-.882-2.422h-3.878L210.82 120h-1.54l3.486-9.24h1.792l3.486 9.24Zm-5.922-3.64h3.038l-1.512-4.312-1.526 4.312Zm9.804 3.78a2.989 2.989 0 0 1-1.582-.434c-.467-.289-.835-.705-1.106-1.246-.271-.541-.406-1.19-.406-1.946 0-.784.145-1.447.434-1.988.289-.541.677-.952 1.162-1.232a3.06 3.06 0 0 1 1.596-.434c.597 0 1.101.163 1.512.49.411.327.686.751.826 1.274l-.168.154v-4.928h1.498V120h-1.33l-.112-1.904.196.014c-.065.42-.219.784-.462 1.092a2.507 2.507 0 0 1-.91.7 2.773 2.773 0 0 1-1.148.238Zm.322-1.204c.401 0 .747-.103 1.036-.308a1.99 1.99 0 0 0 .672-.868c.159-.373.238-.821.238-1.344 0-.485-.079-.901-.238-1.246a1.824 1.824 0 0 0-.672-.812 1.723 1.723 0 0 0-.98-.28c-.625 0-1.111.215-1.456.644-.345.429-.518 1.022-.518 1.778s.168 1.353.504 1.792c.336.429.807.644 1.414.644Zm10.29-5.936h1.568l-2.786 7h-1.638l-2.8-7h1.638l1.988 5.698 2.03-5.698Zm6.643 2.506c0-.467-.131-.826-.392-1.078-.252-.261-.602-.392-1.05-.392-.42 0-.78.098-1.078.294-.299.196-.518.513-.658.952l-1.26-.532a2.515 2.515 0 0 1 1.036-1.372c.522-.345 1.194-.518 2.016-.518.56 0 1.054.093 1.484.28.429.177.765.448 1.008.812.252.364.378.831.378 1.4v3.122c0 .345.172.518.518.518.168 0 .331-.023.49-.07l-.084 1.036c-.215.103-.486.154-.812.154-.299 0-.57-.051-.812-.154a1.35 1.35 0 0 1-.56-.49c-.131-.224-.196-.499-.196-.826v-.098l.308-.014a1.75 1.75 0 0 1-.518.91 2.698 2.698 0 0 1-.91.532 3.39 3.39 0 0 1-1.05.168c-.439 0-.836-.07-1.19-.21a1.864 1.864 0 0 1-.826-.63c-.196-.289-.294-.644-.294-1.064 0-.523.168-.952.504-1.288.345-.336.83-.565 1.456-.686l2.716-.532-.014 1.05-1.974.406c-.392.075-.686.182-.882.322-.196.14-.294.345-.294.616 0 .261.098.471.294.63.205.149.476.224.812.224.233 0 .457-.028.672-.084.224-.056.424-.145.602-.266a1.3 1.3 0 0 0 .406-.49c.102-.205.154-.448.154-.728v-1.904Zm3.854 4.494v-7h1.33l.098 1.82-.196-.196c.131-.401.317-.733.56-.994.252-.271.546-.467.882-.588a3.276 3.276 0 0 1 1.092-.182c.495 0 .938.098 1.33.294.401.187.719.471.952.854.233.383.35.868.35 1.456V120h-1.498v-4.074c0-.691-.145-1.167-.434-1.428-.28-.271-.635-.406-1.064-.406-.308 0-.607.075-.896.224-.289.14-.532.369-.728.686-.187.317-.28.742-.28 1.274V120h-1.498Zm11.608-7.14c.56 0 1.036.084 1.428.252.401.159.737.387 1.008.686.271.299.476.639.616 1.022l-1.414.56c-.121-.429-.317-.756-.588-.98-.261-.233-.607-.35-1.036-.35-.42 0-.779.098-1.078.294a1.78 1.78 0 0 0-.686.826c-.149.364-.224.812-.224 1.344 0 .523.079.966.238 1.33.159.364.387.639.686.826.299.187.653.28 1.064.28.317 0 .593-.051.826-.154.233-.112.425-.266.574-.462.159-.205.266-.453.322-.742l1.358.462c-.131.42-.336.789-.616 1.106a2.827 2.827 0 0 1-1.022.728c-.411.168-.882.252-1.414.252-.691 0-1.302-.145-1.834-.434a3.082 3.082 0 0 1-1.246-1.246c-.289-.551-.434-1.204-.434-1.96s.145-1.405.434-1.946a3.079 3.079 0 0 1 1.232-1.26c.532-.289 1.134-.434 1.806-.434Zm7.833 7.28c-.7 0-1.316-.145-1.848-.434a3.082 3.082 0 0 1-1.246-1.246c-.289-.551-.434-1.204-.434-1.96s.145-1.405.434-1.946c.299-.551.71-.971 1.232-1.26.523-.289 1.116-.434 1.778-.434.682 0 1.26.14 1.736.42.476.28.84.663 1.092 1.148.252.485.378 1.036.378 1.652 0 .168-.004.327-.014.476-.009.149-.023.28-.042.392h-5.628V115.8h4.97l-.742.224c0-.635-.158-1.12-.476-1.456-.317-.345-.751-.518-1.302-.518-.401 0-.751.093-1.05.28-.298.187-.527.467-.686.84-.158.364-.238.812-.238 1.344 0 .523.084.966.252 1.33.168.364.406.639.714.826.308.187.672.28 1.092.28.467 0 .845-.089 1.134-.266.29-.177.518-.425.686-.742l1.19.56c-.168.336-.396.63-.686.882-.28.243-.616.429-1.008.56a4.041 4.041 0 0 1-1.288.196Zm7.618 0a2.989 2.989 0 0 1-1.582-.434c-.467-.289-.835-.705-1.106-1.246-.271-.541-.406-1.19-.406-1.946 0-.784.145-1.447.434-1.988.289-.541.677-.952 1.162-1.232a3.06 3.06 0 0 1 1.596-.434c.597 0 1.101.163 1.512.49.411.327.686.751.826 1.274l-.168.154v-4.928h1.498V120h-1.33l-.112-1.904.196.014c-.065.42-.219.784-.462 1.092a2.507 2.507 0 0 1-.91.7 2.773 2.773 0 0 1-1.148.238Zm.322-1.204c.401 0 .747-.103 1.036-.308a1.99 1.99 0 0 0 .672-.868c.159-.373.238-.821.238-1.344 0-.485-.079-.901-.238-1.246a1.824 1.824 0 0 0-.672-.812 1.723 1.723 0 0 0-.98-.28c-.625 0-1.111.215-1.456.644-.345.429-.518 1.022-.518 1.778s.168 1.353.504 1.792c.336.429.807.644 1.414.644Z"/><rect width="44" height="24" x="284" y="103" fill="#413E5E" rx="12"/><circle cx="296" cy="115" r="10" fill="#FEFCFA"/></svg>