<svg xmlns="http://www.w3.org/2000/svg" width="360" height="600" fill="none"><path fill="url(#a)" d="M0 0h360v600H0z"/><path fill="#FEFCFA" d="M50.552 124.16V140h-2.376v-9.168l.192-4.368h-.024L43.52 140h-2.136l-4.824-13.536h-.024l.192 4.368V140h-2.376v-15.84h3.816l3.192 9.168 1.104 3.768h.048l1.128-3.768 3.168-9.168h3.744Zm5.498 1.824c-.56 0-.992-.136-1.296-.408-.288-.288-.432-.688-.432-1.2s.144-.904.432-1.176c.304-.272.736-.408 1.296-.408.544 0 .96.136 1.248.408.304.272.456.664.456 1.176 0 .512-.152.912-.456 1.2-.288.272-.704.408-1.248.408ZM57.322 128v12h-2.568v-12h2.568Zm3.874 12v-12h2.28l.168 3.12-.336-.336c.224-.688.544-1.256.96-1.704.432-.464.936-.8 1.512-1.008a5.606 5.606 0 0 1 1.872-.312c.848 0 1.608.168 2.28.504.688.32 1.232.808 1.632 1.464.4.656.6 1.488.6 2.496V140h-2.568v-6.984c0-1.184-.248-2-.744-2.448-.48-.464-1.088-.696-1.824-.696a3.31 3.31 0 0 0-1.536.384c-.496.24-.912.632-1.248 1.176-.32.544-.48 1.272-.48 2.184V140h-2.568Zm21.652-7.704c0-.8-.224-1.416-.672-1.848-.432-.448-1.032-.672-1.8-.672-.72 0-1.336.168-1.848.504-.512.336-.888.88-1.128 1.632L75.24 131c.304-.976.896-1.76 1.776-2.352.896-.592 2.048-.888 3.456-.888.96 0 1.808.16 2.544.48.736.304 1.312.768 1.728 1.392.432.624.648 1.424.648 2.4v5.352c0 .592.296.888.888.888.288 0 .568-.04.84-.12l-.144 1.776c-.368.176-.832.264-1.392.264-.512 0-.976-.088-1.392-.264-.4-.192-.72-.472-.96-.84-.224-.384-.336-.856-.336-1.416v-.168l.528-.024a2.994 2.994 0 0 1-.888 1.56 4.61 4.61 0 0 1-1.56.912 5.801 5.801 0 0 1-1.8.288c-.752 0-1.432-.12-2.04-.36a3.205 3.205 0 0 1-1.416-1.08c-.336-.496-.504-1.104-.504-1.824 0-.896.288-1.632.864-2.208.592-.576 1.424-.968 2.496-1.176l4.656-.912-.024 1.8-3.384.696c-.672.128-1.176.312-1.512.552-.336.24-.504.592-.504 1.056 0 .448.168.808.504 1.08.352.256.816.384 1.392.384.4 0 .784-.048 1.152-.144a3.172 3.172 0 0 0 1.032-.456 2.21 2.21 0 0 0 .696-.84c.176-.352.264-.768.264-1.248v-3.264Z"/><path stroke="#FEFCFA" stroke-linecap="round" stroke-linejoin="round" stroke-width="1.5" d="M42.101 191A7 7 0 0 1 52 200.899M48 202a7 7 0 1 1-14 0 7 7 0 0 1 14 0Z"/><path fill="#FEFCFA" d="M75.628 205.5h-2.034l-1.134-3.114h-4.986L66.34 205.5h-1.98l4.482-11.88h2.304l4.482 11.88Zm-7.614-4.68h3.906l-1.944-5.544-1.962 5.544Zm12.692 4.86c-.9 0-1.722-.174-2.466-.522-.744-.348-1.332-.84-1.764-1.476l1.332-1.152c.264.492.642.888 1.134 1.188.504.288 1.104.432 1.8.432.552 0 .99-.096 1.314-.288.324-.192.486-.462.486-.81a.844.844 0 0 0-.234-.594c-.144-.18-.426-.318-.846-.414l-1.89-.396c-.96-.192-1.644-.498-2.052-.918-.408-.432-.612-.978-.612-1.638 0-.492.144-.948.432-1.368.288-.42.708-.756 1.26-1.008.564-.264 1.236-.396 2.016-.396.9 0 1.668.162 2.304.486a3.315 3.315 0 0 1 1.458 1.35l-1.332 1.116a2.226 2.226 0 0 0-1.008-1.062 2.877 2.877 0 0 0-1.386-.36c-.384 0-.714.048-.99.144-.276.096-.486.228-.63.396a.884.884 0 0 0-.216.594c0 .24.09.45.27.63.18.18.504.318.972.414l2.052.432c.864.168 1.47.456 1.818.864.36.396.54.882.54 1.458s-.15 1.086-.45 1.53c-.3.432-.732.768-1.296 1.008-.564.24-1.236.36-2.016.36Zm9.42 0c-.9 0-1.722-.174-2.466-.522-.744-.348-1.332-.84-1.764-1.476l1.332-1.152c.264.492.642.888 1.134 1.188.504.288 1.104.432 1.8.432.552 0 .99-.096 1.314-.288.324-.192.486-.462.486-.81a.844.844 0 0 0-.234-.594c-.144-.18-.426-.318-.846-.414l-1.89-.396c-.96-.192-1.644-.498-2.052-.918-.408-.432-.612-.978-.612-1.638 0-.492.144-.948.432-1.368.288-.42.708-.756 1.26-1.008.564-.264 1.236-.396 2.016-.396.9 0 1.668.162 2.304.486a3.315 3.315 0 0 1 1.458 1.35l-1.332 1.116a2.226 2.226 0 0 0-1.008-1.062 2.877 2.877 0 0 0-1.386-.36c-.384 0-.714.048-.99.144-.276.096-.486.228-.63.396a.884.884 0 0 0-.216.594c0 .24.09.45.27.63.18.18.504.318.972.414l2.052.432c.864.168 1.47.456 1.818.864.36.396.54.882.54 1.458s-.15 1.086-.45 1.53c-.3.432-.732.768-1.296 1.008-.564.24-1.236.36-2.016.36Zm9.942 0c-.9 0-1.692-.186-2.376-.558a3.96 3.96 0 0 1-1.602-1.602c-.373-.708-.559-1.548-.559-2.52s.186-1.806.558-2.502a3.964 3.964 0 0 1 1.585-1.62c.671-.372 1.433-.558 2.285-.558.877 0 1.621.18 2.233.54.612.36 1.08.852 1.404 1.476.324.624.486 1.332.486 2.124 0 .216-.006.42-.018.612-.012.192-.03.36-.054.504h-7.237V200.1h6.391l-.954.288c0-.816-.204-1.44-.612-1.872-.408-.444-.966-.666-1.674-.666-.517 0-.967.12-1.35.36-.385.24-.678.6-.882 1.08-.204.468-.306 1.044-.306 1.728 0 .672.108 1.242.324 1.71.216.468.522.822.918 1.062.395.24.864.36 1.404.36.6 0 1.086-.114 1.458-.342a2.42 2.42 0 0 0 .882-.954l1.53.72c-.216.432-.51.81-.882 1.134-.36.312-.792.552-1.296.72a5.21 5.21 0 0 1-1.656.252Zm8.755-11.826v8.946c0 .444.114.768.342.972.24.204.558.306.954.306.324 0 .606-.048.846-.144a2.64 2.64 0 0 0 .666-.432l.432 1.404c-.276.24-.618.432-1.026.576-.396.132-.84.198-1.332.198-.516 0-.99-.084-1.422-.252a2.048 2.048 0 0 1-1.008-.81c-.24-.384-.366-.882-.378-1.494v-8.73l1.926-.54Zm3.096 2.646v1.512h-6.75V196.5h6.75Z"/><path stroke="#FEFCFA" stroke-linecap="round" stroke-linejoin="round" stroke-width="1.5" d="M49 311v16m0 0-4-4m4 4 4-4m-14 4v-16m0 0-4 4m4-4 4 4"/><path fill="#FEFCFA" d="M75.628 325.5h-2.034l-1.134-3.114h-4.986L66.34 325.5h-1.98l4.482-11.88h2.304l4.482 11.88Zm-7.614-4.68h3.906l-1.944-5.544-1.962 5.544Zm13.037-4.5c.72 0 1.332.108 1.836.324.516.204.948.498 1.296.882.348.384.612.822.792 1.314l-1.818.72c-.156-.552-.408-.972-.756-1.26-.336-.3-.78-.45-1.332-.45-.54 0-1.002.126-1.386.378-.384.24-.678.594-.882 1.062-.192.468-.288 1.044-.288 1.728 0 .672.102 1.242.306 1.71.204.468.498.822.882 1.062.384.24.84.36 1.368.36.408 0 .762-.066 1.062-.198.3-.144.546-.342.738-.594.204-.264.342-.582.414-.954l1.746.594a3.85 3.85 0 0 1-.792 1.422 3.64 3.64 0 0 1-1.314.936c-.528.216-1.134.324-1.818.324-.888 0-1.674-.186-2.358-.558a3.96 3.96 0 0 1-1.602-1.602c-.372-.708-.558-1.548-.558-2.52s.186-1.806.558-2.502a3.964 3.964 0 0 1 1.584-1.62c.684-.372 1.458-.558 2.322-.558Zm8.74-2.466v8.946c0 .444.114.768.342.972.24.204.558.306.954.306.324 0 .606-.048.846-.144a2.64 2.64 0 0 0 .666-.432l.432 1.404c-.276.24-.618.432-1.026.576-.396.132-.84.198-1.332.198-.516 0-.99-.084-1.422-.252a2.048 2.048 0 0 1-1.008-.81c-.24-.384-.366-.882-.378-1.494v-8.73l1.926-.54Zm3.096 2.646v1.512h-6.75V316.5h6.75Zm2.769-1.512c-.42 0-.744-.102-.972-.306-.216-.216-.324-.516-.324-.9s.108-.678.324-.882c.228-.204.552-.306.972-.306.408 0 .72.102.936.306.228.204.342.498.342.882s-.114.684-.342.9c-.216.204-.528.306-.936.306Zm.954 1.512v9h-1.926v-9h1.926Zm8.827 0h2.016l-3.582 9h-2.106l-3.6-9h2.106l2.556 7.326 2.61-7.326Zm4.522-1.512c-.42 0-.744-.102-.972-.306-.216-.216-.324-.516-.324-.9s.108-.678.324-.882c.228-.204.552-.306.972-.306.408 0 .72.102.936.306.228.204.342.498.342.882s-.114.684-.342.9c-.216.204-.528.306-.936.306Zm.954 1.512v9h-1.926v-9h1.926Zm5.534-2.646v8.946c0 .444.114.768.342.972.24.204.558.306.954.306.324 0 .606-.048.846-.144a2.64 2.64 0 0 0 .666-.432l.432 1.404c-.276.24-.618.432-1.026.576-.396.132-.84.198-1.332.198-.516 0-.99-.084-1.422-.252a2.048 2.048 0 0 1-1.008-.81c-.24-.384-.366-.882-.378-1.494v-8.73l1.926-.54Zm3.096 2.646v1.512h-6.75V316.5h6.75Zm9.699 0-3.942 10.062c-.264.696-.552 1.248-.864 1.656-.3.408-.648.702-1.044.882-.396.18-.858.27-1.386.27-.432 0-.834-.06-1.206-.18a3.335 3.335 0 0 1-.954-.45l.468-1.494c.228.192.468.336.72.432.264.096.546.144.846.144.324 0 .612-.09.864-.27.264-.168.498-.51.702-1.026l.396-.972-.954-2.232-2.808-6.822h2.16l1.998 5.652.522 1.692.594-1.854 1.89-5.49h1.998Z"/><path stroke="#FEFCFA" stroke-linecap="round" stroke-linejoin="round" stroke-width="1.5" d="M36 512.817c.603.183 1.416.183 2.8.183h10.4c1.383 0 2.197 0 2.8-.183m-16 0a2.154 2.154 0 0 1-.362-.144 3.004 3.004 0 0 1-1.311-1.311C34 510.72 34 509.88 34 508.2v-10.4c0-1.68 0-2.52.327-3.162a3.004 3.004 0 0 1 1.311-1.311C36.28 493 37.12 493 38.8 493h10.4c1.68 0 2.52 0 3.162.327a3.004 3.004 0 0 1 1.311 1.311c.327.642.327 1.482.327 3.162v10.4c0 1.68 0 2.52-.327 3.162a3.004 3.004 0 0 1-1.311 1.311 2.154 2.154 0 0 1-.362.144m-16 0c0-.809.005-1.237.077-1.597a4 4 0 0 1 3.143-3.143c.386-.077.85-.077 1.78-.077h6c.93 0 1.394 0 1.78.077a4 4 0 0 1 3.143 3.143c.072.36.077.788.077 1.597M48 500.5a4 4 0 1 1-8 0 4 4 0 0 1 8 0Z"/><path fill="#FEFCFA" d="M75.628 509.5h-2.034l-1.134-3.114h-4.986L66.34 509.5h-1.98l4.482-11.88h2.304l4.482 11.88Zm-7.614-4.68h3.906l-1.944-5.544-1.962 5.544Zm12.605 4.86a3.84 3.84 0 0 1-2.034-.558c-.6-.372-1.074-.906-1.422-1.602-.348-.696-.522-1.53-.522-2.502 0-1.008.186-1.86.558-2.556.372-.696.87-1.224 1.494-1.584a3.934 3.934 0 0 1 2.052-.558c.768 0 1.416.21 1.944.63.528.42.882.966 1.062 1.638l-.216.198v-6.336h1.926v13.05h-1.71l-.144-2.448.252.018a2.96 2.96 0 0 1-.594 1.404 3.224 3.224 0 0 1-1.17.9 3.573 3.573 0 0 1-1.476.306Zm.414-1.548c.516 0 .96-.132 1.332-.396.372-.264.66-.636.864-1.116.204-.48.306-1.056.306-1.728 0-.624-.102-1.158-.306-1.602-.204-.456-.492-.804-.864-1.044-.36-.24-.78-.36-1.26-.36-.804 0-1.428.276-1.872.828-.444.552-.666 1.314-.666 2.286s.216 1.74.648 2.304c.432.552 1.038.828 1.818.828Zm10.763 1.548a3.84 3.84 0 0 1-2.034-.558c-.6-.372-1.073-.906-1.421-1.602-.348-.696-.522-1.53-.522-2.502 0-1.008.185-1.86.557-2.556.373-.696.87-1.224 1.495-1.584a3.934 3.934 0 0 1 2.052-.558c.767 0 1.415.21 1.944.63.527.42.882.966 1.061 1.638l-.215.198v-6.336h1.925v13.05h-1.71l-.144-2.448.252.018a2.96 2.96 0 0 1-.594 1.404 3.224 3.224 0 0 1-1.17.9 3.573 3.573 0 0 1-1.476.306Zm.414-1.548c.517 0 .96-.132 1.333-.396.371-.264.66-.636.863-1.116.204-.48.306-1.056.306-1.728 0-.624-.102-1.158-.306-1.602-.204-.456-.492-.804-.864-1.044-.36-.24-.78-.36-1.26-.36-.803 0-1.427.276-1.871.828-.445.552-.666 1.314-.666 2.286s.215 1.74.647 2.304c.433.552 1.038.828 1.819.828Zm7.308 1.368v-9h1.638l.18 1.62c.24-.588.594-1.032 1.062-1.332.48-.312 1.068-.468 1.764-.468.18 0 .36.018.54.054.18.024.33.066.45.126l-.27 1.692a2.25 2.25 0 0 0-.45-.108 3.028 3.028 0 0 0-.648-.054c-.372 0-.738.102-1.098.306-.36.192-.66.486-.9.882-.228.396-.342.9-.342 1.512v4.77h-1.926Zm11.076.18c-.9 0-1.692-.186-2.376-.558a3.96 3.96 0 0 1-1.602-1.602c-.372-.708-.558-1.548-.558-2.52s.186-1.806.558-2.502a3.964 3.964 0 0 1 1.584-1.62c.672-.372 1.434-.558 2.286-.558.876 0 1.62.18 2.232.54.612.36 1.08.852 1.404 1.476.324.624.486 1.332.486 2.124 0 .216-.006.42-.018.612-.012.192-.03.36-.054.504H107.3V504.1h6.39l-.954.288c0-.816-.204-1.44-.612-1.872-.408-.444-.966-.666-1.674-.666-.516 0-.966.12-1.35.36-.384.24-.678.6-.882 1.08-.204.468-.306 1.044-.306 1.728 0 .672.108 1.242.324 1.71.216.468.522.822.918 1.062.396.24.864.36 1.404.36.6 0 1.086-.114 1.458-.342a2.42 2.42 0 0 0 .882-.954l1.53.72c-.216.432-.51.81-.882 1.134-.36.312-.792.552-1.296.72a5.21 5.21 0 0 1-1.656.252Zm9.759 0c-.9 0-1.722-.174-2.466-.522-.744-.348-1.332-.84-1.764-1.476l1.332-1.152c.264.492.642.888 1.134 1.188.504.288 1.104.432 1.8.432.552 0 .99-.096 1.314-.288.324-.192.486-.462.486-.81a.844.844 0 0 0-.234-.594c-.144-.18-.426-.318-.846-.414l-1.89-.396c-.96-.192-1.644-.498-2.052-.918-.408-.432-.612-.978-.612-1.638 0-.492.144-.948.432-1.368.288-.42.708-.756 1.26-1.008.564-.264 1.236-.396 2.016-.396.9 0 1.668.162 2.304.486a3.315 3.315 0 0 1 1.458 1.35l-1.332 1.116a2.226 2.226 0 0 0-1.008-1.062 2.877 2.877 0 0 0-1.386-.36c-.384 0-.714.048-.99.144-.276.096-.486.228-.63.396a.884.884 0 0 0-.216.594c0 .24.09.45.27.63.18.18.504.318.972.414l2.052.432c.864.168 1.47.456 1.818.864.36.396.54.882.54 1.458s-.15 1.086-.45 1.53c-.3.432-.732.768-1.296 1.008-.564.24-1.236.36-2.016.36Zm9.419 0c-.9 0-1.722-.174-2.466-.522-.744-.348-1.332-.84-1.764-1.476l1.332-1.152c.264.492.642.888 1.134 1.188.504.288 1.104.432 1.8.432.552 0 .99-.096 1.314-.288.324-.192.486-.462.486-.81a.844.844 0 0 0-.234-.594c-.144-.18-.426-.318-.846-.414l-1.89-.396c-.96-.192-1.644-.498-2.052-.918-.408-.432-.612-.978-.612-1.638 0-.492.144-.948.432-1.368.288-.42.708-.756 1.26-1.008.564-.264 1.236-.396 2.016-.396.9 0 1.668.162 2.304.486a3.315 3.315 0 0 1 1.458 1.35l-1.332 1.116a2.226 2.226 0 0 0-1.008-1.062 2.877 2.877 0 0 0-1.386-.36c-.384 0-.714.048-.99.144-.276.096-.486.228-.63.396a.884.884 0 0 0-.216.594c0 .24.09.45.27.63.18.18.504.318.972.414l2.052.432c.864.168 1.47.456 1.818.864.36.396.54.882.54 1.458s-.15 1.086-.45 1.53c-.3.432-.732.768-1.296 1.008-.564.24-1.236.36-2.016.36Zm16.569 0a3.45 3.45 0 0 1-1.458-.306 3.175 3.175 0 0 1-1.098-.846 3.77 3.77 0 0 1-.666-1.242l.234-.306-.144 2.52h-1.692v-13.05h1.926v6.318l-.216-.306a3.198 3.198 0 0 1 1.17-1.53c.552-.408 1.218-.612 1.998-.612.72 0 1.38.186 1.98.558.612.372 1.092.906 1.44 1.602.348.696.522 1.542.522 2.538 0 .972-.18 1.806-.54 2.502-.348.696-.828 1.23-1.44 1.602-.6.372-1.272.558-2.016.558Zm-.414-1.548c.78 0 1.386-.276 1.818-.828.444-.564.666-1.332.666-2.304 0-.972-.216-1.734-.648-2.286-.432-.552-1.038-.828-1.818-.828-.504 0-.942.132-1.314.396-.372.252-.666.612-.882 1.08-.204.468-.306 1.026-.306 1.674 0 .636.102 1.188.306 1.656.204.456.492.81.864 1.062.384.252.822.378 1.314.378Zm10.673-7.812c.876 0 1.65.186 2.322.558a3.85 3.85 0 0 1 1.566 1.62c.384.696.576 1.53.576 2.502 0 .972-.192 1.812-.576 2.52a3.876 3.876 0 0 1-1.566 1.602c-.672.372-1.446.558-2.322.558-.876 0-1.65-.186-2.322-.558a3.992 3.992 0 0 1-1.584-1.602c-.384-.708-.576-1.548-.576-2.52s.192-1.806.576-2.502a3.964 3.964 0 0 1 1.584-1.62c.672-.372 1.446-.558 2.322-.558Zm0 1.512c-.54 0-1.002.126-1.386.378-.372.24-.66.594-.864 1.062-.204.468-.306 1.044-.306 1.728 0 .672.102 1.248.306 1.728.204.468.492.828.864 1.08.384.24.846.36 1.386.36.54 0 .996-.12 1.368-.36.372-.252.66-.612.864-1.08.204-.48.306-1.056.306-1.728 0-.684-.102-1.26-.306-1.728-.204-.468-.492-.822-.864-1.062-.372-.252-.828-.378-1.368-.378Zm10.685-1.512c.876 0 1.65.186 2.322.558a3.85 3.85 0 0 1 1.566 1.62c.384.696.576 1.53.576 2.502 0 .972-.192 1.812-.576 2.52a3.876 3.876 0 0 1-1.566 1.602c-.672.372-1.446.558-2.322.558-.876 0-1.65-.186-2.322-.558a3.992 3.992 0 0 1-1.584-1.602c-.384-.708-.576-1.548-.576-2.52s.192-1.806.576-2.502a3.964 3.964 0 0 1 1.584-1.62c.672-.372 1.446-.558 2.322-.558Zm0 1.512c-.54 0-1.002.126-1.386.378-.372.24-.66.594-.864 1.062-.204.468-.306 1.044-.306 1.728 0 .672.102 1.248.306 1.728.204.468.492.828.864 1.08.384.24.846.36 1.386.36.54 0 .996-.12 1.368-.36.372-.252.66-.612.864-1.08.204-.48.306-1.056.306-1.728 0-.684-.102-1.26-.306-1.728-.204-.468-.492-.822-.864-1.062-.372-.252-.828-.378-1.368-.378Zm15.275-1.332-4.014 4.104-.414.288-2.826 2.934-.018-2.196 4.986-5.13h2.286Zm-6.57-4.05v13.05h-1.926v-13.05h1.926Zm2.79 7.074 3.996 5.976h-2.232l-3.204-4.878 1.44-1.098Z"/><path stroke="#FEFCFA" d="M32.5 153.5H328"/><path fill="#FEFCFA" d="M88 116h2v32h-2zM37.333 54.663H34.533c-1.248-.002-2.252-.825-2.49-2.047-.03-.15-.04-.305-.041-.458C32 46.143 32 40.128 32 34.114c0-.494.288-.782.787-.782h4.536c.004-.074.009-.136.009-.198v-4.329c0-.53.276-.805.809-.805h18.014c1.41 0 2.504 1.098 2.505 2.51v2.813c.065.003.123.008.18.008.912.002 1.825-.012 2.737.007a2.454 2.454 0 0 1 2.415 2.445c.011 1.919.01 3.838 0 5.757a2.472 2.472 0 0 1-2.486 2.453H58.66V46.838a2.472 2.472 0 0 1-2.482 2.486c-1.894.003-3.788.003-5.682 0-1.402-.002-2.493-1.101-2.494-2.505v-2.826H55.924c1.356 0 2.5-.98 2.701-2.317.022-.146.034-.295.034-.443.002-1.706.001-3.412.001-5.117 0-1.583-1.201-2.784-2.788-2.785H40.15c-1.62 0-2.817 1.2-2.817 2.822V51.86c0 1.595 1.21 2.802 2.809 2.803h5.34c1.24 0 2.26.822 2.472 2.042.146.839.067 1.656-.5 2.353-.493.603-1.135.928-1.913.933-1.914.01-3.828.01-5.742 0a2.483 2.483 0 0 1-2.465-2.495c-.003-.877 0-1.755 0-2.633v-.201Z"/><rect width="40" height="40" x="288" y="24" fill="#FEFCFA" rx="20"/><path stroke="#25233A" stroke-linecap="round" stroke-linejoin="round" stroke-width="1.5" d="m314 38-12 12m0-12 12 12"/><rect width="49.5" height="49.5" x="31.25" y="354.25" stroke="#FEFCFA" stroke-width="1.5" rx="24.75"/><path fill="#FEFCFA" d="M101.872 360.44c1.131 0 2.027.283 2.688.848.672.565 1.008 1.328 1.008 2.288 0 .992-.336 1.76-1.008 2.304-.661.533-1.557.8-2.688.8l-.16.096h-2.448V371h-1.696v-10.56h4.304Zm-.128 4.912c.693 0 1.205-.139 1.536-.416.341-.288.512-.725.512-1.312 0-.576-.171-1.008-.512-1.296-.331-.288-.843-.432-1.536-.432h-2.48v3.456h2.48Zm1.008.352 3.44 5.296h-1.968l-2.944-4.624 1.472-.672Zm8.531 5.456c-.8 0-1.504-.165-2.112-.496a3.524 3.524 0 0 1-1.424-1.424c-.33-.629-.496-1.376-.496-2.24 0-.864.166-1.605.496-2.224a3.534 3.534 0 0 1 1.408-1.44c.598-.331 1.275-.496 2.032-.496.779 0 1.44.16 1.984.48.544.32.96.757 1.248 1.312.288.555.432 1.184.432 1.888 0 .192-.005.373-.016.544-.01.171-.026.32-.048.448h-6.432V366.2h5.68l-.848.256c0-.725-.181-1.28-.544-1.664-.362-.395-.858-.592-1.488-.592-.458 0-.858.107-1.2.32-.341.213-.602.533-.784.96-.181.416-.272.928-.272 1.536 0 .597.096 1.104.288 1.52.192.416.464.731.816.944.352.213.768.32 1.248.32.534 0 .966-.101 1.296-.304a2.15 2.15 0 0 0 .784-.848l1.36.64c-.192.384-.453.72-.784 1.008-.32.277-.704.491-1.152.64a4.637 4.637 0 0 1-1.472.224Zm9.09-8.32c.64 0 1.184.096 1.632.288.459.181.843.443 1.152.784.31.341.544.731.704 1.168l-1.616.64c-.138-.491-.362-.864-.672-1.12-.298-.267-.693-.4-1.184-.4-.48 0-.89.112-1.232.336-.341.213-.602.528-.784.944-.17.416-.256.928-.256 1.536 0 .597.091 1.104.272 1.52.182.416.443.731.784.944.342.213.747.32 1.216.32.363 0 .678-.059.944-.176.267-.128.486-.304.656-.528a1.97 1.97 0 0 0 .368-.848l1.552.528a3.42 3.42 0 0 1-.704 1.264 3.23 3.23 0 0 1-1.168.832c-.469.192-1.008.288-1.616.288-.789 0-1.488-.165-2.096-.496a3.524 3.524 0 0 1-1.424-1.424c-.33-.629-.496-1.376-.496-2.24 0-.864.166-1.605.496-2.224a3.534 3.534 0 0 1 1.408-1.44c.608-.331 1.296-.496 2.064-.496Zm8.953 8.32c-.8 0-1.504-.165-2.112-.496a3.518 3.518 0 0 1-1.424-1.424c-.331-.629-.496-1.376-.496-2.24 0-.864.165-1.605.496-2.224a3.521 3.521 0 0 1 1.408-1.44c.597-.331 1.274-.496 2.032-.496.778 0 1.44.16 1.984.48.544.32.96.757 1.248 1.312.288.555.432 1.184.432 1.888 0 .192-.006.373-.016.544a4.64 4.64 0 0 1-.048.448h-6.432V366.2h5.68l-.848.256c0-.725-.182-1.28-.544-1.664-.363-.395-.859-.592-1.488-.592-.459 0-.859.107-1.2.32-.342.213-.603.533-.784.96-.182.416-.272.928-.272 1.536 0 .597.096 1.104.288 1.52.192.416.464.731.816.944.352.213.768.32 1.248.32.533 0 .965-.101 1.296-.304.33-.203.592-.485.784-.848l1.36.64a3.27 3.27 0 0 1-.784 1.008c-.32.277-.704.491-1.152.64a4.642 4.642 0 0 1-1.472.224Zm6.498-9.504c-.374 0-.662-.091-.864-.272-.192-.192-.288-.459-.288-.8s.096-.603.288-.784c.202-.181.49-.272.864-.272.362 0 .64.091.832.272.202.181.304.443.304.784s-.102.608-.304.8c-.192.181-.47.272-.832.272Zm.848 1.344v8h-1.712v-8h1.712Zm7.846 0h1.792l-3.184 8h-1.872l-3.2-8h1.872l2.272 6.512 2.32-6.512Zm6.629 8.16c-.8 0-1.504-.165-2.112-.496a3.518 3.518 0 0 1-1.424-1.424c-.331-.629-.496-1.376-.496-2.24 0-.864.165-1.605.496-2.224a3.527 3.527 0 0 1 1.408-1.44c.597-.331 1.275-.496 2.032-.496.779 0 1.44.16 1.984.48.544.32.96.757 1.248 1.312.288.555.432 1.184.432 1.888 0 .192-.005.373-.016.544a4.64 4.64 0 0 1-.048.448h-6.432V366.2h5.68l-.848.256c0-.725-.181-1.28-.544-1.664-.363-.395-.859-.592-1.488-.592-.459 0-.859.107-1.2.32-.341.213-.603.533-.784.96-.181.416-.272.928-.272 1.536 0 .597.096 1.104.288 1.52.192.416.464.731.816.944.352.213.768.32 1.248.32.533 0 .965-.101 1.296-.304a2.15 2.15 0 0 0 .784-.848l1.36.64c-.192.384-.453.72-.784 1.008-.32.277-.704.491-1.152.64a4.642 4.642 0 0 1-1.472.224Zm8.706 0a3.411 3.411 0 0 1-1.808-.496c-.533-.331-.955-.805-1.264-1.424-.309-.619-.464-1.36-.464-2.224 0-.896.165-1.653.496-2.272.331-.619.773-1.088 1.328-1.408a3.495 3.495 0 0 1 1.824-.496c.683 0 1.259.187 1.728.56.469.373.784.859.944 1.456l-.192.176V359.4h1.712V371h-1.52l-.128-2.176.224.016c-.075.48-.251.896-.528 1.248a2.867 2.867 0 0 1-1.04.8 3.181 3.181 0 0 1-1.312.272Zm.368-1.376c.459 0 .853-.117 1.184-.352.331-.235.587-.565.768-.992.181-.427.272-.939.272-1.536 0-.555-.091-1.029-.272-1.424-.181-.405-.437-.715-.768-.928a1.974 1.974 0 0 0-1.12-.32c-.715 0-1.269.245-1.664.736s-.592 1.168-.592 2.032c0 .864.192 1.547.576 2.048.384.491.923.736 1.616.736ZM99.248 398v-7.904l.032-.736a5.697 5.697 0 0 1-1.248.912 5.498 5.498 0 0 1-1.424.528l-.32-1.488c.224-.032.485-.107.784-.224.299-.117.608-.267.928-.448.32-.181.613-.373.88-.576.267-.213.475-.421.624-.624h1.44V398h-1.696Zm8.117.16c-1.269 0-2.266-.459-2.992-1.376-.714-.928-1.072-2.283-1.072-4.064 0-1.781.358-3.131 1.072-4.048.726-.928 1.723-1.392 2.992-1.392 1.281 0 2.278.464 2.993 1.392.725.917 1.087 2.267 1.087 4.048 0 1.781-.362 3.136-1.087 4.064-.715.917-1.712 1.376-2.993 1.376Zm0-1.456c.513 0 .939-.144 1.281-.432.352-.299.613-.741.784-1.328.181-.597.271-1.339.271-2.224 0-.885-.09-1.621-.271-2.208-.171-.597-.432-1.04-.784-1.328-.342-.299-.768-.448-1.281-.448-.512 0-.944.149-1.296.448-.341.288-.597.731-.768 1.328-.17.587-.255 1.323-.255 2.208 0 .885.085 1.627.255 2.224.171.587.427 1.029.768 1.328.352.288.784.432 1.296.432Zm7.311-6.864c.363 0 .651.107.864.32.224.203.336.48.336.832s-.112.635-.336.848c-.213.213-.501.32-.864.32-.373 0-.672-.107-.896-.32-.213-.213-.32-.496-.32-.848s.107-.629.32-.832c.224-.213.523-.32.896-.32Zm0 6c.363 0 .651.107.864.32.224.203.336.48.336.832s-.112.635-.336.848c-.213.213-.501.32-.864.32-.373 0-.672-.107-.896-.32-.213-.213-.32-.496-.32-.848s.107-.629.32-.832c.224-.213.523-.32.896-.32Zm8.142 2.16v-2.64h-5.152v-1.168c.021-.053.053-.117.096-.192.053-.075.112-.16.176-.256l4.4-6.304h2.096v6.592h1.792v1.328h-1.792V398h-1.616Zm-3.552-3.968h3.552v-3.728c0-.256.005-.517.016-.784.021-.277.037-.549.048-.816h-.032a7.694 7.694 0 0 1-.464.848c-.181.299-.352.56-.512.784l-2.496 3.552-.064.064a.982.982 0 0 1-.048.08Zm12.241 4.128c-.992 0-1.856-.219-2.592-.656a3.409 3.409 0 0 1-1.488-1.872l1.664-.784c.096.384.245.715.448.992s.469.491.8.64c.331.139.741.208 1.232.208.416 0 .768-.075 1.056-.224a1.54 1.54 0 0 0 .656-.624c.16-.267.24-.571.24-.912 0-.352-.069-.645-.208-.88-.128-.235-.336-.405-.624-.512-.277-.107-.635-.16-1.072-.16-.128 0-.261.005-.4.016-.128 0-.267.011-.416.032v-1.44l.272.032h.272c.693 0 1.189-.139 1.488-.416.299-.277.448-.709.448-1.296 0-.501-.155-.885-.464-1.152-.299-.267-.731-.4-1.296-.4-.587 0-1.045.139-1.376.416-.32.267-.565.656-.736 1.168l-1.568-.656c.149-.491.4-.917.752-1.28s.784-.64 1.296-.832a4.69 4.69 0 0 1 1.712-.304c.757 0 1.387.123 1.888.368.512.245.891.581 1.136 1.008.256.427.384.901.384 1.424 0 .405-.059.763-.176 1.072-.117.299-.277.56-.48.784a2.156 2.156 0 0 1-.64.496 2.421 2.421 0 0 1-.688.24v.032c.309.011.592.075.848.192.267.107.501.261.704.464.213.192.379.427.496.704.117.277.176.581.176.912 0 .64-.16 1.2-.48 1.68-.32.48-.763.853-1.328 1.12-.555.267-1.2.4-1.936.4ZM232.267 371v-1.248a52.274 52.274 0 0 0 2.544-1.92c.694-.555 1.248-1.067 1.664-1.536.416-.469.715-.912.896-1.328.192-.427.288-.859.288-1.296 0-.565-.176-1.024-.528-1.376-.352-.352-.842-.528-1.472-.528-.661 0-1.189.224-1.584.672-.384.437-.602 1.04-.656 1.808l-1.488-.688c.075-.672.272-1.253.592-1.744.32-.491.752-.869 1.296-1.136.555-.267 1.195-.4 1.92-.4.598 0 1.12.085 1.568.256.459.171.843.411 1.152.72.31.299.544.651.704 1.056.171.405.256.837.256 1.296 0 .672-.165 1.323-.496 1.952-.33.619-.853 1.253-1.568 1.904-.714.651-1.653 1.349-2.816 2.096v.032c.128-.021.304-.032.528-.032.224-.011.448-.016.672-.016.224-.011.406-.016.544-.016h3.328V371h-7.344Zm10.367-2.16c.363 0 .651.107.864.32.224.203.336.48.336.832s-.112.635-.336.848c-.213.213-.501.32-.864.32-.373 0-.672-.107-.896-.32-.213-.213-.32-.496-.32-.848s.107-.629.32-.832c.224-.213.523-.32.896-.32Zm6.775 2.32c-.992 0-1.856-.219-2.592-.656a3.409 3.409 0 0 1-1.488-1.872l1.664-.784c.096.384.245.715.448.992s.469.491.8.64c.331.139.741.208 1.232.208.416 0 .768-.075 1.056-.224a1.54 1.54 0 0 0 .656-.624c.16-.267.24-.571.24-.912 0-.352-.069-.645-.208-.88-.128-.235-.336-.405-.624-.512-.277-.107-.635-.16-1.072-.16-.128 0-.261.005-.4.016-.128 0-.267.011-.416.032v-1.44l.272.032h.272c.693 0 1.189-.139 1.488-.416.299-.277.448-.709.448-1.296 0-.501-.155-.885-.464-1.152-.299-.267-.731-.4-1.296-.4-.587 0-1.045.139-1.376.416-.32.267-.565.656-.736 1.168l-1.568-.656c.149-.491.4-.917.752-1.28s.784-.64 1.296-.832a4.69 4.69 0 0 1 1.712-.304c.757 0 1.387.123 1.888.368.512.245.891.581 1.136 1.008.256.427.384.901.384 1.424 0 .405-.059.763-.176 1.072-.117.299-.277.56-.48.784a2.156 2.156 0 0 1-.64.496 2.421 2.421 0 0 1-.688.24v.032c.309.011.592.075.848.192.267.107.501.261.704.464.213.192.379.427.496.704.117.277.176.581.176.912 0 .64-.16 1.2-.48 1.68-.32.48-.763.853-1.328 1.12-.555.267-1.2.4-1.936.4Zm10.447-.16v-2.64h-5.152v-1.168c.021-.053.053-.117.096-.192.053-.075.112-.16.176-.256l4.4-6.304h2.096v6.592h1.792v1.328h-1.792V371h-1.616Zm-3.552-3.968h3.552v-3.728c0-.256.005-.517.016-.784.021-.277.037-.549.048-.816h-.032a7.694 7.694 0 0 1-.464.848c-.181.299-.352.56-.512.784l-2.496 3.552-.064.064a.982.982 0 0 1-.048.08Zm12.145 4.128c-.938 0-1.712-.203-2.32-.608-.597-.405-1.072-.992-1.424-1.76l1.6-.832c.16.512.4.933.72 1.264.331.32.816.48 1.456.48.448 0 .827-.08 1.136-.24.32-.171.566-.405.736-.704.171-.309.256-.677.256-1.104 0-.448-.08-.821-.24-1.12a1.546 1.546 0 0 0-.688-.672c-.298-.16-.672-.24-1.12-.24a3.7 3.7 0 0 0-.864.096 2.296 2.296 0 0 0-.72.304c-.213.128-.4.299-.56.512l-1.408-.272.64-5.824h6.144v1.472h-4.784l-.384 2.976-.032.176h.032c.246-.267.56-.475.944-.624.395-.149.859-.224 1.392-.224.683 0 1.27.144 1.76.432.491.277.875.667 1.152 1.168.278.501.416 1.083.416 1.744 0 .576-.096 1.088-.288 1.536a3.13 3.13 0 0 1-.816 1.136 3.606 3.606 0 0 1-1.232.704c-.458.149-.96.224-1.504.224Zm13.505-8.16-3.568 3.648-.368.256-2.512 2.608-.016-1.952 4.432-4.56h2.032Zm-5.84-3.6V371h-1.712v-11.6h1.712Zm2.48 6.288 3.552 5.312h-1.984l-2.848-4.336 1.28-.976Zm20.859-5.248V371h-1.584v-6.112l.128-2.912h-.016L294.765 371h-1.424l-3.216-9.024h-.016l.128 2.912V371h-1.584v-10.56h2.544l2.128 6.112.736 2.512h.032l.752-2.512 2.112-6.112h2.496Zm4.753 0V371h-1.712v-10.56h1.712Zm11.692 0V371h-2.032l-4.08-6.656-1.024-1.872h-.016l.064 1.712V371h-1.568v-10.56h2.016l4.064 6.64 1.04 1.904h.016l-.064-1.728v-6.816h1.584ZM327.695 371h-1.808l-1.008-2.768h-4.432L319.439 371h-1.76l3.984-10.56h2.048l3.984 10.56Zm-6.768-4.16h3.472l-1.728-4.928-1.744 4.928ZM259.966 397.984a6.664 6.664 0 0 1-1.968-.272 5.493 5.493 0 0 1-1.52-.768 4.483 4.483 0 0 1-1.056-1.104l1.136-1.152c.224.373.507.704.848.992.341.277.736.496 1.184.656.448.16.939.24 1.472.24.725 0 1.296-.123 1.712-.368.427-.256.64-.635.64-1.136 0-.288-.107-.544-.32-.768-.213-.235-.597-.416-1.152-.544l-2.336-.544c-.619-.139-1.131-.331-1.536-.576-.395-.245-.688-.544-.88-.896a2.492 2.492 0 0 1-.288-1.184c0-.587.155-1.115.464-1.584.32-.469.779-.843 1.376-1.12.597-.288 1.317-.432 2.16-.432.907 0 1.701.171 2.384.512.683.341 1.248.853 1.696 1.536l-1.088 1.056c-.395-.608-.843-1.045-1.344-1.312-.501-.267-1.099-.4-1.792-.4-.512 0-.933.069-1.264.208-.32.128-.56.309-.72.544-.16.224-.24.475-.24.752 0 .224.043.427.128.608.096.181.267.341.512.48.245.139.592.256 1.04.352l2.08.464c.992.224 1.696.555 2.112.992.416.437.624.997.624 1.68 0 .629-.171 1.179-.512 1.648-.341.459-.816.816-1.424 1.072-.608.245-1.317.368-2.128.368Zm-.672 1.552v-13.632h1.28v13.632h-1.28Zm6.623-1.536v-1.248a53.275 53.275 0 0 0 2.544-1.92c.693-.555 1.248-1.067 1.664-1.536.416-.469.715-.912.896-1.328.192-.427.288-.859.288-1.296 0-.565-.176-1.024-.528-1.376-.352-.352-.843-.528-1.472-.528-.661 0-1.189.224-1.584.672-.384.437-.603 1.04-.656 1.808l-1.488-.688c.075-.672.272-1.253.592-1.744.32-.491.752-.869 1.296-1.136.555-.267 1.195-.4 1.92-.4.597 0 1.12.085 1.568.256.459.171.843.411 1.152.72.309.299.544.651.704 1.056.171.405.256.837.256 1.296 0 .672-.165 1.323-.496 1.952-.331.619-.853 1.253-1.568 1.904-.715.651-1.653 1.349-2.816 2.096v.032c.128-.021.304-.032.528-.032.224-.011.448-.016.672-.016.224-.011.405-.016.544-.016h3.328V398h-7.344Zm10.351-2.16c.298 0 .544.075.736.224.202.139.357.336.464.592.106.245.16.528.16.848a3.12 3.12 0 0 1-.88 2.144c-.278.309-.614.56-1.008.752l-.8-.688c.288-.107.544-.245.768-.416.224-.171.41-.363.56-.576.16-.213.272-.432.336-.656l-.064-.032a.81.81 0 0 1-.192.08.982.982 0 0 1-.288.032.987.987 0 0 1-.464-.128.995.995 0 0 1-.384-.352c-.107-.16-.16-.368-.16-.624 0-.235.053-.443.16-.624a1.19 1.19 0 0 1 .448-.416c.181-.107.384-.16.608-.16Zm6.839-8.56c.906 0 1.669.224 2.288.672.629.448 1.098 1.077 1.408 1.888.32.811.48 1.765.48 2.864 0 1.216-.166 2.229-.496 3.04-.331.8-.806 1.403-1.424 1.808-.619.405-1.366.608-2.24.608-.896 0-1.664-.197-2.304-.592-.64-.395-1.12-.987-1.44-1.776l1.616-.752c.149.501.394.901.736 1.2.352.299.826.448 1.424.448.49 0 .901-.096 1.232-.288.33-.192.592-.469.784-.832.202-.363.346-.8.432-1.312a10.61 10.61 0 0 0 .128-1.728v-.176h-.064a2.062 2.062 0 0 1-.64 1.04c-.299.267-.64.464-1.024.592a3.935 3.935 0 0 1-1.152.176c-.683 0-1.291-.133-1.824-.4a3.117 3.117 0 0 1-1.232-1.152c-.299-.491-.448-1.072-.448-1.744 0-.736.149-1.371.448-1.904a3.136 3.136 0 0 1 1.296-1.232c.565-.299 1.237-.448 2.016-.448Zm.016 1.504c-.672 0-1.19.181-1.552.544-.352.363-.528.869-.528 1.52 0 .576.186 1.029.56 1.36.384.32.89.48 1.52.48.405 0 .762-.08 1.072-.24.309-.171.549-.4.72-.688.181-.288.272-.624.272-1.008 0-.405-.091-.752-.272-1.04a1.725 1.725 0 0 0-.72-.688c-.31-.16-.667-.24-1.072-.24ZM294.006 398v-2.64h-5.152v-1.168c.021-.053.053-.117.096-.192.053-.075.112-.16.176-.256l4.4-6.304h2.096v6.592h1.792v1.328h-1.792V398h-1.616Zm-3.552-3.968h3.552v-3.728c0-.256.005-.517.016-.784.021-.277.037-.549.048-.816h-.032a7.865 7.865 0 0 1-.464.848c-.182.299-.352.56-.512.784l-2.496 3.552-.064.064a.982.982 0 0 1-.048.08Zm7.364-6.592h8.048v1.424c-.885.917-1.6 1.861-2.144 2.832-.544.96-.939 1.963-1.184 3.008a14.85 14.85 0 0 0-.352 3.296h-1.728c0-1.173.144-2.315.432-3.424.299-1.12.747-2.187 1.344-3.2a14.08 14.08 0 0 1 2.288-2.88l.32.432h-7.024v-1.488Zm9.05 8.4c.363 0 .651.107.864.32.224.203.336.48.336.832s-.112.635-.336.848c-.213.213-.501.32-.864.32-.373 0-.672-.107-.896-.32-.213-.213-.32-.496-.32-.848s.107-.629.32-.832c.224-.213.523-.32.896-.32Zm7.818 2.16v-2.64h-5.152v-1.168a1.89 1.89 0 0 1 .096-.192c.054-.075.112-.16.176-.256l4.4-6.304h2.096v6.592h1.792v1.328h-1.792V398h-1.616Zm-3.552-3.968h3.552v-3.728c0-.256.006-.517.016-.784.022-.277.038-.549.048-.816h-.032a7.694 7.694 0 0 1-.464.848c-.181.299-.352.56-.512.784l-2.496 3.552-.064.064a.618.618 0 0 1-.048.08Zm12.146 4.128c-.939 0-1.712-.203-2.32-.608-.598-.405-1.072-.992-1.424-1.76l1.6-.832c.16.512.4.933.72 1.264.33.32.816.48 1.456.48.448 0 .826-.08 1.136-.24.32-.171.565-.405.736-.704.17-.309.256-.677.256-1.104 0-.448-.08-.821-.24-1.12a1.551 1.551 0 0 0-.688-.672c-.299-.16-.672-.24-1.121-.24-.309 0-.597.032-.863.096a2.276 2.276 0 0 0-.72.304c-.214.128-.4.299-.56.512l-1.408-.272.64-5.824h6.144v1.472h-4.784l-.384 2.976-.032.176h.032c.245-.267.56-.475.944-.624.394-.149.858-.224 1.392-.224.682 0 1.269.144 1.76.432.49.277.874.667 1.152 1.168.277.501.416 1.083.416 1.744 0 .576-.096 1.088-.288 1.536a3.13 3.13 0 0 1-.816 1.136 3.615 3.615 0 0 1-1.232.704c-.459.149-.96.224-1.504.224Z"/><path stroke="#FEFCFA" stroke-linecap="round" stroke-linejoin="round" stroke-width="1.5" d="m51 374 10 10M61 374v10H51"/><rect width="49.5" height="49.5" x="31.25" y="418.25" stroke="#FEFCFA" stroke-width="1.5" rx="24.75"/><path fill="#FEFCFA" d="M101.168 424.28c.949 0 1.771.181 2.464.544.693.352 1.28.875 1.76 1.568l-1.152 1.104c-.405-.619-.864-1.061-1.376-1.328-.501-.277-1.099-.416-1.792-.416-.512 0-.933.069-1.264.208-.33.139-.576.325-.736.56-.15.224-.224.48-.224.768 0 .331.112.619.336.864.235.245.667.437 1.296.576l2.144.48c1.024.224 1.749.565 2.176 1.024.427.459.64 1.04.64 1.744 0 .651-.176 1.216-.528 1.696-.352.48-.843.848-1.472 1.104-.619.256-1.349.384-2.192.384-.747 0-1.419-.096-2.016-.288a5.392 5.392 0 0 1-1.568-.784 4.637 4.637 0 0 1-1.104-1.136l1.184-1.184c.224.373.507.709.848 1.008.341.288.736.512 1.184.672.459.16.965.24 1.52.24.491 0 .912-.059 1.264-.176.363-.117.635-.288.816-.512.192-.235.288-.512.288-.832 0-.309-.107-.581-.32-.816-.203-.235-.587-.416-1.152-.544l-2.32-.528c-.64-.139-1.168-.336-1.584-.592-.416-.256-.725-.565-.928-.928a2.57 2.57 0 0 1-.304-1.248c0-.597.16-1.136.48-1.616.33-.491.805-.88 1.424-1.168.619-.299 1.355-.448 2.208-.448Zm9.85 10.88c-.8 0-1.504-.165-2.112-.496a3.518 3.518 0 0 1-1.424-1.424c-.331-.629-.496-1.376-.496-2.24 0-.864.165-1.605.496-2.224a3.521 3.521 0 0 1 1.408-1.44c.597-.331 1.274-.496 2.032-.496.778 0 1.44.16 1.984.48.544.32.96.757 1.248 1.312.288.555.432 1.184.432 1.888 0 .192-.006.373-.016.544a4.64 4.64 0 0 1-.048.448h-6.432V430.2h5.68l-.848.256c0-.725-.182-1.28-.544-1.664-.363-.395-.859-.592-1.488-.592-.459 0-.859.107-1.2.32-.342.213-.603.533-.784.96-.182.416-.272.928-.272 1.536 0 .597.096 1.104.288 1.52.192.416.464.731.816.944.352.213.768.32 1.248.32.533 0 .965-.101 1.296-.304.33-.203.592-.485.784-.848l1.36.64a3.27 3.27 0 0 1-.784 1.008c-.32.277-.704.491-1.152.64a4.642 4.642 0 0 1-1.472.224Zm5.634-.16v-8h1.52l.112 2.08-.224-.224c.149-.459.362-.837.64-1.136a2.549 2.549 0 0 1 1.008-.672c.394-.139.81-.208 1.248-.208.565 0 1.072.112 1.52.336.458.213.821.539 1.088.976.266.437.4.992.4 1.664V435h-1.712v-4.656c0-.789-.166-1.333-.496-1.632-.32-.309-.726-.464-1.216-.464a2.2 2.2 0 0 0-1.024.256c-.331.16-.608.421-.832.784-.214.363-.32.848-.32 1.456V435h-1.712Zm12.052-10.352v7.952c0 .395.101.683.304.864.213.181.496.272.848.272.288 0 .539-.043.752-.128.213-.096.411-.224.592-.384l.384 1.248a2.784 2.784 0 0 1-.912.512 3.742 3.742 0 0 1-1.184.176c-.459 0-.88-.075-1.264-.224a1.815 1.815 0 0 1-.896-.72c-.213-.341-.325-.784-.336-1.328v-7.76l1.712-.48Zm2.752 2.352v1.344h-6V427h6ZM99.248 462v-7.904l.032-.736a5.697 5.697 0 0 1-1.248.912 5.498 5.498 0 0 1-1.424.528l-.32-1.488c.224-.032.485-.107.784-.224.299-.117.608-.267.928-.448.32-.181.613-.373.88-.576.267-.213.475-.421.624-.624h1.44V462h-1.696Zm8.117.16c-1.269 0-2.266-.459-2.992-1.376-.714-.928-1.072-2.283-1.072-4.064 0-1.781.358-3.131 1.072-4.048.726-.928 1.723-1.392 2.992-1.392 1.281 0 2.278.464 2.993 1.392.725.917 1.087 2.267 1.087 4.048 0 1.781-.362 3.136-1.087 4.064-.715.917-1.712 1.376-2.993 1.376Zm0-1.456c.513 0 .939-.144 1.281-.432.352-.299.613-.741.784-1.328.181-.597.271-1.339.271-2.224 0-.885-.09-1.621-.271-2.208-.171-.597-.432-1.04-.784-1.328-.342-.299-.768-.448-1.281-.448-.512 0-.944.149-1.296.448-.341.288-.597.731-.768 1.328-.17.587-.255 1.323-.255 2.208 0 .885.085 1.627.255 2.224.171.587.427 1.029.768 1.328.352.288.784.432 1.296.432Zm7.311-6.864c.363 0 .651.107.864.32.224.203.336.48.336.832s-.112.635-.336.848c-.213.213-.501.32-.864.32-.373 0-.672-.107-.896-.32-.213-.213-.32-.496-.32-.848s.107-.629.32-.832c.224-.213.523-.32.896-.32Zm0 6c.363 0 .651.107.864.32.224.203.336.48.336.832s-.112.635-.336.848c-.213.213-.501.32-.864.32-.373 0-.672-.107-.896-.32-.213-.213-.32-.496-.32-.848s.107-.629.32-.832c.224-.213.523-.32.896-.32Zm8.142 2.16v-2.64h-5.152v-1.168c.021-.053.053-.117.096-.192.053-.075.112-.16.176-.256l4.4-6.304h2.096v6.592h1.792v1.328h-1.792V462h-1.616Zm-3.552-3.968h3.552v-3.728c0-.256.005-.517.016-.784.021-.277.037-.549.048-.816h-.032a7.694 7.694 0 0 1-.464.848c-.181.299-.352.56-.512.784l-2.496 3.552-.064.064a.982.982 0 0 1-.048.08Zm12.241 4.128c-.992 0-1.856-.219-2.592-.656a3.409 3.409 0 0 1-1.488-1.872l1.664-.784c.096.384.245.715.448.992s.469.491.8.64c.331.139.741.208 1.232.208.416 0 .768-.075 1.056-.224a1.54 1.54 0 0 0 .656-.624c.16-.267.24-.571.24-.912 0-.352-.069-.645-.208-.88-.128-.235-.336-.405-.624-.512-.277-.107-.635-.16-1.072-.16-.128 0-.261.005-.4.016-.128 0-.267.011-.416.032v-1.44l.272.032h.272c.693 0 1.189-.139 1.488-.416.299-.277.448-.709.448-1.296 0-.501-.155-.885-.464-1.152-.299-.267-.731-.4-1.296-.4-.587 0-1.045.139-1.376.416-.32.267-.565.656-.736 1.168l-1.568-.656c.149-.491.4-.917.752-1.28s.784-.64 1.296-.832a4.69 4.69 0 0 1 1.712-.304c.757 0 1.387.123 1.888.368.512.245.891.581 1.136 1.008.256.427.384.901.384 1.424 0 .405-.059.763-.176 1.072-.117.299-.277.56-.48.784a2.156 2.156 0 0 1-.64.496 2.421 2.421 0 0 1-.688.24v.032c.309.011.592.075.848.192.267.107.501.261.704.464.213.192.379.427.496.704.117.277.176.581.176.912 0 .64-.16 1.2-.48 1.68-.32.48-.763.853-1.328 1.12-.555.267-1.2.4-1.936.4ZM236.52 435v-7.904c.011-.235.022-.48.032-.736a5.664 5.664 0 0 1-1.248.912 5.484 5.484 0 0 1-1.424.528l-.32-1.488c.224-.032.486-.107.784-.224.299-.117.608-.267.928-.448a7.69 7.69 0 0 0 .88-.576c.267-.213.475-.421.624-.624h1.44V435h-1.696Zm7.686.16c-.939 0-1.712-.203-2.32-.608-.597-.405-1.072-.992-1.424-1.76l1.6-.832c.16.512.4.933.72 1.264.331.32.816.48 1.456.48.448 0 .827-.08 1.136-.24.32-.171.565-.405.736-.704.171-.309.256-.677.256-1.104 0-.448-.08-.821-.24-1.12a1.546 1.546 0 0 0-.688-.672c-.299-.16-.672-.24-1.12-.24a3.7 3.7 0 0 0-.864.096 2.276 2.276 0 0 0-.72.304c-.213.128-.4.299-.56.512l-1.408-.272.64-5.824h6.144v1.472h-4.784l-.384 2.976-.032.176h.032c.245-.267.56-.475.944-.624.395-.149.859-.224 1.392-.224.683 0 1.269.144 1.76.432.491.277.875.667 1.152 1.168.277.501.416 1.083.416 1.744 0 .576-.096 1.088-.288 1.536a3.13 3.13 0 0 1-.816 1.136 3.615 3.615 0 0 1-1.232.704c-.459.149-.96.224-1.504.224Zm9.648 0c-1.269 0-2.266-.459-2.992-1.376-.714-.928-1.072-2.283-1.072-4.064 0-1.781.358-3.131 1.072-4.048.726-.928 1.723-1.392 2.992-1.392 1.28 0 2.278.464 2.992 1.392.726.917 1.088 2.267 1.088 4.048 0 1.781-.362 3.136-1.088 4.064-.714.917-1.712 1.376-2.992 1.376Zm0-1.456c.512 0 .939-.144 1.28-.432.352-.299.614-.741.784-1.328.182-.597.272-1.339.272-2.224 0-.885-.09-1.621-.272-2.208-.17-.597-.432-1.04-.784-1.328-.341-.299-.768-.448-1.28-.448s-.944.149-1.296.448c-.341.288-.597.731-.768 1.328-.17.587-.256 1.323-.256 2.208 0 .885.086 1.627.256 2.224.171.587.427 1.029.768 1.328.352.288.784.432 1.296.432Zm6.791-.864c.363 0 .651.107.864.32.224.203.336.48.336.832s-.112.635-.336.848c-.213.213-.501.32-.864.32-.373 0-.672-.107-.896-.32-.213-.213-.32-.496-.32-.848s.107-.629.32-.832c.224-.213.523-.32.896-.32Zm3.207 2.16v-1.248a52.274 52.274 0 0 0 2.544-1.92c.694-.555 1.248-1.067 1.664-1.536.416-.469.715-.912.896-1.328.192-.427.288-.859.288-1.296 0-.565-.176-1.024-.528-1.376-.352-.352-.842-.528-1.472-.528-.661 0-1.189.224-1.584.672-.384.437-.602 1.04-.656 1.808l-1.488-.688c.075-.672.272-1.253.592-1.744.32-.491.752-.869 1.296-1.136.555-.267 1.195-.4 1.92-.4.598 0 1.12.085 1.568.256.459.171.843.411 1.152.72.31.299.544.651.704 1.056.171.405.256.837.256 1.296 0 .672-.165 1.323-.496 1.952-.33.619-.853 1.253-1.568 1.904-.714.651-1.653 1.349-2.816 2.096v.032c.128-.021.304-.032.528-.032.224-.011.448-.016.672-.016.224-.011.406-.016.544-.016h3.328V435h-7.344Zm13.199.16c-1.269 0-2.267-.459-2.992-1.376-.715-.928-1.072-2.283-1.072-4.064 0-1.781.357-3.131 1.072-4.048.725-.928 1.723-1.392 2.992-1.392 1.28 0 2.277.464 2.992 1.392.725.917 1.088 2.267 1.088 4.048 0 1.781-.363 3.136-1.088 4.064-.715.917-1.712 1.376-2.992 1.376Zm0-1.456c.512 0 .939-.144 1.28-.432.352-.299.613-.741.784-1.328.181-.597.272-1.339.272-2.224 0-.885-.091-1.621-.272-2.208-.171-.597-.432-1.04-.784-1.328-.341-.299-.768-.448-1.28-.448s-.944.149-1.296.448c-.341.288-.597.731-.768 1.328-.171.587-.256 1.323-.256 2.208 0 .885.085 1.627.256 2.224.171.587.427 1.029.768 1.328.352.288.784.432 1.296.432Zm22.402-9.264V435h-1.584v-6.112l.128-2.912h-.016L294.765 435h-1.424l-3.216-9.024h-.016l.128 2.912V435h-1.584v-10.56h2.544l2.128 6.112.736 2.512h.032l.752-2.512 2.112-6.112h2.496Zm4.753 0V435h-1.712v-10.56h1.712Zm11.692 0V435h-2.032l-4.08-6.656-1.024-1.872h-.016l.064 1.712V435h-1.568v-10.56h2.016l4.064 6.64 1.04 1.904h.016l-.064-1.728v-6.816h1.584ZM327.695 435h-1.808l-1.008-2.768h-4.432L319.439 435h-1.76l3.984-10.56h2.048l3.984 10.56Zm-6.768-4.16h3.472l-1.728-4.928-1.744 4.928ZM274.415 461.984a6.654 6.654 0 0 1-1.968-.272 5.493 5.493 0 0 1-1.52-.768 4.483 4.483 0 0 1-1.056-1.104l1.136-1.152c.224.373.506.704.848.992.341.277.736.496 1.184.656.448.16.938.24 1.472.24.725 0 1.296-.123 1.712-.368.426-.256.64-.635.64-1.136 0-.288-.107-.544-.32-.768-.214-.235-.598-.416-1.152-.544l-2.336-.544c-.619-.139-1.131-.331-1.536-.576-.395-.245-.688-.544-.88-.896a2.492 2.492 0 0 1-.288-1.184c0-.587.154-1.115.464-1.584.32-.469.778-.843 1.376-1.12.597-.288 1.317-.432 2.16-.432.906 0 1.701.171 2.384.512.682.341 1.248.853 1.696 1.536l-1.088 1.056c-.395-.608-.843-1.045-1.344-1.312-.502-.267-1.099-.4-1.792-.4-.512 0-.934.069-1.264.208-.32.128-.56.309-.72.544-.16.224-.24.475-.24.752 0 .224.042.427.128.608.096.181.266.341.512.48.245.139.592.256 1.04.352l2.08.464c.992.224 1.696.555 2.112.992.416.437.624.997.624 1.68 0 .629-.171 1.179-.512 1.648-.342.459-.816.816-1.424 1.072-.608.245-1.318.368-2.128.368Zm-.672 1.552v-13.632h1.28v13.632h-1.28Zm6.623-1.536v-1.248a53.275 53.275 0 0 0 2.544-1.92c.693-.555 1.248-1.067 1.664-1.536.416-.469.714-.912.896-1.328.192-.427.288-.859.288-1.296 0-.565-.176-1.024-.528-1.376-.352-.352-.843-.528-1.472-.528-.662 0-1.19.224-1.584.672-.384.437-.603 1.04-.656 1.808l-1.488-.688c.074-.672.272-1.253.592-1.744.32-.491.752-.869 1.296-1.136.554-.267 1.194-.4 1.92-.4.597 0 1.12.085 1.568.256.458.171.842.411 1.152.72.309.299.544.651.704 1.056.17.405.256.837.256 1.296 0 .672-.166 1.323-.496 1.952-.331.619-.854 1.253-1.568 1.904-.715.651-1.654 1.349-2.816 2.096v.032c.128-.021.304-.032.528-.032.224-.011.448-.016.672-.016.224-.011.405-.016.544-.016h3.328V462h-7.344Zm13.64 0v-2.64h-5.152v-1.168c.021-.053.053-.117.096-.192.053-.075.112-.16.176-.256l4.4-6.304h2.096v6.592h1.792v1.328h-1.792V462h-1.616Zm-3.552-3.968h3.552v-3.728c0-.256.005-.517.016-.784.021-.277.037-.549.048-.816h-.032a7.865 7.865 0 0 1-.464.848c-.182.299-.352.56-.512.784l-2.496 3.552-.064.064a.982.982 0 0 1-.048.08Zm7.364-6.592h8.048v1.424c-.885.917-1.6 1.861-2.144 2.832-.544.96-.939 1.963-1.184 3.008a14.85 14.85 0 0 0-.352 3.296h-1.728c0-1.173.144-2.315.432-3.424.299-1.12.747-2.187 1.344-3.2a14.08 14.08 0 0 1 2.288-2.88l.32.432h-7.024v-1.488Zm9.05 8.4c.363 0 .651.107.864.32.224.203.336.48.336.832s-.112.635-.336.848c-.213.213-.501.32-.864.32-.373 0-.672-.107-.896-.32-.213-.213-.32-.496-.32-.848s.107-.629.32-.832c.224-.213.523-.32.896-.32Zm7.818 2.16v-2.64h-5.152v-1.168a1.89 1.89 0 0 1 .096-.192c.054-.075.112-.16.176-.256l4.4-6.304h2.096v6.592h1.792v1.328h-1.792V462h-1.616Zm-3.552-3.968h3.552v-3.728c0-.256.006-.517.016-.784.022-.277.038-.549.048-.816h-.032a7.694 7.694 0 0 1-.464.848c-.181.299-.352.56-.512.784l-2.496 3.552-.064.064a.618.618 0 0 1-.048.08Zm12.146 4.128c-.939 0-1.712-.203-2.32-.608-.598-.405-1.072-.992-1.424-1.76l1.6-.832c.16.512.4.933.72 1.264.33.32.816.48 1.456.48.448 0 .826-.08 1.136-.24.32-.171.565-.405.736-.704.17-.309.256-.677.256-1.104 0-.448-.08-.821-.24-1.12a1.551 1.551 0 0 0-.688-.672c-.299-.16-.672-.24-1.121-.24-.309 0-.597.032-.863.096a2.276 2.276 0 0 0-.72.304c-.214.128-.4.299-.56.512l-1.408-.272.64-5.824h6.144v1.472h-4.784l-.384 2.976-.032.176h.032c.245-.267.56-.475.944-.624.394-.149.858-.224 1.392-.224.682 0 1.269.144 1.76.432.49.277.874.667 1.152 1.168.277.501.416 1.083.416 1.744 0 .576-.096 1.088-.288 1.536a3.13 3.13 0 0 1-.816 1.136 3.615 3.615 0 0 1-1.232.704c-.459.149-.96.224-1.504.224Z"/><path stroke="#FEFCFA" stroke-linecap="round" stroke-linejoin="round" stroke-width="1.5" d="m51 448 10-10M51 438h10v10"/><rect width="49.5" height="49.5" x="31.25" y="538.25" stroke="#FEFCFA" stroke-width="1.5" rx="24.75"/><path fill="#FEFCFA" d="M108.368 557.94v10.56h-1.584v-6.112l.128-2.912h-.016l-3.216 9.024h-1.424l-3.216-9.024h-.016l.128 2.912v6.112h-1.584v-10.56h2.544l2.128 6.112.736 2.512h.032l.752-2.512 2.112-6.112h2.496Zm3.666 1.216c-.374 0-.662-.091-.864-.272-.192-.192-.288-.459-.288-.8s.096-.603.288-.784c.202-.181.49-.272.864-.272.362 0 .64.091.832.272.202.181.304.443.304.784s-.102.608-.304.8c-.192.181-.47.272-.832.272Zm.848 1.344v8h-1.712v-8h1.712Zm2.582 8v-8h1.52l.112 2.08-.224-.224c.149-.459.363-.837.64-1.136a2.549 2.549 0 0 1 1.008-.672 3.732 3.732 0 0 1 1.248-.208c.565 0 1.072.112 1.52.336a2.47 2.47 0 0 1 1.088.976c.267.437.4.992.4 1.664v5.184h-1.712v-4.656c0-.789-.165-1.333-.496-1.632-.32-.309-.725-.464-1.216-.464-.352 0-.693.085-1.024.256-.331.16-.608.421-.832.784-.213.363-.32.848-.32 1.456v4.256h-1.712Zm14.434-5.136c0-.533-.149-.944-.448-1.232-.288-.299-.688-.448-1.2-.448-.48 0-.89.112-1.232.336-.341.224-.592.587-.752 1.088l-1.44-.608a2.884 2.884 0 0 1 1.184-1.568c.598-.395 1.366-.592 2.304-.592.64 0 1.206.107 1.696.32.491.203.875.512 1.152.928.288.416.432.949.432 1.6v3.568c0 .395.198.592.592.592.192 0 .379-.027.56-.08l-.096 1.184c-.245.117-.554.176-.928.176-.341 0-.65-.059-.928-.176a1.557 1.557 0 0 1-.64-.56c-.149-.256-.224-.571-.224-.944v-.112l.352-.016a1.993 1.993 0 0 1-.592 1.04 3.063 3.063 0 0 1-1.04.608 3.861 3.861 0 0 1-1.2.192 3.68 3.68 0 0 1-1.36-.24c-.394-.16-.709-.4-.944-.72-.224-.331-.336-.736-.336-1.216 0-.597.192-1.088.576-1.472.395-.384.95-.645 1.664-.784l3.104-.608-.016 1.2-2.256.464c-.448.085-.784.208-1.008.368-.224.16-.336.395-.336.704a.88.88 0 0 0 .336.72c.235.171.544.256.928.256.267 0 .523-.032.768-.096.256-.064.486-.165.688-.304.203-.149.358-.336.464-.56.118-.235.176-.512.176-.832v-2.176Zm6.429-5.216v7.952c0 .395.101.683.304.864.213.181.496.272.848.272.288 0 .539-.043.752-.128.213-.096.411-.224.592-.384l.384 1.248a2.784 2.784 0 0 1-.912.512 3.742 3.742 0 0 1-1.184.176c-.459 0-.88-.075-1.264-.224a1.815 1.815 0 0 1-.896-.72c-.213-.341-.325-.784-.336-1.328v-7.76l1.712-.48Zm2.752 2.352v1.344h-6V560.5h6Zm3.027-2.352v7.952c0 .395.101.683.304.864.213.181.496.272.848.272.288 0 .539-.043.752-.128.213-.096.411-.224.592-.384l.384 1.248a2.784 2.784 0 0 1-.912.512 3.742 3.742 0 0 1-1.184.176c-.459 0-.88-.075-1.264-.224a1.815 1.815 0 0 1-.896-.72c-.213-.341-.325-.784-.336-1.328v-7.76l1.712-.48Zm2.752 2.352v1.344h-6V560.5h6Zm2.461-1.344c-.373 0-.661-.091-.864-.272-.192-.192-.288-.459-.288-.8s.096-.603.288-.784c.203-.181.491-.272.864-.272.363 0 .64.091.832.272.203.181.304.443.304.784s-.101.608-.304.8c-.192.181-.469.272-.832.272Zm.848 1.344v8h-1.712v-8h1.712Zm7.207 2.864c0-.533-.15-.944-.448-1.232-.288-.299-.688-.448-1.2-.448-.48 0-.891.112-1.232.336-.342.224-.592.587-.752 1.088l-1.44-.608a2.875 2.875 0 0 1 1.184-1.568c.597-.395 1.365-.592 2.304-.592.64 0 1.205.107 1.696.32.49.203.874.512 1.152.928.288.416.432.949.432 1.6v3.568c0 .395.197.592.592.592.192 0 .378-.027.56-.08l-.096 1.184c-.246.117-.555.176-.928.176-.342 0-.651-.059-.928-.176a1.55 1.55 0 0 1-.64-.56c-.15-.256-.224-.571-.224-.944v-.112l.352-.016a2 2 0 0 1-.592 1.04 3.082 3.082 0 0 1-1.04.608 3.87 3.87 0 0 1-1.2.192c-.502 0-.955-.08-1.36-.24a2.13 2.13 0 0 1-.944-.72c-.224-.331-.336-.736-.336-1.216 0-.597.192-1.088.576-1.472.394-.384.949-.645 1.664-.784l3.104-.608-.016 1.2-2.256.464c-.448.085-.784.208-1.008.368-.224.16-.336.395-.336.704a.88.88 0 0 0 .336.72c.234.171.544.256.928.256.266 0 .522-.032.768-.096.256-.064.485-.165.688-.304a1.48 1.48 0 0 0 .464-.56c.117-.235.176-.512.176-.832v-2.176ZM234.296 568.5v-10.56h4.16c1.269 0 2.197.256 2.784.768.587.512.88 1.221.88 2.128 0 .555-.16 1.051-.48 1.488-.32.427-.789.699-1.408.816v.016c.683.107 1.211.389 1.584.848.384.448.576.971.576 1.568 0 .907-.331 1.621-.992 2.144-.661.523-1.621.784-2.88.784h-4.224Zm1.68-1.424h2.624c.672 0 1.173-.139 1.504-.416.341-.277.512-.667.512-1.168 0-.501-.171-.891-.512-1.168-.331-.277-.832-.416-1.504-.416h-2.624v3.168Zm0-4.592h2.352c1.344 0 2.016-.517 2.016-1.552 0-1.035-.672-1.552-2.016-1.552h-2.352v3.104Zm12.514-4.704c.565 0 1.066.08 1.504.24.437.149.816.389 1.136.72.33.331.602.763.816 1.296l-1.504.72c-.15-.459-.39-.821-.72-1.088-.32-.267-.768-.4-1.344-.4-.416 0-.784.101-1.104.304-.32.203-.592.491-.816.864a4.327 4.327 0 0 0-.512 1.296 6.839 6.839 0 0 0-.176 1.6v.288l.064.032c.117-.427.325-.768.624-1.024a3.053 3.053 0 0 1 1.04-.592 3.575 3.575 0 0 1 1.136-.192c.704 0 1.317.139 1.84.416a2.89 2.89 0 0 1 1.216 1.152c.298.501.448 1.099.448 1.792 0 .704-.155 1.317-.464 1.84-.31.512-.742.912-1.296 1.2-.544.277-1.2.416-1.968.416-.896 0-1.659-.224-2.288-.672-.63-.448-1.11-1.077-1.44-1.888-.331-.811-.496-1.76-.496-2.848 0-1.205.186-2.213.56-3.024.384-.811.901-1.419 1.552-1.824a3.98 3.98 0 0 1 2.192-.624Zm-.112 5.488c-.406 0-.763.085-1.072.256-.31.16-.555.384-.736.672a1.937 1.937 0 0 0-.256 1.008c0 .373.09.709.272 1.008.192.299.442.539.752.72.309.171.656.256 1.04.256.65 0 1.157-.176 1.52-.528.362-.352.544-.837.544-1.456 0-.395-.08-.736-.24-1.024a1.533 1.533 0 0 0-.704-.672c-.299-.16-.672-.24-1.12-.24Zm5.653 5.232v-1.248a53.275 53.275 0 0 0 2.544-1.92c.693-.555 1.248-1.067 1.664-1.536.416-.469.715-.912.896-1.328.192-.427.288-.859.288-1.296 0-.565-.176-1.024-.528-1.376-.352-.352-.843-.528-1.472-.528-.661 0-1.189.224-1.584.672-.384.437-.603 1.04-.656 1.808l-1.488-.688c.075-.672.272-1.253.592-1.744.32-.491.752-.869 1.296-1.136.555-.267 1.195-.4 1.92-.4.597 0 1.12.085 1.568.256.459.171.843.411 1.152.72.309.299.544.651.704 1.056.171.405.256.837.256 1.296 0 .672-.165 1.323-.496 1.952-.331.619-.853 1.253-1.568 1.904-.715.651-1.653 1.349-2.816 2.096v.032c.128-.021.304-.032.528-.032.224-.011.448-.016.672-.016.224-.011.405-.016.544-.016h3.328v1.472h-7.344Zm16.542-9.68.272 1.344h-.095a.299.299 0 0 0-.097-.016c-.512 0-.901.112-1.168.336-.266.213-.4.528-.4.944l-.832-.384c0-.427.091-.805.272-1.136.182-.341.438-.608.768-.8a2.313 2.313 0 0 1 1.153-.288h.127Zm-2.528 8.432c.811 0 1.44.181 1.888.544.449.352.673.843.673 1.472 0 .555-.176 1.029-.529 1.424-.352.405-.832.715-1.44.928-.597.213-1.285.32-2.064.32-1.312 0-2.282-.203-2.912-.608-.629-.405-.944-.912-.944-1.52 0-.427.15-.8.448-1.12.31-.32.827-.501 1.552-.544l-.096.256c-.448-.096-.81-.267-1.088-.512-.266-.256-.4-.613-.4-1.072 0-.459.176-.848.528-1.168.352-.32.848-.507 1.488-.56l.896.432h-.192c-.49.043-.837.155-1.04.336-.202.181-.304.384-.304.608 0 .267.096.464.288.592.203.128.486.192.848.192h2.4Zm-1.472 3.408c.587 0 1.067-.059 1.44-.176.384-.107.667-.251.848-.432.192-.171.288-.363.288-.576a.7.7 0 0 0-.304-.592c-.192-.149-.544-.224-1.056-.224h-2.576c-.298 0-.549.075-.752.224a.775.775 0 0 0-.304.64c0 .352.214.629.64.832.427.203 1.019.304 1.776.304Zm-.063-10.32c.703 0 1.311.112 1.823.336.523.224.923.539 1.201.944.287.405.431.88.431 1.424 0 .544-.144 1.019-.431 1.424-.278.405-.678.72-1.201.944-.512.224-1.12.336-1.823.336-1.11 0-1.963-.245-2.561-.736-.586-.501-.88-1.157-.88-1.968 0-.544.144-1.019.432-1.424.288-.405.688-.72 1.2-.944.523-.224 1.126-.336 1.809-.336Zm0 1.2c-.491 0-.902.139-1.233.416-.32.267-.48.629-.48 1.088 0 .459.16.827.48 1.104.331.277.742.416 1.233.416.501 0 .911-.139 1.231-.416.331-.277.496-.645.496-1.104 0-.459-.165-.821-.496-1.088-.32-.277-.73-.416-1.231-.416Zm8.832 7.12c-.939 0-1.712-.203-2.32-.608-.597-.405-1.072-.992-1.424-1.76l1.6-.832c.16.512.4.933.72 1.264.331.32.816.48 1.456.48.448 0 .827-.08 1.136-.24.32-.171.565-.405.736-.704.171-.309.256-.677.256-1.104 0-.448-.08-.821-.24-1.12a1.546 1.546 0 0 0-.688-.672c-.299-.16-.672-.24-1.12-.24a3.7 3.7 0 0 0-.864.096 2.276 2.276 0 0 0-.72.304c-.213.128-.4.299-.56.512l-1.408-.272.64-5.824h6.144v1.472h-4.784l-.384 2.976-.032.176h.032c.245-.267.56-.475.944-.624.395-.149.859-.224 1.392-.224.683 0 1.269.144 1.76.432.491.277.875.667 1.152 1.168.277.501.416 1.083.416 1.744 0 .576-.096 1.088-.288 1.536a3.13 3.13 0 0 1-.816 1.136 3.615 3.615 0 0 1-1.232.704c-.459.149-.96.224-1.504.224Zm9.473 0c-.8 0-1.504-.165-2.112-.496a3.518 3.518 0 0 1-1.424-1.424c-.331-.629-.496-1.376-.496-2.24 0-.864.165-1.605.496-2.224a3.521 3.521 0 0 1 1.408-1.44c.597-.331 1.274-.496 2.032-.496.778 0 1.44.16 1.984.48.544.32.96.757 1.248 1.312.288.555.432 1.184.432 1.888 0 .192-.006.373-.016.544a4.64 4.64 0 0 1-.048.448h-6.432V563.7h5.68l-.848.256c0-.725-.182-1.28-.544-1.664-.363-.395-.859-.592-1.488-.592-.459 0-.859.107-1.2.32-.342.213-.603.533-.784.96-.182.416-.272.928-.272 1.536 0 .597.096 1.104.288 1.52.192.416.464.731.816.944.352.213.768.32 1.248.32.533 0 .965-.101 1.296-.304.33-.203.592-.485.784-.848l1.36.64a3.27 3.27 0 0 1-.784 1.008c-.32.277-.704.491-1.152.64a4.642 4.642 0 0 1-1.472.224Zm6.498-2.32c.362 0 .65.107.864.32.224.203.336.48.336.832s-.112.635-.336.848c-.214.213-.502.32-.864.32-.374 0-.672-.107-.896-.32-.214-.213-.32-.496-.32-.848s.106-.629.32-.832c.224-.213.522-.32.896-.32Zm4.279 0c.362 0 .65.107.864.32.224.203.336.48.336.832s-.112.635-.336.848c-.214.213-.502.32-.864.32-.374 0-.672-.107-.896-.32-.214-.213-.32-.496-.32-.848s.106-.629.32-.832c.224-.213.522-.32.896-.32Zm4.279 0c.362 0 .65.107.864.32.224.203.336.48.336.832s-.112.635-.336.848c-.214.213-.502.32-.864.32-.374 0-.672-.107-.896-.32-.214-.213-.32-.496-.32-.848s.106-.629.32-.832c.224-.213.522-.32.896-.32Zm6.823-8.56c.906 0 1.669.224 2.288.672.629.448 1.098 1.077 1.408 1.888.32.811.48 1.765.48 2.864 0 1.216-.166 2.229-.496 3.04-.331.8-.806 1.403-1.424 1.808-.619.405-1.366.608-2.24.608-.896 0-1.664-.197-2.304-.592-.64-.395-1.12-.987-1.44-1.776l1.616-.752c.149.501.394.901.736 1.2.352.299.826.448 1.424.448.49 0 .901-.096 1.232-.288.33-.192.592-.469.784-.832.202-.363.346-.8.432-1.312a10.61 10.61 0 0 0 .128-1.728v-.176h-.064a2.062 2.062 0 0 1-.64 1.04c-.299.267-.64.464-1.024.592a3.935 3.935 0 0 1-1.152.176c-.683 0-1.291-.133-1.824-.4a3.117 3.117 0 0 1-1.232-1.152c-.299-.491-.448-1.072-.448-1.744 0-.736.149-1.371.448-1.904a3.136 3.136 0 0 1 1.296-1.232c.565-.299 1.237-.448 2.016-.448Zm.016 1.504c-.672 0-1.19.181-1.552.544-.352.363-.528.869-.528 1.52 0 .576.186 1.029.56 1.36.384.32.89.48 1.52.48.405 0 .762-.08 1.072-.24.309-.171.549-.4.72-.688.181-.288.272-.624.272-1.008 0-.405-.091-.752-.272-1.04a1.725 1.725 0 0 0-.72-.688c-.31-.16-.667-.24-1.072-.24Zm9.747-2.496c.33 0 .629.037.896.112.277.064.485.155.624.272l-.32 1.232a1.212 1.212 0 0 0-.4-.16 1.857 1.857 0 0 0-.512-.064c-.438 0-.784.101-1.04.304-.246.203-.368.533-.368.992v1.168l.048.432v7.424h-1.712v-9.152c0-.405.058-.768.176-1.088a2.04 2.04 0 0 1 .56-.8c.245-.224.538-.389.88-.496a3.685 3.685 0 0 1 1.168-.176Zm1.472 3.712v1.344h-5.76V560.5h5.76Zm5.974 8v-2.64h-5.152v-1.168c.021-.053.053-.117.096-.192.053-.075.112-.16.176-.256l4.4-6.304h2.096v6.592h1.792v1.328h-1.792v2.64h-1.616Zm-3.552-3.968h3.552v-3.728c0-.256.005-.517.016-.784.021-.277.037-.549.048-.816h-.032a7.694 7.694 0 0 1-.464.848c-.181.299-.352.56-.512.784l-2.496 3.552-.064.064a.982.982 0 0 1-.048.08Z"/><path stroke="#FEFCFA" stroke-linecap="round" stroke-linejoin="round" stroke-width="1.5" d="M63 572v-2a3.998 3.998 0 0 0-4-4h-6a3.997 3.997 0 0 0-4 4v2M56 562a4 4 0 1 0 0-8 4 4 0 0 0 0 8Z"/><rect width="49.5" height="49.5" x="31.25" y="234.25" stroke="#FEFCFA" stroke-width="1.5" rx="24.75"/><path fill="#FEFCFA" stroke="#FEFCFA" stroke-width=".133" d="M54.993 268.013c.273.256.64.391 1.007.384.373.022.743-.114 1.029-.371l.001-.001c.276-.258.457-.615.481-1.01l.145-1.265c1.536-.478 2.468-1.701 2.699-3.546l1.387-10.995c.278-.05.567-.06.85-.06.426 0 .852.053 1.268.161v16.757H66.734v-13.528c0-1.832-.802-3.151-2.257-3.704v-.827c0-.514-.154-.95-.425-1.258a1.45 1.45 0 0 0-1.115-.484c-.453 0-.83.147-1.113.432-.28.283-.46.696-.53 1.219l-.099.759a3.512 3.512 0 0 0-1.889 1.337c-.476.664-.78 1.537-.914 2.612l-1.284 10.593a5.9 5.9 0 0 1-2.216 0l-1.284-10.593v-.001c-.139-1.075-.444-1.947-.918-2.611a3.496 3.496 0 0 0-1.885-1.337l-.098-.759c-.07-.523-.247-.936-.527-1.219-.28-.285-.658-.432-1.116-.432-.456 0-.843.176-1.115.484s-.426.744-.426 1.258v.827c-.723.278-1.284.739-1.666 1.358-.39.63-.59 1.422-.59 2.346v13.528h2.873V251.31a5.05 5.05 0 0 1 1.269-.161c.29 0 .57.02.85.062l1.386 10.993c.117.946.405 1.722.864 2.319.452.587 1.066.998 1.836 1.228l.155 1.264v.001c.037.382.217.739.493.997Zm.123-1.059-.127-1.044c.682.1 1.364.099 2.045-.002l-.127 1.046v.008a.864.864 0 0 1-.075.326.867.867 0 0 1-.203.273.798.798 0 0 1-.616.219v-.001l-.01.001a.84.84 0 0 1-.608-.218.908.908 0 0 1-.278-.603v-.005Zm-9.22-12.403v-.001c0-1.483.567-2.512 1.627-3.011v15.911h-1.64l.012-12.899Zm6.365 7.577-1.356-10.732c1.183.471 1.877 1.553 2.099 3.328l1.253 10.332c-1.13-.446-1.808-1.422-1.996-2.928Zm7.513-.012c-.097.777-.322 1.409-.67 1.9-.33.463-.77.805-1.326 1.027l1.253-10.319c.222-1.775.916-2.857 2.099-3.328l-1.356 10.72ZM49.42 250.52a5.12 5.12 0 0 0-1.258.133v-.621c0-.355.09-.634.247-.822.155-.186.383-.291.677-.291.295 0 .524.092.692.269.17.18.285.454.335.829l.07.54a6.992 6.992 0 0 0-.763-.037Zm13.23 0a4.71 4.71 0 0 0-.766.037l.07-.54c.05-.375.168-.649.34-.828.169-.178.398-.27.688-.27a.84.84 0 0 1 .672.296c.16.19.251.468.251.817v.624a5.774 5.774 0 0 0-1.255-.136Zm3.489 4.03v12.9H64.51v-15.911c1.061.499 1.629 1.528 1.629 3.011Z"/><path fill="#FEFCFA" d="M108.368 240.44V251h-1.584v-6.112l.128-2.912h-.016L103.68 251h-1.424l-3.216-9.024h-.016l.128 2.912V251h-1.584v-10.56h2.544l2.128 6.112.736 2.512h.032l.752-2.512 2.112-6.112h2.496Zm3.666 1.216c-.374 0-.662-.091-.864-.272-.192-.192-.288-.459-.288-.8s.096-.603.288-.784c.202-.181.49-.272.864-.272.362 0 .64.091.832.272.202.181.304.443.304.784s-.102.608-.304.8c-.192.181-.47.272-.832.272Zm.848 1.344v8h-1.712v-8h1.712Zm2.582 8v-8h1.52l.112 2.08-.224-.224c.149-.459.363-.837.64-1.136a2.549 2.549 0 0 1 1.008-.672 3.732 3.732 0 0 1 1.248-.208c.565 0 1.072.112 1.52.336a2.47 2.47 0 0 1 1.088.976c.267.437.4.992.4 1.664V251h-1.712v-4.656c0-.789-.165-1.333-.496-1.632-.32-.309-.725-.464-1.216-.464-.352 0-.693.085-1.024.256-.331.16-.608.421-.832.784-.213.363-.32.848-.32 1.456V251h-1.712Zm14.434-5.136c0-.533-.149-.944-.448-1.232-.288-.299-.688-.448-1.2-.448-.48 0-.89.112-1.232.336-.341.224-.592.587-.752 1.088l-1.44-.608a2.884 2.884 0 0 1 1.184-1.568c.598-.395 1.366-.592 2.304-.592.64 0 1.206.107 1.696.32.491.203.875.512 1.152.928.288.416.432.949.432 1.6v3.568c0 .395.198.592.592.592.192 0 .379-.027.56-.08l-.096 1.184c-.245.117-.554.176-.928.176-.341 0-.65-.059-.928-.176a1.557 1.557 0 0 1-.64-.56c-.149-.256-.224-.571-.224-.944v-.112l.352-.016a1.993 1.993 0 0 1-.592 1.04 3.063 3.063 0 0 1-1.04.608 3.861 3.861 0 0 1-1.2.192 3.68 3.68 0 0 1-1.36-.24c-.394-.16-.709-.4-.944-.72-.224-.331-.336-.736-.336-1.216 0-.597.192-1.088.576-1.472.395-.384.95-.645 1.664-.784l3.104-.608-.016 1.2-2.256.464c-.448.085-.784.208-1.008.368-.224.16-.336.395-.336.704a.88.88 0 0 0 .336.72c.235.171.544.256.928.256.267 0 .523-.032.768-.096.256-.064.486-.165.688-.304.203-.149.358-.336.464-.56.118-.235.176-.512.176-.832v-2.176ZM108.368 267.44V278h-1.584v-6.112l.128-2.912h-.016L103.68 278h-1.424l-3.216-9.024h-.016l.128 2.912V278h-1.584v-10.56h2.544l2.128 6.112.736 2.512h.032l.752-2.512 2.112-6.112h2.496Zm4.754 0V278h-1.712v-10.56h1.712Zm11.691 0V278h-2.032l-4.08-6.656-1.024-1.872h-.016l.064 1.712V278h-1.568v-10.56h2.016l4.064 6.64 1.04 1.904h.016l-.064-1.728v-6.816h1.584ZM136.611 278h-1.808l-1.008-2.768h-4.433L128.355 278h-1.761l3.985-10.56h2.048l3.984 10.56Zm-6.769-4.16h3.473l-1.728-4.928-1.745 4.928ZM255.794 251v-1.248a52.274 52.274 0 0 0 2.544-1.92c.694-.555 1.248-1.067 1.664-1.536.416-.469.715-.912.896-1.328.192-.427.288-.859.288-1.296 0-.565-.176-1.024-.528-1.376-.352-.352-.842-.528-1.472-.528-.661 0-1.189.224-1.584.672-.384.437-.602 1.04-.656 1.808l-1.488-.688c.075-.672.272-1.253.592-1.744.32-.491.752-.869 1.296-1.136.555-.267 1.195-.4 1.92-.4.598 0 1.12.085 1.568.256.459.171.843.411 1.152.72.31.299.544.651.704 1.056.171.405.256.837.256 1.296 0 .672-.165 1.323-.496 1.952-.33.619-.853 1.253-1.568 1.904-.714.651-1.653 1.349-2.816 2.096v.032c.128-.021.304-.032.528-.032.224-.011.448-.016.672-.016.224-.011.406-.016.544-.016h3.328V251h-7.344Zm10.351-2.16c.299 0 .544.075.736.224.203.139.357.336.464.592.107.245.16.528.16.848 0 .395-.075.773-.224 1.136a3.103 3.103 0 0 1-.656 1.008c-.277.309-.613.56-1.008.752l-.8-.688c.288-.107.544-.245.768-.416.224-.171.411-.363.56-.576.16-.213.272-.432.336-.656l-.064-.032a.776.776 0 0 1-.192.08.982.982 0 0 1-.288.032.99.99 0 0 1-.464-.128 1.01 1.01 0 0 1-.384-.352c-.107-.16-.16-.368-.16-.624 0-.235.053-.443.16-.624.117-.181.267-.32.448-.416.181-.107.384-.16.608-.16Zm6.791 2.32c-.992 0-1.856-.219-2.592-.656a3.409 3.409 0 0 1-1.488-1.872l1.664-.784c.096.384.245.715.448.992s.469.491.8.64c.331.139.741.208 1.232.208.416 0 .768-.075 1.056-.224a1.54 1.54 0 0 0 .656-.624c.16-.267.24-.571.24-.912 0-.352-.069-.645-.208-.88-.128-.235-.336-.405-.624-.512-.277-.107-.635-.16-1.072-.16-.128 0-.261.005-.4.016-.128 0-.267.011-.416.032v-1.44l.272.032h.272c.693 0 1.189-.139 1.488-.416.299-.277.448-.709.448-1.296 0-.501-.155-.885-.464-1.152-.299-.267-.731-.4-1.296-.4-.587 0-1.045.139-1.376.416-.32.267-.565.656-.736 1.168l-1.568-.656c.149-.491.4-.917.752-1.28s.784-.64 1.296-.832a4.69 4.69 0 0 1 1.712-.304c.757 0 1.387.123 1.888.368.512.245.891.581 1.136 1.008.256.427.384.901.384 1.424 0 .405-.059.763-.176 1.072-.117.299-.277.56-.48.784a2.156 2.156 0 0 1-.64.496 2.421 2.421 0 0 1-.688.24v.032c.309.011.592.075.848.192.267.107.501.261.704.464.213.192.379.427.496.704.117.277.176.581.176.912 0 .64-.16 1.2-.48 1.68-.32.48-.763.853-1.328 1.12-.555.267-1.2.4-1.936.4Zm9.183 0c-.939 0-1.712-.203-2.32-.608-.597-.405-1.072-.992-1.424-1.76l1.6-.832c.16.512.4.933.72 1.264.331.32.816.48 1.456.48.448 0 .827-.08 1.136-.24.32-.171.565-.405.736-.704.171-.309.256-.677.256-1.104 0-.448-.08-.821-.24-1.12a1.546 1.546 0 0 0-.688-.672c-.299-.16-.672-.24-1.12-.24a3.7 3.7 0 0 0-.864.096 2.276 2.276 0 0 0-.72.304c-.213.128-.4.299-.56.512l-1.408-.272.64-5.824h6.144v1.472h-4.784l-.384 2.976-.032.176h.032c.245-.267.56-.475.944-.624.395-.149.859-.224 1.392-.224.683 0 1.269.144 1.76.432.491.277.875.667 1.152 1.168.277.501.416 1.083.416 1.744 0 .576-.096 1.088-.288 1.536a3.13 3.13 0 0 1-.816 1.136 3.615 3.615 0 0 1-1.232.704c-.459.149-.96.224-1.504.224Zm5.744-.16v-1.248a52.274 52.274 0 0 0 2.544-1.92c.694-.555 1.248-1.067 1.664-1.536.416-.469.715-.912.896-1.328.192-.427.288-.859.288-1.296 0-.565-.176-1.024-.528-1.376-.352-.352-.842-.528-1.472-.528-.661 0-1.189.224-1.584.672-.384.437-.602 1.04-.656 1.808l-1.488-.688c.075-.672.272-1.253.592-1.744.32-.491.752-.869 1.296-1.136.555-.267 1.195-.4 1.92-.4.598 0 1.12.085 1.568.256.459.171.843.411 1.152.72.31.299.544.651.704 1.056.171.405.256.837.256 1.296 0 .672-.165 1.323-.496 1.952-.33.619-.853 1.253-1.568 1.904-.714.651-1.653 1.349-2.816 2.096v.032c.128-.021.304-.032.528-.032.224-.011.448-.016.672-.016.224-.011.406-.016.544-.016h3.328V251h-7.344Zm10.367-2.16c.363 0 .651.107.864.32.224.203.336.48.336.832s-.112.635-.336.848c-.213.213-.501.32-.864.32-.373 0-.672-.107-.896-.32-.213-.213-.32-.496-.32-.848s.107-.629.32-.832c.224-.213.523-.32.896-.32Zm6.775 2.32c-.992 0-1.856-.219-2.592-.656a3.409 3.409 0 0 1-1.488-1.872l1.664-.784c.096.384.245.715.448.992s.469.491.8.64c.331.139.741.208 1.232.208.416 0 .768-.075 1.056-.224a1.54 1.54 0 0 0 .656-.624c.16-.267.24-.571.24-.912 0-.352-.069-.645-.208-.88-.128-.235-.336-.405-.624-.512-.277-.107-.635-.16-1.072-.16-.128 0-.261.005-.4.016-.128 0-.267.011-.416.032v-1.44l.272.032h.272c.693 0 1.189-.139 1.488-.416.299-.277.448-.709.448-1.296 0-.501-.155-.885-.464-1.152-.299-.267-.731-.4-1.296-.4-.587 0-1.045.139-1.376.416-.32.267-.565.656-.736 1.168l-1.568-.656c.149-.491.4-.917.752-1.28s.784-.64 1.296-.832a4.69 4.69 0 0 1 1.712-.304c.757 0 1.387.123 1.888.368.512.245.891.581 1.136 1.008.256.427.384.901.384 1.424 0 .405-.059.763-.176 1.072-.117.299-.277.56-.48.784a2.156 2.156 0 0 1-.64.496 2.421 2.421 0 0 1-.688.24v.032c.309.011.592.075.848.192.267.107.501.261.704.464.213.192.379.427.496.704.117.277.176.581.176.912 0 .64-.16 1.2-.48 1.68-.32.48-.763.853-1.328 1.12-.555.267-1.2.4-1.936.4Zm9.551-10.864c.715 0 1.333.117 1.856.352.533.224.944.544 1.232.96.288.416.432.917.432 1.504 0 .544-.133 1.024-.4 1.44-.256.405-.635.715-1.136.928v.016c.608.224 1.088.56 1.44 1.008.363.437.544.981.544 1.632 0 .629-.165 1.168-.496 1.616-.32.448-.779.795-1.376 1.04-.587.245-1.285.368-2.096.368-.811 0-1.515-.123-2.112-.368-.587-.245-1.045-.592-1.376-1.04-.331-.448-.496-.987-.496-1.616 0-.64.176-1.184.528-1.632.352-.448.843-.784 1.472-1.008v-.016a2.538 2.538 0 0 1-1.136-.912c-.277-.416-.416-.901-.416-1.456 0-.587.144-1.088.432-1.504.288-.416.699-.736 1.232-.96.533-.235 1.157-.352 1.872-.352Zm0 1.44c-.565 0-1.019.139-1.36.416-.331.277-.496.656-.496 1.136 0 .48.171.859.512 1.136.341.267.789.4 1.344.4s.997-.133 1.328-.4c.341-.277.512-.656.512-1.136 0-.48-.165-.859-.496-1.136-.331-.277-.779-.416-1.344-.416Zm0 7.984c.469 0 .869-.069 1.2-.208.331-.139.587-.341.768-.608.181-.267.272-.576.272-.928 0-.373-.096-.688-.288-.944a1.688 1.688 0 0 0-.768-.608c-.331-.139-.725-.208-1.184-.208a3.12 3.12 0 0 0-1.184.208 1.787 1.787 0 0 0-.8.608c-.181.256-.272.571-.272.944 0 .352.091.661.272.928.181.267.443.469.784.608s.741.208 1.2.208Zm4.849-9.28h8.048v1.424c-.885.917-1.6 1.861-2.144 2.832-.544.96-.939 1.963-1.184 3.008a14.85 14.85 0 0 0-.352 3.296h-1.728c0-1.173.144-2.315.432-3.424.299-1.12.747-2.187 1.344-3.2a14.08 14.08 0 0 1 2.288-2.88l.32.432h-7.024v-1.488ZM259.966 277.984a6.664 6.664 0 0 1-1.968-.272 5.493 5.493 0 0 1-1.52-.768 4.483 4.483 0 0 1-1.056-1.104l1.136-1.152c.224.373.507.704.848.992.341.277.736.496 1.184.656.448.16.939.24 1.472.24.725 0 1.296-.123 1.712-.368.427-.256.64-.635.64-1.136 0-.288-.107-.544-.32-.768-.213-.235-.597-.416-1.152-.544l-2.336-.544c-.619-.139-1.131-.331-1.536-.576-.395-.245-.688-.544-.88-.896a2.492 2.492 0 0 1-.288-1.184c0-.587.155-1.115.464-1.584.32-.469.779-.843 1.376-1.12.597-.288 1.317-.432 2.16-.432.907 0 1.701.171 2.384.512.683.341 1.248.853 1.696 1.536l-1.088 1.056c-.395-.608-.843-1.045-1.344-1.312-.501-.267-1.099-.4-1.792-.4-.512 0-.933.069-1.264.208-.32.128-.56.309-.72.544-.16.224-.24.475-.24.752 0 .224.043.427.128.608.096.181.267.341.512.48.245.139.592.256 1.04.352l2.08.464c.992.224 1.696.555 2.112.992.416.437.624.997.624 1.68 0 .629-.171 1.179-.512 1.648-.341.459-.816.816-1.424 1.072-.608.245-1.317.368-2.128.368Zm-.672 1.552v-13.632h1.28v13.632h-1.28Zm6.623-1.536v-1.248a53.275 53.275 0 0 0 2.544-1.92c.693-.555 1.248-1.067 1.664-1.536.416-.469.715-.912.896-1.328.192-.427.288-.859.288-1.296 0-.565-.176-1.024-.528-1.376-.352-.352-.843-.528-1.472-.528-.661 0-1.189.224-1.584.672-.384.437-.603 1.04-.656 1.808l-1.488-.688c.075-.672.272-1.253.592-1.744.32-.491.752-.869 1.296-1.136.555-.267 1.195-.4 1.92-.4.597 0 1.12.085 1.568.256.459.171.843.411 1.152.72.309.299.544.651.704 1.056.171.405.256.837.256 1.296 0 .672-.165 1.323-.496 1.952-.331.619-.853 1.253-1.568 1.904-.715.651-1.653 1.349-2.816 2.096v.032c.128-.021.304-.032.528-.032.224-.011.448-.016.672-.016.224-.011.405-.016.544-.016h3.328V278h-7.344Zm10.351-2.16c.298 0 .544.075.736.224.202.139.357.336.464.592.106.245.16.528.16.848a3.12 3.12 0 0 1-.88 2.144c-.278.309-.614.56-1.008.752l-.8-.688c.288-.107.544-.245.768-.416.224-.171.41-.363.56-.576.16-.213.272-.432.336-.656l-.064-.032a.81.81 0 0 1-.192.08.982.982 0 0 1-.288.032.987.987 0 0 1-.464-.128.995.995 0 0 1-.384-.352c-.107-.16-.16-.368-.16-.624 0-.235.053-.443.16-.624a1.19 1.19 0 0 1 .448-.416c.181-.107.384-.16.608-.16Zm6.839-8.56c.906 0 1.669.224 2.288.672.629.448 1.098 1.077 1.408 1.888.32.811.48 1.765.48 2.864 0 1.216-.166 2.229-.496 3.04-.331.8-.806 1.403-1.424 1.808-.619.405-1.366.608-2.24.608-.896 0-1.664-.197-2.304-.592-.64-.395-1.12-.987-1.44-1.776l1.616-.752c.149.501.394.901.736 1.2.352.299.826.448 1.424.448.49 0 .901-.096 1.232-.288.33-.192.592-.469.784-.832.202-.363.346-.8.432-1.312a10.61 10.61 0 0 0 .128-1.728v-.176h-.064a2.062 2.062 0 0 1-.64 1.04c-.299.267-.64.464-1.024.592a3.935 3.935 0 0 1-1.152.176c-.683 0-1.291-.133-1.824-.4a3.117 3.117 0 0 1-1.232-1.152c-.299-.491-.448-1.072-.448-1.744 0-.736.149-1.371.448-1.904a3.136 3.136 0 0 1 1.296-1.232c.565-.299 1.237-.448 2.016-.448Zm.016 1.504c-.672 0-1.19.181-1.552.544-.352.363-.528.869-.528 1.52 0 .576.186 1.029.56 1.36.384.32.89.48 1.52.48.405 0 .762-.08 1.072-.24.309-.171.549-.4.72-.688.181-.288.272-.624.272-1.008 0-.405-.091-.752-.272-1.04a1.725 1.725 0 0 0-.72-.688c-.31-.16-.667-.24-1.072-.24ZM294.006 278v-2.64h-5.152v-1.168c.021-.053.053-.117.096-.192.053-.075.112-.16.176-.256l4.4-6.304h2.096v6.592h1.792v1.328h-1.792V278h-1.616Zm-3.552-3.968h3.552v-3.728c0-.256.005-.517.016-.784.021-.277.037-.549.048-.816h-.032a7.865 7.865 0 0 1-.464.848c-.182.299-.352.56-.512.784l-2.496 3.552-.064.064a.982.982 0 0 1-.048.08Zm7.364-6.592h8.048v1.424c-.885.917-1.6 1.861-2.144 2.832-.544.96-.939 1.963-1.184 3.008a14.85 14.85 0 0 0-.352 3.296h-1.728c0-1.173.144-2.315.432-3.424.299-1.12.747-2.187 1.344-3.2a14.08 14.08 0 0 1 2.288-2.88l.32.432h-7.024v-1.488Zm9.05 8.4c.363 0 .651.107.864.32.224.203.336.48.336.832s-.112.635-.336.848c-.213.213-.501.32-.864.32-.373 0-.672-.107-.896-.32-.213-.213-.32-.496-.32-.848s.107-.629.32-.832c.224-.213.523-.32.896-.32Zm7.818 2.16v-2.64h-5.152v-1.168a1.89 1.89 0 0 1 .096-.192c.054-.075.112-.16.176-.256l4.4-6.304h2.096v6.592h1.792v1.328h-1.792V278h-1.616Zm-3.552-3.968h3.552v-3.728c0-.256.006-.517.016-.784.022-.277.038-.549.048-.816h-.032a7.694 7.694 0 0 1-.464.848c-.181.299-.352.56-.512.784l-2.496 3.552-.064.064a.618.618 0 0 1-.048.08Zm12.146 4.128c-.939 0-1.712-.203-2.32-.608-.598-.405-1.072-.992-1.424-1.76l1.6-.832c.16.512.4.933.72 1.264.33.32.816.48 1.456.48.448 0 .826-.08 1.136-.24.32-.171.565-.405.736-.704.17-.309.256-.677.256-1.104 0-.448-.08-.821-.24-1.12a1.551 1.551 0 0 0-.688-.672c-.299-.16-.672-.24-1.121-.24-.309 0-.597.032-.863.096a2.276 2.276 0 0 0-.72.304c-.214.128-.4.299-.56.512l-1.408-.272.64-5.824h6.144v1.472h-4.784l-.384 2.976-.032.176h.032c.245-.267.56-.475.944-.624.394-.149.858-.224 1.392-.224.682 0 1.269.144 1.76.432.49.277.874.667 1.152 1.168.277.501.416 1.083.416 1.744 0 .576-.096 1.088-.288 1.536a3.13 3.13 0 0 1-.816 1.136 3.615 3.615 0 0 1-1.232.704c-.459.149-.96.224-1.504.224Z"/><defs><linearGradient id="a" x1="180" x2="180" y1="0" y2="600" gradientUnits="userSpaceOnUse"><stop stop-color="#ECBCB4"/><stop offset=".39" stop-color="#C27E85"/><stop offset=".765" stop-color="#8E3E5B"/><stop offset="1" stop-color="#291E48"/></linearGradient></defs></svg>