<svg width="160" height="140" viewBox="0 0 160 140" fill="none" xmlns="http://www.w3.org/2000/svg">
<rect y="60" width="160" height="20" fill="#F6C177"/>
<path d="M140 60L160 60C160 60 152 60 146 54C140 48 140 40 140 40L140 60Z" fill="#F6C177"/>
<path d="M140 80L140 100C140 100 140 92 146 86C152 80 160 80 160 80L140 80Z" fill="#F6C177"/>
<rect x="120" y="40" width="20" height="20" fill="#F6C177"/>
<rect x="120" y="80" width="20" height="20" fill="#F6C177"/>
<rect x="100" y="20" width="20" height="20" fill="#F6C177"/>
<rect x="100" y="100" width="20" height="20" fill="#F6C177"/>
<rect x="80" width="20" height="20" fill="#F6C177"/>
<rect x="80" y="120" width="20" height="20" fill="#F6C177"/>
</svg>
