<svg width="24" height="18" viewBox="0 0 24 18" fill="none" xmlns="http://www.w3.org/2000/svg">
<path d="M3.95068 12.8096C5.54459 14.0152 7.95126 15.2749 11.8299 15.2749C15.7086 15.2749 18.1152 14.0152 19.7091 12.8096" stroke="#F6C177" stroke-width="1.5" stroke-linecap="round"/>
<path d="M14.0095 2.91018C13.3515 2.8158 12.6316 2.7627 11.83 2.7627C10.9998 2.7627 10.2579 2.8202 9.58167 2.92167" stroke="#F6C177" stroke-width="1.5" stroke-linecap="round"/>
<path d="M9.71676 2.90285L8.8724 1.24121C7.08785 1.45556 5.39078 2.13439 3.9507 3.20989C3.9507 3.20989 1.4447 6.86278 0.993164 14.0467C3.53529 16.9771 7.39589 16.9997 7.39589 16.9997L8.89497 14.9904" stroke="#F6C177" stroke-width="1.5" stroke-linecap="round"/>
<path d="M14.7648 14.9904L16.2639 16.9861C16.2639 16.9861 20.1245 16.9771 22.6666 14.0467C22.2151 6.8673 19.7091 3.20989 19.7091 3.20989C19.7091 3.20989 17.4514 1.43988 14.7874 1.24121L13.9656 2.90736" stroke="#F6C177" stroke-width="1.5" stroke-linecap="round"/>
<path d="M8.62854 11.1307C9.58115 11.1307 10.3534 10.2493 10.3534 9.16204C10.3534 8.07477 9.58115 7.19336 8.62854 7.19336C7.67593 7.19336 6.90369 8.07477 6.90369 9.16204C6.90369 10.2493 7.67593 11.1307 8.62854 11.1307Z" stroke="#F6C177" stroke-width="1.5" stroke-linecap="round"/>
<path d="M15.0312 11.1307C15.9839 11.1307 16.7561 10.2493 16.7561 9.16204C16.7561 8.07477 15.9839 7.19336 15.0312 7.19336C14.0786 7.19336 13.3064 8.07477 13.3064 9.16204C13.3064 10.2493 14.0786 11.1307 15.0312 11.1307Z" stroke="#F6C177" stroke-width="1.5" stroke-linecap="round"/>
</svg>
