<svg width="48" height="48" viewBox="0 0 48 48" fill="none" xmlns="http://www.w3.org/2000/svg">
<path d="M4.84025 25.4264C4.56787 24.9951 4.43168 24.7794 4.35545 24.4468C4.29818 24.197 4.29818 23.803 4.35545 23.5532C4.43168 23.2206 4.56787 23.0049 4.84024 22.5736C7.09106 19.0097 13.7908 10 24.0008 10C34.2108 10 40.9106 19.0097 43.1614 22.5736C43.4337 23.0049 43.5699 23.2206 43.6462 23.5532C43.7034 23.803 43.7034 24.197 43.6462 24.4468C43.5699 24.7794 43.4337 24.9951 43.1614 25.4264C40.9106 28.9903 34.2108 38 24.0008 38C13.7908 38 7.09106 28.9903 4.84025 25.4264Z" stroke="#D1B4F4" stroke-width="2" stroke-linecap="round" stroke-linejoin="round"/>
<path d="M24.0008 30C27.3145 30 30.0008 27.3137 30.0008 24C30.0008 20.6863 27.3145 18 24.0008 18C20.6871 18 18.0008 20.6863 18.0008 24C18.0008 27.3137 20.6871 30 24.0008 30Z" stroke="#D1B4F4" stroke-width="2" stroke-linecap="round" stroke-linejoin="round"/>
</svg>
