<svg width="20" height="20" viewBox="0 0 20 20" fill="none" xmlns="http://www.w3.org/2000/svg">
<path d="M10.2159 19.4395C15.9001 19.1161 19.8798 14.7064 18.8652 8.84707C18.0392 4.07641 13.4652 0.881124 8.83929 1.52085C4.14977 2.16931 0.54256 6.60957 1.07579 11.44C1.58172 15.7912 4.19976 17.8254 6.38361 18.7442C6.89206 18.9581 7.57538 19.2702 7.80627 19.2196C8.03711 19.1691 7.96303 17.8603 7.96303 17.2294C6.54013 17.453 6.05327 16.8802 5.7509 16.5418C5.40789 16.1579 5.20617 15.7632 4.856 15.1836C4.50577 14.604 3.87211 14.7404 3.80543 14.405C3.73874 14.0697 5.13939 14.1606 6.14547 15.4279C6.87366 16.3504 7.65089 16.0724 8.0686 15.8087C8.08663 15.6162 8.1296 15.427 8.19647 15.2461C8.28246 15.0136 8.51885 14.8729 8.48176 14.7138C8.44467 14.5547 6.54274 14.6613 5.45812 13.1075C4.67472 11.9852 4.64626 10.6567 4.95417 9.66765C5.16064 9.00419 5.50517 8.53629 5.73966 8.2659C5.5932 7.94537 5.51489 7.59676 5.50996 7.24302C5.50526 6.86628 5.58381 6.49333 5.73966 6.15195C6.5934 6.1778 7.41872 6.47142 8.10375 6.99299C8.70853 6.78525 9.34077 6.6728 9.97865 6.65956C10.6932 6.64521 11.405 6.75538 12.0834 6.98533C12.4259 6.67212 12.8232 6.42792 13.2543 6.26552C13.5831 6.14225 13.9276 6.06821 14.277 6.04576C14.4557 6.39174 14.5522 6.77585 14.5587 7.16703C14.5641 7.53237 14.4907 7.89445 14.3438 8.22754C14.5988 8.54201 15.0014 9.12537 15.1889 9.95458C15.2556 10.25 15.6208 11.8622 14.5667 13.2496C13.4632 14.702 11.6266 14.4792 11.5437 14.6798C11.4609 14.8804 11.8963 15.2523 12.101 16.0324C12.3057 16.8126 12.219 18.3036 12.219 18.3036" stroke="#F6C177" stroke-width="0.947361" stroke-miterlimit="10" stroke-linecap="round" stroke-linejoin="round"/>
</svg>
