<svg width="48" height="48" viewBox="0 0 48 48" fill="none" xmlns="http://www.w3.org/2000/svg">
<path d="M24.4057 42.5597C36.3901 41.8928 44.7807 32.7991 42.6417 20.716C40.9002 10.8779 31.2564 4.28855 21.5032 5.6078C11.6159 6.94505 4.01054 16.1018 5.13479 26.0631C6.20148 35.0363 11.7213 39.2312 16.3257 41.1259C17.3977 41.5671 18.8384 42.2106 19.3252 42.1064C19.8119 42.0021 19.6557 39.3032 19.6557 38.0022C16.6557 38.4632 15.6292 37.282 14.9917 36.5841C14.2685 35.7925 13.8432 34.9785 13.1049 33.7832C12.3665 32.5879 11.0305 32.8692 10.8899 32.1777C10.7493 31.4862 13.7024 31.6737 15.8236 34.2871C17.3589 36.1894 18.9976 35.6162 19.8783 35.0723C19.9163 34.6753 20.0069 34.2851 20.1479 33.9121C20.3292 33.4326 20.8276 33.1426 20.7494 32.8144C20.6712 32.4863 16.6612 32.7062 14.3744 29.5019C12.7227 27.1874 12.6627 24.4478 13.3119 22.4082C13.7472 21.04 14.4736 20.0751 14.968 19.5175C14.6592 18.8565 14.4941 18.1376 14.4837 17.4081C14.4738 16.6312 14.6394 15.8621 14.968 15.1581C16.768 15.2114 18.5081 15.8169 19.9524 16.8925C21.2275 16.4641 22.5605 16.2322 23.9054 16.2049C25.412 16.1753 26.9127 16.4025 28.343 16.8767C29.0651 16.2308 29.9027 15.7272 30.8118 15.3923C31.5049 15.1381 32.2312 14.9854 32.968 14.9391C33.3447 15.6526 33.5481 16.4447 33.5619 17.2514C33.5733 18.0048 33.4186 18.7515 33.1089 19.4384C33.6464 20.0869 34.4952 21.2899 34.8905 22.9999C35.0313 23.6091 35.8012 26.9339 33.5787 29.7949C31.2522 32.7901 27.38 32.3307 27.2052 32.7443C27.0305 33.1579 27.9485 33.925 28.3801 35.5337C28.8117 37.1425 28.6289 40.2173 28.6289 40.2173" stroke="#D1B4F4" stroke-width="2" stroke-miterlimit="10" stroke-linecap="round" stroke-linejoin="round"/>
</svg>
