<svg width="48" height="48" viewBox="0 0 48 48" fill="none" xmlns="http://www.w3.org/2000/svg">
<path d="M34 17.9999C34 16.9762 33.6094 15.9526 32.8284 15.1716C32.0474 14.3905 31.0237 14 30 14M30 30C36.6274 30 42 24.6274 42 18C42 11.3726 36.6274 6 30 6C23.3726 6 18 11.3726 18 18C18 18.5474 18.0366 19.0862 18.1076 19.6141C18.2244 20.4824 18.2827 20.9165 18.2434 21.1912C18.2025 21.4773 18.1504 21.6315 18.0094 21.8838C17.874 22.126 17.6354 22.3646 17.1583 22.8417L6.93726 33.0627C6.59135 33.4086 6.4184 33.5816 6.29472 33.7834C6.18506 33.9624 6.10425 34.1575 6.05526 34.3615C6 34.5917 6 34.8363 6 35.3255L6 38.8C6 39.9201 6 40.4802 6.21799 40.908C6.40973 41.2843 6.71569 41.5903 7.09202 41.782C7.51984 42 8.07989 42 9.2 42H14L14 38H18V34H22L25.1583 30.8417C25.6354 30.3646 25.874 30.126 26.1162 29.9906C26.3685 29.8496 26.5227 29.7975 26.8088 29.7566C27.0835 29.7173 27.5176 29.7756 28.3859 29.8924C28.9138 29.9634 29.4526 30 30 30Z" stroke="#D1B4F4" stroke-width="2" stroke-linecap="round" stroke-linejoin="round"/>
</svg>
