<svg viewBox="0 0 300 300" fill="none" xmlns="http://www.w3.org/2000/svg">
<g clip-path="url(#clip0_332_5839)">
<rect width="300" height="300" rx="12" fill="#FEFCFA"/>
<path d="M99.6624 205.312C99.2531 205.312 98.9504 205.312 98.6461 205.312C94.1454 205.312 89.6431 205.315 85.1424 205.312C78.6678 205.306 73.4566 201.034 72.2225 194.696C72.0711 193.919 72.0109 193.113 72.0093 192.32C71.9985 161.118 72.0001 129.917 72.0001 98.7162C72.0001 96.1521 73.4952 94.66 76.0838 94.6585C83.621 94.6538 91.1568 94.6569 98.694 94.6569H99.613C99.6315 94.2754 99.6593 93.9541 99.6593 93.6328C99.6624 86.1475 99.6593 78.6621 99.6624 71.1767C99.6624 68.4257 101.094 67 103.854 67C135.004 67 166.154 67 197.304 67C204.616 67 210.295 72.6936 210.298 80.0167C210.298 84.5441 210.298 89.0715 210.298 93.5988V94.6137C210.638 94.6291 210.936 94.6538 211.234 94.6538C215.966 94.6631 220.7 94.5951 225.431 94.6924C232.389 94.8345 237.919 100.422 237.959 107.376C238.016 117.329 238.011 127.285 237.96 137.238C237.925 144.324 232.154 149.958 225.06 149.963C220.456 149.966 215.852 149.963 211.248 149.963H210.298V150.911C210.298 155.516 210.299 160.121 210.298 164.724C210.295 171.891 204.599 177.609 197.423 177.62C187.597 177.634 177.77 177.632 167.946 177.62C160.677 177.611 155.013 171.906 155.012 164.623C155.012 160.045 155.012 155.467 155.012 150.888C155.012 150.61 155.012 150.334 155.012 149.965H155.98C169.356 149.965 182.731 149.965 196.107 149.965C203.142 149.965 209.075 144.883 210.119 137.946C210.233 137.187 210.293 136.412 210.293 135.644C210.306 126.796 210.301 117.947 210.301 109.099C210.301 100.89 204.066 94.6585 195.838 94.6554C184.109 94.6507 172.38 94.6554 160.649 94.6554C145.19 94.6554 129.731 94.6554 114.272 94.6554C105.873 94.6554 99.6593 100.879 99.6593 109.292C99.6593 136.455 99.6593 163.618 99.6593 190.78C99.6593 199.05 105.941 205.315 114.23 205.317C123.465 205.317 132.7 205.312 141.933 205.319C148.363 205.323 153.653 209.583 154.755 215.915C155.514 220.265 155.104 224.505 152.158 228.118C149.604 231.249 146.273 232.934 142.24 232.957C132.312 233.014 122.382 233.013 112.454 232.963C105.337 232.928 99.681 227.151 99.6624 220.017C99.6516 215.465 99.6609 210.912 99.6609 206.36C99.6609 206.054 99.6609 205.748 99.6609 205.315L99.6624 205.312Z" fill="#25233A"/>
</g>
<defs>
<clipPath id="clip0_332_5839">
<rect width="300" height="300" rx="40" fill="white"/>
</clipPath>
</defs>
</svg>
