<svg width="64" height="64" viewBox="0 0 64 64" fill="none" xmlns="http://www.w3.org/2000/svg">
<path d="M10.665 53.3253C10.5072 53.3253 10.3905 53.3253 10.2732 53.3253C8.53798 53.3253 6.80217 53.3264 5.06695 53.3253C2.5707 53.3229 0.561565 51.6756 0.0857781 49.2322C0.0274214 48.9326 0.00419775 48.6218 0.00360227 48.3163C-0.000566071 36.2866 2.94063e-05 24.257 2.94063e-05 12.228C2.94063e-05 11.2394 0.576451 10.6641 1.57447 10.6635C4.4804 10.6617 7.38573 10.6629 10.2917 10.6629H10.646C10.6531 10.5158 10.6638 10.3919 10.6638 10.2681C10.665 7.38215 10.6638 4.49623 10.665 1.6103C10.665 0.549671 11.217 0 12.2812 0C24.2907 0 36.3003 0 48.3099 0C51.1289 0 53.3185 2.19511 53.3197 5.0185C53.3197 6.76399 53.3197 8.50948 53.3197 10.255V10.6462C53.4507 10.6522 53.5656 10.6617 53.6805 10.6617C55.5051 10.6653 57.3302 10.6391 59.1541 10.6766C61.8368 10.7314 63.9686 12.8854 63.9841 15.5665C64.0061 19.404 64.0043 23.2422 63.9847 27.0798C63.971 29.8115 61.7463 31.984 59.0112 31.9857C57.2361 31.9869 55.461 31.9857 53.6859 31.9857H53.3197V32.3514C53.3197 34.1267 53.3203 35.9019 53.3197 37.6766C53.3185 40.4398 51.1223 42.6445 48.3558 42.6487C44.5673 42.654 40.7789 42.6534 36.9911 42.6487C34.1888 42.6451 32.0051 40.4458 32.0046 37.6379C32.0046 35.8727 32.0046 34.1076 32.0046 32.3425C32.0046 32.2353 32.0046 32.1287 32.0046 31.9863H32.3779C37.5347 31.9863 42.6916 31.9863 47.8484 31.9863C50.5608 31.9863 52.848 30.0271 53.2506 27.3525C53.2947 27.0601 53.3179 26.7612 53.3179 26.4652C53.3226 23.054 53.3209 19.6423 53.3209 16.2311C53.3209 13.0659 50.9169 10.6635 47.7448 10.6623C43.2227 10.6605 38.7007 10.6623 34.178 10.6623C28.2179 10.6623 22.2578 10.6623 16.2976 10.6623C13.0594 10.6623 10.6638 13.0617 10.6638 16.3055C10.6638 26.7779 10.6638 37.2502 10.6638 47.7225C10.6638 50.911 13.0856 53.3264 16.2816 53.327C19.8419 53.327 23.4023 53.3253 26.962 53.3276C29.441 53.3294 31.4805 54.9719 31.9057 57.4129C32.1981 59.09 32.0403 60.7247 30.9041 62.1176C29.9198 63.3247 28.6353 63.9745 27.0805 63.9834C23.2528 64.0054 19.4245 64.0048 15.5968 63.9858C12.8528 63.9721 10.6722 61.7448 10.665 58.9947C10.6609 57.2397 10.6644 55.484 10.6644 53.729C10.6644 53.6111 10.6644 53.4932 10.6644 53.3264L10.665 53.3253Z" fill="#F6C177"/>
</svg>
