<svg width="51" height="51" viewBox="0 0 51 51" fill="none" xmlns="http://www.w3.org/2000/svg">
<path d="M25.5011 45.3953C24.738 45.4107 23.9781 45.1293 23.4116 44.5992C22.8375 44.0621 22.4629 43.3205 22.3878 42.527C22.3877 42.5267 22.3877 42.5264 22.3877 42.5261L22.0507 39.7887C20.4069 39.3063 19.0997 38.438 18.1413 37.1923C17.1751 35.9365 16.5663 34.301 16.3206 32.2992L13.3667 8.88346C12.7505 8.78885 12.1338 8.74155 11.4938 8.74155C10.5624 8.74155 9.63095 8.86174 8.72255 9.10213L8.72255 44.6257V44.6924H8.65588H2.83325H2.76659V44.6257L2.76659 16.0205C2.76659 14.068 3.19068 12.4006 4.00894 11.0748C4.81998 9.76071 6.0161 8.78588 7.56169 8.20245L7.56169 6.39348C7.56169 5.31492 7.88374 4.40824 8.44688 3.77025C9.01062 3.13158 9.81204 2.76683 10.7599 2.76683C11.7169 2.76683 12.4995 3.07304 13.0795 3.661C13.6584 4.24782 14.0296 5.10912 14.1776 6.2091L14.1777 6.20945L14.3923 7.87101C16.0746 8.36731 17.4127 9.31196 18.4043 10.6981C19.4033 12.0948 20.0483 13.9363 20.3428 16.2125L20.3429 16.213L23.0771 38.7784C24.677 39.0902 26.3228 39.0902 27.9227 38.7784L30.657 16.213L30.657 16.2128C30.9393 13.9364 31.5842 12.0947 32.5864 10.698C33.5811 9.31188 34.9253 8.36729 36.6076 7.87101L36.8222 6.20945L36.8222 6.2091C36.9703 5.1088 37.3477 4.24756 37.9297 3.66088C38.5126 3.07315 39.295 2.76683 40.24 2.76683C41.1878 2.76683 41.9892 3.13158 42.553 3.77025C43.1161 4.40824 43.4381 5.31492 43.4381 6.39348V8.20223C46.5249 9.35206 48.2333 12.1313 48.2333 16.0205L48.2333 44.6257V44.6924H48.1666H42.344H42.2773V44.6257L42.2773 9.10213C41.3689 8.86174 40.4375 8.74155 39.506 8.74155C38.8871 8.74155 38.2485 8.76539 37.6334 8.8816L34.6792 32.2994C34.6792 32.2994 34.6792 32.2994 34.6792 32.2995M25.5011 45.3953L34.6792 32.2995M25.5011 45.3953C26.2726 45.4413 27.0411 45.1588 27.6362 44.6252L27.6372 44.6242C28.2112 44.0872 28.5862 43.3452 28.6367 42.5256L28.9496 39.7881M25.5011 45.3953L28.9496 39.7881M34.6792 32.2995C34.1893 36.2148 32.208 38.7921 28.9496 39.7881M34.6792 32.2995L28.9496 39.7881M33.5928 32.1324L33.5928 32.1323L36.4903 9.22665C33.8697 10.2155 32.3471 12.5581 31.8658 16.4046L33.5928 32.1324ZM33.5928 32.1324C33.3858 33.7917 32.9055 35.1468 32.155 36.2042C31.4248 37.2332 30.4365 37.9835 29.1879 38.458L31.8658 16.4048L33.5928 32.1324ZM23.5477 42.4114L23.2653 40.0962C24.7715 40.3258 26.2778 40.3246 27.7839 40.0923L27.501 42.4114L27.5005 42.4114V42.4195C27.5005 42.6581 27.4304 42.9241 27.3354 43.1437C27.2165 43.3869 27.0749 43.5799 26.8866 43.7487C26.6947 43.9208 26.4829 44.0645 26.251 44.1358C26.0103 44.2098 25.7509 44.2572 25.5189 44.2335L25.519 44.2327L25.5089 44.2332C25.0134 44.2574 24.5415 44.0885 24.163 43.7495C23.808 43.4096 23.5718 42.9244 23.5482 42.4164L23.5484 42.4164L23.5477 42.4114ZM3.95191 16.0456V16.0456C3.95191 12.8227 5.20588 10.5863 7.56169 9.52911L7.56169 43.5312H3.9275L3.95191 16.0456ZM17.4804 32.1575L17.4804 32.1574L14.5829 9.22665C17.2035 10.2155 18.7262 12.5582 19.2075 16.4048L21.8855 38.4838C19.3826 37.5469 17.8885 35.4291 17.4804 32.1575ZM11.5191 7.55526C10.595 7.53106 9.67171 7.64698 8.77148 7.85759V6.44362C8.77148 5.67686 8.9646 5.06695 9.31257 4.64993C9.65926 4.23446 10.1655 4.00326 10.8088 4.00326C11.4543 4.00326 11.9616 4.20476 12.3353 4.59976C12.7106 4.99648 12.9578 5.59541 13.0669 6.40221C13.0669 6.40228 13.0669 6.40234 13.0669 6.40241L13.2271 7.64549C12.6629 7.57806 12.0794 7.55528 11.5191 7.55526ZM39.6304 7.55528C39.0436 7.53129 38.48 7.57595 37.9196 7.6453L38.0797 6.40241C38.0798 6.40234 38.0798 6.40228 38.0798 6.40222C38.1888 5.59587 38.4419 4.99684 38.8203 4.59995C39.1973 4.2046 39.7048 4.00326 40.3378 4.00326C40.968 4.00326 41.4747 4.24014 41.8249 4.65936C42.1763 5.07992 42.3751 5.6901 42.3751 6.44362V7.8634C41.4744 7.65222 40.5522 7.55707 39.6304 7.55528ZM47.1213 16.0456L47.1213 43.5312H43.5115L43.5115 9.52911C45.8674 10.5863 47.1213 12.8227 47.1213 16.0456Z" fill="#7D7A9C" stroke="#7D7A9C" stroke-width="0.133333"/>
</svg>
