<svg xmlns="http://www.w3.org/2000/svg" fill="none" class="block h-7" viewBox="0 0 132 30"><path fill="#fff" d="M19.26 25.499a12.433 12.433 0 0 0 4.351-2.92c1.957-2.026 2.989-5.276 2.989-5.276a8.87 8.87 0 0 1-.162 1.028c-.106.51-.247 1.012-.421 1.505a14.83 14.83 0 0 1-.656 1.618 12.226 12.226 0 0 1-1.033 1.793 12.06 12.06 0 0 1-3.516 3.186c-.96.534-1.985.95-3.052 1.24-3.26.841-10.277.64-14.46-4.457C.256 19.504.47 15.338.526 14.542c.041-.593.436-5.134 4.347-8.583a13.598 13.598 0 0 1 3.885-2.392c-.003-.381.135-.75.389-1.043.253-.292.606-.487.996-.551.389-.064.79.008 1.129.203.339.194.596.5.723.86.966-.07 1.716-.075 2.09-.042.222.02.479.05.479.05.489.05.971.148 1.44.29a6.387 6.387 0 0 1 1.665.709c.775.483.868.84 1.938 1.484.115.07.21.123.271.157l.419.12c.203.058.31.087.403.113.174.05.422.121.733.219-.075.145-.138.266-.185.352-.095.177-.168.308-.168.313a4.241 4.241 0 0 1-1.467 1.576c-.621.395-2.722.141-3.609 0-.886-.141-3.671-.877-6.326.856-3.195 2.086-3.136 5.846-3.115 6.402.017.49.181 3.542 2.837 5.634 1.955 1.539 4.108 1.637 4.874 1.662.58.018 2.92.037 5.176-1.477a8.075 8.075 0 0 0 2.48-2.603 7.11 7.11 0 0 0 .947-3.236 6.712 6.712 0 0 0-.365-2.392 8.436 8.436 0 0 0-1.04-1.9c.904 2.744.073 4.995.073 4.995-.235.636-.542 1.431-1.29 2.225-.97 1.028-2.308 1.52-2.81 1.7a9.384 9.384 0 0 1-1.173.327c-.307.06-.54.086-.86.12l-.015.002a7.408 7.408 0 0 1-.948.05s.599-.112 1.173-.256a7.67 7.67 0 0 0 3.099-1.624c.47-.414 1.222-1.091 1.654-2.216.28-.728.308-1.336.334-1.89v-.004a8.299 8.299 0 0 0-.306-2.61 8.57 8.57 0 0 0-.97-2.201l.46.046c.714.095 1.42.236 2.114.422.758.204 1.35.369 2.041.774.315.184.627.368.948.704.59.618.775 1.3.875 1.688.316 1.226.057 2.258-.146 3.025-.326 1.234-.862 2.083-1.24 2.673a11.396 11.396 0 0 1-1.968 2.321c-1.865 1.672-3.944 2.35-5.14 2.638a11.187 11.187 0 0 1-4.962.165c-1.645-.317-3.19-1-4.514-1.994-1.808-1.266-2.685-2.685-3.083-3.457-1.206-2.337-1.121-4.737-1.07-5.871.016-.329.034-.53.034-.555-.352 1.165-.91 3.659-.009 6.527.241.765.774 2.398 2.269 3.956 1.708 1.78 3.664 2.41 4.738 2.743 1.235.382 4.68 1.242 8.48-.247ZM49.976 20.492c-.696 1.296-1.656 2.328-2.904 3.048-1.248.744-2.64 1.104-4.224 1.104s-3-.36-4.248-1.104c-1.248-.72-2.208-1.752-2.88-3.048-.696-1.296-1.032-2.76-1.032-4.392 0-1.632.336-3.096 1.032-4.392A7.497 7.497 0 0 1 38.6 8.66c1.248-.72 2.664-1.104 4.248-1.104s2.976.384 4.224 1.104a7.716 7.716 0 0 1 2.904 3.048c.672 1.296 1.032 2.76 1.032 4.392 0 1.632-.36 3.096-1.032 4.392Zm-11.784-1.224c.432.936 1.056 1.656 1.872 2.184.816.528 1.728.768 2.784.768 1.032 0 1.944-.24 2.76-.768.816-.528 1.44-1.248 1.896-2.184.432-.936.672-1.992.672-3.168a7.45 7.45 0 0 0-.672-3.144c-.456-.936-1.08-1.656-1.896-2.184-.816-.528-1.728-.792-2.76-.792-1.056 0-1.968.264-2.784.792-.816.528-1.44 1.248-1.872 2.184-.456.936-.672 1.992-.672 3.144 0 1.176.216 2.232.672 3.168Zm15.766-4.776h-2.136v-2.28h2.136V8.78h2.616v3.432h2.952v2.28h-2.952V20.9c0 .48.096.84.288 1.032.192.192.504.288.984.288h1.968v2.28h-2.496c-1.176 0-2.04-.264-2.568-.816-.528-.528-.792-1.368-.792-2.52v-6.672Zm7.247-5.712h2.592v3.432h2.976v2.28h-2.976V20.9c0 .48.096.84.288 1.032.192.192.504.288.984.288h1.968v2.28H64.54c-1.176 0-2.016-.264-2.544-.816-.528-.528-.792-1.368-.792-2.52V8.78Zm7.272 6.288c.504-.96 1.2-1.68 2.112-2.208.912-.528 1.944-.792 3.12-.792 1.176 0 2.208.24 3.12.72.912.48 1.608 1.176 2.136 2.04.528.888.792 1.92.816 3.096 0 .336-.024.648-.072.984h-9.264v.144c.048 1.08.384 1.92 1.008 2.544.6.624 1.416.936 2.424.936.792 0 1.464-.168 2.016-.552.528-.384.888-.912 1.08-1.608h2.592c-.24 1.248-.84 2.28-1.824 3.072-.984.816-2.208 1.2-3.672 1.2-1.296 0-2.4-.24-3.36-.768a5.435 5.435 0 0 1-2.208-2.208c-.528-.936-.768-2.04-.768-3.288 0-1.248.24-2.352.744-3.312Zm8.664 1.944c-.12-.888-.48-1.584-1.08-2.088-.6-.504-1.344-.768-2.256-.768-.864 0-1.584.264-2.208.792-.624.528-.96 1.2-1.056 2.064h6.6Zm11.528-4.8v2.424h-1.152c-1.08 0-1.848.36-2.328 1.056-.48.696-.72 1.584-.72 2.64V24.5h-2.592V12.212h2.304l.288 1.848a3.676 3.676 0 0 1 1.368-1.344c.552-.336 1.296-.504 2.256-.504h.576Zm3.997 6.816c.072 1.008.48 1.8 1.2 2.4.72.6 1.68.888 2.856.888 1.008 0 1.848-.216 2.472-.648.624-.432.96-1.056.96-1.848 0-.552-.192-.984-.528-1.32-.336-.336-.816-.576-1.392-.768-.6-.168-1.44-.36-2.496-.552-1.104-.192-2.04-.432-2.808-.744-.768-.312-1.416-.792-1.896-1.44-.48-.624-.72-1.464-.72-2.52 0-.96.24-1.8.744-2.568.504-.744 1.2-1.32 2.112-1.752.912-.408 1.944-.624 3.12-.624 1.2 0 2.256.24 3.216.672.936.456 1.68 1.08 2.232 1.848a5.2 5.2 0 0 1 .888 2.688h-2.712c-.096-.864-.48-1.56-1.128-2.088-.672-.528-1.488-.792-2.496-.792-.984 0-1.776.216-2.352.648-.576.432-.864 1.008-.864 1.776 0 .552.168.984.504 1.296.336.336.816.576 1.392.72.576.168 1.392.336 2.472.528s2.016.456 2.808.768c.768.336 1.416.792 1.92 1.416.48.624.744 1.464.744 2.472s-.264 1.896-.792 2.664c-.528.792-1.272 1.416-2.208 1.848-.96.432-2.016.648-3.216.648-1.344 0-2.496-.24-3.504-.72s-1.8-1.128-2.376-1.992c-.576-.864-.864-1.848-.864-2.952l2.712.048Zm12.702-3.96c.504-.96 1.2-1.68 2.112-2.208.912-.528 1.944-.792 3.12-.792 1.176 0 2.208.24 3.12.72.912.48 1.608 1.176 2.136 2.04.528.888.792 1.92.816 3.096 0 .336-.024.648-.072.984h-9.264v.144c.048 1.08.384 1.92 1.008 2.544.6.624 1.416.936 2.424.936.792 0 1.464-.168 2.016-.552.528-.384.888-.912 1.08-1.608h2.592c-.24 1.248-.84 2.28-1.824 3.072-.984.816-2.208 1.2-3.672 1.2-1.296 0-2.4-.24-3.36-.768a5.435 5.435 0 0 1-2.208-2.208c-.528-.936-.768-2.04-.768-3.288 0-1.248.24-2.352.744-3.312Zm8.664 1.944c-.12-.888-.48-1.584-1.08-2.088-.6-.504-1.344-.768-2.256-.768-.864 0-1.584.264-2.208.792-.624.528-.96 1.2-1.056 2.064h6.6Zm14.215 6.432c-1.008.816-2.28 1.2-3.816 1.2-1.224 0-2.304-.24-3.216-.768a5.379 5.379 0 0 1-2.16-2.232c-.504-.96-.744-2.064-.744-3.312 0-1.248.24-2.328.768-3.288a5.406 5.406 0 0 1 2.16-2.184c.936-.528 2.016-.792 3.264-.792 1.536 0 2.784.408 3.768 1.224.96.816 1.584 1.896 1.824 3.288h-2.664c-.192-.696-.528-1.248-1.056-1.68-.528-.408-1.176-.624-1.944-.624-1.056 0-1.896.384-2.52 1.128-.624.768-.936 1.728-.936 2.928 0 1.224.312 2.208.936 2.976.624.768 1.464 1.128 2.52 1.128.792 0 1.464-.192 1.992-.624s.864-1.008 1.032-1.728h2.64c-.24 1.44-.864 2.544-1.848 3.36Z"/></svg>