<svg fill="none" height="180" viewBox="0 0 900 180" width="900" xmlns="http://www.w3.org/2000/svg"><g fill="#d1b4f4"><path d="m30 154c0-2.209 1.7909-4 4-4h48c4.4183 0 8 3.582 8 8v14c0 4.418-3.5817 8-8 8h-44c-4.4183 0-8-3.582-8-8z"/><path d="m30 4c0-2.20914 1.7909-4 4-4h108c4.418 0 8 3.58172 8 8v14c0 4.4183-3.582 8-8 8h-104c-4.4183 0-8-3.5817-8-8z"/><path d="m150 34c0-2.2091 1.791-4 4-4h18c4.418 0 8 3.5817 8 8v44c0 4.4183-3.582 8-8 8h-14c-4.418 0-8-3.5817-8-8z"/><path d="m0 34c0-2.2091 1.79086-4 4-4h18c4.4183 0 8 3.5817 8 8v104c0 4.418-3.5817 8-8 8h-14c-4.41828 0-8-3.582-8-8z"/><path d="m90 90h52c4.418 0 8 3.5817 8 8v14c0 4.418-3.582 8-8 8h-44c-4.4183 0-8-3.582-8-8z"/><path d="m150 90h-15s6 0 10.5 4.5 4.5 10.5 4.5 10.5z"/><path d="m150 90h15s-6 0-10.5-4.5-4.5-10.5-4.5-10.5z"/><path d="m150 90v-15s0 6-4.5 10.5-10.5 4.5-10.5 4.5z"/><path d="m30 30h-15s6 0 10.5 4.5 4.5 10.5 4.5 10.5z"/><path d="m30 30h15s-6 0-10.5-4.5-4.5-10.5-4.5-10.5z"/><path d="m30 30v15s0-6 4.5-10.5 10.5-4.5 10.5-4.5z"/><path d="m150 30h-15s6 0 10.5 4.5 4.5 10.5 4.5 10.5z"/><path d="m150 30v-15s0 6-4.5 10.5-10.5 4.5-10.5 4.5z"/><path d="m150 30v15s0-6 4.5-10.5 10.5-4.5 10.5-4.5z"/><path d="m30 150h15s-6 0-10.5-4.5-4.5-10.5-4.5-10.5z"/><path d="m30 150v-15s0 6-4.5 10.5-10.5 4.5-10.5 4.5z"/><path d="m30 150v15s0-6 4.5-10.5 10.5-4.5 10.5-4.5z"/><path d="m870 26c0 2.2091-1.791 4-4 4h-48c-4.418 0-8-3.5817-8-8v-13.99999c0-4.41828 3.582-8.00000507 8-8.00000545l44-.00000385c4.418-.00000039 8 3.5817193 8 7.9999993z"/><path d="m870 176c0 2.209-1.791 4-4 4h-108c-4.418 0-8-3.582-8-8v-14c0-4.418 3.582-8 8-8h104c4.418 0 8 3.582 8 8z"/><path d="m750 146c0 2.209-1.791 4-4 4h-18c-4.418 0-8-3.582-8-8v-44c0-4.4183 3.582-8 8-8h14c4.418 0 8 3.5817 8 8z"/><path d="m900 146c0 2.209-1.791 4-4 4h-18c-4.418 0-8-3.582-8-8v-104c0-4.4183 3.582-8 8-8h14c4.418 0 8 3.5817 8 8z"/><path d="m810 90h-52c-4.418 0-8-3.5817-8-8v-14c0-4.4183 3.582-8 8-8h44c4.418 0 8 3.5817 8 8z"/><path d="m750 90h15s-6 0-10.5-4.5-4.5-10.5-4.5-10.5z"/><path d="m750 90h-15s6 0 10.5 4.5 4.5 10.5 4.5 10.5z"/><path d="m750 90v15s0-6 4.5-10.5 10.5-4.5 10.5-4.5z"/><path d="m870 150h15s-6 0-10.5-4.5-4.5-10.5-4.5-10.5z"/><path d="m870 150h-15s6 0 10.5 4.5 4.5 10.5 4.5 10.5z"/><path d="m870 150v-15s0 6-4.5 10.5-10.5 4.5-10.5 4.5z"/><path d="m750 150h15s-6 0-10.5-4.5-4.5-10.5-4.5-10.5z"/><path d="m750 150v15s0-6 4.5-10.5 10.5-4.5 10.5-4.5z"/><path d="m750 150v-15s0 6-4.5 10.5-10.5 4.5-10.5 4.5z"/><path d="m870 30h-15s6 0 10.5 4.5 4.5 10.5 4.5 10.5z"/><path d="m870 30v15s0-6 4.5-10.5 10.5-4.5 10.5-4.5z"/><path d="m870 30v-15s0 6-4.5 10.5-10.5 4.5-10.5 4.5z"/><path d="m300 56c0 2.2091-1.791 4-4 4h-78c-4.418 0-8-3.5817-8-8v-14c0-4.4183 3.582-8 8-8h74c4.418 0 8 3.5817 8 8z"/><path d="m300 176c0 2.209-1.791 4-4 4h-78c-4.418 0-8-3.582-8-8v-14c0-4.418 3.582-8 8-8h74c4.418 0 8 3.582 8 8z"/><path d="m210 146c0 2.209-1.791 4-4 4h-18c-4.418 0-8-3.582-8-8v-14c0-4.418 3.582-8 8-8h14c4.418 0 8 3.582 8 8z"/><path d="m330 146c0 2.209-1.791 4-4 4h-18c-4.418 0-8-3.582-8-8v-74c0-4.4183 3.582-8 8-8h14c4.418 0 8 3.5817 8 8z"/><path d="m270 120h-52c-4.418 0-8-3.582-8-8v-14c0-4.4183 3.582-8 8-8h44c4.418 0 8 3.5817 8 8z"/><path d="m210 120h15s-6 0-10.5-4.5-4.5-10.5-4.5-10.5z"/><path d="m210 120h-15s6 0 10.5 4.5 4.5 10.5 4.5 10.5z"/><path d="m210 120v15s0-6 4.5-10.5 10.5-4.5 10.5-4.5z"/><path d="m300 150h15s-6 0-10.5-4.5-4.5-10.5-4.5-10.5z"/><path d="m300 150h-15s6 0 10.5 4.5 4.5 10.5 4.5 10.5z"/><path d="m300 150v-15s0 6-4.5 10.5-10.5 4.5-10.5 4.5z"/><path d="m210 150h15s-6 0-10.5-4.5-4.5-10.5-4.5-10.5z"/><path d="m210 150v15s0-6 4.5-10.5 10.5-4.5 10.5-4.5z"/><path d="m210 150v-15s0 6-4.5 10.5-10.5 4.5-10.5 4.5z"/><path d="m300 60h-15s6 0 10.5 4.5 4.5 10.5 4.5 10.5z"/><path d="m300 60v15s0-6 4.5-10.5 10.5-4.5 10.5-4.5z"/><path d="m300 60v-15s0 6-4.5 10.5-10.5 4.5-10.5 4.5z"/><path d="m660 56c0 2.2091-1.791 4-4 4h-78c-4.418 0-8-3.5817-8-8v-14c0-4.4183 3.582-8 8-8h74c4.418 0 8 3.5817 8 8z"/><path d="m660 176c0 2.209-1.791 4-4 4h-78c-4.418 0-8-3.582-8-8v-14c0-4.418 3.582-8 8-8h74c4.418 0 8 3.582 8 8z"/><path d="m570 146c0 2.209-1.791 4-4 4h-18c-4.418 0-8-3.582-8-8v-14c0-4.418 3.582-8 8-8h14c4.418 0 8 3.582 8 8z"/><path d="m690 146c0 2.209-1.791 4-4 4h-18c-4.418 0-8-3.582-8-8v-74c0-4.4183 3.582-8 8-8h14c4.418 0 8 3.5817 8 8z"/><path d="m630 120h-52c-4.418 0-8-3.582-8-8v-14c0-4.4183 3.582-8 8-8h44c4.418 0 8 3.5817 8 8z"/><path d="m570 120h15s-6 0-10.5-4.5-4.5-10.5-4.5-10.5z"/><path d="m570 120h-15s6 0 10.5 4.5 4.5 10.5 4.5 10.5z"/><path d="m570 120v15s0-6 4.5-10.5 10.5-4.5 10.5-4.5z"/><path d="m660 150h15s-6 0-10.5-4.5-4.5-10.5-4.5-10.5z"/><path d="m660 150h-15s6 0 10.5 4.5 4.5 10.5 4.5 10.5z"/><path d="m660 150v-15s0 6-4.5 10.5-10.5 4.5-10.5 4.5z"/><path d="m570 150h15s-6 0-10.5-4.5-4.5-10.5-4.5-10.5z"/><path d="m570 150v15s0-6 4.5-10.5 10.5-4.5 10.5-4.5z"/><path d="m570 150v-15s0 6-4.5 10.5-10.5 4.5-10.5 4.5z"/><path d="m660 60h-15s6 0 10.5 4.5 4.5 10.5 4.5 10.5z"/><path d="m660 60v15s0-6 4.5-10.5 10.5-4.5 10.5-4.5z"/><path d="m660 60v-15s0 6-4.5 10.5-10.5 4.5-10.5 4.5z"/><path d="m390 154c0-2.209 1.791-4 4-4h48c4.418 0 8 3.582 8 8v14c0 4.418-3.582 8-8 8h-44c-4.418 0-8-3.582-8-8z"/><path d="m360 4c0-2.20914 1.791-4 4-4h18c4.418 0 8 3.58172 8 8v134c0 4.418-3.582 8-8 8h-14c-4.418 0-8-3.582-8-8z"/><path d="m390 150h15s-6 0-10.5-4.5-4.5-10.5-4.5-10.5z"/><path d="m390 150v-15s0 6-4.5 10.5-10.5 4.5-10.5 4.5z"/><path d="m390 150v15s0-6 4.5-10.5 10.5-4.5 10.5-4.5z"/><path d="m480 154c0-2.209 1.791-4 4-4h48c4.418 0 8 3.582 8 8v14c0 4.418-3.582 8-8 8h-44c-4.418 0-8-3.582-8-8z"/><path d="m450 4c0-2.20914 1.791-4 4-4h18c4.418 0 8 3.58172 8 8v134c0 4.418-3.582 8-8 8h-14c-4.418 0-8-3.582-8-8z"/><path d="m480 150h15s-6 0-10.5-4.5-4.5-10.5-4.5-10.5z"/><path d="m480 150v-15s0 6-4.5 10.5-10.5 4.5-10.5 4.5z"/><path d="m480 150v15s0-6 4.5-10.5 10.5-4.5 10.5-4.5z"/></g></svg>