<svg width="21" height="19" viewBox="0 0 21 19" fill="none" xmlns="http://www.w3.org/2000/svg">
<path d="M9.49975 7.00224C9.67594 6.50136 10.0237 6.079 10.4815 5.80998C10.9392 5.54095 11.4774 5.4426 12.0008 5.53237C12.5241 5.62213 12.9987 5.89421 13.3407 6.30041C13.6826 6.70661 13.8698 7.22072 13.869 7.75168C13.869 9.25056 11.6207 10 11.6207 10M11.6496 13H11.6596M11.4997 18C16.1942 18 19.9997 14.1944 19.9997 9.5C19.9997 4.80558 16.1942 1 11.4997 1C6.80533 1 2.99975 4.80558 2.99975 9.5C2.99975 10.45 3.15559 11.3636 3.44312 12.2166C3.55132 12.5376 3.60542 12.6981 3.61517 12.8214C3.62481 12.9432 3.61753 13.0286 3.5874 13.1469C3.55689 13.2668 3.48954 13.3915 3.35484 13.6408L1.71918 16.6684C1.48587 17.1002 1.36922 17.3161 1.39532 17.4828C1.41807 17.6279 1.50349 17.7557 1.62892 17.8322C1.77292 17.9201 2.01705 17.8948 2.50529 17.8444L7.62631 17.315C7.78139 17.299 7.85893 17.291 7.92961 17.2937C7.99912 17.2963 8.04819 17.3029 8.11598 17.3185C8.1849 17.3344 8.27157 17.3678 8.4449 17.4345C9.39295 17.7998 10.423 18 11.4997 18Z" stroke="#F6C177" stroke-width="1.5" stroke-linecap="round" stroke-linejoin="round"/>
</svg>
