<svg width="48" height="48" viewBox="0 0 48 48" fill="none" xmlns="http://www.w3.org/2000/svg">
<path d="M28.4993 4L16.9881 4C16.6292 4 16.4497 4 16.2913 4.05465C16.1511 4.10299 16.0235 4.18187 15.9176 4.28558C15.7979 4.40287 15.7176 4.5634 15.5571 4.88446L7.15707 21.6845C6.77371 22.4512 6.58203 22.8345 6.62807 23.1462C6.66827 23.4183 6.81878 23.6618 7.04419 23.8195C7.30232 24 7.73093 24 8.58815 24L20.9993 24L14.9993 44L39.3855 18.7106C40.2082 17.8574 40.6196 17.4308 40.6436 17.0658C40.6645 16.7489 40.5337 16.441 40.2911 16.2361C40.0116 16 39.419 16 38.2337 16L23.9993 16L28.4993 4Z" stroke="#D1B4F4" stroke-width="2" stroke-linecap="round" stroke-linejoin="round"/>
</svg>
